<?xml version="1.0" encoding="utf-8"?>
<!-- Generator: Adobe Illustrator 21.0.0, SVG Export Plug-In . SVG Version: 6.00 Build 0)  -->
<svg version="1.1" id="Layer_1" xmlns="http://www.w3.org/2000/svg" xmlns:xlink="http://www.w3.org/1999/xlink" x="0px" y="0px"
	 viewBox="0 0 192 192" style="enable-background:new 0 0 192 192;" xml:space="preserve">
<style type="text/css">
	.st0{fill:#AAAAAA;stroke:#767474;stroke-width:2;stroke-miterlimit:10;}
	.st1{fill:#FFFFFF;stroke:#767474;stroke-width:2;stroke-miterlimit:10;}
	.st2{fill:#212121;}
	.st3{fill:#E46E2E;}
	.st4{fill:#FFFFFF;}
	.st5{fill:none;stroke:#767474;stroke-width:2;stroke-miterlimit:10;}
	.st6{fill:#767677;}
	.st7{fill:#F37726;}
	.st8{fill:#989798;}
	.st9{fill:#6F7070;}
</style>
<title>Jupyter-02</title>
<rect x="8" y="32" class="st0" width="176" height="128"/>
<rect x="16" y="40" class="st1" width="160" height="112"/>
<path class="st2" d="M55.2,98.1l-18.5,12v-6.4l12.7-8v-0.2l-12.7-8v-6.4l18.5,12V98.1z"/>
<path class="st3" d="M86.7,113.2v5.3h-23v-5.3H86.7z"/>
<image style="overflow:visible;opacity:0.1;enable-background:new    ;" width="130" height="130" xlink:href="B5F11E1E62B16C21.png"  transform="matrix(1 0 0 1 67 -2)">
</image>
<circle class="st4" cx="132" cy="61" r="40"/>
<circle class="st5" cx="132" cy="61" r="40"/>
<path class="st6" d="M151.1,37.8c0.1,1.3-0.6,2.5-1.8,3c-1.1,0.5-2.5,0.3-3.4-0.5c-1.3-1.2-1.3-3.2-0.2-4.5c0.1-0.1,0.3-0.3,0.4-0.4
	c1.2-0.9,2.9-0.8,3.9,0.2C150.7,36.2,151.1,37,151.1,37.8z"/>
<path class="st7" d="M133,74.6c-8.3,0-15.5-3-19.2-7.5c1.4,4,4,7.5,7.4,10c7.1,5.1,16.6,5.1,23.6,0c3.5-2.5,6.1-6,7.4-10
	C148.5,71.6,141.3,74.6,133,74.6z"/>
<path class="st7" d="M133,45.5c8.3,0,15.5,3,19.2,7.5c-1.4-4-4-7.5-7.4-10c-7.1-5.1-16.6-5.1-23.6,0c-3.5,2.5-6.1,6-7.4,10
	C117.5,48.5,124.7,45.5,133,45.5z"/>
<path class="st8" d="M121.7,83.4c0,0.8-0.2,1.6-0.6,2.2c-0.4,0.7-1,1.2-1.7,1.5c-1.4,0.7-3.1,0.4-4.3-0.7c-1.6-1.5-1.7-4-0.2-5.7
	c0.2-0.2,0.3-0.3,0.5-0.4c1.5-1.1,3.6-1,5,0.3C121.2,81.3,121.7,82.3,121.7,83.4L121.7,83.4L121.7,83.4z"/>
<path class="st9" d="M114.7,44.4c-0.5,0-0.9-0.1-1.3-0.3c-1.1-0.7-1.4-2.1-0.8-3.2s2.1-1.4,3.2-0.8c1.1,0.7,1.4,2.1,0.8,3.2
	C116.2,44,115.5,44.4,114.7,44.4L114.7,44.4L114.7,44.4z"/>
</svg>
