<?xml version="1.0" encoding="utf-8"?>
<!-- Generator: Adobe Illustrator 21.0.0, SVG Export Plug-In . SVG Version: 6.00 Build 0)  -->
<svg version="1.1" id="Layer_1" xmlns="http://www.w3.org/2000/svg" xmlns:xlink="http://www.w3.org/1999/xlink" x="0px" y="0px"
	 viewBox="0 0 192 192" style="enable-background:new 0 0 192 192;" xml:space="preserve">
<style type="text/css">
	.st0{fill:#EEEEEE;stroke:#767474;stroke-width:2;stroke-miterlimit:10;}
	.st1{fill:#FFFFFF;}
	.st2{fill:#767474;}
	.st3{fill:#E46E2E;}
	.st4{fill:#FFFFFF;stroke:#767474;stroke-width:2;stroke-linejoin:bevel;}
	.st5{fill:#767677;}
	.st6{fill:#F37726;}
	.st7{fill:#989798;}
	.st8{fill:#6F7070;}
</style>
<title>notebook-01</title>
<polygon class="st0" points="160,48 160,184 32,184 32,8 120,8 "/>
<circle class="st1" cx="96" cy="96" r="40"/>
<path class="st2" d="M114.9,73.5c0.1,2.1-1.6,3.9-3.7,4s-3.9-1.6-4-3.7c-0.1-2.1,1.6-3.9,3.7-4c2.1-0.1,3.9,1.4,4,3.5
	C114.9,73.4,114.9,73.4,114.9,73.5"/>
<path class="st3" d="M96.6,111.2c-8.4,0-15.8-3.1-19.6-7.6c3.8,10.8,15.6,16.5,26.5,12.7c6-2.1,10.6-6.8,12.7-12.7
	C112.4,108.2,105.1,111.2,96.6,111.2"/>
<path class="st3" d="M96.6,81.8c8.4,0,15.8,3.1,19.6,7.6c-3.8-10.8-15.6-16.5-26.5-12.7c-6,2.1-10.6,6.8-12.7,12.7
	C80.8,84.8,88.2,81.8,96.6,81.8"/>
<path class="st2" d="M86.7,120.2c0.1,2.5-1.9,4.6-4.4,4.7c-2.5,0.1-4.6-1.9-4.7-4.4c-0.1-2.5,1.9-4.6,4.4-4.7
	C84.5,115.7,86.6,117.6,86.7,120.2C86.7,120.1,86.7,120.2,86.7,120.2"/>
<path class="st2" d="M78.7,80c-1.5,0.1-2.8-1.1-2.9-2.7c0,0,0,0,0,0c-0.1-1.5,1-2.8,2.5-2.9c0.1,0,0.2,0,0.2,0
	c1.5-0.1,2.8,1.1,2.9,2.7c0,0,0,0,0,0C81.4,78.6,80.2,79.9,78.7,80z"/>
<polygon class="st4" points="160,48 120,48 120,8 "/>
<polygon class="st0" points="160,48 160,184 32,184 32,8 120,8 "/>
<image style="overflow:visible;" width="128" height="128" xlink:href="DB4FE90D34500489.png"  transform="matrix(1 0 0 1 32 34)">
</image>
<circle class="st1" cx="96" cy="96" r="40"/>
<polygon class="st4" points="160,48 120,48 120,8 "/>
<path class="st5" d="M115.1,72.8c0.1,1.3-0.6,2.5-1.8,3c-1.1,0.5-2.5,0.3-3.4-0.5c-1.3-1.2-1.3-3.2-0.2-4.5c0.1-0.1,0.3-0.3,0.4-0.4
	c1.2-0.9,2.9-0.8,3.9,0.2C114.7,71.2,115.1,72,115.1,72.8z"/>
<path class="st6" d="M97,109.6c-8.3,0-15.5-3-19.2-7.5c1.4,4,4,7.5,7.4,10c7.1,5.1,16.6,5.1,23.6,0c3.5-2.5,6.1-6,7.4-10
	C112.5,106.6,105.3,109.6,97,109.6z"/>
<path class="st6" d="M97,80.4c8.3,0,15.5,3,19.2,7.5c-1.4-4-4-7.5-7.4-10c-7.1-5.1-16.6-5.1-23.6,0c-3.5,2.5-6.1,6-7.4,10
	C81.5,83.5,88.7,80.4,97,80.4z"/>
<path class="st7" d="M85.7,118.4c0,0.8-0.2,1.6-0.6,2.2c-0.4,0.7-1,1.2-1.7,1.5c-1.4,0.7-3.1,0.4-4.3-0.7c-1.6-1.5-1.7-4-0.2-5.7
	c0.2-0.2,0.3-0.3,0.5-0.4c1.5-1.1,3.6-1,5,0.3C85.2,116.3,85.7,117.3,85.7,118.4L85.7,118.4L85.7,118.4z"/>
<path class="st8" d="M78.7,79.4c-0.5,0-0.9-0.1-1.3-0.3c-1.1-0.7-1.4-2.1-0.8-3.2c0.7-1.1,2.1-1.4,3.2-0.8c1.1,0.7,1.4,2.1,0.8,3.2
	C80.2,79,79.5,79.4,78.7,79.4L78.7,79.4L78.7,79.4z"/>
</svg>
