<?xml version="1.0" encoding="utf-8"?>
<!-- Generator: Adobe Illustrator 21.0.0, SVG Export Plug-In . SVG Version: 6.00 Build 0)  -->
<svg version="1.1" id="Layer_1" xmlns="http://www.w3.org/2000/svg" xmlns:xlink="http://www.w3.org/1999/xlink" x="0px" y="0px"
	 viewBox="0 0 192 192" style="enable-background:new 0 0 192 192;" xml:space="preserve">
<style type="text/css">
	.st0{fill:#FFFFFF;}
	.st1{fill:#767474;}
	.st2{fill:#E46E2E;}
	.st3{fill:#F37726;}
</style>
<title>notebook-01</title>
<circle class="st0" cx="96" cy="96" r="40"/>
<path class="st1" d="M114.9,73.5c0.1,2.1-1.6,3.9-3.7,4s-3.9-1.6-4-3.7c-0.1-2.1,1.6-3.9,3.7-4c2.1-0.1,3.9,1.4,4,3.5
	C114.9,73.4,114.9,73.4,114.9,73.5"/>
<path class="st2" d="M96.6,111.2c-8.4,0-15.8-3.1-19.6-7.6c3.8,10.8,15.6,16.5,26.5,12.7c6-2.1,10.6-6.8,12.7-12.7
	C112.4,108.2,105.1,111.2,96.6,111.2"/>
<path class="st2" d="M96.6,81.8c8.4,0,15.8,3.1,19.6,7.6c-3.8-10.8-15.6-16.5-26.5-12.7c-6,2.1-10.6,6.8-12.7,12.7
	C80.8,84.8,88.2,81.8,96.6,81.8"/>
<path class="st1" d="M86.7,120.2c0.1,2.5-1.9,4.6-4.4,4.7c-2.5,0.1-4.6-1.9-4.7-4.4c-0.1-2.5,1.9-4.6,4.4-4.7
	C84.5,115.7,86.6,117.6,86.7,120.2C86.7,120.1,86.7,120.2,86.7,120.2"/>
<path class="st1" d="M78.7,80c-1.5,0.1-2.8-1.1-2.9-2.7c0,0,0,0,0,0c-0.1-1.5,1-2.8,2.5-2.9c0.1,0,0.2,0,0.2,0
	c1.5-0.1,2.8,1.1,2.9,2.7c0,0,0,0,0,0C81.4,78.6,80.2,79.9,78.7,80z"/>
<g id="Layer_1_1_">
	<rect x="26.2" y="10.2" class="st3" width="139.7" height="173.6"/>
	<g>
	</g>
</g>
<rect x="133.5" y="10.2" class="st0" width="15" height="173.6"/>
<polygon class="st0" points="71.4,64 56,51.5 40.6,64 40.6,21.9 71.4,21.9 "/>
</svg>
