<?xml version="1.0" encoding="utf-8"?>
<!-- Generator: Adobe Illustrator 21.0.0, SVG Export Plug-In . SVG Version: 6.00 Build 0)  -->
<svg version="1.1" id="Layer_1" xmlns="http://www.w3.org/2000/svg" xmlns:xlink="http://www.w3.org/1999/xlink" x="0px" y="0px"
	 viewBox="0 0 190 190" style="enable-background:new 0 0 190 190;" xml:space="preserve">
<style type="text/css">
	.st0{fill:#AAAAAA;}
	.st1{fill:#E36F2D;}
</style>
<title>console</title>
<g>
	<path class="st0" d="M151.5,17.9V172H38.1V17.9H151.5 M159.5,9.9H30.1V180h129.4V9.9L159.5,9.9z"/>
</g>
<rect x="120.1" y="9.9" class="st1" width="19.9" height="170.1"/>
<g>
	<path class="st0" d="M49.9,29.9V40H25.8C22.6,40,20,37.8,20,35v0c0-2.8,2.6-5.1,5.7-5.1H49.9z"/>
	<path class="st0" d="M49.3,150.1v10.1H26.1c-3,0-5.5-2.3-5.5-5v0c0-2.8,2.5-5,5.5-5H49.3z"/>
	<path class="st0" d="M49.9,70v10.1H25.8c-3.2,0-5.7-2.3-5.7-5v0c0-2.8,2.6-5,5.7-5H49.9z"/>
	<path class="st0" d="M49.9,110v10.1H25.8c-3.2,0-5.7-2.3-5.7-5v0c0-2.8,2.6-5,5.7-5H49.9z"/>
</g>
</svg>
