<?xml version="1.0" encoding="utf-8"?>
<!-- Generator: Adobe Illustrator 21.0.0, SVG Export Plug-In . SVG Version: 6.00 Build 0)  -->
<svg version="1.1" id="Layer_1" xmlns="http://www.w3.org/2000/svg" xmlns:xlink="http://www.w3.org/1999/xlink" x="0px" y="0px"
	 viewBox="0 0 192 192" style="enable-background:new 0 0 192 192;" xml:space="preserve">
<style type="text/css">
	.st0{fill:#212121;}
	.st1{fill:#FFFFFF;}
	.st2{fill:#EF6C00;}
</style>
<g id="Layer_1_1_">
	<rect x="16.7" y="16.3" class="st0" width="159.3" height="159.3"/>
	<g>
		<path class="st1" d="M67.5,83.8c-1.6-1.3-3.2-2.3-4.6-3c-1.4-0.7-3.2-1-5-1c-3.2,0-4.7,1.2-4.7,3.6c0,1,0.4,1.8,1.4,2.3
			c1,0.7,2.3,1.3,3.7,2c1.4,0.7,3.2,1.3,4.9,2c1.7,0.7,3.3,1.6,4.9,2.8c1.4,1.2,2.7,2.5,3.7,4.1c1,1.6,1.4,3.6,1.4,5.9
			c0,3.3-1,6.3-3,8.7c-2,2.5-4.9,4.1-8.8,4.8V128h-6.7v-11.5c-2.3-0.3-4.6-1-6.9-2c-2.4-1.2-4.5-2.5-6.2-4.3l4.5-7.9
			c2.2,1.5,4.3,2.8,6.2,3.6c2,0.8,4,1.3,6.2,1.3c1.7,0,2.9-0.3,3.7-1s1.3-1.5,1.3-2.6c0-1.2-0.4-2-1.4-2.8c-1-0.7-2.3-1.5-3.7-2.1
			s-3.2-1.3-4.9-2.1c-1.7-0.7-3.3-1.6-4.9-2.8c-1.4-1.2-2.7-2.5-3.7-4.1c-1-1.6-1.4-3.6-1.4-6.1c0-3.5,1-6.3,3-8.6
			c2-2.3,4.7-3.8,8.3-4.3V60.2h6.7v10.2c2.4,0.3,4.5,1.2,6.2,2.3c1.7,1.2,3.3,2.5,4.7,4.3L67.5,83.8z"/>
	</g>
	<path class="st2" d="M118.1,128v10.2H73.9V128H118.1z"/>
</g>
</svg>
