<?xml version="1.0" encoding="utf-8"?>
<!-- Generator: Adobe Illustrator 21.0.0, SVG Export Plug-In . SVG Version: 6.00 Build 0)  -->
<svg version="1.1" id="Layer_1" xmlns="http://www.w3.org/2000/svg" xmlns:xlink="http://www.w3.org/1999/xlink" x="0px" y="0px"
	 viewBox="0 0 192 192" style="enable-background:new 0 0 192 192;" xml:space="preserve">
<style type="text/css">
	.st0{fill:#424242;}
	.st1{fill:#FFFFFF;}
	.st2{fill:#EF6C00;}
</style>
<g id="Layer_1_1_">
	<rect x="16.7" y="16.3" class="st0" width="159.3" height="159.3"/>
</g>
<g>
	<path class="st1" d="M77.1,78.7c-1.8-1.5-3.7-2.6-5.3-3.4c-1.6-0.8-3.7-1.1-5.8-1.1c-3.7,0-5.4,1.4-5.4,4.2c0,1.1,0.5,2.1,1.6,2.6
		c1.2,0.8,2.7,1.5,4.3,2.3c1.6,0.8,3.7,1.5,5.6,2.3c2,0.8,3.8,1.8,5.7,3.2c1.6,1.4,3.1,2.9,4.3,4.7c1.2,1.8,1.6,4.1,1.7,6.8
		c0,3.8-1.1,7.2-3.4,10c-2.3,2.9-5.6,4.7-10.1,5.6l0.1,13.8l-7.7,0.1l-0.1-13.2c-2.6-0.3-5.3-1.1-7.9-2.2c-2.8-1.4-5.2-2.8-7.2-4.9
		l5.1-9.1c2.5,1.7,5,3.2,7.2,4.1c2.3,0.9,4.6,1.5,7.1,1.4c2,0,3.3-0.4,4.2-1.2c0.9-0.8,1.5-1.7,1.5-3c0-1.4-0.5-2.3-1.6-3.2
		c-1.2-0.8-2.7-1.7-4.3-2.4c-1.6-0.7-3.7-1.5-5.6-2.4c-2-0.8-3.8-1.8-5.7-3.2c-1.6-1.4-3.1-2.9-4.3-4.7c-1.2-1.8-1.6-4.1-1.7-7
		c0-4,1.1-7.2,3.4-9.9c2.3-2.7,5.4-4.4,9.5-5l-0.1-12.1l7.7-0.1l0.1,11.7c2.8,0.3,5.2,1.3,7.1,2.6c2,1.4,3.8,2.8,5.4,4.9L77.1,78.7z
		"/>
</g>
<path class="st2" d="M140.5,121.6v13.3H96.3v-13.3H140.5z"/>
</svg>
