<?xml version="1.0" encoding="utf-8"?>
<!-- Generator: Adobe Illustrator 21.0.0, SVG Export Plug-In . SVG Version: 6.00 Build 0)  -->
<svg version="1.1" id="Layer_1" xmlns="http://www.w3.org/2000/svg" xmlns:xlink="http://www.w3.org/1999/xlink" x="0px" y="0px"
	 viewBox="0 0 192 192" style="enable-background:new 0 0 192 192;" xml:space="preserve">
<style type="text/css">
	.st0{fill:#212121;}
	.st1{fill:#E36F2D;}
	.st2{fill:#FFFFFF;}
</style>
<title>console</title>
<g>
	<rect x="17.7" y="42" class="st0" width="156.4" height="108"/>
	<path class="st0" d="M169.1,47v98H22.7V47H169.1 M179.1,37H12.7v118h166.4V37L179.1,37z"/>
</g>
<path class="st1" d="M111.3,116v7.7H78.1V116H111.3z"/>
<g>
	<path class="st2" d="M63.6,90.5c-1.4-1-2.7-1.7-4-2.2c-1.2-0.5-2.7-0.7-4.3-0.7c-2.7,0-4.1,0.9-4.1,2.7c0,0.7,0.4,1.4,1.2,1.7
		c0.9,0.5,2,1,3.2,1.5s2.7,1,4.2,1.5s2.8,1.2,4.2,2.1c1.2,0.9,2.3,1.9,3.2,3.1c0.9,1.2,1.2,2.7,1.2,4.4c0,2.5-0.9,4.7-2.6,6.6
		s-4.2,3.1-7.5,3.6v8.9h-5.8V115c-2-0.2-4-0.7-5.9-1.5c-2.1-0.9-3.8-1.9-5.3-3.2l3.8-5.9c1.9,1.1,3.7,2.1,5.3,2.7
		c1.7,0.6,3.5,1,5.3,1c1.5,0,2.5-0.2,3.2-0.7s1.1-1.1,1.1-2s-0.4-1.5-1.2-2.1c-0.9-0.5-2-1.1-3.2-1.6s-2.7-1-4.2-1.6
		c-1.5-0.5-2.8-1.2-4.2-2.1c-1.2-0.9-2.3-1.9-3.2-3.1s-1.2-2.7-1.2-4.6c0-2.6,0.9-4.7,2.6-6.4c1.7-1.7,4.1-2.8,7.2-3.2v-7.8h5.8v7.7
		c2.1,0.2,3.8,0.9,5.3,1.7c1.5,0.9,2.8,1.9,4.1,3.2L63.6,90.5z"/>
</g>
</svg>
