<?xml version="1.0" encoding="utf-8"?>
<!-- Generator: Adobe Illustrator 21.0.0, SVG Export Plug-In . SVG Version: 6.00 Build 0)  -->
<svg version="1.1" id="Layer_1" xmlns="http://www.w3.org/2000/svg" xmlns:xlink="http://www.w3.org/1999/xlink" x="0px" y="0px"
	 viewBox="0 0 192 192" style="enable-background:new 0 0 192 192;" xml:space="preserve">
<style type="text/css">
	.st0{fill:#212121;}
	.st1{fill:#FFFFFF;}
	.st2{fill:#E46E2E;}
</style>
<g id="Layer_1_1_">
	<rect x="9.2" y="27.2" class="st0" width="173.6" height="139.7"/>
	<g>
		<path class="st1" d="M59.4,85.4c-1.3-1.1-2.6-1.9-3.8-2.4c-1.2-0.5-2.6-0.8-4.1-0.8c-2.6,0-3.9,1-3.9,3c0,0.8,0.4,1.5,1.2,1.9
			c0.8,0.5,1.9,1.1,3.1,1.6c1.2,0.5,2.6,1.1,4,1.6c1.4,0.5,2.7,1.4,4,2.3c1.2,1,2.2,2,3.1,3.4c0.8,1.4,1.2,3,1.2,4.9
			c0,2.7-0.8,5.2-2.5,7.2c-1.7,2-4,3.4-7.2,3.9v9.8h-5.6v-9.5c-1.9-0.3-3.8-0.8-5.7-1.6c-2-1-3.7-2-5.1-3.5l3.7-6.5
			c1.8,1.2,3.6,2.3,5.1,3c1.7,0.7,3.3,1.1,5.1,1.1c1.4,0,2.4-0.3,3.1-0.8s1.1-1.2,1.1-2.2c0-1-0.4-1.6-1.2-2.3
			c-0.8-0.5-1.9-1.2-3.1-1.8s-2.6-1.1-4-1.8c-1.4-0.5-2.7-1.4-4-2.3c-1.2-1-2.2-2-3.1-3.4c-0.8-1.4-1.2-3-1.2-5
			c0-2.9,0.8-5.2,2.5-7.1c1.7-1.9,3.9-3.1,6.9-3.5V66h5.6v8.4c2,0.3,3.7,1,5.1,1.9c1.4,1,2.7,2,3.9,3.5L59.4,85.4z"/>
	</g>
	<path class="st2" d="M113,117.9v7.5H80.4v-7.5H113z"/>
</g>
</svg>
