<?xml version="1.0" encoding="utf-8"?>
<!-- Generator: Adobe Illustrator 21.0.0, SVG Export Plug-In . SVG Version: 6.00 Build 0)  -->
<svg version="1.1" id="Layer_1" xmlns="http://www.w3.org/2000/svg" xmlns:xlink="http://www.w3.org/1999/xlink" x="0px" y="0px"
	 viewBox="0 0 200 200" style="enable-background:new 0 0 200 200;" xml:space="preserve">
<style type="text/css">
	.st0{fill:#424242;}
	.st1{fill:#FFFFFF;}
	.st2{display:none;}
	.st3{display:inline;fill:none;stroke:#9E9E9E;stroke-width:0.25;stroke-miterlimit:10;}
</style>
<g id="Layer_1_1_">
	<rect x="20" y="20" class="st0" width="160" height="160"/>
</g>
<rect x="110" y="127.2" class="st1" width="40" height="12.8"/>
<g>
	<path class="st1" d="M68.9,145.4v-10.6c-7.5-0.3-14.7-2.3-18.9-4.8l3.3-13c4.7,2.6,11.2,4.9,18.5,4.9c6.3,0,10.7-2.4,10.7-6.9
		c0-4.2-3.6-6.9-11.8-9.7c-11.9-4-20-9.6-20-20.4c0-9.8,6.9-17.5,18.8-19.8V54.6h10.9v9.8c7.5,0.3,12.5,1.9,16.1,3.7l-3.2,12.6
		c-2.9-1.2-8-3.8-16-3.8c-7.2,0-9.6,3.1-9.6,6.2c0,3.7,3.9,6,13.4,9.6c13.2,4.7,18.6,10.8,18.6,20.8c0,9.9-7,18.4-19.8,20.6v11.4
		L68.9,145.4L68.9,145.4z"/>
</g>
<g class="st2">
	<line class="st3" x1="100" y1="0" x2="100" y2="200"/>
	<path class="st3" d="M195.9,100"/>
	<path class="st3" d="M4,100"/>
	<line class="st3" x1="0" y1="200" x2="200" y2="0"/>
	<line class="st3" x1="100" y1="0" x2="200" y2="100"/>
	<line class="st3" x1="0" y1="100" x2="100" y2="199.9"/>
	<line class="st3" x1="200" y1="100" x2="100" y2="200"/>
	<line class="st3" x1="100" y1="0.1" x2="0" y2="100"/>
	<line class="st3" x1="130" y1="0" x2="130" y2="200"/>
	<line class="st3" x1="70" y1="0" x2="70" y2="200"/>
	<line class="st3" x1="30" y1="0" x2="30" y2="200"/>
	<line class="st3" x1="170" y1="0" x2="170" y2="200"/>
	<line class="st3" x1="200" y1="100" x2="0" y2="100"/>
	<line class="st3" x1="200" y1="130" x2="0" y2="130"/>
	<line class="st3" x1="200" y1="70" x2="0" y2="70"/>
	<line class="st3" x1="200" y1="30" x2="0" y2="30"/>
	<line class="st3" x1="200" y1="170" x2="0" y2="170"/>
	<line class="st3" x1="20" y1="0.1" x2="20" y2="200.1"/>
	<line class="st3" x1="180" y1="0" x2="180" y2="200"/>
	<line class="st3" x1="0" y1="180" x2="200" y2="180"/>
	<line class="st3" x1="0" y1="20" x2="200" y2="20"/>
	<line class="st3" x1="160" y1="0" x2="160" y2="200"/>
	<line class="st3" x1="100" y1="15" x2="185" y2="100"/>
	<line class="st3" x1="15" y1="100" x2="100" y2="185"/>
	<line class="st3" x1="185" y1="100" x2="100" y2="185"/>
	<line class="st3" x1="100" y1="15" x2="15" y2="100"/>
	<line class="st3" x1="0" y1="0" x2="200" y2="200"/>
	<line class="st3" x1="60" y1="0" x2="60" y2="200"/>
	<line class="st3" x1="140" y1="0" x2="140" y2="200"/>
	<line class="st3" x1="0" y1="140" x2="200" y2="140"/>
	<line class="st3" x1="0" y1="60" x2="200" y2="60"/>
	<line class="st3" x1="190" y1="200" x2="0" y2="10"/>
	<line class="st3" x1="10" y1="0" x2="200" y2="190"/>
	<path class="st3" d="M200,200"/>
	<path class="st3" d="M0,0"/>
	<line class="st3" x1="190" y1="200" x2="0" y2="10"/>
	<line class="st3" x1="10" y1="0" x2="200" y2="190"/>
	<line class="st3" x1="0" y1="190" x2="190" y2="0"/>
	<line class="st3" x1="200" y1="10" x2="10" y2="200"/>
	<line class="st3" x1="40" y1="0" x2="40" y2="200"/>
	<line class="st3" x1="200" y1="160" x2="0" y2="160"/>
	<line class="st3" x1="200" y1="40" x2="0" y2="40"/>
	
		<rect x="71.7" y="71.7" transform="matrix(0.7071 -0.7071 0.7071 0.7071 -41.4167 100.0406)" class="st3" width="56.7" height="56.7"/>
	<line class="st3" x1="0" y1="150" x2="200" y2="150"/>
	<line class="st3" x1="150" y1="200" x2="150" y2="0"/>
	<line class="st3" x1="50" y1="200" x2="50" y2="0"/>
	<line class="st3" x1="200" y1="50" x2="0" y2="50"/>
	<line class="st3" x1="110" y1="0" x2="110" y2="200"/>
	<line class="st3" x1="120" y1="0" x2="120" y2="200"/>
	<line class="st3" x1="80" y1="200" x2="80" y2="0"/>
	<line class="st3" x1="90" y1="200" x2="90" y2="0"/>
	<line class="st3" x1="0" y1="70" x2="200" y2="70"/>
	<line class="st3" x1="0" y1="130" x2="200" y2="130"/>
	<line class="st3" x1="0" y1="90" x2="200" y2="90"/>
	<line class="st3" x1="0" y1="80" x2="200" y2="80"/>
	<line class="st3" x1="200" y1="120" x2="0" y2="120"/>
	<line class="st3" x1="200" y1="110" x2="0" y2="110"/>
	<line class="st3" x1="10" y1="0.1" x2="10" y2="200.1"/>
	<line class="st3" x1="190" y1="0.1" x2="190" y2="200.1"/>
	<line class="st3" x1="0" y1="10" x2="200" y2="10"/>
	<line class="st3" x1="0" y1="190" x2="200" y2="190"/>
</g>
</svg>
