<?xml version="1.0" encoding="utf-8"?>
<!-- Generator: Adobe Illustrator 21.0.0, SVG Export Plug-In . SVG Version: 6.00 Build 0)  -->
<svg version="1.1" id="Layer_1" xmlns="http://www.w3.org/2000/svg" xmlns:xlink="http://www.w3.org/1999/xlink" x="0px" y="0px"
	 viewBox="0 0 192 192" style="enable-background:new 0 0 192 192;" xml:space="preserve">
<style type="text/css">
	.st0{fill:#616161;}
	.st1{fill:#FFFFFF;}
</style>
<g id="Layer_1_1_">
	<g>
		<g>
			<circle class="st0" cx="96" cy="96" r="96"/>
		</g>
	</g>
	<g>
		<path class="st1" d="M79.4,107.5h-24l-5.5,19.7H37L60.4,55h15.1l23.3,72.2H85.2L79.4,107.5z M76.3,97.7l-2.5-8.9
			c-0.9-3.7-2.2-7.7-3.1-12c-1.2-4-2.2-8-3.1-12h-0.3c-0.9,4-2.2,8-3.1,12c-0.9,4-2.2,8-3.4,11.7l-2.5,8.9L76.3,97.7L76.3,97.7z"/>
		<path class="st1" d="M104.3,112.8c0-3.1,0.6-5.8,2.2-8c1.5-2.5,3.7-4.3,6.8-5.8c3.1-1.5,6.8-3.1,11.7-4s10.4-1.8,17.2-2.2
			c-0.3-3.1-1.2-5.5-3.4-7.7c-1.8-1.8-5.2-3.1-9.5-3.1c-3.1,0-6.1,0.6-9.2,1.8c-3.1,1.2-5.8,2.5-8.6,4l-4.6-8.6
			c3.4-1.8,7.1-3.7,11.4-5.2c4.3-1.5,8.6-2.5,13.5-2.5c7.7,0,13.5,2.2,17.5,6.1c4,4,5.8,9.8,5.8,17.5v32.3h-10.4l-0.9-6.8h-0.3
			c-2.8,2.2-6.1,4-9.5,5.8c-3.4,1.8-7.1,2.5-10.8,2.5c-2.8,0-5.2-0.3-7.4-1.2c-2.2-0.9-4-1.8-5.8-3.4c-1.5-1.5-2.8-3.1-3.7-4.9
			C104.6,117.1,104.3,114.9,104.3,112.8z M116.6,111.5c0,2.5,0.9,4.3,2.8,5.2c1.8,1.2,4.3,1.5,6.8,1.5c2.5,0,5.2-0.6,8-1.8
			c2.5-1.2,4.9-2.8,7.7-4.9v-11.4c-4.9,0.3-8.9,0.9-12.3,1.5c-3.4,0.6-5.8,1.5-7.7,2.5s-3.4,2.2-4,3.4
			C116.9,108.8,116.6,110.3,116.6,111.5z"/>
	</g>
</g>
</svg>
