<?xml version="1.0" encoding="utf-8"?>
<!-- Generator: Adobe Illustrator 21.0.0, SVG Export Plug-In . SVG Version: 6.00 Build 0)  -->
<svg version="1.1" id="Layer_1" xmlns="http://www.w3.org/2000/svg" xmlns:xlink="http://www.w3.org/1999/xlink" x="0px" y="0px"
	 viewBox="0 0 192 192" style="enable-background:new 0 0 192 192;" xml:space="preserve">
<style type="text/css">
	.st0{fill:#FFFFFF;}
	.st1{fill:#616161;}
	.st2{fill:#607D8B;}
	.st3{fill:none;}
	.st4{font-family:'MyriadPro-Regular';}
	.st5{font-size:66px;}
	.st6{letter-spacing:3;}
	.st7{letter-spacing:1;}
</style>
<path class="st0" d="M130.6,32.8L130.6,32.8v6.9v20.4h21.3h7.1l0,0L130.6,32.8L130.6,32.8z"/>
<g>
	<g>
		<polygon class="st1" points="175.6,69 175.6,69.1 175.7,69.1 175.6,69 		"/>
	</g>
	<g>
		<polygon class="st1" points="122.8,16.2 122.8,16.3 122.9,16.3 122.8,16.2 		"/>
	</g>
	<path class="st2" d="M118,16.3H16.3v159.4h159.3V73.9L118,16.3L118,16.3z"/>
</g>
<rect x="52.8" y="80.9" class="st3" width="82.3" height="53.5"/>
<text transform="matrix(1 0 0 1 52.783 127.7197)"><tspan x="0" y="0" class="st0 st4 st5 st6">A</tspan><tspan x="43.4" y="0" class="st0 st4 st5 st7">a</tspan></text>
<polygon class="st0" points="117.1,34 158.4,75.3 117.1,75.3 "/>
</svg>
