<?xml version="1.0" encoding="utf-8"?>
<!-- Generator: Adobe Illustrator 21.0.0, SVG Export Plug-In . SVG Version: 6.00 Build 0)  -->
<svg version="1.1" id="Layer_1" xmlns="http://www.w3.org/2000/svg" xmlns:xlink="http://www.w3.org/1999/xlink" x="0px" y="0px"
	 viewBox="0 0 190 190" style="enable-background:new 0 0 190 190;" xml:space="preserve">
<style type="text/css">
	.st0{fill:#E46E2E;}
	.st1{fill:#FFFFFF;}
	.st2{fill:#FFFFFF;stroke:#AAAAAA;stroke-width:8;stroke-miterlimit:10;}
	.st3{fill:none;stroke:#AAAAAA;stroke-width:3;stroke-miterlimit:10;}
	.st4{fill:none;}
	.st5{fill:#AAAAAA;}
</style>
<g>
	<circle class="st0" cx="94.6" cy="100.4" r="40.4"/>
	<path class="st1" d="M87.2,105.3h-9.5l-2.2,7.8h-5.1l9.3-28.6h6l9.3,28.6h-5.3L87.2,105.3z M86,101.4l-1-3.6
		c-0.4-1.4-0.9-3-1.3-4.7c-0.5-1.5-0.9-3.2-1.3-4.7h-0.1c-0.4,1.5-0.9,3.2-1.3,4.7c-0.4,1.5-0.9,3.2-1.4,4.6l-1,3.6L86,101.4
		L86,101.4z"/>
	<path class="st1" d="M98.8,107.4c0-1.3,0.3-2.3,0.9-3.2c0.6-1,1.4-1.7,2.7-2.3c1.3-0.6,2.7-1.3,4.6-1.5c1.9-0.4,4.2-0.8,6.9-0.9
		c-0.1-1.3-0.5-2.2-1.4-3c-0.8-0.8-2-1.3-3.8-1.3c-1.3,0-2.4,0.3-3.7,0.8c-1.3,0.5-2.3,1-3.4,1.5l-1.8-3.4c1.4-0.8,2.8-1.4,4.5-2
		c1.7-0.6,3.4-1,5.3-1c3,0,5.3,0.9,7,2.4c1.5,1.5,2.3,3.9,2.3,7v12.8h-4.2l-0.4-2.7h-0.1c-1.1,0.9-2.4,1.5-3.8,2.3s-2.8,1-4.3,1
		c-1.1,0-2-0.1-2.9-0.5s-1.5-0.8-2.3-1.4c-0.6-0.6-1.1-1.3-1.4-1.9C98.9,109.1,98.8,108.2,98.8,107.4z M103.6,106.9
		c0,1,0.4,1.7,1.1,2c0.8,0.5,1.7,0.6,2.7,0.6c1,0,2-0.3,3.2-0.8c1-0.5,1.9-1.1,3-1.9v-4.5c-1.9,0.1-3.6,0.4-4.8,0.6
		c-1.4,0.3-2.3,0.6-3,1c-0.7,0.4-1.4,0.9-1.5,1.4C103.8,105.8,103.6,106.4,103.6,106.9z"/>
</g>
<path class="st2" d="M120.4,50.1H155c0.4,0,0.5-0.4,0.3-0.8l-34.5-34.8c-0.3-0.3-0.8-0.1-0.8,0.3v34.8
	C120,49.9,120.2,50.1,120.4,50.1z"/>
<path class="st3" d="M130.6,47.9"/>
<path class="st3" d="M117,13"/>
<g>
	<polygon class="st4" points="38.8,161.8 150.8,161.8 150.8,38.7 130.6,18.8 38.8,18.8 	"/>
	<polygon class="st5" points="150.8,171.2 38.8,171.2 38.8,19.3 130.6,19.3 122,10.3 30.1,10.3 30.1,180.2 159.5,180.2 159.5,50.2 
		150.8,41 	"/>
</g>
</svg>
