<?xml version="1.0" encoding="utf-8"?>
<!-- Generator: Adobe Illustrator 21.0.0, SVG Export Plug-In . SVG Version: 6.00 Build 0)  -->
<svg version="1.1" id="Layer_1" xmlns="http://www.w3.org/2000/svg" xmlns:xlink="http://www.w3.org/1999/xlink" x="0px" y="0px"
	 viewBox="0 0 192 192" style="enable-background:new 0 0 192 192;" xml:space="preserve">
<style type="text/css">
	.st0{fill:#616161;}
	.st1{fill:#FFFFFF;}
</style>
<g id="Layer_1_1_">
	<polygon class="st0" points="163.5,49.1 163.5,182.8 23.8,182.8 23.8,9.2 123.5,9.2 	"/>
	<g>
		<g>
			<circle class="st1" cx="93.6" cy="101.4" r="36.9"/>
		</g>
	</g>
	<polygon class="st1" points="148.3,50.3 122,50.3 122,24 	"/>
	<g>
		<path class="st0" d="M86.7,105.6h-8.8l-2,7.3h-4.8l8.6-26.6h5.6l8.6,26.6h-5L86.7,105.6z M85.6,102l-0.9-3.3
			c-0.3-1.4-0.8-2.8-1.1-4.4c-0.5-1.5-0.8-2.9-1.1-4.4h-0.1c-0.3,1.5-0.8,2.9-1.1,4.4c-0.3,1.5-0.8,2.9-1.2,4.3l-0.9,3.3L85.6,102
			L85.6,102z"/>
		<path class="st0" d="M97.5,107.6c0-1.1,0.2-2.2,0.8-2.9c0.6-0.9,1.4-1.6,2.5-2.2c1.1-0.6,2.5-1.1,4.3-1.5c1.8-0.3,3.9-0.7,6.3-0.8
			c-0.1-1.1-0.5-2-1.2-2.8c-0.7-0.7-1.9-1.1-3.5-1.1c-1.1,0-2.3,0.2-3.4,0.7c-1.1,0.5-2.2,0.9-3.2,1.5l-1.7-3.2
			c1.2-0.7,2.6-1.4,4.2-1.9c1.6-0.6,3.2-0.9,5-0.9c2.8,0,5,0.8,6.5,2.3c1.5,1.5,2.2,3.6,2.2,6.5V113h-3.9l-0.3-2.5h-0.1
			c-1,0.8-2.3,1.5-3.5,2.2c-1.2,0.7-2.6,0.9-4,0.9c-1,0-1.9-0.1-2.7-0.5c-0.8-0.3-1.5-0.7-2.2-1.2c-0.6-0.6-1-1.1-1.4-1.8
			C97.6,109.1,97.5,108.4,97.5,107.6z M102,107.1c0,0.9,0.3,1.6,1,1.9c0.7,0.5,1.6,0.6,2.5,0.6s1.9-0.2,2.9-0.7
			c0.9-0.5,1.8-1,2.8-1.8v-4.2c-1.8,0.1-3.3,0.3-4.5,0.6c-1.2,0.2-2.2,0.6-2.8,0.9c-0.7,0.3-1.2,0.8-1.5,1.2
			C102.1,106.1,102,106.7,102,107.1z"/>
	</g>
</g>
</svg>
