<?xml version="1.0" encoding="utf-8"?>
<svg version="1.1" xmlns="http://www.w3.org/2000/svg" xmlns:xlink="http://www.w3.org/1999/xlink" viewBox="0 0 24 24" fill="#4CAF50">
    <path d="M15.4,15.1c-0.5,0-0.9,0.4-1.1,0.9c0,0.1,0,0.2,0,0.3v0.9c0,0.1,0,0.2,0,0.3c0.1,0.5,0.5,0.9,1.1,0.9
        c0.8,0,1.3-0.6,1.3-1.7C16.7,15.8,16.3,15.1,15.4,15.1z"/>
    <path d="M18,2h-6v7L9.5,7.5L7,9V2H6C4.9,2,4,2.9,4,4v16c0,1.1,0.9,2,2,2h12c1.1,0,2-0.9,2-2V4C20,2.9,19.1,2,18,2z
         M11,19.7H9.2v-3.2c0-0.8-0.3-1.3-0.9-1.3c-0.5,0-0.8,0.3-0.9,0.7c0,0.1-0.1,0.3-0.1,0.5v3.4H5.5v-4c0-0.7,0-1.4,0-1.9H7l0.1,0.8
        l0,0c0.2-0.4,0.8-0.9,1.8-0.9c1.2,0,2.1,0.8,2.1,2.5V19.7z M15.9,19.8c-0.7,0-1.3-0.3-1.8-0.9l0,0L14,19.7h-1.5c0-0.4,0-1.1,0-1.8
        v-6.8h1.8v3.3l0,0c0.3-0.5,1-0.8,1.8-0.8c1.4,0,2.4,1.2,2.4,3C18.6,18.8,17.2,19.8,15.9,19.8z"/>
</svg>
