<?xml version="1.0" encoding="utf-8"?>
<svg version="1.1" xmlns="http://www.w3.org/2000/svg" xmlns:xlink="http://www.w3.org/1999/xlink" viewBox="0 0 24 24">
<g>
    <path d="M14,2H6C4.9,2,4,2.9,4,4v16c0,1.1,0.9,2,2,2h12c1.1,0,2-0.9,2-2V8L14,2z M11.1,19.2H10v-3.3c0-0.9-0.3-1.7-1.3-1.7
        c-0.7,0-1.2,0.5-1.4,1.1c0,0.1-0.1,0.3-0.1,0.5v3.5H6.1V15c0-0.6,0-1.1,0-1.6H7l0.1,1h0c0.3-0.6,1-1.1,1.9-1.1
        c0.8,0,2.1,0.5,2.1,2.5V19.2z M15.7,19.4c-0.8,0-1.5-0.3-1.9-1.1h0l0,1h-0.9c0-0.4,0-1,0-1.5v-7h1v3.6h0c0.4-0.6,1-1.1,2-1.1
        c1.4,0,2.5,1.2,2.4,3C18.3,18.3,17,19.4,15.7,19.4z M13,9V3.5L18.5,9H13z"/>
    <path d="M15.5,14.1c-0.7,0-1.4,0.5-1.6,1.3c0,0.1-0.1,0.3-0.1,0.4v1c0,0.1,0,0.3,0,0.4c0.2,0.7,0.8,1.2,1.6,1.2
        c1.1,0,1.8-0.9,1.8-2.2C17.2,15.1,16.6,14.1,15.5,14.1z"/>
</g>
</svg>
