<svg width="14" height="16" viewBox="0 0 14 16" fill="none" xmlns="http://www.w3.org/2000/svg">
<path d="M10.4286 4.42857H7.57143V1.57143C7.57143 1.25714 7.31429 1 7 1C6.68571 1 6.42857 1.25714 6.42857 1.57143V4.42857H3.57143C3.25714 4.42857 3 4.68571 3 5C3 5.31429 3.25714 5.57143 3.57143 5.57143H6.42857V8.42857C6.42857 8.74286 6.68571 9 7 9C7.31429 9 7.57143 8.74286 7.57143 8.42857V5.57143H10.4286C10.7429 5.57143 11 5.31429 11 5C11 4.68571 10.7429 4.42857 10.4286 4.42857Z" fill="#616161" stroke="#616161" stroke-width="0.5"/>
<g clip-path="url(#clip0_128_19610)">
<path d="M10.7542 9.07461C10.9584 9.27878 10.9584 9.60794 10.7542 9.81211L7.29172 13.2746C7.12922 13.4371 6.86672 13.4371 6.70422 13.2746L3.24172 9.81211C3.03756 9.60794 3.03756 9.27878 3.24172 9.07461C3.44589 8.87044 3.77506 8.87044 3.97922 9.07461L7.00006 12.0913L10.0209 9.07044C10.2209 8.87044 10.5542 8.87044 10.7542 9.07461Z" fill="#616161" stroke="#616161" stroke-width="0.6"/>
</g>
<defs>
<clipPath id="clip0_128_19610">
<rect width="10" height="10" fill="white" transform="matrix(-4.37114e-08 -1 -1 4.37114e-08 12 16)"/>
</clipPath>
</defs>
</svg>
