<svg width="14" height="14" viewBox="0 0 14 14" fill="none" xmlns="http://www.w3.org/2000/svg">
<path d="M9.57143 10.4286H7.42857V12.5714C7.42857 12.8071 7.23571 13 7 13C6.76429 13 6.57143 12.8071 6.57143 12.5714V10.4286H4.42857C4.19286 10.4286 4 10.2357 4 10C4 9.76429 4.19286 9.57143 4.42857 9.57143H6.57143V7.42857C6.57143 7.19286 6.76429 7 7 7C7.23571 7 7.42857 7.19286 7.42857 7.42857V9.57143H9.57143C9.80714 9.57143 10 9.76429 10 10C10 10.2357 9.80714 10.4286 9.57143 10.4286Z" fill="#616161" stroke="#616161" stroke-width="0.5"/>
<path d="M1.5 5.5V1.5" stroke="#616161" stroke-width="1.5" stroke-linecap="round" stroke-linejoin="round"/>
<path d="M12.5 3L1.5 3" stroke="#616161" stroke-width="1.5" stroke-linecap="round" stroke-linejoin="round"/>
<path d="M12.5 5.5L1.5 5.5" stroke="#616161" stroke-width="1.5" stroke-linecap="round" stroke-linejoin="round"/>
<path d="M12.5 5.5V1.5" stroke="#616161" stroke-width="1.5" stroke-linecap="round" stroke-linejoin="round"/>
<path d="M5 5.5V1.5" stroke="#616161" stroke-width="1.5" stroke-linecap="round" stroke-linejoin="round"/>
<path d="M9 5.5V1.5" stroke="#616161" stroke-width="1.5" stroke-linecap="round" stroke-linejoin="round"/>
</svg>
