<svg xmlns="http://www.w3.org/2000/svg" xmlns:xlink="http://www.w3.org/1999/xlink" focusable="false" width="16px"
    height="16px" style="-ms-transform: rotate(360deg); -webkit-transform: rotate(360deg); transform: rotate(360deg);"
    preserveAspectRatio="xMidYMid meet" viewBox="0 0 1792 1792">
    <path class="jp-icon3"
        d="M1473 929q7-118-33-226.5t-113-189t-177-131T929 325q-116-7-225.5 32t-192 110.5t-135 175T317 863q-7 118 33 226.5t113 189t177.5 131T862 1467q155 9 293-59t224-195.5t94-283.5zM1792 0l-349 348q120 117 180.5 272t50.5 321q-11 183-102 339t-241 255.5T999 1660L0 1792l347-347q-120-116-180.5-271.5T116 852q11-184 102-340t241.5-255.5T792 132q167-22 500-66t500-66z"
        fill="#626262" />
</svg>