<?xml version="1.0" encoding="utf-8"?>
<!-- Generator: Adobe Illustrator 19.1.0, SVG Export Plug-In . SVG Version: 6.00 Build 0)  -->
<svg version="1.1" id="Layer_1" xmlns="http://www.w3.org/2000/svg" xmlns:xlink="http://www.w3.org/1999/xlink" x="0px" y="0px"
	 viewBox="0 0 192 192" style="enable-background:new 0 0 192 192;" xml:space="preserve">
<style type="text/css">
	.st0{fill:#AAAAAA;stroke:#767474;stroke-width:2;stroke-miterlimit:10;}
	.st1{fill:#212121;stroke:#767474;stroke-width:2;stroke-miterlimit:10;}
	.st2{fill:#FFFFFF;}
	.st3{fill:#E46E2E;}
</style>
<g id="Layer_1_1_">
	<rect x="8" y="32" class="st0" width="176" height="128"/>
	<rect x="16" y="40" class="st1" width="160" height="112"/>
	<g>
		<path class="st2" d="M53.1,89.1c-1.1-0.8-2.2-1.4-3.2-1.8s-2.2-0.6-3.5-0.6c-2.2,0-3.3,0.7-3.3,2.2c0,0.6,0.3,1.1,1,1.4
			c0.7,0.4,1.6,0.8,2.6,1.2c1,0.4,2.2,0.8,3.4,1.2c1.2,0.4,2.3,1,3.4,1.7c1,0.7,1.9,1.5,2.6,2.5c0.7,1,1,2.2,1,3.6
			c0,2-0.7,3.8-2.1,5.3c-1.4,1.5-3.4,2.5-6.1,2.9v7.2h-4.7v-7c-1.6-0.2-3.2-0.6-4.8-1.2c-1.7-0.7-3.1-1.5-4.3-2.6l3.1-4.8
			c1.5,0.9,3,1.7,4.3,2.2c1.4,0.5,2.8,0.8,4.3,0.8c1.2,0,2-0.2,2.6-0.6s0.9-0.9,0.9-1.6s-0.3-1.2-1-1.7c-0.7-0.4-1.6-0.9-2.6-1.3
			s-2.2-0.8-3.4-1.3c-1.2-0.4-2.3-1-3.4-1.7c-1-0.7-1.9-1.5-2.6-2.5c-0.7-1-1-2.2-1-3.7c0-2.1,0.7-3.8,2.1-5.2
			c1.4-1.4,3.3-2.3,5.8-2.6v-6.3h4.7V81c1.7,0.2,3.1,0.7,4.3,1.4c1.2,0.7,2.3,1.5,3.3,2.6L53.1,89.1z"/>
		<path class="st3" d="M86.7,113.2v5.3h-23v-5.3H86.7z"/>
	</g>
</g>
</svg>
