<svg id="Layer_1" data-name="Layer 1" width="84px" height="11px" xmlns="http://www.w3.org/2000/svg" viewBox="0 0 83.67 10.19"><defs><style>.cls-1{fill:#f36a0c;fill-opacity:0.9;}</style></defs><title>tour</title><g id="Launcher"><g id="Group-2"><path id="Take-a-tour" class="cls-1" d="M0.11,0H8.2V1.52H5V10H3.28V1.52H0.11V0ZM15.2,8.39a0.85,0.85,0,0,0,.08.42,0.32,0.32,0,0,0,.3.13h0.17l0.22,0V10l-0.22.06-0.27.06-0.28,0H15a1.54,1.54,0,0,1-.81-0.2,1,1,0,0,1-.42-0.69,2.82,2.82,0,0,1-1.17.67,4.6,4.6,0,0,1-1.34.21,3.28,3.28,0,0,1-.94-0.13A2.46,2.46,0,0,1,9.5,9.67,1.88,1.88,0,0,1,9,9a2,2,0,0,1-.2-0.93A2.15,2.15,0,0,1,9,7a1.82,1.82,0,0,1,.64-0.66A2.91,2.91,0,0,1,10.53,6q0.5-.11,1-0.16a8.19,8.19,0,0,1,.83-0.12,3.88,3.88,0,0,0,.69-0.12,1.06,1.06,0,0,0,.48-0.26,0.71,0.71,0,0,0,.18-0.52,0.82,0.82,0,0,0-.15-0.5A1,1,0,0,0,13.19,4a1.57,1.57,0,0,0-.48-0.14,3.87,3.87,0,0,0-.5,0,2,2,0,0,0-1.11.28,1.09,1.09,0,0,0-.49.87H9a2.4,2.4,0,0,1,.34-1.16,2.32,2.32,0,0,1,.75-0.74,3.06,3.06,0,0,1,1-.39,6.13,6.13,0,0,1,1.18-.11,5,5,0,0,1,1.05.11,3,3,0,0,1,.93.36,2,2,0,0,1,.66.65,1.79,1.79,0,0,1,.25,1V8.39Zm-1.6-2a1.94,1.94,0,0,1-.9.29q-0.53,0-1.06.15a3.41,3.41,0,0,0-.49.12,1.48,1.48,0,0,0-.42.21,0.92,0.92,0,0,0-.29.35,1.2,1.2,0,0,0-.11.53,0.67,0.67,0,0,0,.15.45,1.12,1.12,0,0,0,.37.29,1.72,1.72,0,0,0,.48.15,3,3,0,0,0,.47,0,2.6,2.6,0,0,0,.57-0.07A1.91,1.91,0,0,0,13,8.63a1.53,1.53,0,0,0,.45-0.43,1.08,1.08,0,0,0,.18-0.64V6.37ZM17,0h1.6V5.69l2.88-2.93h2L20.64,5.42l3,4.58H21.73L19.52,6.49l-1,.92V10H17V0ZM29.41,5.74A2.57,2.57,0,0,0,29.25,5a1.94,1.94,0,0,0-.36-0.61A1.8,1.8,0,0,0,28.33,4a1.65,1.65,0,0,0-.74-0.16,1.92,1.92,0,0,0-.76.15,1.74,1.74,0,0,0-.59.41,2,2,0,0,0-.39.61,2.12,2.12,0,0,0-.16.76h3.72ZM25.69,6.79a2.78,2.78,0,0,0,.12.81,2,2,0,0,0,.36.69,1.72,1.72,0,0,0,.6.47,2,2,0,0,0,.87.18,1.92,1.92,0,0,0,1.13-.3,1.78,1.78,0,0,0,.64-0.9h1.51a3,3,0,0,1-1.18,1.83,3.2,3.2,0,0,1-1,.48,3.92,3.92,0,0,1-1.13.16,3.83,3.83,0,0,1-1.51-.28A3.13,3.13,0,0,1,25,9.13a3.33,3.33,0,0,1-.69-1.2,4.89,4.89,0,0,1-.23-1.54,4.36,4.36,0,0,1,.25-1.46A3.75,3.75,0,0,1,25,3.71a3.28,3.28,0,0,1,2.56-1.14,3.24,3.24,0,0,1,1.53.36,3.36,3.36,0,0,1,1.13.94,3.83,3.83,0,0,1,.65,1.35A4.14,4.14,0,0,1,31,6.79H25.69Zm16.49,1.6a0.85,0.85,0,0,0,.08.42,0.32,0.32,0,0,0,.3.13h0.17l0.22,0V10l-0.22.06-0.27.06-0.28,0H41.94a1.54,1.54,0,0,1-.81-0.2,1,1,0,0,1-.42-0.69,2.82,2.82,0,0,1-1.17.67,4.6,4.6,0,0,1-1.34.21,3.28,3.28,0,0,1-.94-0.13,2.46,2.46,0,0,1-.79-0.39A1.88,1.88,0,0,1,35.93,9a2,2,0,0,1-.2-0.93A2.15,2.15,0,0,1,36,7a1.82,1.82,0,0,1,.64-0.66A2.91,2.91,0,0,1,37.51,6q0.5-.11,1-0.16a8.19,8.19,0,0,1,.83-0.12A3.88,3.88,0,0,0,40,5.59a1.06,1.06,0,0,0,.48-0.26,0.71,0.71,0,0,0,.17-0.52,0.82,0.82,0,0,0-.15-0.5A1,1,0,0,0,40.17,4a1.57,1.57,0,0,0-.48-0.14,3.87,3.87,0,0,0-.5,0,2,2,0,0,0-1.11.28,1.09,1.09,0,0,0-.49.87H36a2.4,2.4,0,0,1,.34-1.16,2.32,2.32,0,0,1,.75-0.74,3.06,3.06,0,0,1,1-.39,6.13,6.13,0,0,1,1.18-.11,5,5,0,0,1,1,.11,3,3,0,0,1,.93.36,2,2,0,0,1,.67.65,1.79,1.79,0,0,1,.25,1V8.39Zm-1.6-2a1.94,1.94,0,0,1-.9.29q-0.53,0-1.06.15a3.41,3.41,0,0,0-.49.12,1.48,1.48,0,0,0-.42.21,0.92,0.92,0,0,0-.29.35,1.2,1.2,0,0,0-.1.53,0.67,0.67,0,0,0,.15.45,1.12,1.12,0,0,0,.37.29,1.72,1.72,0,0,0,.48.15,3,3,0,0,0,.47,0,2.6,2.6,0,0,0,.57-0.07,1.91,1.91,0,0,0,.58-0.24A1.53,1.53,0,0,0,40.4,8.2a1.08,1.08,0,0,0,.18-0.64V6.37Zm6.48-3.61h1.2V0.59h1.6V2.76h1.44V4H49.87V7.82a3.85,3.85,0,0,0,0,.43,0.75,0.75,0,0,0,.1.31,0.47,0.47,0,0,0,.23.19,1.14,1.14,0,0,0,.42.06H51a1.67,1.67,0,0,0,.34,0V10L50.79,10l-0.52,0a3.53,3.53,0,0,1-1-.12,1.35,1.35,0,0,1-.6-0.35A1.21,1.21,0,0,1,48.36,9a4.37,4.37,0,0,1-.09-0.8V4h-1.2V2.76Zm8.71,7.43a3.94,3.94,0,0,1-1.55-.29,3.3,3.3,0,0,1-1.15-.79,3.38,3.38,0,0,1-.71-1.2,4.63,4.63,0,0,1-.24-1.54,4.59,4.59,0,0,1,.24-1.53,3.38,3.38,0,0,1,.71-1.2,3.3,3.3,0,0,1,1.15-.79,4.31,4.31,0,0,1,3.09,0,3.3,3.3,0,0,1,1.15.79,3.38,3.38,0,0,1,.71,1.2,4.59,4.59,0,0,1,.24,1.53,4.63,4.63,0,0,1-.24,1.54,3.38,3.38,0,0,1-.71,1.2,3.3,3.3,0,0,1-1.15.79,3.94,3.94,0,0,1-1.55.29h0Zm0-1.26a1.83,1.83,0,0,0,.92-0.22,2,2,0,0,0,.64-0.59,2.57,2.57,0,0,0,.37-0.82,3.67,3.67,0,0,0,0-1.86,2.48,2.48,0,0,0-.37-0.82,2,2,0,0,0-.64-0.58,2,2,0,0,0-1.85,0,2,2,0,0,0-.64.58,2.48,2.48,0,0,0-.37.82,3.67,3.67,0,0,0,0,1.86,2.57,2.57,0,0,0,.37.82,2,2,0,0,0,.64.59,1.83,1.83,0,0,0,.92.22h0ZM67.12,10H65.55V9h0a2.19,2.19,0,0,1-.87.88,2.38,2.38,0,0,1-1.18.33,2.66,2.66,0,0,1-2.07-.71,3.1,3.1,0,0,1-.64-2.14V2.76h1.6V7.2a2,2,0,0,0,.36,1.34,1.33,1.33,0,0,0,1,.39,2,2,0,0,0,.84-0.15,1.49,1.49,0,0,0,.55-0.41,1.58,1.58,0,0,0,.3-0.62A3.23,3.23,0,0,0,65.52,7V2.76h1.6V10ZM68.8,2.76h1.5v1.4h0a1.62,1.62,0,0,1,.27-0.57,2.66,2.66,0,0,1,.49-0.51,2.48,2.48,0,0,1,.64-0.37,1.91,1.91,0,0,1,.71-0.14h0.39l0.22,0V4.15l-0.34,0-0.34,0a1.83,1.83,0,0,0-.76.16,1.75,1.75,0,0,0-.62.48,2.33,2.33,0,0,0-.42.78,3.36,3.36,0,0,0-.15,1.06V10H68.8V2.76Z" transform="translate(-0.11 0)"/></g></g><polygon id="Path-233" class="cls-1" points="78.64 8.94 79.7 10 83.14 6.56 83.67 6.03 83.14 5.5 79.69 2.05 78.63 3.11 81.55 6.03 78.64 8.94"/></svg>