<svg width="34" height="34" viewBox="0 0 34 34" fill="none" xmlns="http://www.w3.org/2000/svg">
<path d="M8.37 7.695C8.29 7.385 8.18 7.1 8.04 6.84C7.9 6.58 7.72 6.355 7.5 6.165C7.28 5.975 7.02 5.83 6.72 5.73C6.43 5.62 6.09 5.565 5.7 5.565C5.13 5.565 4.635 5.68 4.215 5.91C3.805 6.14 3.47 6.45 3.21 6.84C2.95 7.22 2.755 7.655 2.625 8.145C2.505 8.635 2.445 9.135 2.445 9.645C2.445 10.155 2.505 10.655 2.625 11.145C2.755 11.635 2.95 12.075 3.21 12.465C3.47 12.845 3.805 13.15 4.215 13.38C4.635 13.61 5.13 13.725 5.7 13.725C6.12 13.725 6.49 13.655 6.81 13.515C7.13 13.365 7.405 13.165 7.635 12.915C7.865 12.655 8.045 12.355 8.175 12.015C8.305 11.675 8.39 11.31 8.43 10.92H10.26C10.22 11.56 10.08 12.145 9.84 12.675C9.61 13.205 9.295 13.665 8.895 14.055C8.495 14.435 8.025 14.73 7.485 14.94C6.945 15.15 6.35 15.255 5.7 15.255C4.9 15.255 4.18 15.11 3.54 14.82C2.91 14.52 2.375 14.115 1.935 13.605C1.495 13.095 1.155 12.5 0.915 11.82C0.685 11.14 0.57 10.415 0.57 9.645C0.57 8.885 0.685 8.165 0.915 7.485C1.155 6.805 1.495 6.21 1.935 5.7C2.375 5.19 2.91 4.785 3.54 4.485C4.18 4.185 4.9 4.035 5.7 4.035C6.3 4.035 6.865 4.12 7.395 4.29C7.925 4.45 8.39 4.69 8.79 5.01C9.2 5.32 9.53 5.7 9.78 6.15C10.03 6.6 10.185 7.115 10.245 7.695H8.37ZM11.9352 4.29H14.5752L17.5302 12.675H17.5602L20.4402 4.29H23.0502V15H21.2652V6.735H21.2352L18.2652 15H16.7202L13.7502 6.735H13.7202V15H11.9352V4.29ZM25.2953 4.29H29.7353C30.5553 4.29 31.2653 4.43 31.8653 4.71C32.4653 4.99 32.9553 5.375 33.3353 5.865C33.7153 6.345 33.9953 6.91 34.1753 7.56C34.3653 8.21 34.4603 8.905 34.4603 9.645C34.4603 10.385 34.3653 11.08 34.1753 11.73C33.9953 12.38 33.7153 12.95 33.3353 13.44C32.9553 13.92 32.4653 14.3 31.8653 14.58C31.2653 14.86 30.5553 15 29.7353 15H25.2953V4.29ZM27.1703 13.47H29.0153C29.7453 13.47 30.3403 13.375 30.8003 13.185C31.2703 12.985 31.6353 12.715 31.8953 12.375C32.1653 12.025 32.3453 11.62 32.4353 11.16C32.5353 10.69 32.5853 10.185 32.5853 9.645C32.5853 9.105 32.5353 8.605 32.4353 8.145C32.3453 7.675 32.1653 7.27 31.8953 6.93C31.6353 6.58 31.2703 6.31 30.8003 6.12C30.3403 5.92 29.7453 5.82 29.0153 5.82H27.1703V13.47Z" transform="translate(0 -8) scale(2)" fill="#F2994A"/>
</svg>
