<svg width="44" height="42" viewBox="0 0 44 42" fill="none" xmlns="http://www.w3.org/2000/svg">
<path d="M17.8122 6.40254C17.8122 11.3063 14.8245 12.7145 9.90577 12.7145C4.98706 12.7145 2.72636 8.15418 0 6.40254C2.72636 4.4093 4.98706 0 9.90577 0C14.8245 0 17.8122 1.4988 17.8122 6.40254Z" transform="matrix(1.54313 -1.2723 1.29879 1.5209 0 22.6641)" fill="#F8B044"/>
<path fill-rule="evenodd" clip-rule="evenodd" d="M0.375 0C0.302246 1.04688 0.220215 2.04297 0 2.92969C0.883789 2.82031 1.87744 2.89453 2.93115 2.99219L2.76855 2.42188C2.66162 2.04688 2.48389 1.69141 2.24463 1.38281C1.80225 0.804688 1.21484 0.355469 0.541016 0.0703125L0.375 0Z" transform="translate(10.2988 26.5156) scale(2)" fill="#FEF6C5"/>
<path d="M0.91073 5.91993C0.91073 5.91993 -0.332604 7.09736 0.0862014 5.91993C0.421705 4.9767 0.360683 5.06664 0.909995 4.0012C1.70946 2.45056 2.71004 1.73884 2.98464 1.52899C3.29866 1.289 4.5102 0.67034 5.70025 0.313646C6.79725 -0.0151614 7.65143 -0.0860147 8.69034 0.103787C9.61764 0.273199 10.0379 0.428997 10.765 1.01932C11.3927 1.52899 10.0929 1.16922 10.0929 1.16922C10.0929 1.16922 10.9481 1.67888 10.8565 1.60513C10.765 1.53138 10.41 1.3018 10.0929 1.16922C9.14977 0.774859 8.52895 0.967867 7.46983 1.10698C6.41052 1.24611 5.39512 1.97639 5.15098 2.11245C4.90685 2.24851 3.91269 3.02978 3.16776 3.76136C0.90993 5.97871 0.91073 5.91993 0.91073 5.91993Z" transform="translate(13.9102 7.79688) scale(2)" fill="#FEF9E9"/>
</svg>
