<svg viewBox="0 0 24 25" fill="none" xmlns="http://www.w3.org/2000/svg">
<path d="M8.09626 18.3016L8.096 18.3014L8.09576 18.3011L8.09534 18.3007L8.09476 18.3002L8.0946 18.3L8.0414 18.2479L7.97899 18.2032L7.3965 19.016L7.97898 18.2032L7.97893 18.2031L7.97876 18.203L7.97804 18.2025L7.97514 18.2004L7.96366 18.1922L7.91917 18.1603L7.75356 18.0414C7.61272 17.9403 7.41592 17.7988 7.19213 17.6376C6.74397 17.3147 6.18985 16.9142 5.76034 16.5995C5.49548 16.4055 5.22073 16.2378 5.01311 16.111C4.93683 16.0645 4.86961 16.0234 4.81527 15.9887C4.59253 15.8461 4.41907 15.7142 4.23292 15.4991C3.9881 15.2161 3.90119 15.0371 3.73823 14.7013C3.66913 14.5589 3.58636 14.3883 3.47209 14.1697C2.91522 13.1045 2.68778 12.4394 2.29973 11.3046C2.26628 11.2068 2.23163 11.1055 2.19547 11.0001C2.00433 10.4431 1.8245 9.98649 1.66522 9.58207C1.24809 8.52302 0.97181 7.82159 1.00209 6.60961L1.0021 6.60938C1.03221 5.40423 1.05488 4.85661 1.50647 4.01797C1.9245 3.24165 2.30958 2.91793 3.17012 2.29846C4.33553 1.45951 5.16223 1.23658 6.71487 1.04868C7.09434 1.00276 7.39084 1.0021 7.71203 1.01443C7.79795 1.01773 7.89181 1.0224 7.99278 1.02741C8.25568 1.04047 8.56672 1.05592 8.91095 1.05592C9.29282 1.05592 9.63651 1.0382 9.92932 1.02311C10.0425 1.01727 10.1482 1.01182 10.2455 1.00794C10.6063 0.993562 10.9414 0.994276 11.3697 1.04812C13.0158 1.25502 13.8611 1.41272 14.9809 2.27811C15.7427 2.86689 16.0842 3.22192 16.4847 4.00105C16.9298 4.86686 16.9684 5.42561 16.998 6.60961C17.0183 7.42229 16.8839 8.03391 16.6687 8.66994C16.5675 8.96895 16.4509 9.26666 16.3173 9.60787C16.3026 9.64531 16.2877 9.68328 16.2726 9.72184C16.123 10.1044 15.9588 10.5301 15.8004 11.0127C15.6877 11.3558 15.596 11.6532 15.5128 11.9229C15.2572 12.7521 15.0821 13.3198 14.6261 14.1529C14.5718 14.252 14.5232 14.3419 14.4786 14.4246C14.2257 14.8927 14.0978 15.1292 13.7781 15.4866C13.5905 15.6963 13.2654 15.9568 12.9413 16.1884C12.7878 16.2981 12.649 16.3912 12.5489 16.4566C12.499 16.4892 12.4592 16.5146 12.4326 16.5314L12.4031 16.55L12.3965 16.554L12.3959 16.5544L12.3958 16.5545L12.3956 16.5546L12.3955 16.5547L12.3955 16.5547L12.328 16.5962L12.2675 16.6482L10.3967 18.258L10.3768 18.2752L10.3595 18.2918L10.3594 18.2919L10.3588 18.2924L10.3583 18.2928L10.3581 18.2931L10.3578 18.2933L10.3555 18.2955L10.3317 18.3173C10.3091 18.3378 10.2737 18.3691 10.2281 18.4075C10.1357 18.4854 10.007 18.5876 9.86036 18.6874C9.71112 18.7889 9.56117 18.8756 9.42553 18.9336C9.35906 18.962 9.30457 18.9798 9.26245 18.9898C9.24188 18.9948 9.22617 18.9974 9.21505 18.9987C9.20958 18.9994 9.20548 18.9997 9.20271 18.9999C9.19993 19 9.1986 19 9.19862 19C9.19863 19 9.1973 19 9.19454 18.9997C9.19178 18.9995 9.18774 18.999 9.18235 18.9982C9.17142 18.9964 9.15608 18.9933 9.13612 18.9879C9.09527 18.9768 9.04282 18.9581 8.97923 18.9291C8.84953 18.8701 8.70694 18.7839 8.56561 18.6844C8.42666 18.5865 8.30507 18.487 8.21799 18.4116C8.17499 18.3743 8.14175 18.3441 8.12051 18.3244L8.09825 18.3035L8.09626 18.3016Z" transform="translate(3 2)" fill="#EEEEEE" stroke="#EEEEEE" stroke-width="2"/>
<path d="M7.43888 6.85435C4.51559 6.96214 4.08854 13 4.08854 13C3.05768 12.7475 2.16996 11.3718 1.85495 10.7155C1.36816 9.34979 0.325845 6.25596 0.0509455 4.80621C-0.292679 2.99403 1.16773 1.6546 2.45632 0.866694C3.74491 0.0787904 6.57982 0 7.43888 0C8.29794 0 10.4456 0.0787904 12.7651 0.866694C14.6206 1.49702 15.0273 3.75567 14.9986 4.80621C14.5977 6.14565 13.6585 9.20272 13.1087 10.7155C12.5589 12.2283 11.5624 12.8688 11.1328 13C11.1328 13 10.4245 6.74427 7.43888 6.85435Z" transform="translate(4.5 4)" fill="#757575"/>
</svg>
