<svg width="25" height="28" viewBox="0 0 25 28" fill="none" xmlns="http://www.w3.org/2000/svg">
<path d="M19.8097 19.0229C19.3763 19.8287 19.1591 20.3155 18.5576 20.9994C17.8801 21.7699 16.5086 22.6281 16.5086 22.6281L14.1182 24.7208C14.1182 24.7208 12.7813 26.0216 11.7277 25.9997C10.7132 25.9787 9.45108 24.7208 9.45108 24.7208C9.45108 24.7208 7.71152 23.4526 6.6053 22.6281C5.75764 21.9963 5.1307 21.8085 4.4425 20.9994C3.86749 20.3234 3.71164 19.8159 3.30419 19.0229C2.47954 17.4181 2.17465 16.4357 1.59671 14.7221C0.803052 12.3688 -0.0580358 11.0482 0.0030741 8.56002L0.00308148 8.55972C0.0417747 6.98427 0.0661097 5.99343 0.799894 4.60702C1.47273 3.33577 2.15438 2.77505 3.30419 1.93294C5.02956 0.669286 6.31875 0.332224 8.4266 0.072702C9.5741 -0.0685794 10.2304 0.072702 11.3862 0.072702C12.6754 0.072702 13.4082 -0.0908775 14.6873 0.072702C16.8356 0.347421 18.208 0.58399 19.9236 1.93294C20.9972 2.77714 21.5788 3.37723 22.2002 4.60702C22.9079 6.00764 22.9583 6.9844 22.997 8.56002C23.0581 11.0482 22.1663 12.3582 21.4034 14.7221C20.8529 16.4276 20.6565 17.4491 19.8097 19.0229Z" transform="translate(1 1)" fill="#EEEEEE" stroke="#EEEEEE" stroke-width="2"/>
<path d="M9.85701 10.1144C5.98346 10.2735 5.41758 19.1831 5.41758 19.1831C4.05163 18.8105 2.87534 16.7805 2.45794 15.812C1.8129 13.7967 0.431767 9.23142 0.0675061 7.09215C-0.38782 4.41806 1.54731 2.44156 3.25479 1.27891C4.96226 0.116265 8.7187 0 9.85701 0C10.9953 0 13.8411 0.116265 16.9146 1.27891C19.3733 2.20903 19.9121 5.54195 19.8742 7.09215C19.343 9.06865 18.0984 13.5797 17.3699 15.812C16.6414 18.0443 15.3209 18.9895 14.7518 19.1831C14.7518 19.1831 13.8132 9.95198 9.85701 10.1144Z" transform="translate(2.52881 2.46875)" fill="#757575"/>
</svg>
