<svg width="27" height="30" viewBox="0 0 27 30" fill="none" xmlns="http://www.w3.org/2000/svg">
<path d="M21.5323 20.4862C21.0611 21.3539 20.8251 21.8782 20.1713 22.6148C19.4348 23.4445 17.9442 24.3687 17.9442 24.3687L15.3458 26.6224C15.3458 26.6224 13.8928 28.0233 12.7475 27.9997C11.6448 27.977 10.2729 26.6224 10.2729 26.6224C10.2729 26.6224 8.38208 25.2566 7.17967 24.3687C6.2583 23.6883 5.57684 23.4861 4.8288 22.6148C4.2038 21.8867 4.03439 21.3402 3.59151 20.4862C2.69515 18.758 2.36375 17.6999 1.73556 15.8545C0.872883 13.3202 -0.0630824 11.8981 0.00334141 9.21849L0.00334943 9.21816C0.0454072 7.52152 0.0718584 6.45447 0.86945 4.96141C1.60079 3.59237 2.34171 2.98851 3.59151 2.08162C5.46692 0.720769 6.8682 0.35778 9.15935 0.0782945C10.4066 -0.0738547 11.12 0.0782945 12.3763 0.0782945C13.7776 0.0782945 14.5741 -0.0978681 15.9645 0.0782945C18.2996 0.374145 19.7913 0.628913 21.6561 2.08162C22.8231 2.99076 23.4553 3.63702 24.1307 4.96141C24.8999 6.46976 24.9547 7.52166 24.9968 9.21849C25.0632 11.8981 24.0938 13.3088 23.2645 15.8545C22.6662 17.6913 22.4527 18.7913 21.5323 20.4862Z" transform="translate(1 1)" fill="#EEEEEE"/>
<path d="M10.7141 10.8925C6.50376 11.0637 5.88868 20.6587 5.88868 20.6587C4.40395 20.2575 3.12537 18.0713 2.67167 17.0283C1.97055 14.858 0.469312 9.94152 0.0733763 7.63769C-0.421543 4.75791 1.68186 2.62937 3.53781 1.37729C5.39376 0.125208 9.47684 0 10.7141 0C11.9514 0 15.0447 0.125208 18.3854 1.37729C21.058 2.37895 21.6436 5.96825 21.6024 7.63769C21.025 9.76623 19.6722 14.6243 18.8803 17.0283C18.0884 19.4323 16.6532 20.4502 16.0345 20.6587C16.0345 20.6587 15.0144 10.7175 10.7141 10.8925Z" transform="translate(2.66211 2.58203)" fill="#757575"/>
</svg>
