<svg viewBox="0 0 25 24" fill="none" xmlns="http://www.w3.org/2000/svg">
<mask id="path-1-inside-1" fill="white">
<path fill-rule="evenodd" clip-rule="evenodd" d="M14.5135 14.8848L14.6419 14.6348C15.1219 13.7051 15.3192 13.0293 15.5687 12.17L15.8197 11.3262C15.9749 10.8262 16.137 10.3887 16.2899 9.97466C16.6927 8.88872 17.0301 7.97466 16.9974 6.58794C16.9691 5.3731 16.932 4.6231 16.4085 3.54497C15.9495 2.59966 15.5194 2.13872 14.7259 1.49029C13.4578 0.451225 12.4437 0.267631 10.8558 0.0566935C10.2425 -0.0253377 9.79915 -0.00190022 9.30305 0.0254435C9.0345 0.0410685 8.75081 0.0566935 8.41585 0.0566935C8.11555 0.0566935 7.86067 0.0449748 7.61995 0.0293498C7.17561 0.00591228 6.77864 -0.013619 6.22835 0.0566935C4.67024 0.255912 3.71711 0.517631 2.44221 1.49029C1.59211 2.13482 1.08821 2.56841 0.591138 3.54497C0.048658 4.61138 0.0305916 5.3731 0.00227125 6.58794C-0.0314202 8.01763 0.314283 8.94341 0.73567 10.0762C0.879224 10.459 1.03108 10.8653 1.18001 11.3262L1.27669 11.627C1.64485 12.7676 1.8802 13.4981 2.44221 14.6348L2.64338 15.0606C2.82161 15.4512 2.96614 15.7676 3.28352 16.1543C3.61799 16.5645 3.93342 16.7676 4.28792 16.9981C4.47249 17.1153 4.6678 17.2442 4.88215 17.4083L6.98518 19.0176C6.98518 19.0176 7.91829 19.9864 8.66829 20.002C9.4471 20.0176 10.4349 19.0176 10.4349 19.0176L12.202 17.4083C12.202 17.4083 13.2157 16.7481 13.7161 16.1543C14.0975 15.7051 14.2698 15.3653 14.5135 14.8848ZM5.21858 15.9786C5.21858 15.9786 5.63655 9.1231 8.49983 9.00201C11.4241 8.87701 12.1175 15.9786 12.1175 15.9786C12.5384 15.8262 13.5145 15.0997 14.0526 13.3848C14.5911 11.6661 15.5111 8.19732 15.9036 6.67779C15.932 5.48247 15.5335 2.91997 13.7161 2.20513C11.4447 1.3106 9.34114 1.22076 8.49983 1.22076C7.65852 1.22076 4.88215 1.3106 3.61995 2.20513C2.35774 3.09966 0.927564 4.61919 1.26399 6.67779C1.53352 8.32232 2.55403 11.834 3.03108 13.3848C3.33967 14.127 4.20881 15.6895 5.21858 15.9786Z"/>
</mask>
<path fill-rule="evenodd" clip-rule="evenodd" d="M14.5135 14.8848L14.6419 14.6348C15.1219 13.7051 15.3192 13.0293 15.5687 12.17L15.8197 11.3262C15.9749 10.8262 16.137 10.3887 16.2899 9.97466C16.6927 8.88872 17.0301 7.97466 16.9974 6.58794C16.9691 5.3731 16.932 4.6231 16.4085 3.54497C15.9495 2.59966 15.5194 2.13872 14.7259 1.49029C13.4578 0.451225 12.4437 0.267631 10.8558 0.0566935C10.2425 -0.0253377 9.79915 -0.00190022 9.30305 0.0254435C9.0345 0.0410685 8.75081 0.0566935 8.41585 0.0566935C8.11555 0.0566935 7.86067 0.0449748 7.61995 0.0293498C7.17561 0.00591228 6.77864 -0.013619 6.22835 0.0566935C4.67024 0.255912 3.71711 0.517631 2.44221 1.49029C1.59211 2.13482 1.08821 2.56841 0.591138 3.54497C0.048658 4.61138 0.0305916 5.3731 0.00227125 6.58794C-0.0314202 8.01763 0.314283 8.94341 0.73567 10.0762C0.879224 10.459 1.03108 10.8653 1.18001 11.3262L1.27669 11.627C1.64485 12.7676 1.8802 13.4981 2.44221 14.6348L2.64338 15.0606C2.82161 15.4512 2.96614 15.7676 3.28352 16.1543C3.61799 16.5645 3.93342 16.7676 4.28792 16.9981C4.47249 17.1153 4.6678 17.2442 4.88215 17.4083L6.98518 19.0176C6.98518 19.0176 7.91829 19.9864 8.66829 20.002C9.4471 20.0176 10.4349 19.0176 10.4349 19.0176L12.202 17.4083C12.202 17.4083 13.2157 16.7481 13.7161 16.1543C14.0975 15.7051 14.2698 15.3653 14.5135 14.8848ZM5.21858 15.9786C5.21858 15.9786 5.63655 9.1231 8.49983 9.00201C11.4241 8.87701 12.1175 15.9786 12.1175 15.9786C12.5384 15.8262 13.5145 15.0997 14.0526 13.3848C14.5911 11.6661 15.5111 8.19732 15.9036 6.67779C15.932 5.48247 15.5335 2.91997 13.7161 2.20513C11.4447 1.3106 9.34114 1.22076 8.49983 1.22076C7.65852 1.22076 4.88215 1.3106 3.61995 2.20513C2.35774 3.09966 0.927564 4.61919 1.26399 6.67779C1.53352 8.32232 2.55403 11.834 3.03108 13.3848C3.33967 14.127 4.20881 15.6895 5.21858 15.9786Z" transform="translate(4 2)" fill="#EEEEEE"/>
<path d="M14.6419 14.6348L12.8648 13.7173L12.8629 13.721L14.6419 14.6348ZM14.5135 14.8848L12.7345 13.971L12.7298 13.9803L14.5135 14.8848ZM15.5687 12.17L13.6516 11.5997L13.648 11.6123L15.5687 12.17ZM15.8197 11.3262L13.9096 10.7331L13.9061 10.7445L13.9027 10.756L15.8197 11.3262ZM16.2899 9.97466L14.4147 9.27907L14.4136 9.28212L16.2899 9.97466ZM16.9974 6.58794L14.9979 6.63455L14.9979 6.63511L16.9974 6.58794ZM16.4085 3.54497L18.2077 2.67147L18.2077 2.67142L16.4085 3.54497ZM14.7259 1.49029L13.4583 3.03727L13.4603 3.03892L14.7259 1.49029ZM10.8558 0.0566935L10.5906 2.03904L10.5924 2.03928L10.8558 0.0566935ZM9.30305 0.0254435L9.19298 -1.97153L9.18689 -1.97118L9.30305 0.0254435ZM7.61995 0.0293498L7.74949 -1.96645L7.7374 -1.96724L7.7253 -1.96787L7.61995 0.0293498ZM6.22835 0.0566935L5.97486 -1.92718L5.97469 -1.92716L6.22835 0.0566935ZM2.44221 1.49029L3.65055 3.08401L3.65533 3.08037L2.44221 1.49029ZM0.591138 3.54497L-1.19125 2.63774L-1.19147 2.63816L0.591138 3.54497ZM0.00227125 6.58794L2.00172 6.63506L2.00173 6.63455L0.00227125 6.58794ZM0.73567 10.0762L-1.13885 10.7735L-1.13699 10.7785L0.73567 10.0762ZM1.18001 11.3262L3.08406 10.7142L3.08314 10.7113L1.18001 11.3262ZM1.27669 11.627L-0.627373 12.239L-0.626624 12.2413L1.27669 11.627ZM2.44221 14.6348L4.25053 13.7804L4.24294 13.7644L4.23505 13.7484L2.44221 14.6348ZM2.64338 15.0606L4.46295 14.2304L4.45741 14.2183L4.4517 14.2062L2.64338 15.0606ZM3.28352 16.1543L4.8335 14.8904L4.82952 14.8855L3.28352 16.1543ZM4.28792 16.9981L3.19778 18.6749L3.20681 18.6808L3.2159 18.6865L4.28792 16.9981ZM4.88215 17.4083L3.66658 18.9965L3.66669 18.9965L4.88215 17.4083ZM6.98518 19.0176L8.42565 17.6302L8.32074 17.5212L8.20064 17.4293L6.98518 19.0176ZM8.66829 20.002L8.62663 22.0016L8.62817 22.0016L8.66829 20.002ZM10.4349 19.0176L9.0882 17.539L9.04914 17.5745L9.01202 17.6121L10.4349 19.0176ZM12.202 17.4083L11.1105 15.7323L10.9749 15.8206L10.8553 15.9296L12.202 17.4083ZM13.7161 16.1543L12.1914 14.86L12.1869 14.8653L13.7161 16.1543ZM8.49983 9.00201L8.58434 11.0002L8.58524 11.0002L8.49983 9.00201ZM5.21858 15.9786L4.66816 17.9013L7.06326 18.587L7.21487 16.1003L5.21858 15.9786ZM12.1175 15.9786L10.127 16.1729L10.3772 18.7355L12.7982 17.8592L12.1175 15.9786ZM14.0526 13.3848L15.9608 13.9836L15.9611 13.9829L14.0526 13.3848ZM15.9036 6.67779L17.8401 7.17807L17.8976 6.95524L17.9031 6.72516L15.9036 6.67779ZM13.7161 2.20513L12.9833 4.06603L12.9841 4.06633L13.7161 2.20513ZM1.26399 6.67779L-0.709826 7.00036L-0.709678 7.00126L1.26399 6.67779ZM3.03108 13.3848L1.11948 13.9729L1.14762 14.0643L1.18435 14.1527L3.03108 13.3848ZM12.8629 13.721L12.7345 13.971L16.2925 15.7987L16.4209 15.5487L12.8629 13.721ZM13.648 11.6123C13.4028 12.4567 13.2494 12.9723 12.8648 13.7173L16.4191 15.5523C16.9944 14.4379 17.2355 13.602 17.4894 12.7276L13.648 11.6123ZM13.9027 10.756L13.6517 11.5998L17.4857 12.7402L17.7366 11.8964L13.9027 10.756ZM14.4136 9.28212C14.2628 9.6907 14.0828 10.1755 13.9096 10.7331L17.7297 11.9194C17.8671 11.4769 18.0113 11.0867 18.1661 10.6672L14.4136 9.28212ZM14.9979 6.63511C15.0209 7.60913 14.8108 8.21123 14.4147 9.27907L18.165 10.6703C18.5746 9.56622 19.0393 8.34019 18.9968 6.54077L14.9979 6.63511ZM14.6094 4.41848C14.9343 5.08775 14.9708 5.47019 14.9979 6.63455L18.9968 6.54133C18.9673 5.27601 18.9296 4.15845 18.2077 2.67147L14.6094 4.41848ZM13.4603 3.03892C14.0962 3.5586 14.3102 3.80244 14.6094 4.41852L18.2077 2.67142C17.5888 1.39689 16.9425 0.718854 15.9915 -0.0583489L13.4603 3.03892ZM10.5924 2.03928C12.096 2.23901 12.6395 2.36635 13.4583 3.03727L15.9935 -0.056698C14.2762 -1.4639 12.7914 -1.70375 11.1192 -1.92589L10.5924 2.03928ZM9.41312 2.02241C9.89506 1.99585 10.1774 1.98377 10.5906 2.03904L11.1209 -1.92565C10.3076 -2.03444 9.70323 -1.99965 9.19298 -1.97153L9.41312 2.02241ZM8.41585 2.05669C8.81327 2.05669 9.14665 2.03793 9.41922 2.02207L9.18689 -1.97118C8.92234 -1.95579 8.68834 -1.94331 8.41585 -1.94331V2.05669ZM7.4904 2.02515C7.76068 2.04269 8.06059 2.05669 8.41585 2.05669V-1.94331C8.17051 -1.94331 7.96066 -1.95274 7.74949 -1.96645L7.4904 2.02515ZM6.48183 2.04056C6.84186 1.99456 7.0863 2.00398 7.5146 2.02657L7.7253 -1.96787C7.26492 -1.99216 6.71541 -2.0218 5.97486 -1.92718L6.48183 2.04056ZM3.65533 3.08037C4.55846 2.39134 5.13632 2.2126 6.482 2.04054L5.97469 -1.92716C4.20416 -1.70078 2.87577 -1.35608 1.2291 -0.099793L3.65533 3.08037ZM2.37353 4.45221C2.66756 3.87456 2.88942 3.66107 3.65054 3.084L1.23388 -0.10343C0.294806 0.608563 -0.491139 1.26227 -1.19125 2.63774L2.37353 4.45221ZM2.00173 6.63455C2.02982 5.4294 2.05548 5.07743 2.37375 4.45179L-1.19147 2.63816C-1.95816 4.14533 -1.96864 5.3168 -1.99719 6.54133L2.00173 6.63455ZM2.61018 9.37894C2.19451 8.26148 1.9778 7.64975 2.00172 6.63506L-1.99717 6.54083C-2.04064 8.38551 -1.56594 9.62535 -1.13884 10.7735L2.61018 9.37894ZM3.08314 10.7113C2.91835 10.2013 2.75148 9.75571 2.60833 9.37398L-1.13699 10.7785C-0.993027 11.1624 -0.856194 11.5293 -0.723126 11.9411L3.08314 10.7113ZM3.18074 11.015L3.08406 10.7142L-0.724052 11.9382L-0.627372 12.239L3.18074 11.015ZM4.23505 13.7484C3.74272 12.7526 3.54446 12.1418 3.18 11.0127L-0.626624 12.2413C-0.254765 13.3934 0.017681 14.2436 0.649372 15.5212L4.23505 13.7484ZM4.4517 14.2062L4.25053 13.7804L0.633893 15.4892L0.835065 15.915L4.4517 14.2062ZM4.82952 14.8855C4.75159 14.7906 4.7026 14.715 4.65893 14.6365C4.60601 14.5414 4.55737 14.4374 4.46295 14.2304L0.823822 15.8908C1.00759 16.2935 1.24159 16.8189 1.73752 17.4232L4.82952 14.8855ZM5.37805 15.3213C5.18627 15.1966 5.09958 15.1389 5.02109 15.0767C4.95954 15.0279 4.90218 14.9746 4.83349 14.8904L1.73355 17.4183C2.28269 18.0917 2.83443 18.4387 3.19778 18.6749L5.37805 15.3213ZM6.09773 15.8201C5.81752 15.6056 5.56748 15.4415 5.35993 15.3097L3.2159 18.6865C3.37749 18.7891 3.51807 18.8828 3.66658 18.9965L6.09773 15.8201ZM8.20064 17.4293L6.09762 15.82L3.66669 18.9965L5.76972 20.6059L8.20064 17.4293ZM8.70994 18.0024C8.91922 18.0068 9.0143 18.0675 8.95741 18.04C8.91732 18.0207 8.84251 17.9764 8.74194 17.9013C8.64654 17.8301 8.55933 17.7548 8.49522 17.6959C8.46428 17.6675 8.44145 17.6455 8.42875 17.633C8.42246 17.6268 8.41887 17.6232 8.41823 17.6225C8.41791 17.6222 8.41835 17.6226 8.41957 17.6239C8.42018 17.6245 8.42099 17.6253 8.422 17.6264C8.42251 17.6269 8.42306 17.6275 8.42367 17.6281C8.42397 17.6284 8.42429 17.6288 8.42462 17.6291C8.42478 17.6293 8.42504 17.6295 8.42512 17.6296C8.42538 17.6299 8.42565 17.6302 6.98518 19.0176C5.54472 20.4051 5.54499 20.4054 5.54526 20.4057C5.54536 20.4058 5.54564 20.4061 5.54583 20.4063C5.54621 20.4067 5.54662 20.4071 5.54703 20.4075C5.54787 20.4084 5.54876 20.4093 5.54972 20.4103C5.55164 20.4123 5.5538 20.4145 5.55619 20.4169C5.56099 20.4219 5.56676 20.4277 5.57346 20.4345C5.58685 20.4481 5.60404 20.4653 5.62473 20.4856C5.66599 20.5262 5.72191 20.5799 5.79017 20.6426C5.92447 20.7658 6.1174 20.9337 6.34903 21.1066C6.57549 21.2757 6.87457 21.4765 7.22038 21.6432C7.54939 21.8018 8.04235 21.9894 8.62663 22.0016L8.70994 18.0024ZM10.4349 19.0176C9.01202 17.6121 9.01229 17.6119 9.01256 17.6116C9.01264 17.6115 9.01291 17.6112 9.01308 17.6111C9.01342 17.6107 9.01375 17.6104 9.01406 17.6101C9.01469 17.6094 9.01526 17.6089 9.01578 17.6083C9.01681 17.6073 9.01763 17.6065 9.01825 17.6059C9.01947 17.6046 9.01986 17.6043 9.01945 17.6047C9.01863 17.6055 9.01468 17.6093 9.00788 17.6159C8.99415 17.629 8.96969 17.652 8.93668 17.6815C8.86831 17.7425 8.77561 17.8201 8.67456 17.8929C8.56797 17.9697 8.48926 18.0141 8.44768 18.033C8.38907 18.0595 8.49071 17.998 8.7084 18.0024L8.62817 22.0016C9.23527 22.0138 9.75244 21.8332 10.0981 21.6766C10.4607 21.5123 10.775 21.3097 11.0127 21.1384C11.256 20.9632 11.4589 20.7918 11.6001 20.6658C11.6718 20.6018 11.7306 20.5468 11.774 20.5053C11.7957 20.4845 11.8137 20.4669 11.8278 20.4531C11.8348 20.4461 11.8408 20.4401 11.8458 20.4351C11.8483 20.4326 11.8506 20.4304 11.8526 20.4284C11.8536 20.4274 11.8545 20.4264 11.8554 20.4256C11.8558 20.4251 11.8562 20.4247 11.8566 20.4243C11.8568 20.4241 11.8571 20.4238 11.8572 20.4237C11.8575 20.4234 11.8578 20.4231 10.4349 19.0176ZM10.8553 15.9296L9.0882 17.539L11.7816 20.4963L13.5487 18.8869L10.8553 15.9296ZM12.1869 14.8653C12.0871 14.9838 11.8574 15.1873 11.564 15.4095C11.4338 15.5081 11.3153 15.5922 11.2302 15.6512C11.188 15.6804 11.1549 15.7027 11.1339 15.7168C11.1234 15.7238 11.1159 15.7288 11.1119 15.7314C11.1099 15.7327 11.1087 15.7335 11.1085 15.7337C11.1084 15.7337 11.1085 15.7337 11.1088 15.7334C11.109 15.7333 11.1092 15.7332 11.1095 15.733C11.1096 15.7329 11.1098 15.7328 11.11 15.7327C11.1101 15.7326 11.1102 15.7325 11.1102 15.7325C11.1104 15.7324 11.1105 15.7323 12.202 17.4083C13.2934 19.0842 13.2936 19.0841 13.2937 19.084C13.2938 19.0839 13.294 19.0838 13.2941 19.0838C13.2943 19.0836 13.2946 19.0834 13.2948 19.0833C13.2954 19.0829 13.296 19.0825 13.2966 19.0821C13.2979 19.0812 13.2995 19.0802 13.3013 19.079C13.3049 19.0767 13.3095 19.0736 13.3151 19.07C13.3261 19.0627 13.341 19.0528 13.3591 19.0407C13.3955 19.0163 13.4455 18.9825 13.5062 18.9405C13.6267 18.8571 13.793 18.7391 13.9787 18.5984C14.3173 18.3421 14.8447 17.9186 15.2453 17.4434L12.1869 14.8653ZM12.7298 13.9803C12.493 14.4471 12.409 14.6037 12.1914 14.86L15.2408 17.4487C15.786 16.8065 16.0467 16.2835 16.2973 15.7894L12.7298 13.9803ZM8.41532 7.00379C6.8001 7.0721 5.73653 8.10586 5.11743 9.03027C4.49757 9.95582 4.10782 11.0676 3.85338 12.019C3.59182 12.997 3.43605 13.9508 3.34536 14.6473C3.29957 14.9991 3.26932 15.2935 3.25031 15.5031C3.24079 15.6081 3.23404 15.6923 3.22955 15.7523C3.22731 15.7823 3.22562 15.8063 3.22443 15.8238C3.22384 15.8326 3.22337 15.8398 3.22301 15.8453C3.22283 15.8481 3.22269 15.8504 3.22257 15.8523C3.22251 15.8533 3.22245 15.8542 3.22241 15.8549C3.22238 15.8553 3.22235 15.8558 3.22234 15.856C3.22231 15.8564 3.22229 15.8569 5.21858 15.9786C7.21487 16.1003 7.21485 16.1007 7.21483 16.101C7.21482 16.1011 7.2148 16.1014 7.21479 16.1016C7.21477 16.1019 7.21476 16.1022 7.21475 16.1023C7.21473 16.1026 7.21474 16.1024 7.21478 16.1019C7.21484 16.1008 7.21502 16.0982 7.2153 16.094C7.21587 16.0856 7.21688 16.0711 7.21839 16.0508C7.22143 16.0103 7.22646 15.9471 7.23396 15.8644C7.24899 15.6986 7.27376 15.4565 7.31189 15.1637C7.38905 14.5711 7.51673 13.8034 7.71757 13.0524C7.92553 12.2748 8.17713 11.65 8.44094 11.2561C8.70552 10.861 8.76792 10.9925 8.58434 11.0002L8.41532 7.00379ZM12.1175 15.9786C14.108 15.7842 14.108 15.7838 14.108 15.7833C14.1079 15.7832 14.1079 15.7827 14.1079 15.7823C14.1078 15.7815 14.1077 15.7807 14.1076 15.7797C14.1074 15.7778 14.1072 15.7754 14.1069 15.7726C14.1063 15.767 14.1056 15.7597 14.1046 15.7507C14.1028 15.7328 14.1001 15.7082 14.0967 15.6774C14.0898 15.6158 14.0797 15.5292 14.066 15.4213C14.0386 15.2057 13.9964 14.903 13.9362 14.5419C13.817 13.8271 13.6216 12.8505 13.3176 11.8578C13.0225 10.8939 12.5821 9.76926 11.9105 8.85519C11.2358 7.9368 10.0856 6.9324 8.41442 7.00383L8.58524 11.0002C8.37624 11.0091 8.40932 10.8455 8.68704 11.2235C8.96793 11.6059 9.24924 12.2332 9.49294 13.029C9.72782 13.796 9.88853 14.587 9.99072 15.1999C10.0412 15.5027 10.0761 15.7537 10.098 15.926C10.1089 16.012 10.1166 16.0779 10.1213 16.1203C10.1237 16.1415 10.1253 16.1568 10.1262 16.1657C10.1267 16.1701 10.127 16.173 10.1271 16.1742C10.1272 16.1748 10.1272 16.175 10.1272 16.1748C10.1271 16.1747 10.1271 16.1745 10.1271 16.1742C10.1271 16.174 10.127 16.1737 10.127 16.1736C10.127 16.1733 10.127 16.1729 12.1175 15.9786ZM12.1443 12.786C11.9558 13.3868 11.7118 13.75 11.5373 13.9491C11.4481 14.0508 11.3775 14.1093 11.3413 14.1357C11.2941 14.1702 11.3213 14.1398 11.4368 14.098L12.7982 17.8592C13.9233 17.4519 15.2768 16.1635 15.9608 13.9836L12.1443 12.786ZM13.9672 6.1775C13.5729 7.70397 12.665 11.1242 12.1441 12.7868L15.9611 13.9829C16.5172 12.2079 17.4493 8.69067 17.8401 7.17807L13.9672 6.1775ZM12.9841 4.06633C13.139 4.12729 13.3975 4.33295 13.6248 4.95129C13.8452 5.55087 13.9136 6.23264 13.9042 6.63041L17.9031 6.72516C17.922 5.92762 17.8053 4.73048 17.3792 3.57127C16.96 2.43082 16.1106 0.99782 14.4482 0.343932L12.9841 4.06633ZM8.49983 3.22076C9.21643 3.22076 11.0392 3.30045 12.9833 4.06603L14.449 0.344232C11.8501 -0.679247 9.46585 -0.779244 8.49983 -0.779244V3.22076ZM4.77638 3.83689C4.9846 3.68933 5.57051 3.48789 6.49562 3.35809C7.32826 3.24127 8.1325 3.22076 8.49983 3.22076V-0.779244C8.02585 -0.779244 7.02126 -0.754836 5.93984 -0.603106C4.95088 -0.464349 3.5175 -0.173601 2.46351 0.573367L4.77638 3.83689ZM3.23781 6.35522C3.09774 5.49815 3.65288 4.63313 4.77638 3.83689L2.46351 0.573367C1.0626 1.5662 -1.24261 3.74024 -0.709826 7.00036L3.23781 6.35522ZM4.94268 12.7968C4.45668 11.2169 3.4811 7.83967 3.23766 6.35431L-0.709678 7.00126C-0.414059 8.80497 0.651375 12.4512 1.11948 13.9729L4.94268 12.7968ZM5.769 14.0558C5.88978 14.0904 5.90028 14.1281 5.80732 14.0472C5.72183 13.9728 5.60618 13.8477 5.47309 13.6667C5.20211 13.2982 4.98203 12.8676 4.87781 12.617L1.18435 14.1527C1.38872 14.6442 1.75751 15.3659 2.25069 16.0365C2.68543 16.6277 3.49109 17.5644 4.66816 17.9013L5.769 14.0558Z" transform="translate(4 2)" fill="#EEEEEE" mask="url(#path-1-inside-1)"/>
</svg>
