<svg width="24" height="30" viewBox="0 0 24 30" fill="none" xmlns="http://www.w3.org/2000/svg">
<path d="M23.5363 17.3279V17.2214C23.307 16.1035 21.3005 6.1486 18.0901 4.12569C17.4595 3.72643 16.8862 3.32717 16.3416 2.92791C15.7683 2.50203 15.2523 2.10277 14.7937 1.73013C14.7077 1.65027 14.6217 1.59704 14.5357 1.54381C13.3318 0.585582 12.5579 0 11.784 0H11.7553H11.7266C10.9527 0.0266173 10.1788 0.585582 8.97488 1.54381C8.91755 1.59704 8.83156 1.65027 8.74556 1.73013C8.28694 2.10277 7.77098 2.50203 7.19769 2.92791C6.65307 3.32717 6.07979 3.72643 5.44918 4.12569C2.23878 6.1486 0.232278 16.1035 0.0029641 17.2214V17.3279C-0.0543644 19.7767 0.719569 21.7464 2.35343 23.1837C4.96188 25.4728 8.97488 25.7656 10.8381 25.7656C11.268 25.7656 11.612 25.739 11.7553 25.739C12.4433 25.7922 17.9181 26.0318 21.1572 23.1837C22.8197 21.773 23.6223 19.8033 23.5363 17.3279ZM20.0679 22.1456C17.1729 24.6743 11.87 24.3016 11.8126 24.275H11.7553H11.698C11.4687 24.3016 6.3091 24.621 3.47134 22.119C2.18145 21.0011 1.55083 19.404 1.60816 17.4344C1.69415 17.0351 2.18145 14.5863 3.01271 11.9512C4.50325 7.10683 5.76448 5.74935 6.3951 5.35009C6.62441 5.19038 6.85373 5.05729 7.08304 4.89759C7.08304 5.03068 7.08304 5.19038 7.08304 5.32347C7.08304 10.434 9.1182 14.2935 11.8126 14.2935C14.5071 14.2935 16.5422 10.434 16.5422 5.32347C16.5422 5.19038 16.5422 5.03068 16.5422 4.89759C16.7716 5.05729 17.0009 5.19038 17.2302 5.35009C17.8608 5.74935 19.0934 7.10683 20.6126 11.9512C21.4152 14.5597 21.9311 17.0351 22.0171 17.4344C21.9884 19.4307 21.3578 21.0011 20.0679 22.1456Z" transform="translate(23.7217 26.7578) rotate(179.6)" fill="#E0E0E0"/>
</svg>
