<svg width="29" height="28" viewBox="0 0 29 28" fill="none" xmlns="http://www.w3.org/2000/svg">
<path d="M27.1729 4.46263C28.7995 8.75375 28.7019 13.6918 26.6424 18.032C24.5828 22.3722 20.5352 26.1216 14.289 27.9802C14.1992 28.0066 14.1008 28.0066 14.011 27.9802C7.76478 26.1216 3.71717 22.3722 1.65764 18.032C-0.40193 13.6918 -0.499505 8.75375 1.12709 4.46263C1.14813 4.4069 1.18736 4.35672 1.24068 4.31736C1.29401 4.278 1.35947 4.25089 1.43024 4.23884C5.60298 3.49992 9.75664 2.26048 13.9226 0.0581723C13.9645 0.0342699 14.0117 0.0170092 14.0616 0.00731253L27.1729 4.46263ZM27.1729 4.46263C27.1519 4.4069 27.1126 4.35672 27.0593 4.31736M27.1729 4.46263L27.0593 4.31736M27.0593 4.31736C27.006 4.278 26.9405 4.25089 26.8698 4.23884L27.0593 4.31736ZM2.23383 5.26816C6.19226 4.52552 10.1744 3.30886 14.15 1.2719C18.1256 3.30886 22.1077 4.52552 26.0662 5.26816C27.4294 9.19637 27.2927 13.6642 25.4328 17.5837C23.5398 21.5729 19.8794 25.0148 14.15 26.7959C8.42062 25.0148 4.76023 21.5729 2.86724 17.5837C1.00729 13.6642 0.870606 9.19637 2.23383 5.26816Z" transform="translate(0.5)" stroke="#E0E0E0"/>
<rect width="13.7897" height="2.03309" rx="1.01655" transform="translate(10.4365 8) scale(0.998961 1.00104) rotate(45)" fill="#E0E0E0"/>
<rect width="13.7897" height="2.03309" rx="1.01655" transform="translate(9.02441 17.7617) scale(0.998961 1.00104) rotate(-45)" fill="#E0E0E0"/>
</svg>
