<svg width="34" height="30" viewBox="0 0 34 34" fill="none" xmlns="http://www.w3.org/2000/svg">
<rect x="0.5" y="0.5" width="15.2856" height="14" transform="scale(2)" fill="#424242" stroke="#8D8D8D"/>
<path d="M3.79248 6.32129C3.79248 6.19824 3.77344 6.08984 3.73535 5.99609C3.7002 5.89941 3.6416 5.81152 3.55957 5.73242C3.48047 5.65332 3.375 5.58154 3.24316 5.51709C3.11426 5.44971 2.95752 5.38379 2.77295 5.31934C2.47705 5.21387 2.20752 5.10254 1.96436 4.98535C1.72119 4.86816 1.51318 4.73193 1.34033 4.57666C1.17041 4.42139 1.03857 4.24121 0.944824 4.03613C0.851074 3.82812 0.804199 3.58203 0.804199 3.29785C0.804199 3.04883 0.84668 2.82178 0.931641 2.6167C1.0166 2.40869 1.13672 2.22852 1.29199 2.07617C1.44727 1.92383 1.63477 1.80078 1.85449 1.70703C2.07422 1.61328 2.31885 1.55322 2.58838 1.52686V0.582031H3.2915V1.53564C3.55518 1.5708 3.79248 1.64258 4.00342 1.75098C4.21436 1.85938 4.39307 2.00146 4.53955 2.17725C4.68896 2.3501 4.80322 2.55518 4.88232 2.79248C4.96436 3.02686 5.00537 3.29053 5.00537 3.5835H3.78369C3.78369 3.229 3.70312 2.96094 3.54199 2.7793C3.38086 2.59473 3.1626 2.50244 2.88721 2.50244C2.73779 2.50244 2.60742 2.52295 2.49609 2.56396C2.3877 2.60205 2.29834 2.65771 2.22803 2.73096C2.15771 2.80127 2.10498 2.88477 2.06982 2.98145C2.0376 3.07812 2.02148 3.18359 2.02148 3.29785C2.02148 3.41211 2.0376 3.51465 2.06982 3.60547C2.10498 3.69336 2.16211 3.77539 2.24121 3.85156C2.32324 3.92773 2.43018 4.00098 2.56201 4.07129C2.69385 4.13867 2.85791 4.20752 3.0542 4.27783C3.3501 4.38916 3.61816 4.50488 3.8584 4.625C4.09863 4.74219 4.30371 4.87988 4.47363 5.03809C4.64648 5.19336 4.77832 5.375 4.86914 5.58301C4.96289 5.78809 5.00977 6.03125 5.00977 6.3125C5.00977 6.57031 4.96729 6.80322 4.88232 7.01123C4.79736 7.21631 4.67578 7.39355 4.51758 7.54297C4.35938 7.69238 4.16895 7.8125 3.94629 7.90332C3.72363 7.99121 3.47461 8.04834 3.19922 8.07471V8.93604H2.50049V8.07471C2.25146 8.05127 2.00977 7.99707 1.77539 7.91211C1.54102 7.82422 1.33301 7.69824 1.15137 7.53418C0.972656 7.37012 0.829102 7.16357 0.720703 6.91455C0.612305 6.6626 0.558105 6.36084 0.558105 6.00928H1.78418C1.78418 6.22021 1.81494 6.39746 1.87646 6.54102C1.93799 6.68164 2.01709 6.79443 2.11377 6.87939C2.21338 6.96143 2.32617 7.02002 2.45215 7.05518C2.57812 7.09033 2.70703 7.10791 2.83887 7.10791C3.15234 7.10791 3.38965 7.03467 3.55078 6.88818C3.71191 6.7417 3.79248 6.55273 3.79248 6.32129ZM10.0635 8.95361H6.05566V8H10.0635V8.95361Z" transform="translate(4.3418 6) scale(2)" fill="white"/>
</svg>
