<svg width="28" height="28" viewBox="0 0 28 28" fill="none" xmlns="http://www.w3.org/2000/svg">
<rect width="28" height="28" fill="#333333"/>
<path d="M5.89941 10.3887C5.89941 10.1973 5.86979 10.0286 5.81055 9.88281C5.75586 9.73242 5.66471 9.5957 5.53711 9.47266C5.41406 9.34961 5.25 9.23796 5.04492 9.1377C4.8444 9.03288 4.60059 8.93034 4.31348 8.83008C3.85319 8.66602 3.43392 8.49284 3.05566 8.31055C2.67741 8.12826 2.35384 7.91634 2.08496 7.6748C1.82064 7.43327 1.61556 7.15299 1.46973 6.83398C1.32389 6.51042 1.25098 6.1276 1.25098 5.68555C1.25098 5.29818 1.31706 4.94499 1.44922 4.62598C1.58138 4.30241 1.76823 4.02214 2.00977 3.78516C2.2513 3.54818 2.54297 3.35677 2.88477 3.21094C3.22656 3.0651 3.6071 2.97168 4.02637 2.93066V1.46094H5.12012V2.94434C5.53027 2.99902 5.89941 3.11068 6.22754 3.2793C6.55566 3.44792 6.83366 3.66895 7.06152 3.94238C7.29395 4.21126 7.47168 4.53027 7.59473 4.89941C7.72233 5.264 7.78613 5.67415 7.78613 6.12988H5.88574C5.88574 5.57845 5.76042 5.16146 5.50977 4.87891C5.25911 4.5918 4.9196 4.44824 4.49121 4.44824C4.25879 4.44824 4.05599 4.48014 3.88281 4.54395C3.71419 4.60319 3.5752 4.68978 3.46582 4.80371C3.35645 4.91309 3.27441 5.04297 3.21973 5.19336C3.1696 5.34375 3.14453 5.50781 3.14453 5.68555C3.14453 5.86328 3.1696 6.02279 3.21973 6.16406C3.27441 6.30078 3.36328 6.42839 3.48633 6.54688C3.61393 6.66536 3.78027 6.7793 3.98535 6.88867C4.19043 6.99349 4.44564 7.10059 4.75098 7.20996C5.21126 7.38314 5.62826 7.56315 6.00195 7.75C6.37565 7.93229 6.69466 8.14648 6.95898 8.39258C7.22786 8.63411 7.43294 8.91667 7.57422 9.24023C7.72005 9.55924 7.79297 9.9375 7.79297 10.375C7.79297 10.776 7.72689 11.1383 7.59473 11.4619C7.46257 11.7809 7.27344 12.0566 7.02734 12.2891C6.78125 12.5215 6.48503 12.7083 6.13867 12.8496C5.79232 12.9863 5.40495 13.0752 4.97656 13.1162V14.4561H3.88965V13.1162C3.50228 13.0798 3.1263 12.9954 2.76172 12.8633C2.39714 12.7266 2.07357 12.5306 1.79102 12.2754C1.51302 12.0202 1.28971 11.6989 1.12109 11.3115C0.952474 10.9196 0.868164 10.4502 0.868164 9.90332H2.77539C2.77539 10.2314 2.82324 10.5072 2.91895 10.7305C3.01465 10.9492 3.1377 11.1247 3.28809 11.2568C3.44303 11.3844 3.61849 11.4756 3.81445 11.5303C4.01042 11.585 4.21094 11.6123 4.41602 11.6123C4.90365 11.6123 5.27279 11.4984 5.52344 11.2705C5.77409 11.0426 5.89941 10.7487 5.89941 10.3887ZM15.6543 14.4834H9.41992V13H15.6543V14.4834Z" transform="translate(2.94824 7.17578)" fill="white"/>
</svg>
