<svg width="28" height="28" viewBox="0 0 28 28" fill="none" xmlns="http://www.w3.org/2000/svg">
<rect width="28" height="28" fill="#333333"/>
<path d="M7.58496 13.6426C7.58496 13.3965 7.54688 13.1797 7.4707 12.9922C7.40039 12.7988 7.2832 12.623 7.11914 12.4648C6.96094 12.3066 6.75 12.1631 6.48633 12.0342C6.22852 11.8994 5.91504 11.7676 5.5459 11.6387C4.9541 11.4277 4.41504 11.2051 3.92871 10.9707C3.44238 10.7363 3.02637 10.4639 2.68066 10.1533C2.34082 9.84277 2.07715 9.48242 1.88965 9.07227C1.70215 8.65625 1.6084 8.16406 1.6084 7.5957C1.6084 7.09766 1.69336 6.64355 1.86328 6.2334C2.0332 5.81738 2.27344 5.45703 2.58398 5.15234C2.89453 4.84766 3.26953 4.60156 3.70898 4.41406C4.14844 4.22656 4.6377 4.10645 5.17676 4.05371V2.16406H6.58301V4.07129C7.11035 4.1416 7.58496 4.28516 8.00684 4.50195C8.42871 4.71875 8.78613 5.00293 9.0791 5.35449C9.37793 5.7002 9.60645 6.11035 9.76465 6.58496C9.92871 7.05371 10.0107 7.58105 10.0107 8.16699H7.56738C7.56738 7.45801 7.40625 6.92187 7.08398 6.55859C6.76172 6.18945 6.3252 6.00488 5.77441 6.00488C5.47559 6.00488 5.21484 6.0459 4.99219 6.12793C4.77539 6.2041 4.59668 6.31543 4.45605 6.46191C4.31543 6.60254 4.20996 6.76953 4.13965 6.96289C4.0752 7.15625 4.04297 7.36719 4.04297 7.5957C4.04297 7.82422 4.0752 8.0293 4.13965 8.21094C4.20996 8.38672 4.32422 8.55078 4.48242 8.70312C4.64648 8.85547 4.86035 9.00195 5.12402 9.14258C5.3877 9.27734 5.71582 9.41504 6.1084 9.55566C6.7002 9.77832 7.23633 10.0098 7.7168 10.25C8.19727 10.4844 8.60742 10.7598 8.94727 11.0762C9.29297 11.3867 9.55664 11.75 9.73828 12.166C9.92578 12.5762 10.0195 13.0625 10.0195 13.625C10.0195 14.1406 9.93457 14.6064 9.76465 15.0225C9.59473 15.4326 9.35156 15.7871 9.03516 16.0859C8.71875 16.3848 8.33789 16.625 7.89258 16.8066C7.44727 16.9824 6.94922 17.0967 6.39844 17.1494V18.8721H5.00098V17.1494C4.50293 17.1025 4.01953 16.9941 3.55078 16.8242C3.08203 16.6484 2.66602 16.3965 2.30273 16.0684C1.94531 15.7402 1.6582 15.3271 1.44141 14.8291C1.22461 14.3252 1.11621 13.7217 1.11621 13.0186H3.56836C3.56836 13.4404 3.62988 13.7949 3.75293 14.082C3.87598 14.3633 4.03418 14.5889 4.22754 14.7588C4.42676 14.9229 4.65234 15.04 4.9043 15.1104C5.15625 15.1807 5.41406 15.2158 5.67773 15.2158C6.30469 15.2158 6.7793 15.0693 7.10156 14.7764C7.42383 14.4834 7.58496 14.1055 7.58496 13.6426ZM20.127 18.9072H12.1113V17H20.127V18.9072Z" transform="translate(2.7334 5.60156)" fill="white"/>
</svg>
