<svg width="26" height="28" viewBox="0 0 26 28" fill="none" xmlns="http://www.w3.org/2000/svg">
<path d="M0.514923 4C3.31129 3.6 9.33679 1.16667 12 0C14.4968 1.16667 20.2892 3.6 23.4851 4C24.8167 8.83333 24.3839 19.6 12 24C-0.383909 19.6 -0.81668 8.83333 0.514923 4Z" transform="translate(1 2)" stroke="#EEEEEE" stroke-width="2"/>
<path d="M9.39888 0.344292C8.52107 1.39977 6.57528 3.97755 4.76604 6.30558C4.76604 6.30558 2.78083 4.5169 2.11871 3.92106C1.45659 3.32523 -0.528596 5.11327 0.13321 5.70945C0.795017 6.30563 3.99103 9.88235 4.76604 9.88235C5.54106 9.88235 10.7223 2.13118 11.3844 1.53655C12.0465 0.941921 10.2767 -0.711184 9.39888 0.344292Z" transform="translate(8 9)" fill="#EEEEEE"/>
</svg>
