<?xml version="1.0" encoding="UTF-8" standalone="no"?>
<svg viewBox="0 0 389 497" version="1.1" xmlns="http://www.w3.org/2000/svg" xmlns:xlink="http://www.w3.org/1999/xlink">
    <!-- Generator: Sketch 3.7.1 (28215) - http://www.bohemiancoding.com/sketch -->
    <title>Group 13</title>
    <desc>Created with Sketch.</desc>
    <defs>
        <linearGradient x1="50.7790723%" y1="14.7773143%" x2="49.1915472%" y2="82.8795422%" id="linearGradient-1">
            <stop stop-color="#E4E4E4" offset="0%"></stop>
            <stop stop-color="#FFFFFF" offset="100%"></stop>
        </linearGradient>
        <polygon id="path-2" points="34.7613934 0.0224090079 0.479592498 0.0224090079 0.479592498 34.3040697 34.7613934 34.3040697 34.7613934 0.0224090079"></polygon>
        <polygon id="path-4" points="0.780441617 41.6167289 42.0410916 41.6167289 42.0410916 0.356351142 0.780441617 0.356351142 0.780441617 41.6167289"></polygon>
    </defs>
    <g id="Page-1" stroke="none" stroke-width="1" fill="none" fill-rule="evenodd">
        <g id="Group-13" transform="translate(1.555556, -2.187207)">
            <g id="jupyter_filelogo-(1)" transform="translate(2.621520, 6.076389)" stroke-width="6.94444444" stroke="#9E9E9E">
                <g id="jupyter_filelogo">
                    <g id="Page-1">
                        <g id="jupyter_filelogo">
                            <g id="Group">
                                <path d="M203.125,0 C267.604167,0 381.25,41.25 381.25,67.0833333 L381.25,489.583333 L0,489.583333 L0,0 L203.125,0 Z" id="path4338" fill-opacity="0.9903" fill="#FFFFFF"></path>
                                <path d="M307.231995,69.5833333 C326.815329,58.9583333 380.234691,42.71026 381.172191,67.39776 C381.172191,25.52276 246.190329,0 201.398662,0 C235.669495,0 292.231995,13.3333333 307.231995,69.5833333 Z" id="path4384" fill="url(#linearGradient-1)"></path>
                            </g>
                        </g>
                    </g>
                </g>
            </g>
            <g id="Page-1" transform="translate(75.538187, 110.243056)">
                <g id="Group-3" transform="translate(192.077210, 0.777913)">
                    <mask id="mask-3" fill="white">
                        <use xlink:href="#path-2"></use>
                    </mask>
                    <g id="Clip-2"></g>
                    <path d="M34.7454068,16.4296443 C35.1503696,25.8878463 27.8122198,33.8830602 18.3540179,34.288023 C8.8958159,34.6937861 0.90060202,27.354836 0.495639235,17.896634 C0.089876128,8.43923237 7.42882621,0.443218163 16.8870282,0.0382553777 C26.3444298,-0.366707407 34.340444,6.97144235 34.7454068,16.4296443" id="Fill-1" fill="#6C6E70" mask="url(#mask-3)"></path>
                </g>
                <path d="M121.856503,246.650988 C69.4258275,246.650988 23.7682743,227.809014 0.000320128684,199.971424 C17.9867502,249.876284 65.7523508,285.557027 121.856503,285.557027 C177.960656,285.557027 225.726256,249.876284 243.712687,199.971424 C219.944732,227.809014 174.287179,246.650988 121.856503,246.650988" id="Fill-4" fill="#F27624"></path>
                <path d="M121.856503,65.4671962 C174.287179,65.4671962 219.944732,84.3099706 243.712687,112.147561 C225.726256,62.2418997 177.960656,26.5611569 121.856503,26.5611569 C65.7523508,26.5611569 17.9867502,62.2418997 0.000320128684,112.147561 C23.7682743,84.3099706 69.4258275,65.4671962 121.856503,65.4671962" id="Fill-6" fill="#F27624"></path>
                <g id="Group-10" transform="translate(12.805147, 280.090189)">
                    <mask id="mask-5" fill="white">
                        <use xlink:href="#path-4"></use>
                    </mask>
                    <g id="Clip-9"></g>
                    <path d="M42.0218518,20.1035211 C42.5092477,31.4864968 33.6768973,41.109565 22.2939216,41.5977613 C10.9109459,42.0851572 1.2878777,33.2528068 0.799681452,21.8698311 C0.312285531,10.4860551 9.14463592,0.8629869 20.5276116,0.375590978 C31.9113876,-0.111804943 41.5344558,8.72054545 42.0218518,20.1035211" id="Fill-8" fill="#939597" mask="url(#mask-5)"></path>
                </g>
                <path d="M26.4133375,40.8845946 C26.7102569,47.8201825 21.3288937,53.6841397 14.3933058,53.9810591 C7.4569175,54.2779784 1.59376065,48.8966152 1.2968413,41.960227 C0.999121623,35.0246391 6.38128512,29.1614822 13.3168731,28.8645629 C20.252461,28.5668432 26.1164182,33.9490067 26.4133375,40.8845946" id="Fill-11" fill="#57585A"></path>
            </g>
        </g>
    </g>
</svg>
