<?xml version="1.0" encoding="UTF-8" standalone="no"?>
<svg viewBox="0 0 384 491" version="1.1" xmlns="http://www.w3.org/2000/svg" xmlns:xlink="http://www.w3.org/1999/xlink">
    <!-- Generator: Sketch 3.7.1 (28215) - http://www.bohemiancoding.com/sketch -->
    <title>Group 2</title>
    <desc>Created with Sketch.</desc>
    <defs>
        <linearGradient x1="50.7790723%" y1="14.7773143%" x2="49.1915472%" y2="82.8795422%" id="linearGradient-1">
            <stop stop-color="#E4E4E4" offset="0%"></stop>
            <stop stop-color="#FFFFFF" offset="100%"></stop>
        </linearGradient>
    </defs>
    <g id="Page-1" stroke="none" stroke-width="1" fill="none" fill-rule="evenodd">
        <g id="Group-2" transform="translate(-6.205479, -3.947395)">
            <g id="Group-7" transform="translate(6.529316, 2.568493)" stroke-width="6.84931507" stroke="#9E9E9E">
                <g id="jupyter_filelogo-(1)" transform="translate(3.253425, 5.136986)">
                    <g id="jupyter_filelogo">
                        <g id="Page-1">
                            <g id="jupyter_filelogo">
                                <g id="Group">
                                    <path d="M0.00420456606,0 L200.34667,0 C263.942561,0 376.031602,40.6849315 376.031602,66.1643836 L376.031602,482.876712 L0.00420456606,482.876712 L0.00420456606,0 L0.00420456606,0 L0.00420456606,0 Z" id="path4338" fill-opacity="0.9903" fill="#FFFFFF"></path>
                                    <path d="M200.347088,0 C234.148458,0 289.936129,13.1506849 304.73065,68.630137 C324.045719,58.1506849 375.004623,41.609589 375.92928,65.9589041 C375.92928,24.6575342 244.525171,0 200.347088,0 L200.347088,0 L200.347088,0 L200.347088,0 Z" id="path4384" fill="url(#linearGradient-1)"></path>
                                </g>
                            </g>
                        </g>
                    </g>
                </g>
            </g>
            <path d="M86.652604,316.842466 L140.926577,178.760274 L155.6937,178.760274 L208.625207,316.842466 L195.200549,316.842466 L179.282741,273.5 L116.378631,273.5 L100.077262,316.842466 L86.652604,316.842466 Z M120.78959,262.376712 L174.871782,262.376712 L147.830686,189.883562 L120.78959,262.376712 Z M285.036166,264.678082 C280.177694,266.723755 275.255369,268.066207 270.269042,268.705479 C265.282716,269.344752 260.296464,269.856162 255.310138,270.239726 C246.488176,270.878999 239.616099,272.860714 234.6937,276.184932 C229.771301,279.509149 227.310138,284.559327 227.310138,291.335616 C227.310138,294.404125 227.917438,297.057066 229.132056,299.294521 C230.346674,301.531975 231.944831,303.385837 233.926577,304.856164 C235.908322,306.326491 238.209668,307.413238 240.830686,308.116438 C243.451704,308.819638 246.104645,309.171233 248.78959,309.171233 C253.392353,309.171233 257.867194,308.595896 262.214248,307.445205 C266.561301,306.294515 270.428843,304.536542 273.816987,302.171233 C277.205132,299.805924 279.922,296.801388 281.967672,293.157534 C284.013345,289.51368 285.036166,285.198655 285.036166,280.212329 L285.036166,264.678082 Z M265.666303,258.924658 C267.839829,258.668948 270.428845,258.285391 273.433426,257.773973 C276.438007,257.262555 278.89917,256.559365 280.816987,255.664384 C282.734805,254.769402 283.917442,253.267134 284.364933,251.157534 C284.812423,249.047935 285.036166,247.098182 285.036166,245.308219 C285.036166,239.426911 283.15034,234.600475 279.378631,230.828767 C275.606923,227.057059 269.246256,225.171233 260.29644,225.171233 C256.332949,225.171233 252.68915,225.522828 249.364933,226.226027 C246.040715,226.929227 243.132068,228.143827 240.638905,229.869863 C238.145742,231.595899 236.1001,233.897246 234.501919,236.773973 C232.903737,239.650699 231.848953,243.262535 231.337535,247.609589 L219.638905,247.609589 C220.022469,241.728281 221.364921,236.710066 223.666303,232.554795 C225.967684,228.399523 228.940257,225.011429 232.584111,222.390411 C236.227965,219.769393 240.4471,217.851604 245.241645,216.636986 C250.03619,215.422368 255.11833,214.815068 260.48822,214.815068 C265.474547,214.815068 270.17313,215.358442 274.584111,216.445205 C278.995092,217.531969 282.83067,219.257979 286.09096,221.623288 C289.35125,223.988596 291.908302,227.152948 293.762193,231.116438 C295.616083,235.079928 296.543015,239.938327 296.543015,245.691781 L296.543015,299.773973 C296.543015,304.248881 297.342094,307.093601 298.940275,308.308219 C300.538457,309.522837 303.766735,309.235169 308.625207,307.445205 L308.625207,316.458904 C307.730225,316.714613 306.419736,317.098171 304.6937,317.609589 C302.967664,318.121007 301.273617,318.376712 299.611508,318.376712 C297.821545,318.376712 296.095535,318.184933 294.433426,317.80137 C292.515608,317.545661 290.981377,316.938361 289.830686,315.979452 C288.679995,315.020543 287.753064,313.86987 287.049864,312.527397 C286.346664,311.184925 285.867217,309.71462 285.611508,308.116438 C285.355799,306.518257 285.227946,304.82421 285.227946,303.034247 C280.369475,308.404136 274.807886,312.49542 268.543015,315.308219 C262.278143,318.121019 255.501955,319.527397 248.214248,319.527397 C243.867194,319.527397 239.680021,318.952061 235.652604,317.80137 C231.625187,316.650679 228.077277,314.860743 225.008768,312.431507 C221.94026,310.002271 219.51106,307.029698 217.721097,303.513699 C215.931134,299.997699 215.036166,295.810527 215.036166,290.952055 C215.036166,274.075258 226.606826,264.102755 249.748494,261.034247 L265.666303,258.924658 Z" id="Aa" fill="#616161"></path>
        </g>
    </g>
</svg>
