<?xml version="1.0" encoding="utf-8"?>
<!-- Generator: Adobe Illustrator 22.1.0, SVG Export Plug-In . SVG Version: 6.00 Build 0)  -->
<svg version="1.1" id="Layer_1" xmlns="http://www.w3.org/2000/svg" xmlns:xlink="http://www.w3.org/1999/xlink" x="0px" y="0px"
	 viewBox="0 0 20 20" style="enable-background:new 0 0 20 20;" xml:space="preserve">
<style type="text/css">
	.st0{fill:none;}
	.st1{fill:#414141;}
	.st2{fill:#FFFFFF;}
</style>
<g>
	<rect class="st0" width="20" height="20"/>
	<rect x="2" y="2" class="st1" width="16" height="16"/>
	<path class="st2" d="M7.6,8h0.9l3.5,8h-1.1L10,14H6l-0.9,2H4L7.6,8z M8,9.1L6.4,13h3.2L8,9.1z"/>
	<path class="st2" d="M16.6,9.8c-0.2,0.1-0.4,0.1-0.7,0.1c-0.2,0-0.4-0.1-0.6-0.2c-0.1-0.1-0.2-0.4-0.2-0.7
		c-0.3,0.3-0.6,0.5-0.9,0.7c-0.3,0.1-0.7,0.2-1.1,0.2c-0.3,0-0.5,0-0.7-0.1c-0.2-0.1-0.4-0.2-0.6-0.3c-0.2-0.1-0.3-0.3-0.4-0.5
		c-0.1-0.2-0.1-0.4-0.1-0.7c0-0.3,0.1-0.6,0.2-0.8c0.1-0.2,0.3-0.4,0.4-0.5C12,7,12.2,6.9,12.5,6.8c0.2-0.1,0.5-0.1,0.7-0.2
		c0.3-0.1,0.5-0.1,0.7-0.1c0.2,0,0.4-0.1,0.6-0.1c0.2,0,0.3-0.1,0.4-0.2c0.1-0.1,0.2-0.2,0.2-0.4c0-1-1.1-1-1.3-1
		c-0.4,0-1.4,0-1.4,1.2h-0.9c0-0.4,0.1-0.7,0.2-1c0.1-0.2,0.3-0.4,0.5-0.6c0.2-0.2,0.5-0.3,0.8-0.3C13.3,4,13.6,4,13.9,4
		c0.3,0,0.5,0,0.8,0.1c0.3,0,0.5,0.1,0.7,0.2c0.2,0.1,0.4,0.3,0.5,0.5C16,5,16,5.2,16,5.6v2.9c0,0.2,0,0.4,0,0.5
		c0,0.1,0.1,0.2,0.3,0.2c0.1,0,0.2,0,0.3,0V9.8z M15.2,6.9c-1.2,0.6-3.1,0.2-3.1,1.4c0,1.4,3.1,1,3.1-0.5V6.9z"/>
</g>
</svg>
