<?xml version="1.0" encoding="utf-8"?>
<!-- Generator: Adobe Illustrator 21.0.0, SVG Export Plug-In . SVG Version: 6.00 Build 0)  -->
<svg version="1.1" id="Layer_1" xmlns="http://www.w3.org/2000/svg" xmlns:xlink="http://www.w3.org/1999/xlink" x="0px" y="0px"
	 viewBox="0 0 200 200" style="enable-background:new 0 0 200 200;" xml:space="preserve">
<style type="text/css">
	.st0{fill:#FFFFFF;}
	.st1{fill:#616161;}
	.st2{fill:#607D8B;}
	.st3{display:none;}
	.st4{display:inline;fill:none;stroke:#9E9E9E;stroke-width:0.25;stroke-miterlimit:10;}
	.st5{fill:none;}
</style>
<path class="st0" d="M134.6,36.8L134.6,36.8v6.9v20.4h21.3h7.1l0,0L134.6,36.8L134.6,36.8z"/>
<g>
	<g>
		<polygon class="st1" points="179.6,73 179.6,73.1 179.7,73.1 		"/>
	</g>
	<g>
		<polygon class="st1" points="126.8,20.2 126.8,20.3 126.9,20.3 		"/>
	</g>
	<path class="st2" d="M20.3,20.3L20,180h160V80l-60-60L20.3,20.3z"/>
</g>
<g class="st3">
	<line class="st4" x1="100" y1="0" x2="100" y2="200"/>
	<path class="st4" d="M195.9,100"/>
	<path class="st4" d="M4,100"/>
	<line class="st4" x1="0" y1="200" x2="200" y2="0"/>
	<line class="st4" x1="100" y1="0" x2="200" y2="100"/>
	<line class="st4" x1="0" y1="100" x2="100" y2="199.9"/>
	<line class="st4" x1="200" y1="100" x2="100" y2="200"/>
	<line class="st4" x1="100" y1="0.1" x2="0" y2="100"/>
	<line class="st4" x1="130" y1="0" x2="130" y2="200"/>
	<line class="st4" x1="70" y1="0" x2="70" y2="200"/>
	<line class="st4" x1="30" y1="0" x2="30" y2="200"/>
	<line class="st4" x1="170" y1="0" x2="170" y2="200"/>
	<line class="st4" x1="200" y1="100" x2="0" y2="100"/>
	<line class="st4" x1="200" y1="130" x2="0" y2="130"/>
	<line class="st4" x1="200" y1="70" x2="0" y2="70"/>
	<line class="st4" x1="200" y1="30" x2="0" y2="30"/>
	<line class="st4" x1="200" y1="170" x2="0" y2="170"/>
	<line class="st4" x1="20" y1="0.1" x2="20" y2="200.1"/>
	<line class="st4" x1="180" y1="0" x2="180" y2="200"/>
	<line class="st4" x1="0" y1="180" x2="200" y2="180"/>
	<line class="st4" x1="0" y1="20" x2="200" y2="20"/>
	<line class="st4" x1="160" y1="0" x2="160" y2="200"/>
	<line class="st4" x1="100" y1="15" x2="185" y2="100"/>
	<line class="st4" x1="15" y1="100" x2="100" y2="185"/>
	<line class="st4" x1="185" y1="100" x2="100" y2="185"/>
	<line class="st4" x1="100" y1="15" x2="15" y2="100"/>
	<line class="st4" x1="0" y1="0" x2="200" y2="200"/>
	<line class="st4" x1="60" y1="0" x2="60" y2="200"/>
	<line class="st4" x1="140" y1="0" x2="140" y2="200"/>
	<line class="st4" x1="0" y1="140" x2="200" y2="140"/>
	<line class="st4" x1="0" y1="60" x2="200" y2="60"/>
	<line class="st4" x1="190" y1="200" x2="0" y2="10"/>
	<line class="st4" x1="10" y1="0" x2="200" y2="190"/>
	<path class="st4" d="M200,200"/>
	<path class="st4" d="M0,0"/>
	<line class="st4" x1="190" y1="200" x2="0" y2="10"/>
	<line class="st4" x1="10" y1="0" x2="200" y2="190"/>
	<line class="st4" x1="0" y1="190" x2="190" y2="0"/>
	<line class="st4" x1="200" y1="10" x2="10" y2="200"/>
	<line class="st4" x1="40" y1="0" x2="40" y2="200"/>
	<line class="st4" x1="200" y1="160" x2="0" y2="160"/>
	<line class="st4" x1="200" y1="40" x2="0" y2="40"/>
	
		<rect x="71.7" y="71.7" transform="matrix(0.7071 -0.7071 0.7071 0.7071 -41.4393 100.0147)" class="st4" width="56.7" height="56.7"/>
	<line class="st4" x1="0" y1="150" x2="200" y2="150"/>
	<line class="st4" x1="150" y1="200" x2="150" y2="0"/>
	<line class="st4" x1="50" y1="200" x2="50" y2="0"/>
	<line class="st4" x1="200" y1="50" x2="0" y2="50"/>
	<line class="st4" x1="110" y1="0" x2="110" y2="200"/>
	<line class="st4" x1="120" y1="0" x2="120" y2="200"/>
	<line class="st4" x1="80" y1="200" x2="80" y2="0"/>
	<line class="st4" x1="90" y1="200" x2="90" y2="0"/>
	<line class="st4" x1="0" y1="70" x2="200" y2="70"/>
	<line class="st4" x1="0" y1="130" x2="200" y2="130"/>
	<line class="st4" x1="0" y1="90" x2="200" y2="90"/>
	<line class="st4" x1="0" y1="80" x2="200" y2="80"/>
	<line class="st4" x1="200" y1="120" x2="0" y2="120"/>
	<line class="st4" x1="200" y1="110" x2="0" y2="110"/>
	<line class="st4" x1="10" y1="0.1" x2="10" y2="200.1"/>
	<line class="st4" x1="190" y1="0.1" x2="190" y2="200.1"/>
	<line class="st4" x1="0" y1="10" x2="200" y2="10"/>
	<line class="st4" x1="0" y1="190" x2="200" y2="190"/>
</g>
<rect x="50" y="87.5" class="st5" width="100" height="64.9"/>
<polygon class="st0" points="125.1,40.2 159.8,75 125.1,74.9 "/>
<rect x="50" y="140" class="st0" width="100" height="10"/>
<rect x="50" y="110" class="st0" width="100" height="10.1"/>
<rect x="50" y="80.1" class="st0" width="50" height="10"/>
</svg>
