<svg xmlns="http://www.w3.org/2000/svg" width="16" viewBox="0 0 20 20">
  <path fill="#414141" d="M2 2h16v16H2z" class="jp-icon2"/>
  <path fill="#FFF" d="M7.6 8h.9l3.5 8h-1.1l-.9-2H6l-.9 2H4zM8 9.1 6.4 13h3.2zm8.6.7c-.2.1-.4.1-.7.1-.2 0-.4-.1-.6-.2-.1-.1-.2-.4-.2-.7-.3.3-.6.5-.9.7-.3.1-.7.2-1.1.2-.3 0-.5 0-.7-.1l-.6-.3c-.2-.1-.3-.3-.4-.5s-.1-.4-.1-.7.1-.6.2-.8.3-.4.4-.5c.1 0 .3-.1.6-.2.2-.1.5-.1.7-.2.3-.1.5-.1.7-.1s.4-.1.6-.1.3-.1.4-.2.2-.2.2-.4c0-1-1.1-1-1.3-1-.4 0-1.4 0-1.4 1.2h-.9c0-.4.1-.7.2-1 .1-.2.3-.4.5-.6s.5-.3.8-.3c.3-.1.6-.1.9-.1s.5 0 .8.1c.3 0 .5.1.7.2s.4.3.5.5.1.4.1.8V9c0 .1.1.2.3.2h.3zm-1.4-2.9c-1.2.6-3.1.2-3.1 1.4 0 1.4 3.1 1 3.1-.5z" class="jp-icon-accent2"/>
</svg>
