<svg
   width="16"
   viewBox="0 0 16 16"
   version="1.1"
   height="16"
   xmlns="http://www.w3.org/2000/svg">
  <g
     class="jp-icon-accent2"
     transform="matrix(1.1113666,0,0,1.1113666,-0.88845484,0.86812345)"
     fill="#616161">
    <path
       d="M 5.3002929,4.4009765 1.6992187,12.399023 h 1.1010742 l 0.9008789,-1.999511 h 3.9990234 l 0.9008789,1.999511 H 9.6997069 L 6.2011718,4.4009765 Z M 5.7006835,5.4996093 7.2998046,9.4009764 H 4.099121 Z"
       aria-label="A" />
    <path
       d="m 9.9104067,4.7522066 q 0,0.4146683 0.3030273,0.6539 0.303026,0.2392317 0.717695,0.2392317 0.505044,0 0.978191,-0.2339155 0.797439,-0.3880869 0.797439,-1.2705861 V 3.3699791 q -0.175436,0.1116414 -0.451882,0.1860691 -0.276445,0.074428 -0.542258,0.1063252 l -0.579473,0.074428 Q 10.612153,3.8059124 10.351656,3.954768 9.9104067,4.2046323 9.9104067,4.7522066 Z M 12.228296,2.817088 q 0.329608,-0.04253 0.44125,-0.2764455 0.06379,-0.1275902 0.06379,-0.3668219 0,-0.4890959 -0.350873,-0.7070625 -0.345557,-0.223283 -0.994141,-0.223283 -0.749593,0 -1.063252,0.4040358 -0.175437,0.2232829 -0.228599,0.6645325 H 9.2033442 Q 9.2299255,1.2594239 9.8838254,0.85007192 10.543042,0.43540365 11.409592,0.43540365 q 1.004773,0 1.632092,0.38277071 0.622002,0.38277074 0.622002,1.19084224 v 3.2801323 q 0,0.1488552 0.05848,0.2392316 0.06379,0.090376 0.260497,0.090376 0.0638,0 0.143539,-0.00532 0.07974,-0.010632 0.17012,-0.026581 V 6.293922 q -0.223283,0.063795 -0.340241,0.079744 -0.116957,0.015949 -0.318975,0.015949 -0.494412,0 -0.717695,-0.3508731 Q 12.802452,5.8526724 12.754606,5.5124318 12.462211,5.8952025 11.914637,6.1769642 11.367062,6.458726 10.707846,6.458726 9.915723,6.458726 9.4106783,5.9802626 8.9109499,5.496483 8.9109499,4.7734717 q 0,-0.7921228 0.4944122,-1.2280561 Q 9.8997742,3.1094823 10.702529,3.0084734 Z M 11.436173,0.43540365 Z"
       aria-label="a" />
  </g>
</svg>
