<svg width="16" height="16" viewBox="0 0 16 16" xmlns="http://www.w3.org/2000/svg">
  <g fill="currentColor">
    <path d="m5 5.76-4 8.89h1.22l1-2.22h4.45l1 2.22H9.9L6 5.75zm.45 1.22 1.77 4.34H3.67z"/>
    <path d="M10.13 6.15c-.04.51.43.91.9.97.67.07 1.4-.15 1.86-.64.33-.36.36-.87.34-1.34v-.53c-.77.45-1.73.27-2.54.61a1 1 0 0 0-.56.93M12.7 4a.6.6 0 0 0 .56-.65c.04-.4-.17-.8-.54-.94-.5-.2-1.07-.21-1.59-.08-.8.25-.8 1.1-.8 1.1h-.99c0-.64.24-1.36.85-1.68.85-.49 1.9-.5 2.83-.23.53.15 1.07.5 1.2 1.06.12.45.06.92.08 1.38v2.86c0 .41.54.27.7.26v.78c-.42.12-.91.2-1.3-.05-.28-.18-.37-.51-.41-.82a2.9 2.9 0 0 1-3.03.94 1.8 1.8 0 0 1-1.24-1.76c-.03-.6.24-1.21.76-1.53.62-.44 1.4-.44 2.12-.54z"/>
  </g>
</svg>
