<svg
   width="16"
   viewBox="0 0 16 16"
   version="1.1"
   height="16"
   id="svg1"
   xmlns="http://www.w3.org/2000/svg">
  <g
     fill="#616161"
     class="jp-icon3"
     transform="matrix(0.82963146,0,0,0.82963146,-2.2583319,-1.4888944)">
    <path
       d="m 14.239667,11.436336 v 7.38648 c 0,0.283699 -0.05624,0.58117 -0.271837,0.778018 -0.364756,0.365505 -0.956937,0.365505 -1.321693,0 L 10.762022,17.716719 C 10.554906,17.514047 10.454353,17.226258 10.490185,16.938701 V 11.436336 L 5.0628093,4.5185404 C 4.7459193,4.1117344 4.8171213,3.5253644 5.2221623,3.2062215 5.4002627,3.0749896 5.5971105,3 5.8033321,3 H 18.92652 c 0.206222,0 0.403069,0.07499 0.58117,0.2062215 0.405041,0.3191429 0.476243,0.9055129 0.159353,1.3123189 z" />
    <circle
       cx="18.137241"
       cy="16.874962"
       r="3"
       class="jp-icon-dot" />
  </g>
</svg>
