<svg
   width="12"
   viewBox="0 0 12 12"
   version="1.1"
   height="12"
   xmlns="http://www.w3.org/2000/svg"
   xmlns:svg="http://www.w3.org/2000/svg">
  <g
     fill="#616161"
     class="jp-icon3"
     transform="matrix(0.5925939,0,0,0.5925939,-1.1686594,-0.77778169)">
    <path
       d="m 13.971827,11.436336 v 7.38648 c 0,0.283699 -0.05624,0.58117 -0.271837,0.778018 -0.364756,0.365505 -0.956937,0.365505 -1.321693,0 L 10.494182,17.716719 C 10.287066,17.514047 10.186513,17.226258 10.222345,16.938701 V 11.436336 L 4.7949689,4.5185404 C 4.4780789,4.1117344 4.5492809,3.5253644 4.9543219,3.2062215 5.1324223,3.0749896 5.3292701,3 5.5354917,3 H 18.65868 c 0.206222,0 0.403069,0.07499 0.58117,0.2062215 0.405041,0.3191429 0.476243,0.9055129 0.159353,1.3123189 z" />
    <circle
       cx="17.700893"
       cy="16.874962"
       r="3"
       class="jp-icon-dot"
       id="circle1" />
  </g>
</svg>
