<svg width="16" height="16" viewBox="0 0 16 16" xmlns="http://www.w3.org/2000/svg">
  <g fill="#616161" class="jp-icon-accent2">
    <path d="m1 11.12.04 2.66L15 13.8v-2.67h-1.18l-.01 1.54H2.2v-1.54z"/>
    <path d="M3.16 9.17q0 .46.33.72t.8.26q.55 0 1.07-.25.88-.43.88-1.4v-.85q-.2.12-.5.2t-.6.12l-.64.08q-.57.08-.86.24-.48.28-.48.88M5.7 7.04q.37-.05.49-.31.07-.14.07-.4 0-.54-.39-.78-.38-.25-1.1-.25-.82 0-1.17.45-.19.24-.25.73h-.98q.03-1.16.75-1.61T4.8 4.4q1.1 0 1.8.42.69.42.69 1.31v3.62q0 .17.06.27.07.1.29.1l.16-.01.18-.03v.78q-.24.07-.37.09t-.35.02q-.55 0-.8-.4-.12-.2-.18-.57-.32.42-.92.73t-1.33.31q-.88 0-1.44-.53T2.05 9.2q0-.87.55-1.35.54-.48 1.43-.6ZM4.84 4.4" aria-label="a"/>
    <path d="M8.42 2.21h1.02v3.12q.35-.45.83-.68t1.04-.24q1.18 0 1.9.8.74.81.74 2.38 0 1.5-.72 2.48-.73.98-2 .98-.72 0-1.21-.34-.3-.2-.63-.66v.8h-.97Zm2.74 7.9q.86 0 1.28-.67.43-.68.43-1.8 0-.99-.43-1.64-.42-.65-1.25-.65-.72 0-1.27.54-.54.53-.54 1.76 0 .88.23 1.43.41 1.04 1.55 1.04" aria-label="b"/>
  </g>
</svg>
