<svg xmlns="http://www.w3.org/2000/svg" width="16" viewBox="0 0 20 20">
 <g class="jp-icon2" fill="#414141">
  <rect x="2" y="2" width="16" height="16"/>
 </g>
 <g class="jp-icon-accent2" transform="translate(.43 .0401)" fill="#fff">
  <path d="m4.14 8.76q0.0682-1.89 2.42-1.89 1.16 0 1.68 0.42 0.567 0.41 0.567 1.16v3.47q0 0.462 0.514 0.462 0.103 0 0.2-0.0231v0.714q-0.399 0.103-0.651 0.103-0.452 0-0.693-0.22-0.231-0.2-0.284-0.662-0.956 0.872-2 0.872-0.903 0-1.47-0.472-0.525-0.472-0.525-1.26 0-0.262 0.0452-0.472 0.0567-0.22 0.116-0.378 0.0682-0.168 0.231-0.304 0.158-0.147 0.262-0.242 0.116-0.0914 0.368-0.168 0.262-0.0914 0.399-0.126 0.136-0.0452 0.472-0.103 0.336-0.0578 0.504-0.0798 0.158-0.0231 0.567-0.0798 0.556-0.0682 0.777-0.221 0.22-0.152 0.22-0.441v-0.252q0-0.43-0.357-0.662-0.336-0.231-0.976-0.231-0.662 0-0.998 0.262-0.336 0.252-0.399 0.798zm1.89 3.68q0.788 0 1.26-0.41 0.504-0.42 0.504-0.903v-1.05q-0.284 0.136-0.861 0.231-0.567 0.0914-0.987 0.158-0.42 0.0682-0.766 0.326-0.336 0.252-0.336 0.704t0.304 0.704 0.861 0.252z" stroke-width="1.05"/>
  <path d="m10 4.56h0.945v3.15q0.651-0.976 1.89-0.976 1.16 0 1.89 0.84 0.682 0.84 0.682 2.31 0 1.47-0.704 2.42-0.704 0.882-1.89 0.882-1.26 0-1.89-1.02v0.766h-0.85zm2.62 3.04q-0.746 0-1.16 0.64-0.452 0.63-0.452 1.68 0 1.05 0.452 1.68t1.16 0.63q0.777 0 1.26-0.63 0.494-0.64 0.494-1.68 0-1.05-0.472-1.68-0.462-0.64-1.26-0.64z" stroke-width="1.05"/>
  <path d="m2.73 15.8 13.6 0.0081c0.0069 0 0-2.6 0-2.6 0-0.0078-1.15 0-1.15 0-0.0069 0-0.0083 1.5-0.0083 1.5-2e-3 -0.0014-11.3-0.0014-11.3-0.0014l-0.00592-1.5c0-0.0078-1.17 0.0013-1.17 0.0013z" stroke-width=".975"/>
 </g>
</svg>
