<svg
   width="16"
   viewBox="0 0 16 16"
   version="1.1"
   height="16"
   xmlns="http://www.w3.org/2000/svg"
   xmlns:svg="http://www.w3.org/2000/svg">
  <g
     class="jp-icon-accent2"
     transform="matrix(1.1200007,0,0,1.1200007,-0.40000102,1.279996)"
     fill="#616161">
    <path
       d="m 1.25,8.7863559 0.031333,2.3767851 12.465815,0.0067 c 0.0064,0 0,-2.3835 0,-2.3835 0,-0.00733 -1.054111,0 -1.054111,0 -0.0064,0 -0.0067,1.376387 -0.0067,1.376387 L 2.3287526,10.16052 2.3220424,8.7863715 c 0,-0.00733 -1.0720154,0 -1.0720154,0 z" />
    <path
       d="m 3.1750687,7.0442879 q 0,0.4083421 0.2984039,0.6439242 0.2984039,0.235582 0.706746,0.235582 0.4973399,0 0.9632687,-0.2303469 Q 5.9287607,7.3112808 5.9287607,6.4422449 V 5.6831473 Q 5.7560006,5.7930856 5.4837725,5.8663778 5.2115444,5.9396699 4.9497866,5.9710809 l -0.570632,0.073292 Q 3.8661093,6.1124301 3.6095866,6.2590145 3.1750687,6.5050668 3.1750687,7.0442879 Z m 2.282528,-1.9055968 q 0.3245797,-0.041881 0.434518,-0.2722282 0.062822,-0.1256437 0.062822,-0.3612257 0,-0.4816344 -0.3455203,-0.6962758 Q 5.2691311,3.5890849 4.630442,3.5890849 q -0.738157,0 -1.0470312,0.3978718 Q 3.4106507,4.2068333 3.3582991,4.6413512 H 2.4787929 q 0.026176,-1.0365609 0.6701,-1.4396679 0.6491593,-0.4083421 1.5024898,-0.4083421 0.9894445,0 1.6071929,0.3769312 0.6125132,0.3769312 0.6125132,1.1726749 v 3.2300913 q 0,0.1465844 0.057587,0.235582 0.062822,0.088998 0.2565227,0.088998 0.062822,0 0.1413492,-0.00524 0.078527,-0.01047 0.167525,-0.026176 v 0.6962757 q -0.2198766,0.062822 -0.33505,0.078527 -0.1151734,0.015705 -0.3141093,0.015705 -0.4868696,0 -0.7067461,-0.3455203 Q 6.0229936,8.1279652 5.9758771,7.7929152 5.6879436,8.1698464 5.1487225,8.4473097 4.6095014,8.724773 3.9603421,8.724773 3.1803038,8.724773 2.682964,8.2536089 2.1908593,7.7772097 2.1908593,7.0652285 q 0,-0.7800383 0.4868695,-1.2093211 Q 3.1645984,5.4266246 3.9551069,5.3271567 Z M 4.6775585,2.7933412 Z"
       aria-label="a" />
    <path
       d="M 7.8723952,0.83015867 H 8.7885475 V 3.6204968 q 0.3088742,-0.403107 0.738157,-0.6125132 0.4292828,-0.2146414 0.9318575,-0.2146414 1.047031,0 1.696191,0.7224515 0.654394,0.7172164 0.654394,2.1202382 0,1.3297297 -0.643924,2.2092359 -0.643924,0.8795062 -1.785188,0.8795062 -0.6386891,0 -1.0784422,-0.3088742 Q 9.039835,8.2326693 8.7414311,7.8295623 V 8.5467787 H 7.8723952 Z M 10.322448,7.8923842 q 0.764333,0 1.141264,-0.6072781 0.382167,-0.6072781 0.382167,-1.6019578 0,-0.8847413 -0.382167,-1.4658437 -0.376931,-0.5811023 -1.115088,-0.5811023 -0.6439242,0 -1.1307937,0.4763992 -0.4816344,0.4763992 -0.4816344,1.5705468 0,0.7905086 0.198936,1.2826133 0.371696,0.9266226 1.3873161,0.9266226 z"
       aria-label="b" />
  </g>
</svg>
