<svg xmlns="http://www.w3.org/2000/svg" width="16" viewBox="0 0 20 20">
  <path fill="#414141" d="M2 2h16v16H2z" class="jp-icon2"/>
  <path fill="#fff" d="M4.57 8.8q.068-1.89 2.42-1.89 1.16 0 1.68.42.567.41.567 1.16v3.47q0 .462.514.462.103 0 .2-.023v.714q-.399.103-.651.103-.452 0-.693-.22-.231-.2-.284-.662-.956.872-2 .872-.903 0-1.47-.472-.525-.472-.525-1.26 0-.262.045-.472.057-.22.116-.378.068-.168.231-.304l.262-.242q.116-.091.368-.168.262-.091.4-.126.135-.045.471-.103t.504-.08l.567-.08q.556-.068.777-.22.22-.153.22-.442v-.252q0-.43-.357-.662-.336-.23-.976-.23-.662 0-.998.261-.336.252-.399.798zm1.89 3.68q.788 0 1.26-.41.504-.42.504-.903v-1.05q-.284.136-.861.231l-.987.158q-.42.068-.766.326-.336.252-.336.704t.304.704.861.252zm3.97-7.88h.945v3.15q.651-.976 1.89-.976 1.16 0 1.89.84.682.84.682 2.31t-.704 2.42q-.704.882-1.89.882-1.26 0-1.89-1.02v.766h-.85zm2.62 3.04q-.746 0-1.16.64-.452.63-.452 1.68t.452 1.68 1.16.63q.777 0 1.26-.63.494-.64.494-1.68 0-1.05-.472-1.68-.462-.64-1.26-.64zm-9.89 8.2 13.6.008c.007 0 0-2.6 0-2.6 0-.008-1.15 0-1.15 0-.007 0-.008 1.5-.008 1.5l-11.3-.001-.006-1.5c0-.008-1.17.001-1.17.001z" class="jp-icon-accent2"/>
</svg>
