<svg width="40px" height="40px" viewBox="36 0 40 40" version="1.1" xmlns="http://www.w3.org/2000/svg" xmlns:xlink="http://www.w3.org/1999/xlink">
    <!-- Generator: Sketch 3.8.3 (29802) - http://www.bohemiancoding.com/sketch -->
    <desc>Created with Sketch.</desc>
    <defs>
        <path d="M0,35.0016655 C0,33.3438914 1.34230941,32 3.0065012,32 L36.9934988,32 C38.6539436,32 40,33.3390201 40,35.0016655 L40,36.9983345 C40,38.6561086 38.6576906,40 36.9934988,40 L3.0065012,40 C1.34605644,40 0,38.6609799 0,36.9983345 L0,35.0016655 Z M0,2.80001787 C0,1.2536107 1.34230941,0 3.0065012,0 L36.9934988,0 C38.6539436,0 40,1.25749733 40,2.80001787 L40,25.1999821 C40,26.7463893 38.6576906,28 36.9934988,28 L3.0065012,28 C1.34605644,28 0,26.7425027 0,25.1999821 L0,2.80001787 Z M4,4.99180311 C4,4.44404538 4.45236206,4 4.99278641,4 L35.0072136,4 C35.5555144,4 36,4.45530558 36,4.99180311 L36,23.0081969 C36,23.5559546 35.5476379,24 35.0072136,24 L4.99278641,24 C4.44448561,24 4,23.5446944 4,23.0081969 L4,4.99180311 Z M7,19 L7,21 L9,21 L9,19 L9,9 L9,7 L7,7 L7,9 L7,19 Z" id="path-1"></path>
        <linearGradient x1="50%" y1="0%" x2="50%" y2="100%" id="linearGradient-3">
            <stop stop-color="#FAAE4A" offset="0%"></stop>
            <stop stop-color="#F27624" offset="100%"></stop>
        </linearGradient>
    </defs>
    <g id="Command-Palette-icon" stroke="none" stroke-width="1" fill="none" fill-rule="evenodd" transform="translate(36.000000, 0.000000)">
        <mask id="mask-2" fill="white">
            <use xlink:href="#path-1"></use>
        </mask>
        <use id="Mask" fill-opacity="0.8" fill="#F27624" xlink:href="#path-1"></use>
        <rect id="Mask" fill="url(#linearGradient-3)" mask="url(#mask-2)" x="0" y="0" width="40" height="40"></rect>
    </g>
</svg>