<?xml version="1.0" encoding="UTF-8" standalone="no"?>
<svg width="36px" height="49px" viewBox="0 0 36 49" version="1.1" xmlns="http://www.w3.org/2000/svg" xmlns:xlink="http://www.w3.org/1999/xlink">
    <!-- Generator: Sketch 3.8.3 (29802) - http://www.bohemiancoding.com/sketch -->
    <title>Group</title>
    <desc>Created with Sketch.</desc>
    <defs></defs>
    <g id="Page-1" stroke="none" stroke-width="1" fill="none" fill-rule="evenodd">
        <g id="Group" transform="translate(0.000000, 0.729217)">
            <path d="M34.0799763,3.22785446 C34.1588023,5.08837143 32.7314891,6.66086653 30.8912778,6.74058264 C29.052005,6.82029874 27.4965996,5.37686783 27.4177735,3.51635084 C27.3389476,1.65583387 28.7662609,0.0828642814 30.6060029,0.00314817534 C32.4457448,-0.0765679307 34.0011503,1.36733749 34.0799763,3.22785446" id="Fill-8" fill="#767474"></path>
            <path d="M18.1611911,36.143323 C10.821449,36.143323 4.42990315,33.4727455 1.10243631,29.5277294 C3.62049194,36.6003843 10.3071672,41.6571153 18.1611911,41.6571153 C26.015215,41.6571153 32.7018903,36.6003843 35.219946,29.5277294 C31.8924791,33.4727455 25.5009333,36.143323 18.1611911,36.143323" id="Fill-9" fill="#E46E2E"></path>
            <path d="M18.1611911,10.4655077 C25.5009333,10.4655077 31.8924791,13.1357434 35.219946,17.0811013 C32.7018903,10.0084465 26.015215,4.95137355 18.1611911,4.95137355 C10.3071672,4.95137355 3.62049194,10.0084465 1.10243631,17.0811013 C4.42990315,13.1357434 10.821449,10.4655077 18.1611911,10.4655077" id="Fill-10" fill="#E46E2E"></path>
            <path d="M9.51449564,43.9510295 C9.60805352,46.1612328 7.91196951,48.0295314 5.72632767,48.1246089 C3.54068584,48.2192182 1.69314921,46.5040743 1.59959133,44.293871 C1.50557029,42.0836678 3.2016543,40.2149008 5.38729614,40.1202916 C7.57293798,40.0256824 9.42093776,41.7408263 9.51449564,43.9510295" id="Fill-11" fill="#767474"></path>
            <path d="M2.52595497,8.93172334 C1.18951475,8.98954068 0.0594673938,7.94083749 0.00229099533,6.58894578 C-0.0553502519,5.23752413 0.981727351,4.09480899 2.31863241,4.03699165 C3.65507262,3.9791743 4.78511998,5.02787751 4.84229637,6.37929914 C4.89993763,7.73119085 3.86239517,8.87390599 2.52595497,8.93172334 L2.52595497,8.93172334 L2.52595497,8.93172334 Z" id="Fill-12" fill="#767474"></path>
        </g>
    </g>
</svg>