<svg width="49px" height="49px" viewBox="0 0 49 49" version="1.1" xmlns="http://www.w3.org/2000/svg" xmlns:xlink="http://www.w3.org/1999/xlink">
         <!-- Generator: Sketch 3.8.3 (29802) - http://www.bohemiancoding.com/sketch -->
         <title>Group 2</title>
         <desc>Created with Sketch.</desc>
        <defs>
             <linearGradient x1="50%" y1="0%" x2="50%" y2="100%" id="linearGradient-1">
                 <stop stop-color="#90CAF9" offset="0%"></stop>
                 <stop stop-color="#2196F3" offset="100%"></stop>
             </linearGradient>
         </defs>
         <g id="Page-1" stroke="none" stroke-width="1" fill="none" fill-rule="evenodd">
             <g id="JupyterLab---Main" transform="translate(-638.000000, -156.000000)">
                 <g id="FAQ-Window" transform="translate(321.000000, 4.000000)">
                     <g id="FAQ-Text-Normal" transform="translate(0.000000, 24.000000)">
                         <g id="Group-9" transform="translate(317.000000, 128.000000)">
                             <g id="Group-2">
                                 <path d="M24.5,49 C38.0309764,49 49,38.0309764 49,24.5 C49,10.9690236 38.0309764,0 24.5,0 C10.9690236,0 0,10.9690236 0,24.5 C0,38.0309764 10.9690236,49 24.5,49 Z" id="Oval-1" fill="url(#linearGradient-1)"></path>
                                 <path d="M26.2142159,38.4121298 C26.2142159,37.1812999 25.221611,36.188695 23.9510769,36.188695 C22.7202469,36.188695 21.7276421,37.1812999 21.7276421,38.4121298 C21.7276421,39.682664 22.7202469,40.6752688 23.9510769,40.6752688 C25.221611,40.6752688 26.2142159,39.682664 26.2142159,38.4121298 L26.2142159,38.4121298 Z M25.9759907,33.6476267 C25.9362865,32.0991632 26.2142159,30.5904039 26.8097788,29.2801655 C27.5244542,27.6919978 28.517059,26.7788014 29.5890722,25.865605 C30.8596064,24.7141834 32.3286615,23.4436492 32.9639286,21.0216935 C33.3609705,19.6320467 33.4006747,18.5203293 33.1624496,17.0909784 C32.844816,15.5028107 32.1698448,14.0337556 31.1772399,12.882334 C30.1846351,11.7309124 28.9538052,10.8971243 27.5244542,10.3809698 C26.4127368,9.98392791 25.420132,9.86481533 24.7848649,9.82511114 C24.4275272,9.78540694 23.2761056,9.74570275 21.8070505,10.1030405 C19.861545,10.619195 18.193969,11.651504 16.9234348,13.0808549 C15.6529006,14.5896143 14.8588168,16.4954155 14.7,18.4806251 L18.7895318,18.8776671 C18.8689402,18.1629916 19.1071654,16.7336407 20.060066,15.5028107 C21.7673463,13.3190801 24.387823,13.4778969 24.5069356,13.4778969 C25.1819069,13.5176011 26.8891871,13.7955304 28.0406087,15.2645855 C28.5567632,15.9395568 28.914101,16.813049 29.0729177,17.7659497 C29.2317345,18.6791461 29.2317345,19.2350048 28.9935094,20.108497 C28.6758758,21.4584396 27.9214961,22.173115 26.8494829,23.2451282 C25.618653,24.436254 24.1495978,25.1509295 23.0378805,27.5728852 C22.2040924,29.4389823 21.8070505,31.4638961 21.8467547,33.6476267 L25.9759907,33.6476267 Z" id="?" fill="#FFFFFF"></path>
                             </g>
                         </g>
                     </g>
                 </g>
             </g>
         </g>
     </svg>
