<?xml version="1.0" encoding="UTF-8" standalone="no"?>
<svg width="84px" height="11px" viewBox="0 0 84 11" version="1.1" xmlns="http://www.w3.org/2000/svg" xmlns:xlink="http://www.w3.org/1999/xlink">
    <!-- Generator: Sketch 39 (31667) - http://www.bohemiancoding.com/sketch -->
    <title>Group 2</title>
    <desc>Created with Sketch.</desc>
    <defs></defs>
    <g id="Page-1" stroke="none" stroke-width="1" fill="none" fill-rule="evenodd">
        <g id="Artboard-1" transform="translate(-826.000000, -400.000000)">
            <g id="Launcher" transform="translate(655.000000, 291.000000)">
                <g id="Group-2" transform="translate(171.000000, 109.000000)">
                    <polygon id="Path-233" fill="#F66200" points="82.3900165 6.83130491 82.3900165 5.77064474 78.9522848 9.20837636 80.012945 10.2690365 83.4506766 6.83130491 83.9810067 6.30097483 83.4506766 5.77064474 79.9996774 2.3196455 78.9390172 3.38030567"></polygon>
                    <path d="M0.112,0.004 L8.204,0.004 L8.204,1.516 L5.026,1.516 L5.026,10 L3.276,10 L3.276,1.516 L0.112,1.516 L0.112,0.004 Z M15.204,8.39 C15.204,8.58600098 15.2296664,8.72599958 15.281,8.81 C15.3323336,8.89400042 15.4326659,8.936 15.582,8.936 L15.75,8.936 C15.8153337,8.936 15.8899996,8.92666676 15.974,8.908 L15.974,10.014 C15.9179997,10.0326668 15.8456671,10.0536665 15.757,10.077 C15.6683329,10.1003334 15.5773338,10.1213332 15.484,10.14 C15.3906662,10.1586668 15.2973338,10.1726666 15.204,10.182 C15.1106662,10.1913334 15.0313337,10.196 14.966,10.196 C14.6393317,10.196 14.3686677,10.1306673 14.154,10 C13.9393323,9.86933268 13.7993337,9.6406683 13.734,9.314 C13.4166651,9.62200154 13.0270023,9.8459993 12.565,9.986 C12.1029977,10.1260007 11.6573355,10.196 11.228,10.196 C10.9013317,10.196 10.5886682,10.1516671 10.29,10.063 C9.99133184,9.97433289 9.72766781,9.84366753 9.499,9.671 C9.27033219,9.49833247 9.08833401,9.27900133 8.953,9.013 C8.81766599,8.74699867 8.75,8.43666844 8.75,8.082 C8.75,7.63399776 8.83166585,7.2700014 8.995,6.99 C9.15833415,6.7099986 9.37299867,6.49066746 9.639,6.332 C9.90500133,6.17333254 10.203665,6.05900035 10.535,5.989 C10.866335,5.91899965 11.1999983,5.86533352 11.536,5.828 C11.8253348,5.77199972 12.1006654,5.73233345 12.362,5.709 C12.6233346,5.68566655 12.8543323,5.64600028 13.055,5.59 C13.2556677,5.53399972 13.4143328,5.44766725 13.531,5.331 C13.6476673,5.21433275 13.706,5.0393345 13.706,4.806 C13.706,4.60066564 13.6570005,4.43266732 13.559,4.302 C13.4609995,4.17133268 13.3396674,4.07100035 13.195,4.001 C13.0503326,3.93099965 12.8893342,3.88433345 12.712,3.861 C12.5346658,3.83766655 12.3666675,3.826 12.208,3.826 C11.7599978,3.826 11.3913348,3.9193324 11.102,4.106 C10.8126652,4.2926676 10.6493335,4.58199804 10.612,4.974 L9.016,4.974 C9.04400014,4.507331 9.15599902,4.12000154 9.352,3.812 C9.54800098,3.50399846 9.79766515,3.2566676 10.101,3.07 C10.4043349,2.8833324 10.7473314,2.75266704 11.13,2.678 C11.5126686,2.60333296 11.9046647,2.566 12.306,2.566 C12.6606684,2.566 13.0106649,2.60333296 13.356,2.678 C13.7013351,2.75266704 14.0116653,2.87399916 14.287,3.042 C14.5623347,3.21000084 14.7839992,3.42699867 14.952,3.693 C15.1200008,3.95900133 15.204,4.28333142 15.204,4.666 L15.204,8.39 Z M13.608,6.374 C13.3653321,6.53266746 13.0666684,6.62833317 12.712,6.661 C12.3573316,6.69366683 12.0026684,6.74266634 11.648,6.808 C11.4799992,6.83600014 11.3166675,6.87566641 11.158,6.927 C10.9993325,6.97833359 10.8593339,7.04833289 10.738,7.137 C10.6166661,7.22566711 10.5210004,7.34233261 10.451,7.487 C10.3809997,7.63166739 10.346,7.80666564 10.346,8.012 C10.346,8.18933422 10.3973328,8.33866606 10.5,8.46 C10.6026672,8.58133394 10.7263326,8.67699965 10.871,8.747 C11.0156674,8.81700035 11.1743325,8.86599986 11.347,8.894 C11.5196675,8.92200014 11.6759993,8.936 11.816,8.936 C11.9933342,8.936 12.1846656,8.9126669 12.39,8.866 C12.5953344,8.8193331 12.7889991,8.74000056 12.971,8.628 C13.1530009,8.51599944 13.3046661,8.37366753 13.426,8.201 C13.5473339,8.02833247 13.608,7.81600126 13.608,7.564 L13.608,6.374 Z M16.968,0.004 L18.564,0.004 L18.564,5.688 L21.448,2.762 L23.408,2.762 L20.636,5.422 L23.674,10 L21.728,10 L19.516,6.486 L18.564,7.41 L18.564,10 L16.968,10 L16.968,0.004 Z M29.414,5.744 C29.3953332,5.49199874 29.3416671,5.2493345 29.253,5.016 C29.1643329,4.7826655 29.0430008,4.57966753 28.889,4.407 C28.7349992,4.23433247 28.5483344,4.09433387 28.329,3.987 C28.1096656,3.87966613 27.864668,3.826 27.594,3.826 C27.3139986,3.826 27.0596678,3.87499951 26.831,3.973 C26.6023322,4.07100049 26.4063342,4.20633247 26.243,4.379 C26.0796659,4.55166753 25.9490005,4.7546655 25.851,4.988 C25.7529995,5.2213345 25.6993334,5.47333198 25.69,5.744 L29.414,5.744 Z M25.69,6.794 C25.69,7.0740014 25.7296663,7.34466536 25.809,7.606 C25.8883337,7.86733464 26.0073325,8.09599902 26.166,8.292 C26.3246675,8.48800098 26.5253321,8.64433275 26.768,8.761 C27.0106679,8.87766725 27.2999983,8.936 27.636,8.936 C28.102669,8.936 28.4783319,8.83566767 28.763,8.635 C29.0476681,8.43433233 29.2599993,8.13333534 29.4,7.732 L30.912,7.732 C30.8279996,8.12400196 30.6833344,8.47399846 30.478,8.782 C30.2726656,9.09000154 30.0253348,9.34899895 29.736,9.559 C29.4466652,9.76900105 29.1223351,9.92766613 28.763,10.035 C28.4036649,10.1423339 28.028002,10.196 27.636,10.196 C27.0666638,10.196 26.5626689,10.1026676 26.124,9.916 C25.6853311,9.7293324 25.3143349,9.46800168 25.011,9.132 C24.7076652,8.79599832 24.4790008,8.394669 24.325,7.928 C24.1709992,7.461331 24.094,6.9480028 24.094,6.388 C24.094,5.8746641 24.1756659,5.38700231 24.339,4.925 C24.5023342,4.46299769 24.7356652,4.05700175 25.039,3.707 C25.3423349,3.35699825 25.7086645,3.07933436 26.138,2.874 C26.5673355,2.66866564 27.052664,2.566 27.594,2.566 C28.1633362,2.566 28.6743311,2.68499881 29.127,2.923 C29.5796689,3.16100119 29.9553318,3.47599804 30.254,3.868 C30.5526682,4.26000196 30.769666,4.71033079 30.905,5.219 C31.040334,5.72766921 31.0753337,6.25266396 31.01,6.794 L25.69,6.794 Z M42.182,8.39 C42.182,8.58600098 42.2076664,8.72599958 42.259,8.81 C42.3103336,8.89400042 42.4106659,8.936 42.56,8.936 L42.728,8.936 C42.7933337,8.936 42.8679996,8.92666676 42.952,8.908 L42.952,10.014 C42.8959997,10.0326668 42.8236671,10.0536665 42.735,10.077 C42.6463329,10.1003334 42.5553338,10.1213332 42.462,10.14 C42.3686662,10.1586668 42.2753338,10.1726666 42.182,10.182 C42.0886662,10.1913334 42.0093337,10.196 41.944,10.196 C41.6173317,10.196 41.3466677,10.1306673 41.132,10 C40.9173323,9.86933268 40.7773337,9.6406683 40.712,9.314 C40.3946651,9.62200154 40.0050023,9.8459993 39.543,9.986 C39.0809977,10.1260007 38.6353355,10.196 38.206,10.196 C37.8793317,10.196 37.5666682,10.1516671 37.268,10.063 C36.9693318,9.97433289 36.7056678,9.84366753 36.477,9.671 C36.2483322,9.49833247 36.066334,9.27900133 35.931,9.013 C35.795666,8.74699867 35.728,8.43666844 35.728,8.082 C35.728,7.63399776 35.8096659,7.2700014 35.973,6.99 C36.1363342,6.7099986 36.3509987,6.49066746 36.617,6.332 C36.8830013,6.17333254 37.181665,6.05900035 37.513,5.989 C37.844335,5.91899965 38.1779983,5.86533352 38.514,5.828 C38.8033348,5.77199972 39.0786654,5.73233345 39.34,5.709 C39.6013346,5.68566655 39.8323323,5.64600028 40.033,5.59 C40.2336677,5.53399972 40.3923328,5.44766725 40.509,5.331 C40.6256673,5.21433275 40.684,5.0393345 40.684,4.806 C40.684,4.60066564 40.6350005,4.43266732 40.537,4.302 C40.4389995,4.17133268 40.3176674,4.07100035 40.173,4.001 C40.0283326,3.93099965 39.8673342,3.88433345 39.69,3.861 C39.5126658,3.83766655 39.3446675,3.826 39.186,3.826 C38.7379978,3.826 38.3693348,3.9193324 38.08,4.106 C37.7906652,4.2926676 37.6273335,4.58199804 37.59,4.974 L35.994,4.974 C36.0220001,4.507331 36.133999,4.12000154 36.33,3.812 C36.526001,3.50399846 36.7756652,3.2566676 37.079,3.07 C37.3823349,2.8833324 37.7253314,2.75266704 38.108,2.678 C38.4906686,2.60333296 38.8826647,2.566 39.284,2.566 C39.6386684,2.566 39.9886649,2.60333296 40.334,2.678 C40.6793351,2.75266704 40.9896653,2.87399916 41.265,3.042 C41.5403347,3.21000084 41.7619992,3.42699867 41.93,3.693 C42.0980008,3.95900133 42.182,4.28333142 42.182,4.666 L42.182,8.39 Z M40.586,6.374 C40.3433321,6.53266746 40.0446684,6.62833317 39.69,6.661 C39.3353316,6.69366683 38.9806684,6.74266634 38.626,6.808 C38.4579992,6.83600014 38.2946675,6.87566641 38.136,6.927 C37.9773325,6.97833359 37.8373339,7.04833289 37.716,7.137 C37.5946661,7.22566711 37.4990004,7.34233261 37.429,7.487 C37.3589997,7.63166739 37.324,7.80666564 37.324,8.012 C37.324,8.18933422 37.3753328,8.33866606 37.478,8.46 C37.5806672,8.58133394 37.7043326,8.67699965 37.849,8.747 C37.9936674,8.81700035 38.1523325,8.86599986 38.325,8.894 C38.4976675,8.92200014 38.6539993,8.936 38.794,8.936 C38.9713342,8.936 39.1626656,8.9126669 39.368,8.866 C39.5733344,8.8193331 39.7669991,8.74000056 39.949,8.628 C40.1310009,8.51599944 40.2826661,8.37366753 40.404,8.201 C40.5253339,8.02833247 40.586,7.81600126 40.586,7.564 L40.586,6.374 Z M47.068,2.762 L48.272,2.762 L48.272,0.592 L49.868,0.592 L49.868,2.762 L51.31,2.762 L51.31,3.952 L49.868,3.952 L49.868,7.816 C49.868,7.98400084 49.8749999,8.12866606 49.889,8.25 C49.9030001,8.37133394 49.9356664,8.47399958 49.987,8.558 C50.0383336,8.64200042 50.1153328,8.70499979 50.218,8.747 C50.3206672,8.78900021 50.4606658,8.81 50.638,8.81 C50.7500006,8.81 50.8619994,8.80766669 50.974,8.803 C51.0860006,8.79833331 51.1979994,8.78200014 51.31,8.754 L51.31,9.986 C51.1326658,10.0046668 50.9600008,10.0233332 50.792,10.042 C50.6239992,10.0606668 50.4513342,10.07 50.274,10.07 C49.8539979,10.07 49.515668,10.0303337 49.259,9.951 C49.0023321,9.87166627 48.8016674,9.75500077 48.657,9.601 C48.5123326,9.44699923 48.4143336,9.2533345 48.363,9.02 C48.3116664,8.7866655 48.2813334,8.52066816 48.272,8.222 L48.272,3.952 L47.068,3.952 L47.068,2.762 Z M55.776,10.196 C55.1973304,10.196 54.6816689,10.1003343 54.229,9.909 C53.7763311,9.71766571 53.3936682,9.45400168 53.081,9.118 C52.7683318,8.78199832 52.5303342,8.380669 52.367,7.914 C52.2036659,7.447331 52.122,6.9340028 52.122,6.374 C52.122,5.82333058 52.2036659,5.314669 52.367,4.848 C52.5303342,4.381331 52.7683318,3.98000168 53.081,3.644 C53.3936682,3.30799832 53.7763311,3.04433429 54.229,2.853 C54.6816689,2.66166571 55.1973304,2.566 55.776,2.566 C56.3546696,2.566 56.8703311,2.66166571 57.323,2.853 C57.7756689,3.04433429 58.1583318,3.30799832 58.471,3.644 C58.7836682,3.98000168 59.0216659,4.381331 59.185,4.848 C59.3483342,5.314669 59.43,5.82333058 59.43,6.374 C59.43,6.9340028 59.3483342,7.447331 59.185,7.914 C59.0216659,8.380669 58.7836682,8.78199832 58.471,9.118 C58.1583318,9.45400168 57.7756689,9.71766571 57.323,9.909 C56.8703311,10.1003343 56.3546696,10.196 55.776,10.196 L55.776,10.196 Z M55.776,8.936 C56.1306684,8.936 56.4386654,8.86133408 56.7,8.712 C56.9613346,8.56266592 57.1759992,8.36666788 57.344,8.124 C57.5120008,7.88133212 57.6356663,7.60833485 57.715,7.305 C57.7943337,7.00166515 57.834,6.69133492 57.834,6.374 C57.834,6.06599846 57.7943337,5.75800154 57.715,5.45 C57.6356663,5.14199846 57.5120008,4.86900119 57.344,4.631 C57.1759992,4.39299881 56.9613346,4.19933408 56.7,4.05 C56.4386654,3.90066592 56.1306684,3.826 55.776,3.826 C55.4213316,3.826 55.1133346,3.90066592 54.852,4.05 C54.5906654,4.19933408 54.3760008,4.39299881 54.208,4.631 C54.0399992,4.86900119 53.9163337,5.14199846 53.837,5.45 C53.7576663,5.75800154 53.718,6.06599846 53.718,6.374 C53.718,6.69133492 53.7576663,7.00166515 53.837,7.305 C53.9163337,7.60833485 54.0399992,7.88133212 54.208,8.124 C54.3760008,8.36666788 54.5906654,8.56266592 54.852,8.712 C55.1133346,8.86133408 55.4213316,8.936 55.776,8.936 L55.776,8.936 Z M67.116,10 L65.548,10 L65.548,8.992 L65.52,8.992 C65.323999,9.35600182 65.0323353,9.64766557 64.645,9.867 C64.2576647,10.0863344 63.8633353,10.196 63.462,10.196 C62.5099952,10.196 61.8216688,9.96033569 61.397,9.489 C60.9723312,9.01766431 60.76,8.30600476 60.76,7.354 L60.76,2.762 L62.356,2.762 L62.356,7.2 C62.356,7.83466984 62.4773321,8.28266536 62.72,8.544 C62.9626679,8.80533464 63.3033311,8.936 63.742,8.936 C64.0780017,8.936 64.3579989,8.88466718 64.582,8.782 C64.8060011,8.67933282 64.9879993,8.54166753 65.128,8.369 C65.2680007,8.19633247 65.368333,7.98866788 65.429,7.746 C65.489667,7.50333212 65.52,7.2420014 65.52,6.962 L65.52,2.762 L67.116,2.762 L67.116,10 Z M68.796,2.762 L70.294,2.762 L70.294,4.162 L70.322,4.162 C70.3686669,3.96599902 70.459666,3.7746676 70.595,3.588 C70.730334,3.4013324 70.8936657,3.23100077 71.085,3.077 C71.2763343,2.92299923 71.4886655,2.7993338 71.722,2.706 C71.9553345,2.6126662 72.1933321,2.566 72.436,2.566 C72.6226676,2.566 72.7509997,2.57066662 72.821,2.58 C72.8910004,2.58933338 72.963333,2.59866662 73.038,2.608 L73.038,4.148 C72.9259994,4.12933324 72.8116673,4.11300007 72.695,4.099 C72.5783328,4.08499993 72.4640006,4.078 72.352,4.078 C72.081332,4.078 71.8270012,4.13166613 71.589,4.239 C71.3509988,4.34633387 71.1433342,4.50499895 70.966,4.715 C70.7886658,4.92500105 70.6486672,5.18399846 70.546,5.492 C70.4433328,5.80000154 70.392,6.15466466 70.392,6.556 L70.392,10 L68.796,10 L68.796,2.762 Z" id="Take-a-tour" fill-opacity="0.9" fill="#F36A0C"></path>
                </g>
            </g>
        </g>
    </g>
</svg>