<svg width="24" height="24" viewBox="0 0 24 24" fill="none" xmlns="http://www.w3.org/2000/svg">
    <rect width="24" height="24" fill="black" fill-opacity="0"/>
    <rect width="18" height="20" fill="black" fill-opacity="0" transform="translate(3 2)"/>
    <path class="jp-icon-main" d="M4.10885 6.74135C4.20452 6.21505 4.39041 5.72544 4.80634 5.09319C5.35203 4.43482 6.35067 3.89653 7.68975 3.52838C9.02471 3.16136 10.5654 3 11.9998 3C13.4341 3 14.9749 3.16136 16.3098 3.52838C17.649 3.89655 18.6477 4.43488 19.1933 5.0933C19.6095 5.72557 19.7955 6.21514 19.8912 6.74139C19.9967 7.32185 20 7.97294 20 9C20 9.35129 19.7844 10.7386 19.2911 12.4034C18.8013 14.0565 18.0953 15.7799 17.2191 16.8753C16.7844 17.4188 16.3844 17.8059 16.0618 18.0944C15.9489 18.1953 15.8534 18.2774 15.7609 18.3569C15.7136 18.3976 15.6672 18.4375 15.6196 18.4789C15.5062 18.5777 15.3431 18.7207 15.2198 18.8745C14.9711 19.1847 14.7469 19.4839 14.5613 19.7317C14.4709 19.8523 14.3897 19.9607 14.3193 20.0523C14.0816 20.3611 13.9259 20.5338 13.777 20.6516C13.5455 20.8348 13.1949 21 11.9998 21C10.8047 21 10.4542 20.8348 10.2229 20.6517C10.074 20.5339 9.91841 20.3612 9.68072 20.0523C9.61032 19.9609 9.52922 19.8526 9.43901 19.7322C9.25332 19.4843 9.02907 19.1849 8.78025 18.8745C8.5646 18.6055 8.27898 18.3643 8.04285 18.1648C7.98552 18.1164 7.93111 18.0704 7.88133 18.0271C7.58713 17.7713 7.22852 17.4348 6.78084 16.8753C5.90445 15.7799 5.19851 14.0565 4.70872 12.4034C4.21548 10.7387 4 9.35134 4 9C4 7.97301 4.00333 7.32185 4.10885 6.74135Z" stroke="#EEEEEE" stroke-width="2"/>
    <path class="jp-icon-main" d="M15.9999 18C15.9999 19 14 22 12 22C10 22 8 19 8 18C8 14.9624 10.067 11 12 11C13.933 11 15.9999 14.9624 15.9999 18Z" fill="#EEEEEE"/>
</svg>
