<svg width="14" height="14" viewBox="0 0 14 14" fill="none" xmlns="http://www.w3.org/2000/svg">
<g clip-path="url(#clip0_137_19498)">
<path class="jp-icon3" d="M9.25 10.0693L7.375 10.0693L7.375 8.19434C7.375 7.98809 7.20625 7.81934 7 7.81934C6.79375 7.81934 6.625 7.98809 6.625 8.19434L6.625 10.0693L4.75 10.0693C4.54375 10.0693 4.375 10.2381 4.375 10.4443C4.375 10.6506 4.54375 10.8193 4.75 10.8193L6.625 10.8193L6.625 12.6943C6.625 12.9006 6.79375 13.0693 7 13.0693C7.20625 13.0693 7.375 12.9006 7.375 12.6943L7.375 10.8193L9.25 10.8193C9.45625 10.8193 9.625 10.6506 9.625 10.4443C9.625 10.2381 9.45625 10.0693 9.25 10.0693Z" fill="#616161" stroke="#616161" stroke-width="0.7"/>
</g>
<path class="jp-icon3" fill-rule="evenodd" clip-rule="evenodd" d="M2.5 5.5L2.5 3.5L11.5 3.5L11.5 5.5L2.5 5.5ZM2 7C1.44772 7 1 6.55228 1 6L1 3C1 2.44772 1.44772 2 2 2L12 2C12.5523 2 13 2.44772 13 3L13 6C13 6.55229 12.5523 7 12 7L2 7Z" fill="#616161"/>
<defs>
<clipPath id="clip0_137_19498">
<rect class="jp-icon3" width="6" height="6" fill="white" transform="matrix(1 1.74846e-07 1.74846e-07 -1 4 13.4443)"/>
</clipPath>
</defs>
</svg>
