<svg width="14" height="14" viewBox="0 0 14 14" fill="none" xmlns="http://www.w3.org/2000/svg">
<g clip-path="url(#clip0_137_19492)">
<path class="jp-icon3" d="M4.75 4.93066H6.625V6.80566C6.625 7.01191 6.79375 7.18066 7 7.18066C7.20625 7.18066 7.375 7.01191 7.375 6.80566V4.93066H9.25C9.45625 4.93066 9.625 4.76191 9.625 4.55566C9.625 4.34941 9.45625 4.18066 9.25 4.18066H7.375V2.30566C7.375 2.09941 7.20625 1.93066 7 1.93066C6.79375 1.93066 6.625 2.09941 6.625 2.30566V4.18066H4.75C4.54375 4.18066 4.375 4.34941 4.375 4.55566C4.375 4.76191 4.54375 4.93066 4.75 4.93066Z" fill="#616161" stroke="#616161" stroke-width="0.7"/>
</g>
<path class="jp-icon3" fill-rule="evenodd" clip-rule="evenodd" d="M11.5 9.5V11.5L2.5 11.5V9.5L11.5 9.5ZM12 8C12.5523 8 13 8.44772 13 9V12C13 12.5523 12.5523 13 12 13L2 13C1.44772 13 1 12.5523 1 12V9C1 8.44772 1.44771 8 2 8L12 8Z" fill="#616161"/>
<defs>
<clipPath id="clip0_137_19492">
<rect class="jp-icon3" width="6" height="6" fill="white" transform="matrix(-1 0 0 1 10 1.55566)"/>
</clipPath>
</defs>
</svg>
