<svg xmlns="http://www.w3.org/2000/svg" width="24" height="24" fill="none" viewBox="0 0 24 24">
  <g fill="#616161" class="jp-icon3 jp-icon-selectable">
    <path fill-rule="evenodd" d="M17.19 8H20v2h-2.09c.05.33.09.66.09 1v1h2v2h-2v.027a4.5 4.5 0 0 0-3.545 6.447A5.997 5.997 0 0 1 6.81 18H4v-2h2.09c-.05-.33-.09-.66-.09-1v-1H4v-2h2v-1c0-.34.04-.67.09-1H4V8h2.81c.45-.78 1.07-1.45 1.81-1.96L7 4.41 8.41 3l2.18 2.17c.45-.11.92-.17 1.41-.17s.96.06 1.42.17L15.59 3 17 4.41l-1.63 1.63c.75.51 1.37 1.18 1.82 1.96M10 16h4v-2h-4zm0-4h4v-2h-4z" clip-rule="evenodd"/>
    <path d="M22 18.5a3.5 3.5 0 1 1-7 0 3.5 3.5 0 0 1 7 0"/>
  </g>
</svg>
