<svg width="24" height="24" viewBox="0 0 24 24" fill="none" xmlns="http://www.w3.org/2000/svg">
    <g class="jp-icon3 jp-icon-selectable" fill="#616161">
        <path fill-rule="evenodd" clip-rule="evenodd" d="M17.19 8H20V10H17.91C17.96 10.33 18 10.66 18 11V12H20V14H18.5H18V14.0275C15.75 14.2762 14 16.1837 14 18.5C14 19.208 14.1635 19.8779 14.4549 20.4739C13.7063 20.8117 12.8757 21 12 21C9.78 21 7.85 19.79 6.81 18H4V16H6.09C6.04 15.67 6 15.34 6 15V14H4V12H6V11C6 10.66 6.04 10.33 6.09 10H4V8H6.81C7.26 7.22 7.88 6.55 8.62 6.04L7 4.41L8.41 3L10.59 5.17C11.04 5.06 11.51 5 12 5C12.49 5 12.96 5.06 13.42 5.17L15.59 3L17 4.41L15.37 6.04C16.12 6.55 16.74 7.22 17.19 8ZM10 16H14V14H10V16ZM10 12H14V10H10V12Z" fill="#616161"/>
        <path d="M22 18.5C22 20.433 20.433 22 18.5 22C16.567 22 15 20.433 15 18.5C15 16.567 16.567 15 18.5 15C20.433 15 22 16.567 22 18.5Z" fill="#616161"/>
    </g>
</svg>
