<svg xmlns="http://www.w3.org/2000/svg" width="14" height="14" fill="none" viewBox="0 0 14 14">
  <path fill="#616161" fill-rule="evenodd" d="M2.8.875h6.096c.305 0 .554.264.554.587s-.25.587-.554.587H3.354c-.305 0-.554.264-.554.587V9.68c0 .322-.25.587-.554.587s-.554-.264-.554-.587V2.049c0-.646.498-1.174 1.108-1.174M5.367 11.9V4.55h5.716v7.35zM4.142 4.142c0-.451.365-.817.816-.817h6.534c.45 0 .816.366.816.817v8.166a.817.817 0 0 1-.816.817H4.958a.817.817 0 0 1-.816-.817z" class="jp-icon3" clip-rule="evenodd"/>
  <path fill="#616161" stroke="#616161" stroke-width=".5" d="M9.436 8.265H8.364v1.071a.215.215 0 0 1-.214.215.215.215 0 0 1-.214-.215v-1.07H6.864a.215.215 0 0 1-.214-.215c0-.118.096-.215.214-.215h1.072v-1.07a.214.214 0 1 1 .428-.001v1.072h1.072c.118 0 .214.096.214.214a.215.215 0 0 1-.214.214Z" class="jp-icon3"/>
</svg>
