<svg width="14" height="14" viewBox="0 0 14 14" fill="none" xmlns="http://www.w3.org/2000/svg">
<path class="jp-icon3" fill-rule="evenodd" clip-rule="evenodd" d="M2.79998 0.875H8.89582C9.20061 0.875 9.44998 1.13914 9.44998 1.46198C9.44998 1.78482 9.20061 2.04896 8.89582 2.04896H3.35415C3.04936 2.04896 2.79998 2.3131 2.79998 2.63594V9.67969C2.79998 10.0025 2.55061 10.2667 2.24582 10.2667C1.94103 10.2667 1.69165 10.0025 1.69165 9.67969V2.04896C1.69165 1.40328 2.1904 0.875 2.79998 0.875ZM5.36665 11.9V4.55H11.0833V11.9H5.36665ZM4.14165 4.14167C4.14165 3.69063 4.50728 3.325 4.95832 3.325H11.4917C11.9427 3.325 12.3083 3.69063 12.3083 4.14167V12.3083C12.3083 12.7594 11.9427 13.125 11.4917 13.125H4.95832C4.50728 13.125 4.14165 12.7594 4.14165 12.3083V4.14167Z" fill="#616161"/>
<path class="jp-icon3" d="M9.43574 8.26507H8.36431V9.3365C8.36431 9.45435 8.26788 9.55078 8.15002 9.55078C8.03217 9.55078 7.93574 9.45435 7.93574 9.3365V8.26507H6.86431C6.74645 8.26507 6.65002 8.16864 6.65002 8.05078C6.65002 7.93292 6.74645 7.8365 6.86431 7.8365H7.93574V6.76507C7.93574 6.64721 8.03217 6.55078 8.15002 6.55078C8.26788 6.55078 8.36431 6.64721 8.36431 6.76507V7.8365H9.43574C9.5536 7.8365 9.65002 7.93292 9.65002 8.05078C9.65002 8.16864 9.5536 8.26507 9.43574 8.26507Z" fill="#616161" stroke="#616161" stroke-width="0.5"/>
</svg>
