<svg width="24" height="24" viewBox="0 0 24 24" fill="none" xmlns="http://www.w3.org/2000/svg">
    <g class="jp-icon3" fill="#616161">
        <path d="M13 3C10.6131 3 8.32387 3.94821 6.63604 5.63604C4.94821 7.32387 4 9.61305 4 12H1L4.96 16.03L9 12H6C6 10.1435 6.7375 8.36301 8.05025 7.05025C9.36301 5.7375 11.1435 5 13 5C14.8565 5 16.637 5.7375 17.9497 7.05025C19.2625 8.36301 20 10.1435 20 12C20 13.8565 19.2625 15.637 17.9497 16.9497C16.637 18.2625 14.8565 19 13 19C11.07 19 9.32 18.21 8.06 16.94L6.64 18.36C8.27 20 10.5 21 13 21C15.3869 21 17.6761 20.0518 19.364 18.364C21.0518 16.6761 22 14.3869 22 12C22 9.61305 21.0518 7.32387 19.364 5.63604C17.6761 3.94821 15.3869 3 13 3Z"/>
        <path d="M17 12L11 16.5V7.5L17 12Z"/>
    </g>
</svg> 