<svg width="28" height="28" viewBox="0 0 43 28" xmlns="http://www.w3.org/2000/svg">
	<g class="jp-icon3" fill="#616161">
		<path d="M28.8332 12.334L32.9998 16.5007L37.1665 12.334H28.8332Z"/>
		<path d="M16.2095 21.6104C15.6873 22.1299 14.8443 22.1299 14.3248 21.6104L6.9829 14.7245C6.5724 14.3394 6.08313 13.6098 6.04786 13.0482C5.95347 11.5288 6.02002 8.61944 6.06621 7.07695C6.08281 6.51477 6.55548 6.04347 7.11804 6.03055C9.08863 5.98473 13.2638 5.93579 13.6518 6.32425L21.7369 13.639C22.256 14.1585 21.7851 15.4724 21.262 15.9946L16.2095 21.6104ZM9.77585 8.265C9.33551 7.82566 8.62351 7.82566 8.1828 8.265C7.74346 8.70571 7.74346 9.41733 8.1828 9.85667C8.62382 10.2964 9.33582 10.2964 9.77585 9.85667C10.2156 9.41733 10.2156 8.70533 9.77585 8.265Z"/>
	</g>
</svg>
