<svg width="24" height="24" viewBox="0 0 24 24" xmlns="http://www.w3.org/2000/svg">
  <g class="jp-icon3" fill="#616161">
    <path d="M16.4805 17.2481C16.8158 16.3972 17 15.4701 17 14.5C17 10.3579 13.6421 7.00001 9.5 7.00001C8.36314 7.00001 7.28536 7.25295 6.31986 7.70564C7.60064 6.0592 9.60074 5 11.8482 5C15.7142 5 18.8482 8.13401 18.8482 12C18.8482 14.0897 17.9325 15.9655 16.4805 17.2481Z" />
    <path d="M19.1607 14.2481C19.496 13.3971 19.6801 12.4701 19.6801 11.5C19.6801 7.35786 16.3223 4 12.1801 4C11.0433 4 9.9655 4.25295 9.00001 4.70563C10.2808 3.05919 12.2809 2 14.5284 2C18.3944 2 21.5284 5.134 21.5284 9C21.5284 11.0897 20.6127 12.9655 19.1607 14.2481Z" />
    <path d="M16 15C16 18.866 12.866 22 9 22C5.13401 22 2 18.866 2 15C2 11.134 5.13401 8 9 8C12.866 8 16 11.134 16 15ZM11.7914 11L13 12.2086L10.2086 15L13 17.7914L11.7914 19L9 16.2086L6.20857 19L5 17.7914L7.79143 15L5 12.2086L6.20857 11L9 13.7914L11.7914 11Z" />
    </g>
</svg>
