<svg width="24" height="24" viewBox="0 0 24 24" xmlns="http://www.w3.org/2000/svg">
    <g class="jp-icon3" fill="#616161">
        <path d="M5 2H15L20 7V20C20 20.5304 19.7893 21.0391 19.4142 21.4142C19.0391 21.7893 18.5304 22 18 22H5C4.46957 22 3.96086 21.7893 3.58579 21.4142C3.21071 21.0391 3 20.5304 3 20V14H4V16L8 13L4 10V12H3V4C3 3.46957 3.21071 2.96086 3.58579 2.58579C3.96086 2.21071 4.46957 2 5 2ZM12 18H16V16H12V18ZM12 14H18V12H12V14ZM12 10H18V8H12V10ZM10 14C10.5523 14 11 13.5523 11 13C11 12.4477 10.5523 12 10 12C9.44771 12 9 12.4477 9 13C9 13.5523 9.44771 14 10 14Z"/>
        <path d="M3 12V14H1V13V12H3Z"/>
    </g>
</svg>
