<?xml version="1.0" encoding="UTF-8" standalone="no"?>
<!DOCTYPE svg PUBLIC "-//W3C//DTD SVG 1.1//EN"
 "http://www.w3.org/Graphics/SVG/1.1/DTD/svg11.dtd">
<!-- Generated by graphviz version 2.38.0 (20140413.2041)
 -->
<!-- Title: G Pages: 1 -->
<svg width="1141pt" height="688pt"
 viewBox="0.00 0.00 1141.32 687.80" xmlns="http://www.w3.org/2000/svg" xmlns:xlink="http://www.w3.org/1999/xlink">
<g id="graph0" class="graph" transform="scale(1 1) rotate(0) translate(4 683.8)">
<title>G</title>
<polygon fill="white" stroke="none" points="-4,4 -4,-683.8 1137.32,-683.8 1137.32,4 -4,4"/>
<!-- application -->
<g id="node1" class="node"><title>application</title>
<g id="a_node1"><a xlink:href="https://github.com/jupyterlab/jupyterlab/tree/master/packages/application" xlink:title="application">
<ellipse fill="none" stroke="black" cx="194.322" cy="-527.084" rx="50.0912" ry="18"/>
<text text-anchor="middle" x="194.322" y="-523.384" font-family="Times,serif" font-size="14.00">application</text>
</a>
</g>
</g>
<!-- docregistry -->
<g id="node2" class="node"><title>docregistry</title>
<g id="a_node2"><a xlink:href="https://github.com/jupyterlab/jupyterlab/tree/master/packages/docregistry" xlink:title="docregistry">
<ellipse fill="none" stroke="black" cx="336.322" cy="-461.084" rx="50.0912" ry="18"/>
<text text-anchor="middle" x="336.322" y="-457.384" font-family="Times,serif" font-size="14.00">docregistry</text>
</a>
</g>
</g>
<!-- application&#45;&gt;docregistry -->
<g id="edge1" class="edge"><title>application&#45;&gt;docregistry</title>
<path fill="none" stroke="black" d="M225.355,-512.926C245.883,-503.248 273.308,-490.319 295.634,-479.794"/>
<polygon fill="black" stroke="black" points="297.302,-482.877 304.855,-475.447 294.317,-476.546 297.302,-482.877"/>
</g>
<!-- rendermime -->
<g id="node6" class="node"><title>rendermime</title>
<g id="a_node6"><a xlink:href="https://github.com/jupyterlab/jupyterlab/tree/master/packages/rendermime" xlink:title="rendermime">
<ellipse fill="none" stroke="black" cx="476.322" cy="-251.084" rx="53.8905" ry="18"/>
<text text-anchor="middle" x="476.322" y="-247.384" font-family="Times,serif" font-size="14.00">rendermime</text>
</a>
</g>
</g>
<!-- docregistry&#45;&gt;rendermime -->
<g id="edge3" class="edge"><title>docregistry&#45;&gt;rendermime</title>
<path fill="none" stroke="black" d="M348.85,-443.541C373.102,-406.637 429.505,-320.805 458.076,-277.327"/>
<polygon fill="black" stroke="black" points="461.162,-279.005 463.729,-268.725 455.312,-275.16 461.162,-279.005"/>
</g>
<!-- apputils -->
<g id="node3" class="node"><title>apputils</title>
<g id="a_node3"><a xlink:href="https://github.com/jupyterlab/jupyterlab/tree/master/packages/apputils" xlink:title="apputils">
<ellipse fill="none" stroke="black" cx="822.322" cy="-251.084" rx="38.1938" ry="18"/>
<text text-anchor="middle" x="822.322" y="-247.384" font-family="Times,serif" font-size="14.00">apputils</text>
</a>
</g>
</g>
<!-- services -->
<g id="node4" class="node"><title>services</title>
<g id="a_node4"><a xlink:href="https://github.com/jupyterlab/jupyterlab/tree/master/packages/services" xlink:title="services">
<ellipse fill="none" stroke="black" cx="945.322" cy="-251.084" rx="38.9931" ry="18"/>
<text text-anchor="middle" x="945.322" y="-247.384" font-family="Times,serif" font-size="14.00">services</text>
</a>
</g>
</g>
<!-- apputils&#45;&gt;services -->
<g id="edge2" class="edge"><title>apputils&#45;&gt;services</title>
<path fill="none" stroke="black" d="M860.944,-251.084C872.104,-251.084 884.483,-251.084 896.213,-251.084"/>
<polygon fill="black" stroke="black" points="896.306,-254.584 906.306,-251.084 896.306,-247.584 896.306,-254.584"/>
</g>
<!-- coreutils -->
<g id="node5" class="node"><title>coreutils</title>
<g id="a_node5"><a xlink:href="https://github.com/jupyterlab/jupyterlab/tree/master/packages/coreutils" xlink:title="coreutils">
<ellipse fill="none" stroke="black" cx="1081.32" cy="-251.084" rx="40.8928" ry="18"/>
<text text-anchor="middle" x="1081.32" y="-247.384" font-family="Times,serif" font-size="14.00">coreutils</text>
</a>
</g>
</g>
<!-- services&#45;&gt;coreutils -->
<g id="edge6" class="edge"><title>services&#45;&gt;coreutils</title>
<path fill="none" stroke="black" d="M984.362,-251.084C998.57,-251.084 1014.93,-251.084 1030.07,-251.084"/>
<polygon fill="black" stroke="black" points="1030.32,-254.584 1040.32,-251.084 1030.32,-247.584 1030.32,-254.584"/>
</g>
<!-- observables -->
<g id="node9" class="node"><title>observables</title>
<g id="a_node9"><a xlink:href="https://github.com/jupyterlab/jupyterlab/tree/master/packages/observables" xlink:title="observables">
<ellipse fill="none" stroke="black" cx="1081.32" cy="-186.084" rx="51.9908" ry="18"/>
<text text-anchor="middle" x="1081.32" y="-182.384" font-family="Times,serif" font-size="14.00">observables</text>
</a>
</g>
</g>
<!-- services&#45;&gt;observables -->
<g id="edge7" class="edge"><title>services&#45;&gt;observables</title>
<path fill="none" stroke="black" d="M972.796,-238.242C992.284,-228.789 1019.1,-215.782 1041.07,-205.122"/>
<polygon fill="black" stroke="black" points="1042.69,-208.228 1050.16,-200.715 1039.64,-201.93 1042.69,-208.228"/>
</g>
<!-- rendermime&#45;interfaces -->
<g id="node7" class="node"><title>rendermime&#45;interfaces</title>
<g id="a_node7"><a xlink:href="https://github.com/jupyterlab/jupyterlab/tree/master/packages/rendermime-interfaces" xlink:title="rendermime&#45;interfaces">
<ellipse fill="none" stroke="black" cx="657.322" cy="-87.0843" rx="90.9839" ry="18"/>
<text text-anchor="middle" x="657.322" y="-83.3843" font-family="Times,serif" font-size="14.00">rendermime&#45;interfaces</text>
</a>
</g>
</g>
<!-- rendermime&#45;&gt;rendermime&#45;interfaces -->
<g id="edge4" class="edge"><title>rendermime&#45;&gt;rendermime&#45;interfaces</title>
<path fill="none" stroke="black" d="M486.114,-232.996C499.874,-206.347 528.85,-156.423 566.33,-126.084 576.042,-118.223 587.581,-111.663 599.101,-106.306"/>
<polygon fill="black" stroke="black" points="600.552,-109.491 608.301,-102.265 597.737,-103.082 600.552,-109.491"/>
</g>
<!-- codemirror -->
<g id="node8" class="node"><title>codemirror</title>
<g id="a_node8"><a xlink:href="https://github.com/jupyterlab/jupyterlab/tree/master/packages/codemirror" xlink:title="codemirror">
<ellipse fill="none" stroke="black" cx="657.322" cy="-415.084" rx="50.0912" ry="18"/>
<text text-anchor="middle" x="657.322" y="-411.384" font-family="Times,serif" font-size="14.00">codemirror</text>
</a>
</g>
</g>
<!-- rendermime&#45;&gt;codemirror -->
<g id="edge5" class="edge"><title>rendermime&#45;&gt;codemirror</title>
<path fill="none" stroke="black" d="M485.815,-268.921C499.389,-295.732 528.356,-346.523 566.33,-377.084 578.46,-386.847 593.465,-394.495 607.722,-400.289"/>
<polygon fill="black" stroke="black" points="606.838,-403.698 617.428,-404.007 609.342,-397.161 606.838,-403.698"/>
</g>
<!-- codemirror&#45;&gt;apputils -->
<g id="edge11" class="edge"><title>codemirror&#45;&gt;apputils</title>
<path fill="none" stroke="black" d="M698.186,-404.464C715.06,-398.49 734.066,-389.646 748.314,-377.084 779.053,-349.983 800.135,-306.686 811.466,-278.569"/>
<polygon fill="black" stroke="black" points="814.842,-279.543 815.199,-268.954 808.317,-277.009 814.842,-279.543"/>
</g>
<!-- codeeditor -->
<g id="node12" class="node"><title>codeeditor</title>
<g id="a_node12"><a xlink:href="https://github.com/jupyterlab/jupyterlab/tree/master/packages/codeeditor" xlink:title="codeeditor">
<ellipse fill="none" stroke="black" cx="945.322" cy="-186.084" rx="48.1917" ry="18"/>
<text text-anchor="middle" x="945.322" y="-182.384" font-family="Times,serif" font-size="14.00">codeeditor</text>
</a>
</g>
</g>
<!-- codemirror&#45;&gt;codeeditor -->
<g id="edge12" class="edge"><title>codemirror&#45;&gt;codeeditor</title>
<path fill="none" stroke="black" d="M694.681,-402.81C711.616,-396.333 731.655,-387.55 748.314,-377.084 804.67,-341.679 816.693,-328.041 860.668,-278.084 879.818,-256.33 877.609,-245.419 897.226,-224.084 902.311,-218.555 908.229,-213.15 914.118,-208.231"/>
<polygon fill="black" stroke="black" points="916.446,-210.85 922.05,-201.859 912.062,-205.393 916.446,-210.85"/>
</g>
<!-- cells -->
<g id="node10" class="node"><title>cells</title>
<g id="a_node10"><a xlink:href="https://github.com/jupyterlab/jupyterlab/tree/master/packages/cells" xlink:title="cells">
<ellipse fill="none" stroke="black" cx="194.322" cy="-284.084" rx="27" ry="18"/>
<text text-anchor="middle" x="194.322" y="-280.384" font-family="Times,serif" font-size="14.00">cells</text>
</a>
</g>
</g>
<!-- outputarea -->
<g id="node11" class="node"><title>outputarea</title>
<g id="a_node11"><a xlink:href="https://github.com/jupyterlab/jupyterlab/tree/master/packages/outputarea" xlink:title="outputarea">
<ellipse fill="none" stroke="black" cx="336.322" cy="-284.084" rx="48.1917" ry="18"/>
<text text-anchor="middle" x="336.322" y="-280.384" font-family="Times,serif" font-size="14.00">outputarea</text>
</a>
</g>
</g>
<!-- cells&#45;&gt;outputarea -->
<g id="edge8" class="edge"><title>cells&#45;&gt;outputarea</title>
<path fill="none" stroke="black" d="M221.327,-284.084C237.286,-284.084 258.376,-284.084 278.072,-284.084"/>
<polygon fill="black" stroke="black" points="278.21,-287.584 288.21,-284.084 278.21,-280.584 278.21,-287.584"/>
</g>
<!-- outputarea&#45;&gt;rendermime -->
<g id="edge13" class="edge"><title>outputarea&#45;&gt;rendermime</title>
<path fill="none" stroke="black" d="M377.237,-274.539C391.207,-271.199 407.125,-267.392 422.013,-263.832"/>
<polygon fill="black" stroke="black" points="423.207,-267.145 432.119,-261.415 421.579,-260.337 423.207,-267.145"/>
</g>
<!-- codeeditor&#45;&gt;coreutils -->
<g id="edge9" class="edge"><title>codeeditor&#45;&gt;coreutils</title>
<path fill="none" stroke="black" d="M975.398,-200.188C995.513,-209.946 1022.43,-223.002 1043.96,-233.447"/>
<polygon fill="black" stroke="black" points="1042.6,-236.678 1053.13,-237.894 1045.66,-230.38 1042.6,-236.678"/>
</g>
<!-- codeeditor&#45;&gt;observables -->
<g id="edge10" class="edge"><title>codeeditor&#45;&gt;observables</title>
<path fill="none" stroke="black" d="M993.565,-186.084C1001.71,-186.084 1010.28,-186.084 1018.73,-186.084"/>
<polygon fill="black" stroke="black" points="1018.95,-189.584 1028.95,-186.084 1018.95,-182.584 1018.95,-189.584"/>
</g>
<!-- completer -->
<g id="node13" class="node"><title>completer</title>
<g id="a_node13"><a xlink:href="https://github.com/jupyterlab/jupyterlab/tree/master/packages/completer" xlink:title="completer">
<ellipse fill="none" stroke="black" cx="657.322" cy="-22.0843" rx="46.2923" ry="18"/>
<text text-anchor="middle" x="657.322" y="-18.3843" font-family="Times,serif" font-size="14.00">completer</text>
</a>
</g>
</g>
<!-- completer&#45;&gt;apputils -->
<g id="edge14" class="edge"><title>completer&#45;&gt;apputils</title>
<path fill="none" stroke="black" d="M697.363,-31.0542C714.886,-36.8073 734.645,-45.936 748.314,-60.0843 771.589,-84.1758 800.225,-176.551 813.668,-223.438"/>
<polygon fill="black" stroke="black" points="810.354,-224.58 816.449,-233.246 817.089,-222.671 810.354,-224.58"/>
</g>
<!-- completer&#45;&gt;codeeditor -->
<g id="edge15" class="edge"><title>completer&#45;&gt;codeeditor</title>
<path fill="none" stroke="black" d="M691.437,-34.4841C708.718,-41.3475 730.014,-50.4303 748.314,-60.0843 809.429,-92.3246 876.248,-137.634 913.953,-164.221"/>
<polygon fill="black" stroke="black" points="912.259,-167.311 922.442,-170.238 916.307,-161.6 912.259,-167.311"/>
</g>
<!-- console -->
<g id="node14" class="node"><title>console</title>
<g id="a_node14"><a xlink:href="https://github.com/jupyterlab/jupyterlab/tree/master/packages/console" xlink:title="console">
<ellipse fill="none" stroke="black" cx="50.3218" cy="-284.084" rx="37.8943" ry="18"/>
<text text-anchor="middle" x="50.3218" y="-280.384" font-family="Times,serif" font-size="14.00">console</text>
</a>
</g>
</g>
<!-- console&#45;&gt;cells -->
<g id="edge16" class="edge"><title>console&#45;&gt;cells</title>
<path fill="none" stroke="black" d="M88.2599,-284.084C109.35,-284.084 135.694,-284.084 156.726,-284.084"/>
<polygon fill="black" stroke="black" points="156.881,-287.584 166.881,-284.084 156.881,-280.584 156.881,-287.584"/>
</g>
<!-- csvviewer -->
<g id="node15" class="node"><title>csvviewer</title>
<g id="a_node15"><a xlink:href="https://github.com/jupyterlab/jupyterlab/tree/master/packages/csvviewer" xlink:title="csvviewer">
<ellipse fill="none" stroke="black" cx="194.322" cy="-461.084" rx="46.2923" ry="18"/>
<text text-anchor="middle" x="194.322" y="-457.384" font-family="Times,serif" font-size="14.00">csvviewer</text>
</a>
</g>
</g>
<!-- csvviewer&#45;&gt;docregistry -->
<g id="edge17" class="edge"><title>csvviewer&#45;&gt;docregistry</title>
<path fill="none" stroke="black" d="M240.776,-461.084C252.015,-461.084 264.22,-461.084 276.012,-461.084"/>
<polygon fill="black" stroke="black" points="276.232,-464.584 286.232,-461.084 276.232,-457.584 276.232,-464.584"/>
</g>
<!-- docmanager -->
<g id="node16" class="node"><title>docmanager</title>
<g id="a_node16"><a xlink:href="https://github.com/jupyterlab/jupyterlab/tree/master/packages/docmanager" xlink:title="docmanager">
<ellipse fill="none" stroke="black" cx="194.322" cy="-592.084" rx="53.8905" ry="18"/>
<text text-anchor="middle" x="194.322" y="-588.384" font-family="Times,serif" font-size="14.00">docmanager</text>
</a>
</g>
</g>
<!-- docmanager&#45;&gt;docregistry -->
<g id="edge18" class="edge"><title>docmanager&#45;&gt;docregistry</title>
<path fill="none" stroke="black" d="M221.125,-576.246C230.821,-569.835 241.705,-562.067 250.867,-554.084 274.895,-533.148 299.009,-505.812 315.282,-486.203"/>
<polygon fill="black" stroke="black" points="318.118,-488.265 321.753,-478.314 312.705,-483.826 318.118,-488.265"/>
</g>
<!-- filebrowser -->
<g id="node17" class="node"><title>filebrowser</title>
<g id="a_node17"><a xlink:href="https://github.com/jupyterlab/jupyterlab/tree/master/packages/filebrowser" xlink:title="filebrowser">
<ellipse fill="none" stroke="black" cx="50.3218" cy="-592.084" rx="50.8918" ry="18"/>
<text text-anchor="middle" x="50.3218" y="-588.384" font-family="Times,serif" font-size="14.00">filebrowser</text>
</a>
</g>
</g>
<!-- filebrowser&#45;&gt;docmanager -->
<g id="edge19" class="edge"><title>filebrowser&#45;&gt;docmanager</title>
<path fill="none" stroke="black" d="M101.386,-592.084C110.651,-592.084 120.438,-592.084 130.035,-592.084"/>
<polygon fill="black" stroke="black" points="130.341,-595.584 140.341,-592.084 130.341,-588.584 130.341,-595.584"/>
</g>
<!-- fileeditor -->
<g id="node18" class="node"><title>fileeditor</title>
<g id="a_node18"><a xlink:href="https://github.com/jupyterlab/jupyterlab/tree/master/packages/fileeditor" xlink:title="fileeditor">
<ellipse fill="none" stroke="black" cx="194.322" cy="-350.084" rx="42.7926" ry="18"/>
<text text-anchor="middle" x="194.322" y="-346.384" font-family="Times,serif" font-size="14.00">fileeditor</text>
</a>
</g>
</g>
<!-- fileeditor&#45;&gt;docregistry -->
<g id="edge20" class="edge"><title>fileeditor&#45;&gt;docregistry</title>
<path fill="none" stroke="black" d="M216.898,-365.577C227.272,-373.136 239.823,-382.442 250.867,-391.084 270.152,-406.175 291.371,-423.767 307.716,-437.539"/>
<polygon fill="black" stroke="black" points="305.887,-440.576 315.783,-444.36 310.407,-435.231 305.887,-440.576"/>
</g>
<!-- imageviewer -->
<g id="node19" class="node"><title>imageviewer</title>
<g id="a_node19"><a xlink:href="https://github.com/jupyterlab/jupyterlab/tree/master/packages/imageviewer" xlink:title="imageviewer">
<ellipse fill="none" stroke="black" cx="194.322" cy="-658.084" rx="56.59" ry="18"/>
<text text-anchor="middle" x="194.322" y="-654.384" font-family="Times,serif" font-size="14.00">imageviewer</text>
</a>
</g>
</g>
<!-- imageviewer&#45;&gt;docregistry -->
<g id="edge21" class="edge"><title>imageviewer&#45;&gt;docregistry</title>
<path fill="none" stroke="black" d="M222.79,-642.493C232.463,-636.101 242.899,-628.082 250.867,-619.084 285.998,-579.411 311.775,-522.563 325.088,-488.973"/>
<polygon fill="black" stroke="black" points="328.471,-489.929 328.816,-479.339 321.943,-487.402 328.471,-489.929"/>
</g>
<!-- inspector -->
<g id="node20" class="node"><title>inspector</title>
<g id="a_node20"><a xlink:href="https://github.com/jupyterlab/jupyterlab/tree/master/packages/inspector" xlink:title="inspector">
<ellipse fill="none" stroke="black" cx="336.322" cy="-218.084" rx="42.7926" ry="18"/>
<text text-anchor="middle" x="336.322" y="-214.384" font-family="Times,serif" font-size="14.00">inspector</text>
</a>
</g>
</g>
<!-- inspector&#45;&gt;rendermime -->
<g id="edge22" class="edge"><title>inspector&#45;&gt;rendermime</title>
<path fill="none" stroke="black" d="M373.941,-226.841C388.687,-230.367 405.985,-234.504 422.075,-238.351"/>
<polygon fill="black" stroke="black" points="421.364,-241.78 431.904,-240.702 422.992,-234.972 421.364,-241.78"/>
</g>
<!-- launcher -->
<g id="node21" class="node"><title>launcher</title>
<g id="a_node21"><a xlink:href="https://github.com/jupyterlab/jupyterlab/tree/master/packages/launcher" xlink:title="launcher">
<ellipse fill="none" stroke="black" cx="657.322" cy="-153.084" rx="40.8928" ry="18"/>
<text text-anchor="middle" x="657.322" y="-149.384" font-family="Times,serif" font-size="14.00">launcher</text>
</a>
</g>
</g>
<!-- launcher&#45;&gt;apputils -->
<g id="edge23" class="edge"><title>launcher&#45;&gt;apputils</title>
<path fill="none" stroke="black" d="M690.225,-163.977C707.94,-170.651 730.027,-180.03 748.314,-191.084 765.801,-201.656 783.555,-216.144 797.176,-228.235"/>
<polygon fill="black" stroke="black" points="794.921,-230.915 804.685,-235.029 799.618,-225.724 794.921,-230.915"/>
</g>
<!-- mainmenu -->
<g id="node22" class="node"><title>mainmenu</title>
<g id="a_node22"><a xlink:href="https://github.com/jupyterlab/jupyterlab/tree/master/packages/mainmenu" xlink:title="mainmenu">
<ellipse fill="none" stroke="black" cx="657.322" cy="-350.084" rx="48.9926" ry="18"/>
<text text-anchor="middle" x="657.322" y="-346.384" font-family="Times,serif" font-size="14.00">mainmenu</text>
</a>
</g>
</g>
<!-- mainmenu&#45;&gt;apputils -->
<g id="edge24" class="edge"><title>mainmenu&#45;&gt;apputils</title>
<path fill="none" stroke="black" d="M693.199,-337.607C710.361,-330.818 731.022,-321.648 748.314,-311.084 765.752,-300.431 783.504,-285.941 797.136,-273.869"/>
<polygon fill="black" stroke="black" points="799.572,-276.385 804.653,-267.088 794.884,-271.188 799.572,-276.385"/>
</g>
<!-- notebook -->
<g id="node23" class="node"><title>notebook</title>
<g id="a_node23"><a xlink:href="https://github.com/jupyterlab/jupyterlab/tree/master/packages/notebook" xlink:title="notebook">
<ellipse fill="none" stroke="black" cx="50.3218" cy="-377.084" rx="43.5923" ry="18"/>
<text text-anchor="middle" x="50.3218" y="-373.384" font-family="Times,serif" font-size="14.00">notebook</text>
</a>
</g>
</g>
<!-- notebook&#45;&gt;docregistry -->
<g id="edge25" class="edge"><title>notebook&#45;&gt;docregistry</title>
<path fill="none" stroke="black" d="M87.1059,-386.943C127.117,-398.051 193.795,-416.815 250.867,-434.084 263.306,-437.848 276.727,-442.066 289.128,-446.03"/>
<polygon fill="black" stroke="black" points="288.226,-449.416 298.817,-449.14 290.366,-442.751 288.226,-449.416"/>
</g>
<!-- notebook&#45;&gt;cells -->
<g id="edge26" class="edge"><title>notebook&#45;&gt;cells</title>
<path fill="none" stroke="black" d="M74.4526,-361.935C99.4475,-345.565 139.258,-319.493 165.832,-302.088"/>
<polygon fill="black" stroke="black" points="167.849,-304.951 174.297,-296.544 164.013,-299.095 167.849,-304.951"/>
</g>
<!-- running -->
<g id="node24" class="node"><title>running</title>
<g id="a_node24"><a xlink:href="https://github.com/jupyterlab/jupyterlab/tree/master/packages/running" xlink:title="running">
<ellipse fill="none" stroke="black" cx="657.322" cy="-284.084" rx="38.1938" ry="18"/>
<text text-anchor="middle" x="657.322" y="-280.384" font-family="Times,serif" font-size="14.00">running</text>
</a>
</g>
</g>
<!-- running&#45;&gt;apputils -->
<g id="edge27" class="edge"><title>running&#45;&gt;apputils</title>
<path fill="none" stroke="black" d="M692.89,-277.086C717.31,-272.142 750.258,-265.472 776.667,-260.125"/>
<polygon fill="black" stroke="black" points="777.697,-263.487 786.804,-258.073 776.308,-256.627 777.697,-263.487"/>
</g>
<!-- settingeditor -->
<g id="node25" class="node"><title>settingeditor</title>
<g id="a_node25"><a xlink:href="https://github.com/jupyterlab/jupyterlab/tree/master/packages/settingeditor" xlink:title="settingeditor">
<ellipse fill="none" stroke="black" cx="194.322" cy="-218.084" rx="54.6905" ry="18"/>
<text text-anchor="middle" x="194.322" y="-214.384" font-family="Times,serif" font-size="14.00">settingeditor</text>
</a>
</g>
</g>
<!-- settingeditor&#45;&gt;inspector -->
<g id="edge28" class="edge"><title>settingeditor&#45;&gt;inspector</title>
<path fill="none" stroke="black" d="M249.049,-218.084C260.266,-218.084 272.074,-218.084 283.23,-218.084"/>
<polygon fill="black" stroke="black" points="283.258,-221.584 293.258,-218.084 283.258,-214.584 283.258,-221.584"/>
</g>
<!-- terminal -->
<g id="node26" class="node"><title>terminal</title>
<g id="a_node26"><a xlink:href="https://github.com/jupyterlab/jupyterlab/tree/master/packages/terminal" xlink:title="terminal">
<ellipse fill="none" stroke="black" cx="657.322" cy="-218.084" rx="40.0939" ry="18"/>
<text text-anchor="middle" x="657.322" y="-214.384" font-family="Times,serif" font-size="14.00">terminal</text>
</a>
</g>
</g>
<!-- terminal&#45;&gt;apputils -->
<g id="edge29" class="edge"><title>terminal&#45;&gt;apputils</title>
<path fill="none" stroke="black" d="M694.497,-225.408C718.84,-230.336 751.094,-236.866 776.982,-242.108"/>
<polygon fill="black" stroke="black" points="776.426,-245.566 786.922,-244.12 777.815,-238.705 776.426,-245.566"/>
</g>
<!-- tooltip -->
<g id="node27" class="node"><title>tooltip</title>
<g id="a_node27"><a xlink:href="https://github.com/jupyterlab/jupyterlab/tree/master/packages/tooltip" xlink:title="tooltip">
<ellipse fill="none" stroke="black" cx="336.322" cy="-153.084" rx="33.5952" ry="18"/>
<text text-anchor="middle" x="336.322" y="-149.384" font-family="Times,serif" font-size="14.00">tooltip</text>
</a>
</g>
</g>
<!-- tooltip&#45;&gt;rendermime -->
<g id="edge30" class="edge"><title>tooltip&#45;&gt;rendermime</title>
<path fill="none" stroke="black" d="M357.388,-167.334C380.188,-183.525 417.672,-210.145 444.256,-229.023"/>
<polygon fill="black" stroke="black" points="442.292,-231.921 452.472,-234.858 446.345,-226.214 442.292,-231.921"/>
</g>
</g>
</svg>
