<?xml version="1.0" encoding="UTF-8" standalone="no"?>
<!DOCTYPE svg PUBLIC "-//W3C//DTD SVG 1.1//EN"
 "http://www.w3.org/Graphics/SVG/1.1/DTD/svg11.dtd">
<!-- Generated by graphviz version 2.44.0 (20200408.0750)
 -->
<!-- Title: G Pages: 1 -->
<svg width="1999pt" height="1202pt"
 viewBox="0.00 0.00 1998.56 1202.00" xmlns="http://www.w3.org/2000/svg" xmlns:xlink="http://www.w3.org/1999/xlink">
<g id="graph0" class="graph" transform="scale(1 1) rotate(0) translate(4 1198)">
<title>G</title>
<polygon fill="white" stroke="transparent" points="-4,4 -4,-1198 1994.56,-1198 1994.56,4 -4,4"/>
<!-- application -->
<g id="node1" class="node">
<title>application</title>
<g id="a_node1"><a xlink:href="https://github.com/jupyterlab/jupyterlab/tree/master/packages/application" xlink:title="application">
<ellipse fill="none" stroke="black" cx="236.56" cy="-387.7" rx="50.09" ry="18"/>
<text text-anchor="middle" x="236.56" y="-384" font-family="Times,serif" font-size="14.00">application</text>
</a>
</g>
</g>
<!-- docregistry -->
<g id="node2" class="node">
<title>docregistry</title>
<g id="a_node2"><a xlink:href="https://github.com/jupyterlab/jupyterlab/tree/master/packages/docregistry" xlink:title="docregistry">
<ellipse fill="none" stroke="black" cx="830.56" cy="-579.7" rx="50.09" ry="18"/>
<text text-anchor="middle" x="830.56" y="-576" font-family="Times,serif" font-size="14.00">docregistry</text>
</a>
</g>
</g>
<!-- application&#45;&gt;docregistry -->
<g id="edge1" class="edge">
<title>application&#45;&gt;docregistry</title>
<path fill="none" stroke="black" d="M281.75,-379.71C375.29,-365.26 596.82,-344.31 744.36,-437.7 749.95,-441.24 791.59,-513.17 814.52,-553.26"/>
<polygon fill="black" stroke="black" points="811.51,-555.06 819.51,-562 817.59,-551.58 811.51,-555.06"/>
</g>
<!-- rendermime -->
<g id="node7" class="node">
<title>rendermime</title>
<g id="a_node7"><a xlink:href="https://github.com/jupyterlab/jupyterlab/tree/master/packages/rendermime" xlink:title="rendermime">
<ellipse fill="none" stroke="black" cx="970.56" cy="-579.7" rx="53.89" ry="18"/>
<text text-anchor="middle" x="970.56" y="-576" font-family="Times,serif" font-size="14.00">rendermime</text>
</a>
</g>
</g>
<!-- docregistry&#45;&gt;rendermime -->
<g id="edge4" class="edge">
<title>docregistry&#45;&gt;rendermime</title>
<path fill="none" stroke="black" d="M880.99,-579.7C889.13,-579.7 897.66,-579.7 906.09,-579.7"/>
<polygon fill="black" stroke="black" points="906.27,-583.2 916.27,-579.7 906.27,-576.2 906.27,-583.2"/>
</g>
<!-- apputils -->
<g id="node3" class="node">
<title>apputils</title>
<g id="a_node3"><a xlink:href="https://github.com/jupyterlab/jupyterlab/tree/master/packages/apputils" xlink:title="apputils">
<ellipse fill="none" stroke="black" cx="1513.56" cy="-810.7" rx="38.19" ry="18"/>
<text text-anchor="middle" x="1513.56" y="-807" font-family="Times,serif" font-size="14.00">apputils</text>
</a>
</g>
</g>
<!-- services -->
<g id="node4" class="node">
<title>services</title>
<g id="a_node4"><a xlink:href="https://github.com/jupyterlab/jupyterlab/tree/master/packages/services" xlink:title="services">
<ellipse fill="none" stroke="black" cx="1661.56" cy="-694.7" rx="38.99" ry="18"/>
<text text-anchor="middle" x="1661.56" y="-691" font-family="Times,serif" font-size="14.00">services</text>
</a>
</g>
</g>
<!-- apputils&#45;&gt;services -->
<g id="edge2" class="edge">
<title>apputils&#45;&gt;services</title>
<path fill="none" stroke="black" d="M1533.95,-795.3C1559.37,-775.1 1604.1,-739.56 1633.03,-716.58"/>
<polygon fill="black" stroke="black" points="1635.44,-719.13 1641.09,-710.17 1631.09,-713.65 1635.44,-719.13"/>
</g>
<!-- ui&#45;components -->
<g id="node5" class="node">
<title>ui&#45;components</title>
<g id="a_node5"><a xlink:href="https://github.com/jupyterlab/jupyterlab/tree/master/packages/ui-components" xlink:title="ui&#45;components">
<ellipse fill="none" stroke="black" cx="1661.56" cy="-810.7" rx="63.89" ry="18"/>
<text text-anchor="middle" x="1661.56" y="-807" font-family="Times,serif" font-size="14.00">ui&#45;components</text>
</a>
</g>
</g>
<!-- apputils&#45;&gt;ui&#45;components -->
<g id="edge3" class="edge">
<title>apputils&#45;&gt;ui&#45;components</title>
<path fill="none" stroke="black" d="M1552.16,-810.7C1562.99,-810.7 1575.18,-810.7 1587.38,-810.7"/>
<polygon fill="black" stroke="black" points="1587.61,-814.2 1597.61,-810.7 1587.61,-807.2 1587.61,-814.2"/>
</g>
<!-- coreutils -->
<g id="node6" class="node">
<title>coreutils</title>
<g id="a_node6"><a xlink:href="https://github.com/jupyterlab/jupyterlab/tree/master/packages/coreutils" xlink:title="coreutils">
<ellipse fill="none" stroke="black" cx="1821.56" cy="-810.7" rx="40.89" ry="18"/>
<text text-anchor="middle" x="1821.56" y="-807" font-family="Times,serif" font-size="14.00">coreutils</text>
</a>
</g>
</g>
<!-- services&#45;&gt;coreutils -->
<g id="edge7" class="edge">
<title>services&#45;&gt;coreutils</title>
<path fill="none" stroke="black" d="M1683.22,-709.86C1710.74,-730.07 1759.62,-765.96 1791.03,-789.02"/>
<polygon fill="black" stroke="black" points="1789.26,-792.06 1799.4,-795.16 1793.41,-786.42 1789.26,-792.06"/>
</g>
<!-- settingregistry -->
<g id="node10" class="node">
<title>settingregistry</title>
<g id="a_node10"><a xlink:href="https://github.com/jupyterlab/jupyterlab/tree/master/packages/settingregistry" xlink:title="settingregistry">
<ellipse fill="none" stroke="black" cx="1821.56" cy="-694.7" rx="61.19" ry="18"/>
<text text-anchor="middle" x="1821.56" y="-691" font-family="Times,serif" font-size="14.00">settingregistry</text>
</a>
</g>
</g>
<!-- services&#45;&gt;settingregistry -->
<g id="edge8" class="edge">
<title>services&#45;&gt;settingregistry</title>
<path fill="none" stroke="black" d="M1700.81,-694.7C1715.56,-694.7 1732.91,-694.7 1749.77,-694.7"/>
<polygon fill="black" stroke="black" points="1750.17,-698.2 1760.17,-694.7 1750.17,-691.2 1750.17,-698.2"/>
</g>
<!-- nbformat -->
<g id="node11" class="node">
<title>nbformat</title>
<g id="a_node11"><a xlink:href="https://github.com/jupyterlab/jupyterlab/tree/master/packages/nbformat" xlink:title="nbformat">
<ellipse fill="none" stroke="black" cx="1821.56" cy="-579.7" rx="43.59" ry="18"/>
<text text-anchor="middle" x="1821.56" y="-576" font-family="Times,serif" font-size="14.00">nbformat</text>
</a>
</g>
</g>
<!-- services&#45;&gt;nbformat -->
<g id="edge9" class="edge">
<title>services&#45;&gt;nbformat</title>
<path fill="none" stroke="black" d="M1683.22,-679.67C1710.67,-659.69 1759.35,-624.25 1790.77,-601.38"/>
<polygon fill="black" stroke="black" points="1793.12,-604 1799.14,-595.29 1789,-598.34 1793.12,-604"/>
</g>
<!-- observables -->
<g id="node12" class="node">
<title>observables</title>
<g id="a_node12"><a xlink:href="https://github.com/jupyterlab/jupyterlab/tree/master/packages/observables" xlink:title="observables">
<ellipse fill="none" stroke="black" cx="1821.56" cy="-464.7" rx="51.99" ry="18"/>
<text text-anchor="middle" x="1821.56" y="-461" font-family="Times,serif" font-size="14.00">observables</text>
</a>
</g>
</g>
<!-- services&#45;&gt;observables -->
<g id="edge10" class="edge">
<title>services&#45;&gt;observables</title>
<path fill="none" stroke="black" d="M1674.44,-677.41C1701.95,-637.37 1770.16,-538.07 1802.72,-490.67"/>
<polygon fill="black" stroke="black" points="1805.77,-492.41 1808.55,-482.19 1800,-488.45 1805.77,-492.41"/>
</g>
<!-- ui&#45;components&#45;&gt;coreutils -->
<g id="edge11" class="edge">
<title>ui&#45;components&#45;&gt;coreutils</title>
<path fill="none" stroke="black" d="M1725.46,-810.7C1740.42,-810.7 1756.18,-810.7 1770.48,-810.7"/>
<polygon fill="black" stroke="black" points="1770.6,-814.2 1780.6,-810.7 1770.6,-807.2 1770.6,-814.2"/>
</g>
<!-- rendermime&#45;interfaces -->
<g id="node8" class="node">
<title>rendermime&#45;interfaces</title>
<g id="a_node8"><a xlink:href="https://github.com/jupyterlab/jupyterlab/tree/master/packages/rendermime-interfaces" xlink:title="rendermime&#45;interfaces">
<ellipse fill="none" stroke="black" cx="1151.56" cy="-694.7" rx="90.98" ry="18"/>
<text text-anchor="middle" x="1151.56" y="-691" font-family="Times,serif" font-size="14.00">rendermime&#45;interfaces</text>
</a>
</g>
</g>
<!-- rendermime&#45;&gt;rendermime&#45;interfaces -->
<g id="edge5" class="edge">
<title>rendermime&#45;&gt;rendermime&#45;interfaces</title>
<path fill="none" stroke="black" d="M996.45,-595.69C1027.36,-615.55 1080.28,-649.54 1115.34,-672.07"/>
<polygon fill="black" stroke="black" points="1113.54,-675.07 1123.84,-677.53 1117.32,-669.18 1113.54,-675.07"/>
</g>
<!-- codemirror -->
<g id="node9" class="node">
<title>codemirror</title>
<g id="a_node9"><a xlink:href="https://github.com/jupyterlab/jupyterlab/tree/master/packages/codemirror" xlink:title="codemirror">
<ellipse fill="none" stroke="black" cx="1151.56" cy="-579.7" rx="50.09" ry="18"/>
<text text-anchor="middle" x="1151.56" y="-576" font-family="Times,serif" font-size="14.00">codemirror</text>
</a>
</g>
</g>
<!-- rendermime&#45;&gt;codemirror -->
<g id="edge6" class="edge">
<title>rendermime&#45;&gt;codemirror</title>
<path fill="none" stroke="black" d="M1024.78,-579.7C1045.6,-579.7 1069.56,-579.7 1090.95,-579.7"/>
<polygon fill="black" stroke="black" points="1091.22,-583.2 1101.22,-579.7 1091.22,-576.2 1091.22,-583.2"/>
</g>
<!-- statusbar -->
<g id="node19" class="node">
<title>statusbar</title>
<g id="a_node19"><a xlink:href="https://github.com/jupyterlab/jupyterlab/tree/master/packages/statusbar" xlink:title="statusbar">
<ellipse fill="none" stroke="black" cx="1353.56" cy="-579.7" rx="42.49" ry="18"/>
<text text-anchor="middle" x="1353.56" y="-576" font-family="Times,serif" font-size="14.00">statusbar</text>
</a>
</g>
</g>
<!-- codemirror&#45;&gt;statusbar -->
<g id="edge20" class="edge">
<title>codemirror&#45;&gt;statusbar</title>
<path fill="none" stroke="black" d="M1201.74,-579.7C1231.88,-579.7 1270.4,-579.7 1300.97,-579.7"/>
<polygon fill="black" stroke="black" points="1301,-583.2 1311,-579.7 1301,-576.2 1301,-583.2"/>
</g>
<!-- statedb -->
<g id="node13" class="node">
<title>statedb</title>
<g id="a_node13"><a xlink:href="https://github.com/jupyterlab/jupyterlab/tree/master/packages/statedb" xlink:title="statedb">
<ellipse fill="none" stroke="black" cx="1954.56" cy="-694.7" rx="36" ry="18"/>
<text text-anchor="middle" x="1954.56" y="-691" font-family="Times,serif" font-size="14.00">statedb</text>
</a>
</g>
</g>
<!-- settingregistry&#45;&gt;statedb -->
<g id="edge12" class="edge">
<title>settingregistry&#45;&gt;statedb</title>
<path fill="none" stroke="black" d="M1882.69,-694.7C1891.4,-694.7 1900.23,-694.7 1908.56,-694.7"/>
<polygon fill="black" stroke="black" points="1908.81,-698.2 1918.81,-694.7 1908.81,-691.2 1908.81,-698.2"/>
</g>
<!-- attachments -->
<g id="node14" class="node">
<title>attachments</title>
<g id="a_node14"><a xlink:href="https://github.com/jupyterlab/jupyterlab/tree/master/packages/attachments" xlink:title="attachments">
<ellipse fill="none" stroke="black" cx="509.56" cy="-980.7" rx="53.09" ry="18"/>
<text text-anchor="middle" x="509.56" y="-977" font-family="Times,serif" font-size="14.00">attachments</text>
</a>
</g>
</g>
<!-- attachments&#45;&gt;rendermime -->
<g id="edge13" class="edge">
<title>attachments&#45;&gt;rendermime</title>
<path fill="none" stroke="black" d="M562.45,-977.49C613.04,-972.09 690.09,-957.59 744.36,-918.7 774.57,-897.05 907.3,-681.91 953.58,-606.03"/>
<polygon fill="black" stroke="black" points="956.57,-607.85 958.78,-597.49 950.59,-604.2 956.57,-607.85"/>
</g>
<!-- cells -->
<g id="node15" class="node">
<title>cells</title>
<g id="a_node15"><a xlink:href="https://github.com/jupyterlab/jupyterlab/tree/master/packages/cells" xlink:title="cells">
<ellipse fill="none" stroke="black" cx="371.56" cy="-891.7" rx="27" ry="18"/>
<text text-anchor="middle" x="371.56" y="-888" font-family="Times,serif" font-size="14.00">cells</text>
</a>
</g>
</g>
<!-- cells&#45;&gt;attachments -->
<g id="edge14" class="edge">
<title>cells&#45;&gt;attachments</title>
<path fill="none" stroke="black" d="M391.47,-904.08C413.24,-918.32 449.39,-941.98 475.77,-959.24"/>
<polygon fill="black" stroke="black" points="474.02,-962.28 484.31,-964.83 477.86,-956.42 474.02,-962.28"/>
</g>
<!-- filebrowser -->
<g id="node16" class="node">
<title>filebrowser</title>
<g id="a_node16"><a xlink:href="https://github.com/jupyterlab/jupyterlab/tree/master/packages/filebrowser" xlink:title="filebrowser">
<ellipse fill="none" stroke="black" cx="509.56" cy="-865.7" rx="50.09" ry="18"/>
<text text-anchor="middle" x="509.56" y="-862" font-family="Times,serif" font-size="14.00">filebrowser</text>
</a>
</g>
</g>
<!-- cells&#45;&gt;filebrowser -->
<g id="edge15" class="edge">
<title>cells&#45;&gt;filebrowser</title>
<path fill="none" stroke="black" d="M397.82,-886.87C413.92,-883.79 435.4,-879.69 455.15,-875.91"/>
<polygon fill="black" stroke="black" points="455.82,-879.35 464.98,-874.03 454.5,-872.47 455.82,-879.35"/>
</g>
<!-- outputarea -->
<g id="node17" class="node">
<title>outputarea</title>
<g id="a_node17"><a xlink:href="https://github.com/jupyterlab/jupyterlab/tree/master/packages/outputarea" xlink:title="outputarea">
<ellipse fill="none" stroke="black" cx="509.56" cy="-1095.7" rx="48.19" ry="18"/>
<text text-anchor="middle" x="509.56" y="-1092" font-family="Times,serif" font-size="14.00">outputarea</text>
</a>
</g>
</g>
<!-- cells&#45;&gt;outputarea -->
<g id="edge16" class="edge">
<title>cells&#45;&gt;outputarea</title>
<path fill="none" stroke="black" d="M383.46,-908.05C407,-943.36 462.75,-1026.99 491.21,-1069.67"/>
<polygon fill="black" stroke="black" points="488.38,-1071.74 496.84,-1078.12 494.21,-1067.86 488.38,-1071.74"/>
</g>
<!-- docmanager -->
<g id="node20" class="node">
<title>docmanager</title>
<g id="a_node20"><a xlink:href="https://github.com/jupyterlab/jupyterlab/tree/master/packages/docmanager" xlink:title="docmanager">
<ellipse fill="none" stroke="black" cx="671.56" cy="-891.7" rx="53.89" ry="18"/>
<text text-anchor="middle" x="671.56" y="-888" font-family="Times,serif" font-size="14.00">docmanager</text>
</a>
</g>
</g>
<!-- filebrowser&#45;&gt;docmanager -->
<g id="edge21" class="edge">
<title>filebrowser&#45;&gt;docmanager</title>
<path fill="none" stroke="black" d="M555.56,-873.01C573.34,-875.9 594,-879.26 612.86,-882.32"/>
<polygon fill="black" stroke="black" points="612.4,-885.79 622.83,-883.94 613.52,-878.89 612.4,-885.79"/>
</g>
<!-- outputarea&#45;&gt;rendermime -->
<g id="edge22" class="edge">
<title>outputarea&#45;&gt;rendermime</title>
<path fill="none" stroke="black" d="M542.61,-1082.4C617.34,-1049.48 802.69,-956.3 880.61,-812.7 912.28,-754.34 891.22,-729.05 916.62,-667.7 925.73,-645.68 939.77,-622.65 951.1,-605.68"/>
<polygon fill="black" stroke="black" points="954,-607.64 956.74,-597.4 948.22,-603.7 954,-607.64"/>
</g>
<!-- codeeditor -->
<g id="node18" class="node">
<title>codeeditor</title>
<g id="a_node18"><a xlink:href="https://github.com/jupyterlab/jupyterlab/tree/master/packages/codeeditor" xlink:title="codeeditor">
<ellipse fill="none" stroke="black" cx="1513.56" cy="-579.7" rx="48.19" ry="18"/>
<text text-anchor="middle" x="1513.56" y="-576" font-family="Times,serif" font-size="14.00">codeeditor</text>
</a>
</g>
</g>
<!-- codeeditor&#45;&gt;ui&#45;components -->
<g id="edge17" class="edge">
<title>codeeditor&#45;&gt;ui&#45;components</title>
<path fill="none" stroke="black" d="M1524.36,-597.47C1539.48,-624.64 1569.7,-677.96 1597.87,-721.7 1611.72,-743.22 1628.46,-766.87 1641.15,-784.38"/>
<polygon fill="black" stroke="black" points="1638.67,-786.91 1647.39,-792.93 1644.33,-782.79 1638.67,-786.91"/>
</g>
<!-- codeeditor&#45;&gt;nbformat -->
<g id="edge18" class="edge">
<title>codeeditor&#45;&gt;nbformat</title>
<path fill="none" stroke="black" d="M1561.7,-579.7C1617.37,-579.7 1709.72,-579.7 1767.75,-579.7"/>
<polygon fill="black" stroke="black" points="1767.81,-583.2 1777.81,-579.7 1767.81,-576.2 1767.81,-583.2"/>
</g>
<!-- codeeditor&#45;&gt;observables -->
<g id="edge19" class="edge">
<title>codeeditor&#45;&gt;observables</title>
<path fill="none" stroke="black" d="M1548.18,-567.06C1603.6,-546.24 1714.11,-504.71 1775.98,-481.46"/>
<polygon fill="black" stroke="black" points="1777.34,-484.68 1785.47,-477.89 1774.88,-478.13 1777.34,-484.68"/>
</g>
<!-- statusbar&#45;&gt;apputils -->
<g id="edge26" class="edge">
<title>statusbar&#45;&gt;apputils</title>
<path fill="none" stroke="black" d="M1370.3,-596.52C1386.04,-613.72 1410.48,-641.56 1428.96,-667.7 1456.25,-706.31 1482.97,-754.31 1498.6,-783.71"/>
<polygon fill="black" stroke="black" points="1495.7,-785.72 1503.46,-792.93 1501.89,-782.45 1495.7,-785.72"/>
</g>
<!-- statusbar&#45;&gt;codeeditor -->
<g id="edge27" class="edge">
<title>statusbar&#45;&gt;codeeditor</title>
<path fill="none" stroke="black" d="M1396.07,-579.7C1414.14,-579.7 1435.6,-579.7 1455.16,-579.7"/>
<polygon fill="black" stroke="black" points="1455.18,-583.2 1465.18,-579.7 1455.18,-576.2 1455.18,-583.2"/>
</g>
<!-- docmanager&#45;&gt;docregistry -->
<g id="edge32" class="edge">
<title>docmanager&#45;&gt;docregistry</title>
<path fill="none" stroke="black" d="M689.2,-874.51C705.04,-857.42 728.72,-829.89 744.36,-802.7 782.24,-736.82 809.57,-650.89 822.03,-607.45"/>
<polygon fill="black" stroke="black" points="825.46,-608.18 824.8,-597.6 818.72,-606.28 825.46,-608.18"/>
</g>
<!-- celltags -->
<g id="node21" class="node">
<title>celltags</title>
<g id="a_node21"><a xlink:href="https://github.com/jupyterlab/jupyterlab/tree/master/packages/celltags" xlink:title="celltags">
<ellipse fill="none" stroke="black" cx="75.56" cy="-526.7" rx="37.89" ry="18"/>
<text text-anchor="middle" x="75.56" y="-523" font-family="Times,serif" font-size="14.00">celltags</text>
</a>
</g>
</g>
<!-- celltags&#45;&gt;application -->
<g id="edge23" class="edge">
<title>celltags&#45;&gt;application</title>
<path fill="none" stroke="black" d="M94.49,-511.03C122.34,-486.68 176.17,-439.62 208.69,-411.19"/>
<polygon fill="black" stroke="black" points="211.24,-413.61 216.46,-404.4 206.63,-408.34 211.24,-413.61"/>
</g>
<!-- notebook -->
<g id="node22" class="node">
<title>notebook</title>
<g id="a_node22"><a xlink:href="https://github.com/jupyterlab/jupyterlab/tree/master/packages/notebook" xlink:title="notebook">
<ellipse fill="none" stroke="black" cx="236.56" cy="-891.7" rx="43.59" ry="18"/>
<text text-anchor="middle" x="236.56" y="-888" font-family="Times,serif" font-size="14.00">notebook</text>
</a>
</g>
</g>
<!-- celltags&#45;&gt;notebook -->
<g id="edge24" class="edge">
<title>celltags&#45;&gt;notebook</title>
<path fill="none" stroke="black" d="M84.23,-544.27C98.05,-576.08 127.83,-645.42 150.96,-704.7 167.8,-747.87 167.37,-760.5 186.52,-802.7 196.29,-824.25 209.29,-847.66 219.45,-865.06"/>
<polygon fill="black" stroke="black" points="216.67,-867.22 224.76,-874.05 222.69,-863.66 216.67,-867.22"/>
</g>
<!-- notebook&#45;&gt;cells -->
<g id="edge25" class="edge">
<title>notebook&#45;&gt;cells</title>
<path fill="none" stroke="black" d="M280.38,-891.7C297.69,-891.7 317.48,-891.7 334.09,-891.7"/>
<polygon fill="black" stroke="black" points="334.5,-895.2 344.5,-891.7 334.5,-888.2 334.5,-895.2"/>
</g>
<!-- completer -->
<g id="node23" class="node">
<title>completer</title>
<g id="a_node23"><a xlink:href="https://github.com/jupyterlab/jupyterlab/tree/master/packages/completer" xlink:title="completer">
<ellipse fill="none" stroke="black" cx="1353.56" cy="-464.7" rx="46.29" ry="18"/>
<text text-anchor="middle" x="1353.56" y="-461" font-family="Times,serif" font-size="14.00">completer</text>
</a>
</g>
</g>
<!-- completer&#45;&gt;apputils -->
<g id="edge28" class="edge">
<title>completer&#45;&gt;apputils</title>
<path fill="none" stroke="black" d="M1372.17,-481.37C1388.85,-498.03 1413.59,-525.08 1428.96,-552.7 1472.13,-630.33 1497.08,-733.66 1507.21,-782.65"/>
<polygon fill="black" stroke="black" points="1503.8,-783.41 1509.21,-792.52 1510.66,-782.03 1503.8,-783.41"/>
</g>
<!-- completer&#45;&gt;codeeditor -->
<g id="edge29" class="edge">
<title>completer&#45;&gt;codeeditor</title>
<path fill="none" stroke="black" d="M1376.2,-480.45C1403.7,-500.47 1451.33,-535.13 1482.39,-557.74"/>
<polygon fill="black" stroke="black" points="1480.53,-560.72 1490.68,-563.77 1484.65,-555.06 1480.53,-560.72"/>
</g>
<!-- console -->
<g id="node24" class="node">
<title>console</title>
<g id="a_node24"><a xlink:href="https://github.com/jupyterlab/jupyterlab/tree/master/packages/console" xlink:title="console">
<ellipse fill="none" stroke="black" cx="236.56" cy="-775.7" rx="37.89" ry="18"/>
<text text-anchor="middle" x="236.56" y="-772" font-family="Times,serif" font-size="14.00">console</text>
</a>
</g>
</g>
<!-- console&#45;&gt;cells -->
<g id="edge30" class="edge">
<title>console&#45;&gt;cells</title>
<path fill="none" stroke="black" d="M255.5,-791.34C279.02,-811.86 320.35,-847.91 346.55,-870.76"/>
<polygon fill="black" stroke="black" points="344.32,-873.46 354.16,-877.39 348.92,-868.18 344.32,-873.46"/>
</g>
<!-- csvviewer -->
<g id="node25" class="node">
<title>csvviewer</title>
<g id="a_node25"><a xlink:href="https://github.com/jupyterlab/jupyterlab/tree/master/packages/csvviewer" xlink:title="csvviewer">
<ellipse fill="none" stroke="black" cx="671.56" cy="-153.7" rx="46.29" ry="18"/>
<text text-anchor="middle" x="671.56" y="-150" font-family="Times,serif" font-size="14.00">csvviewer</text>
</a>
</g>
</g>
<!-- csvviewer&#45;&gt;docregistry -->
<g id="edge31" class="edge">
<title>csvviewer&#45;&gt;docregistry</title>
<path fill="none" stroke="black" d="M690.88,-170.29C707.72,-186.68 731.9,-213.36 744.36,-241.7 789.52,-344.48 744.56,-385.35 780.52,-491.7 787.94,-513.65 800.81,-536.45 811.51,-553.34"/>
<polygon fill="black" stroke="black" points="808.8,-555.59 817.18,-562.07 814.67,-551.77 808.8,-555.59"/>
</g>
<!-- documentsearch -->
<g id="node26" class="node">
<title>documentsearch</title>
<g id="a_node26"><a xlink:href="https://github.com/jupyterlab/jupyterlab/tree/master/packages/documentsearch" xlink:title="documentsearch">
<ellipse fill="none" stroke="black" cx="75.56" cy="-731.7" rx="68.49" ry="18"/>
<text text-anchor="middle" x="75.56" y="-728" font-family="Times,serif" font-size="14.00">documentsearch</text>
</a>
</g>
</g>
<!-- documentsearch&#45;&gt;notebook -->
<g id="edge33" class="edge">
<title>documentsearch&#45;&gt;notebook</title>
<path fill="none" stroke="black" d="M93.88,-749.13C122.34,-777.77 179.08,-834.87 211.46,-867.44"/>
<polygon fill="black" stroke="black" points="209.21,-870.15 218.74,-874.78 214.18,-865.22 209.21,-870.15"/>
</g>
<!-- fileeditor -->
<g id="node27" class="node">
<title>fileeditor</title>
<g id="a_node27"><a xlink:href="https://github.com/jupyterlab/jupyterlab/tree/master/packages/fileeditor" xlink:title="fileeditor">
<ellipse fill="none" stroke="black" cx="371.56" cy="-677.7" rx="42.49" ry="18"/>
<text text-anchor="middle" x="371.56" y="-674" font-family="Times,serif" font-size="14.00">fileeditor</text>
</a>
</g>
</g>
<!-- documentsearch&#45;&gt;fileeditor -->
<g id="edge34" class="edge">
<title>documentsearch&#45;&gt;fileeditor</title>
<path fill="none" stroke="black" d="M132.21,-721.48C187.14,-711.39 270.28,-696.12 322.44,-686.54"/>
<polygon fill="black" stroke="black" points="323.24,-689.95 332.45,-684.7 321.98,-683.06 323.24,-689.95"/>
</g>
<!-- fileeditor&#45;&gt;docregistry -->
<g id="edge35" class="edge">
<title>fileeditor&#45;&gt;docregistry</title>
<path fill="none" stroke="black" d="M411.7,-671.79C479.83,-661.15 624.43,-637.04 744.36,-606.7 757.42,-603.39 771.43,-599.22 784.24,-595.16"/>
<polygon fill="black" stroke="black" points="785.32,-598.48 793.76,-592.08 783.17,-591.82 785.32,-598.48"/>
</g>
<!-- extensionmanager -->
<g id="node28" class="node">
<title>extensionmanager</title>
<g id="a_node28"><a xlink:href="https://github.com/jupyterlab/jupyterlab/tree/master/packages/extensionmanager" xlink:title="extensionmanager">
<ellipse fill="none" stroke="black" cx="1353.56" cy="-810.7" rx="75.29" ry="18"/>
<text text-anchor="middle" x="1353.56" y="-807" font-family="Times,serif" font-size="14.00">extensionmanager</text>
</a>
</g>
</g>
<!-- extensionmanager&#45;&gt;apputils -->
<g id="edge36" class="edge">
<title>extensionmanager&#45;&gt;apputils</title>
<path fill="none" stroke="black" d="M1429.4,-810.7C1441.37,-810.7 1453.46,-810.7 1464.58,-810.7"/>
<polygon fill="black" stroke="black" points="1464.91,-814.2 1474.91,-810.7 1464.91,-807.2 1464.91,-814.2"/>
</g>
<!-- htmlviewer -->
<g id="node29" class="node">
<title>htmlviewer</title>
<g id="a_node29"><a xlink:href="https://github.com/jupyterlab/jupyterlab/tree/master/packages/htmlviewer" xlink:title="htmlviewer">
<ellipse fill="none" stroke="black" cx="671.56" cy="-775.7" rx="51.19" ry="18"/>
<text text-anchor="middle" x="671.56" y="-772" font-family="Times,serif" font-size="14.00">htmlviewer</text>
</a>
</g>
</g>
<!-- htmlviewer&#45;&gt;docregistry -->
<g id="edge37" class="edge">
<title>htmlviewer&#45;&gt;docregistry</title>
<path fill="none" stroke="black" d="M687.7,-758.57C702.44,-741.76 725.32,-715.29 744.36,-691.7 767.75,-662.7 793.51,-628.5 810.52,-605.59"/>
<polygon fill="black" stroke="black" points="813.45,-607.52 816.58,-597.4 807.82,-603.35 813.45,-607.52"/>
</g>
<!-- imageviewer -->
<g id="node30" class="node">
<title>imageviewer</title>
<g id="a_node30"><a xlink:href="https://github.com/jupyterlab/jupyterlab/tree/master/packages/imageviewer" xlink:title="imageviewer">
<ellipse fill="none" stroke="black" cx="671.56" cy="-579.7" rx="56.59" ry="18"/>
<text text-anchor="middle" x="671.56" y="-576" font-family="Times,serif" font-size="14.00">imageviewer</text>
</a>
</g>
</g>
<!-- imageviewer&#45;&gt;docregistry -->
<g id="edge38" class="edge">
<title>imageviewer&#45;&gt;docregistry</title>
<path fill="none" stroke="black" d="M728.36,-579.7C741.91,-579.7 756.45,-579.7 770.17,-579.7"/>
<polygon fill="black" stroke="black" points="770.47,-583.2 780.47,-579.7 770.47,-576.2 770.47,-583.2"/>
</g>
<!-- inspector -->
<g id="node31" class="node">
<title>inspector</title>
<g id="a_node31"><a xlink:href="https://github.com/jupyterlab/jupyterlab/tree/master/packages/inspector" xlink:title="inspector">
<ellipse fill="none" stroke="black" cx="830.56" cy="-464.7" rx="42.79" ry="18"/>
<text text-anchor="middle" x="830.56" y="-461" font-family="Times,serif" font-size="14.00">inspector</text>
</a>
</g>
</g>
<!-- inspector&#45;&gt;rendermime -->
<g id="edge39" class="edge">
<title>inspector&#45;&gt;rendermime</title>
<path fill="none" stroke="black" d="M850.75,-480.69C874.38,-500.38 914.68,-533.97 941.71,-556.49"/>
<polygon fill="black" stroke="black" points="939.72,-559.39 949.64,-563.1 944.2,-554.01 939.72,-559.39"/>
</g>
<!-- launcher -->
<g id="node32" class="node">
<title>launcher</title>
<g id="a_node32"><a xlink:href="https://github.com/jupyterlab/jupyterlab/tree/master/packages/launcher" xlink:title="launcher">
<ellipse fill="none" stroke="black" cx="1353.56" cy="-694.7" rx="40.89" ry="18"/>
<text text-anchor="middle" x="1353.56" y="-691" font-family="Times,serif" font-size="14.00">launcher</text>
</a>
</g>
</g>
<!-- launcher&#45;&gt;apputils -->
<g id="edge40" class="edge">
<title>launcher&#45;&gt;apputils</title>
<path fill="none" stroke="black" d="M1375.54,-710.1C1403.32,-730.5 1452.42,-766.55 1483.68,-789.5"/>
<polygon fill="black" stroke="black" points="1481.86,-792.5 1492,-795.6 1486.01,-786.86 1481.86,-792.5"/>
</g>
<!-- logconsole -->
<g id="node33" class="node">
<title>logconsole</title>
<g id="a_node33"><a xlink:href="https://github.com/jupyterlab/jupyterlab/tree/master/packages/logconsole" xlink:title="logconsole">
<ellipse fill="none" stroke="black" cx="371.56" cy="-1095.7" rx="48.99" ry="18"/>
<text text-anchor="middle" x="371.56" y="-1092" font-family="Times,serif" font-size="14.00">logconsole</text>
</a>
</g>
</g>
<!-- logconsole&#45;&gt;outputarea -->
<g id="edge41" class="edge">
<title>logconsole&#45;&gt;outputarea</title>
<path fill="none" stroke="black" d="M420.51,-1095.7C430.38,-1095.7 440.86,-1095.7 451.02,-1095.7"/>
<polygon fill="black" stroke="black" points="451.05,-1099.2 461.05,-1095.7 451.05,-1092.2 451.05,-1099.2"/>
</g>
<!-- mainmenu -->
<g id="node34" class="node">
<title>mainmenu</title>
<g id="a_node34"><a xlink:href="https://github.com/jupyterlab/jupyterlab/tree/master/packages/mainmenu" xlink:title="mainmenu">
<ellipse fill="none" stroke="black" cx="1353.56" cy="-1155.7" rx="48.99" ry="18"/>
<text text-anchor="middle" x="1353.56" y="-1152" font-family="Times,serif" font-size="14.00">mainmenu</text>
</a>
</g>
</g>
<!-- mainmenu&#45;&gt;apputils -->
<g id="edge42" class="edge">
<title>mainmenu&#45;&gt;apputils</title>
<path fill="none" stroke="black" d="M1372.16,-1139.03C1388.84,-1122.36 1413.58,-1095.31 1428.96,-1067.7 1472.03,-990.37 1497.02,-887.44 1507.19,-838.64"/>
<polygon fill="black" stroke="black" points="1510.63,-839.3 1509.19,-828.81 1503.77,-837.91 1510.63,-839.3"/>
</g>
<!-- markdownviewer -->
<g id="node35" class="node">
<title>markdownviewer</title>
<g id="a_node35"><a xlink:href="https://github.com/jupyterlab/jupyterlab/tree/master/packages/markdownviewer" xlink:title="markdownviewer">
<ellipse fill="none" stroke="black" cx="671.56" cy="-464.7" rx="72.59" ry="18"/>
<text text-anchor="middle" x="671.56" y="-461" font-family="Times,serif" font-size="14.00">markdownviewer</text>
</a>
</g>
</g>
<!-- markdownviewer&#45;&gt;docregistry -->
<g id="edge43" class="edge">
<title>markdownviewer&#45;&gt;docregistry</title>
<path fill="none" stroke="black" d="M696.07,-481.92C723.47,-501.99 768.85,-535.23 798.98,-557.3"/>
<polygon fill="black" stroke="black" points="797.29,-560.4 807.42,-563.48 801.42,-554.75 797.29,-560.4"/>
</g>
<!-- mathjax2 -->
<g id="node36" class="node">
<title>mathjax2</title>
<g id="a_node36"><a xlink:href="https://github.com/jupyterlab/jupyterlab/tree/master/packages/mathjax2" xlink:title="mathjax2">
<ellipse fill="none" stroke="black" cx="970.56" cy="-694.7" rx="44.39" ry="18"/>
<text text-anchor="middle" x="970.56" y="-691" font-family="Times,serif" font-size="14.00">mathjax2</text>
</a>
</g>
</g>
<!-- mathjax2&#45;&gt;rendermime&#45;interfaces -->
<g id="edge44" class="edge">
<title>mathjax2&#45;&gt;rendermime&#45;interfaces</title>
<path fill="none" stroke="black" d="M1014.89,-694.7C1025.64,-694.7 1037.62,-694.7 1049.88,-694.7"/>
<polygon fill="black" stroke="black" points="1050.22,-698.2 1060.22,-694.7 1050.22,-691.2 1050.22,-698.2"/>
</g>
<!-- nbconvert&#45;css -->
<g id="node37" class="node">
<title>nbconvert&#45;css</title>
<g id="a_node37"><a xlink:href="https://github.com/jupyterlab/jupyterlab/tree/master/packages/nbconvert-css" xlink:title="nbconvert&#45;css">
<ellipse fill="none" stroke="black" cx="75.56" cy="-891.7" rx="59.59" ry="18"/>
<text text-anchor="middle" x="75.56" y="-888" font-family="Times,serif" font-size="14.00">nbconvert&#45;css</text>
</a>
</g>
</g>
<!-- nbconvert&#45;css&#45;&gt;notebook -->
<g id="edge45" class="edge">
<title>nbconvert&#45;css&#45;&gt;notebook</title>
<path fill="none" stroke="black" d="M135.77,-891.7C151.12,-891.7 167.55,-891.7 182.56,-891.7"/>
<polygon fill="black" stroke="black" points="182.7,-895.2 192.7,-891.7 182.7,-888.2 182.7,-895.2"/>
</g>
<!-- property&#45;inspector -->
<g id="node38" class="node">
<title>property&#45;inspector</title>
<g id="a_node38"><a xlink:href="https://github.com/jupyterlab/jupyterlab/tree/master/packages/property-inspector" xlink:title="property&#45;inspector">
<ellipse fill="none" stroke="black" cx="75.56" cy="-387.7" rx="75.29" ry="18"/>
<text text-anchor="middle" x="75.56" y="-384" font-family="Times,serif" font-size="14.00">property&#45;inspector</text>
</a>
</g>
</g>
<!-- property&#45;inspector&#45;&gt;application -->
<g id="edge46" class="edge">
<title>property&#45;inspector&#45;&gt;application</title>
<path fill="none" stroke="black" d="M151.41,-387.7C159.79,-387.7 168.24,-387.7 176.38,-387.7"/>
<polygon fill="black" stroke="black" points="176.51,-391.2 186.51,-387.7 176.51,-384.2 176.51,-391.2"/>
</g>
<!-- running -->
<g id="node39" class="node">
<title>running</title>
<g id="a_node39"><a xlink:href="https://github.com/jupyterlab/jupyterlab/tree/master/packages/running" xlink:title="running">
<ellipse fill="none" stroke="black" cx="1353.56" cy="-1040.7" rx="38.19" ry="18"/>
<text text-anchor="middle" x="1353.56" y="-1037" font-family="Times,serif" font-size="14.00">running</text>
</a>
</g>
</g>
<!-- running&#45;&gt;apputils -->
<g id="edge47" class="edge">
<title>running&#45;&gt;apputils</title>
<path fill="none" stroke="black" d="M1369.99,-1024.19C1385.7,-1007 1410.32,-978.97 1428.96,-952.7 1456.17,-914.34 1482.91,-866.68 1498.56,-837.49"/>
<polygon fill="black" stroke="black" points="1501.83,-838.81 1503.43,-828.34 1495.65,-835.52 1501.83,-838.81"/>
</g>
<!-- settingeditor -->
<g id="node40" class="node">
<title>settingeditor</title>
<g id="a_node40"><a xlink:href="https://github.com/jupyterlab/jupyterlab/tree/master/packages/settingeditor" xlink:title="settingeditor">
<ellipse fill="none" stroke="black" cx="671.56" cy="-38.7" rx="54.69" ry="18"/>
<text text-anchor="middle" x="671.56" y="-35" font-family="Times,serif" font-size="14.00">settingeditor</text>
</a>
</g>
</g>
<!-- settingeditor&#45;&gt;inspector -->
<g id="edge48" class="edge">
<title>settingeditor&#45;&gt;inspector</title>
<path fill="none" stroke="black" d="M691.2,-55.6C708.03,-72.02 731.98,-98.54 744.36,-126.7 789.52,-229.48 744.56,-270.35 780.52,-376.7 787.98,-398.79 800.98,-421.74 811.71,-438.66"/>
<polygon fill="black" stroke="black" points="809.01,-440.92 817.39,-447.39 814.88,-437.1 809.01,-440.92"/>
</g>
<!-- terminal -->
<g id="node41" class="node">
<title>terminal</title>
<g id="a_node41"><a xlink:href="https://github.com/jupyterlab/jupyterlab/tree/master/packages/terminal" xlink:title="terminal">
<ellipse fill="none" stroke="black" cx="1353.56" cy="-925.7" rx="40.09" ry="18"/>
<text text-anchor="middle" x="1353.56" y="-922" font-family="Times,serif" font-size="14.00">terminal</text>
</a>
</g>
</g>
<!-- terminal&#45;&gt;apputils -->
<g id="edge49" class="edge">
<title>terminal&#45;&gt;apputils</title>
<path fill="none" stroke="black" d="M1375.54,-910.43C1403.32,-890.21 1452.42,-854.47 1483.68,-831.72"/>
<polygon fill="black" stroke="black" points="1485.97,-834.38 1492,-825.67 1481.85,-828.72 1485.97,-834.38"/>
</g>
<!-- tooltip -->
<g id="node42" class="node">
<title>tooltip</title>
<g id="a_node42"><a xlink:href="https://github.com/jupyterlab/jupyterlab/tree/master/packages/tooltip" xlink:title="tooltip">
<ellipse fill="none" stroke="black" cx="830.56" cy="-349.7" rx="33.6" ry="18"/>
<text text-anchor="middle" x="830.56" y="-346" font-family="Times,serif" font-size="14.00">tooltip</text>
</a>
</g>
</g>
<!-- tooltip&#45;&gt;rendermime -->
<g id="edge50" class="edge">
<title>tooltip&#45;&gt;rendermime</title>
<path fill="none" stroke="black" d="M841.93,-366.99C865.85,-406.85 925,-505.43 953.59,-553.08"/>
<polygon fill="black" stroke="black" points="950.73,-555.12 958.88,-561.9 956.74,-551.52 950.73,-555.12"/>
</g>
<!-- vdom -->
<g id="node43" class="node">
<title>vdom</title>
<g id="a_node43"><a xlink:href="https://github.com/jupyterlab/jupyterlab/tree/master/packages/vdom" xlink:title="vdom">
<ellipse fill="none" stroke="black" cx="671.56" cy="-268.7" rx="31.4" ry="18"/>
<text text-anchor="middle" x="671.56" y="-265" font-family="Times,serif" font-size="14.00">vdom</text>
</a>
</g>
</g>
<!-- vdom&#45;&gt;docregistry -->
<g id="edge51" class="edge">
<title>vdom&#45;&gt;docregistry</title>
<path fill="none" stroke="black" d="M689.29,-283.8C705.66,-299.48 730.16,-325.49 744.36,-352.7 773.88,-409.3 756.75,-432.45 780.52,-491.7 789.2,-513.34 802.14,-536.31 812.55,-553.35"/>
<polygon fill="black" stroke="black" points="809.77,-555.52 818.03,-562.16 815.72,-551.82 809.77,-555.52"/>
</g>
</g>
</svg>
