<?xml version="1.0" encoding="UTF-8" standalone="no"?>
<!DOCTYPE svg PUBLIC "-//W3C//DTD SVG 1.1//EN"
 "http://www.w3.org/Graphics/SVG/1.1/DTD/svg11.dtd">
<!-- Generated by graphviz version 2.40.1 (20161225.0304)
 -->
<!-- Title: G Pages: 1 -->
<svg width="1335pt" height="804pt"
 viewBox="0.00 0.00 1334.61 803.60" xmlns="http://www.w3.org/2000/svg" xmlns:xlink="http://www.w3.org/1999/xlink">
<g id="graph0" class="graph" transform="scale(1 1) rotate(0) translate(4 799.6)">
<title>G</title>
<polygon fill="#ffffff" stroke="transparent" points="-4,4 -4,-799.6 1330.6078,-799.6 1330.6078,4 -4,4"/>
<!-- application -->
<g id="node1" class="node">
<title>application</title>
<g id="a_node1"><a xlink:href="https://github.com/jupyterlab/jupyterlab/tree/master/packages/application" xlink:title="application">
<ellipse fill="none" stroke="#000000" cx="193.6078" cy="-573.7327" rx="50.0912" ry="18"/>
<text text-anchor="middle" x="193.6078" y="-570.0327" font-family="Times,serif" font-size="14.00" fill="#000000">application</text>
</a>
</g>
</g>
<!-- docregistry -->
<g id="node2" class="node">
<title>docregistry</title>
<g id="a_node2"><a xlink:href="https://github.com/jupyterlab/jupyterlab/tree/master/packages/docregistry" xlink:title="docregistry">
<ellipse fill="none" stroke="#000000" cx="339.6078" cy="-478.7327" rx="50.0912" ry="18"/>
<text text-anchor="middle" x="339.6078" y="-475.0327" font-family="Times,serif" font-size="14.00" fill="#000000">docregistry</text>
</a>
</g>
</g>
<!-- application&#45;&gt;docregistry -->
<g id="edge1" class="edge">
<title>application&#45;&gt;docregistry</title>
<path fill="none" stroke="#000000" d="M218.045,-557.8319C242.2585,-542.0765 279.5179,-517.8324 306.4044,-500.3377"/>
<polygon fill="#000000" stroke="#000000" points="308.6181,-503.0731 315.091,-494.6855 304.8003,-497.2058 308.6181,-503.0731"/>
</g>
<!-- rendermime -->
<g id="node6" class="node">
<title>rendermime</title>
<g id="a_node6"><a xlink:href="https://github.com/jupyterlab/jupyterlab/tree/master/packages/rendermime" xlink:title="rendermime">
<ellipse fill="none" stroke="#000000" cx="482.6078" cy="-221.7327" rx="53.8905" ry="18"/>
<text text-anchor="middle" x="482.6078" y="-218.0327" font-family="Times,serif" font-size="14.00" fill="#000000">rendermime</text>
</a>
</g>
</g>
<!-- docregistry&#45;&gt;rendermime -->
<g id="edge3" class="edge">
<title>docregistry&#45;&gt;rendermime</title>
<path fill="none" stroke="#000000" d="M346.4258,-460.8344C359.8753,-426.4309 391.7441,-349.2128 428.6626,-289.7327 437.9848,-274.7137 450.0904,-259.181 460.4713,-246.7588"/>
<polygon fill="#000000" stroke="#000000" points="463.1873,-248.9677 466.9974,-239.0816 457.8539,-244.434 463.1873,-248.9677"/>
</g>
<!-- apputils -->
<g id="node3" class="node">
<title>apputils</title>
<g id="a_node3"><a xlink:href="https://github.com/jupyterlab/jupyterlab/tree/master/packages/apputils" xlink:title="apputils">
<ellipse fill="none" stroke="#000000" cx="1015.6078" cy="-364.7327" rx="38.1938" ry="18"/>
<text text-anchor="middle" x="1015.6078" y="-361.0327" font-family="Times,serif" font-size="14.00" fill="#000000">apputils</text>
</a>
</g>
</g>
<!-- services -->
<g id="node4" class="node">
<title>services</title>
<g id="a_node4"><a xlink:href="https://github.com/jupyterlab/jupyterlab/tree/master/packages/services" xlink:title="services">
<ellipse fill="none" stroke="#000000" cx="1138.6078" cy="-316.7327" rx="38.9931" ry="18"/>
<text text-anchor="middle" x="1138.6078" y="-313.0327" font-family="Times,serif" font-size="14.00" fill="#000000">services</text>
</a>
</g>
</g>
<!-- apputils&#45;&gt;services -->
<g id="edge2" class="edge">
<title>apputils&#45;&gt;services</title>
<path fill="none" stroke="#000000" d="M1045.3827,-353.1133C1061.5797,-346.7925 1081.8196,-338.894 1099.298,-332.0732"/>
<polygon fill="#000000" stroke="#000000" points="1100.6375,-335.3076 1108.6809,-328.4116 1098.0926,-328.7865 1100.6375,-335.3076"/>
</g>
<!-- coreutils -->
<g id="node5" class="node">
<title>coreutils</title>
<g id="a_node5"><a xlink:href="https://github.com/jupyterlab/jupyterlab/tree/master/packages/coreutils" xlink:title="coreutils">
<ellipse fill="none" stroke="#000000" cx="1274.6078" cy="-316.7327" rx="40.8928" ry="18"/>
<text text-anchor="middle" x="1274.6078" y="-313.0327" font-family="Times,serif" font-size="14.00" fill="#000000">coreutils</text>
</a>
</g>
</g>
<!-- services&#45;&gt;coreutils -->
<g id="edge6" class="edge">
<title>services&#45;&gt;coreutils</title>
<path fill="none" stroke="#000000" d="M1177.9447,-316.7327C1192.0949,-316.7327 1208.2721,-316.7327 1223.2918,-316.7327"/>
<polygon fill="#000000" stroke="#000000" points="1223.4661,-320.2328 1233.466,-316.7327 1223.466,-313.2328 1223.4661,-320.2328"/>
</g>
<!-- observables -->
<g id="node9" class="node">
<title>observables</title>
<g id="a_node9"><a xlink:href="https://github.com/jupyterlab/jupyterlab/tree/master/packages/observables" xlink:title="observables">
<ellipse fill="none" stroke="#000000" cx="1274.6078" cy="-221.7327" rx="51.9908" ry="18"/>
<text text-anchor="middle" x="1274.6078" y="-218.0327" font-family="Times,serif" font-size="14.00" fill="#000000">observables</text>
</a>
</g>
</g>
<!-- services&#45;&gt;observables -->
<g id="edge7" class="edge">
<title>services&#45;&gt;observables</title>
<path fill="none" stroke="#000000" d="M1160.1574,-301.6797C1182.4984,-286.0739 1217.653,-261.5173 1243.1088,-243.7357"/>
<polygon fill="#000000" stroke="#000000" points="1245.1436,-246.5838 1251.3373,-237.9879 1241.135,-240.8452 1245.1436,-246.5838"/>
</g>
<!-- rendermime&#45;interfaces -->
<g id="node7" class="node">
<title>rendermime&#45;interfaces</title>
<g id="a_node7"><a xlink:href="https://github.com/jupyterlab/jupyterlab/tree/master/packages/rendermime-interfaces" xlink:title="rendermime&#45;interfaces">
<ellipse fill="none" stroke="#000000" cx="663.6078" cy="-316.7327" rx="90.9839" ry="18"/>
<text text-anchor="middle" x="663.6078" y="-313.0327" font-family="Times,serif" font-size="14.00" fill="#000000">rendermime&#45;interfaces</text>
</a>
</g>
</g>
<!-- rendermime&#45;&gt;rendermime&#45;interfaces -->
<g id="edge4" class="edge">
<title>rendermime&#45;&gt;rendermime&#45;interfaces</title>
<path fill="none" stroke="#000000" d="M511.6886,-236.9961C541.5577,-252.6733 588.3275,-277.221 622.0856,-294.9393"/>
<polygon fill="#000000" stroke="#000000" points="620.7562,-298.1943 631.2373,-299.7427 624.0094,-291.9961 620.7562,-298.1943"/>
</g>
<!-- codemirror -->
<g id="node8" class="node">
<title>codemirror</title>
<g id="a_node8"><a xlink:href="https://github.com/jupyterlab/jupyterlab/tree/master/packages/codemirror" xlink:title="codemirror">
<ellipse fill="none" stroke="#000000" cx="663.6078" cy="-221.7327" rx="50.0912" ry="18"/>
<text text-anchor="middle" x="663.6078" y="-218.0327" font-family="Times,serif" font-size="14.00" fill="#000000">codemirror</text>
</a>
</g>
</g>
<!-- rendermime&#45;&gt;codemirror -->
<g id="edge5" class="edge">
<title>rendermime&#45;&gt;codemirror</title>
<path fill="none" stroke="#000000" d="M536.9138,-221.7327C557.7643,-221.7327 581.6835,-221.7327 603.0823,-221.7327"/>
<polygon fill="#000000" stroke="#000000" points="603.3602,-225.2328 613.3602,-221.7327 603.3601,-218.2328 603.3602,-225.2328"/>
</g>
<!-- statusbar -->
<g id="node14" class="node">
<title>statusbar</title>
<g id="a_node14"><a xlink:href="https://github.com/jupyterlab/jupyterlab/tree/master/packages/statusbar" xlink:title="statusbar">
<ellipse fill="none" stroke="#000000" cx="866.6078" cy="-221.7327" rx="42.4939" ry="18"/>
<text text-anchor="middle" x="866.6078" y="-218.0327" font-family="Times,serif" font-size="14.00" fill="#000000">statusbar</text>
</a>
</g>
</g>
<!-- codemirror&#45;&gt;statusbar -->
<g id="edge13" class="edge">
<title>codemirror&#45;&gt;statusbar</title>
<path fill="none" stroke="#000000" d="M713.7876,-221.7327C744.2731,-221.7327 783.1404,-221.7327 814.0481,-221.7327"/>
<polygon fill="#000000" stroke="#000000" points="814.2011,-225.2328 824.2011,-221.7327 814.2011,-218.2328 814.2011,-225.2328"/>
</g>
<!-- attachments -->
<g id="node10" class="node">
<title>attachments</title>
<g id="a_node10"><a xlink:href="https://github.com/jupyterlab/jupyterlab/tree/master/packages/attachments" xlink:title="attachments">
<ellipse fill="none" stroke="#000000" cx="339.6078" cy="-221.7327" rx="53.0913" ry="18"/>
<text text-anchor="middle" x="339.6078" y="-218.0327" font-family="Times,serif" font-size="14.00" fill="#000000">attachments</text>
</a>
</g>
</g>
<!-- attachments&#45;&gt;rendermime -->
<g id="edge8" class="edge">
<title>attachments&#45;&gt;rendermime</title>
<path fill="none" stroke="#000000" d="M393.2626,-221.7327C401.4887,-221.7327 410.0514,-221.7327 418.4762,-221.7327"/>
<polygon fill="#000000" stroke="#000000" points="418.6524,-225.2328 428.6524,-221.7327 418.6523,-218.2328 418.6524,-225.2328"/>
</g>
<!-- cells -->
<g id="node11" class="node">
<title>cells</title>
<g id="a_node11"><a xlink:href="https://github.com/jupyterlab/jupyterlab/tree/master/packages/cells" xlink:title="cells">
<ellipse fill="none" stroke="#000000" cx="193.6078" cy="-221.7327" rx="27" ry="18"/>
<text text-anchor="middle" x="193.6078" y="-218.0327" font-family="Times,serif" font-size="14.00" fill="#000000">cells</text>
</a>
</g>
</g>
<!-- cells&#45;&gt;attachments -->
<g id="edge9" class="edge">
<title>cells&#45;&gt;attachments</title>
<path fill="none" stroke="#000000" d="M220.7272,-221.7327C236.3169,-221.7327 256.6015,-221.7327 275.9885,-221.7327"/>
<polygon fill="#000000" stroke="#000000" points="276.0153,-225.2328 286.0153,-221.7327 276.0152,-218.2328 276.0153,-225.2328"/>
</g>
<!-- outputarea -->
<g id="node12" class="node">
<title>outputarea</title>
<g id="a_node12"><a xlink:href="https://github.com/jupyterlab/jupyterlab/tree/master/packages/outputarea" xlink:title="outputarea">
<ellipse fill="none" stroke="#000000" cx="339.6078" cy="-316.7327" rx="48.1917" ry="18"/>
<text text-anchor="middle" x="339.6078" y="-313.0327" font-family="Times,serif" font-size="14.00" fill="#000000">outputarea</text>
</a>
</g>
</g>
<!-- cells&#45;&gt;outputarea -->
<g id="edge10" class="edge">
<title>cells&#45;&gt;outputarea</title>
<path fill="none" stroke="#000000" d="M212.9955,-234.348C236.9665,-249.9456 278.1263,-276.7276 306.9926,-295.5105"/>
<polygon fill="#000000" stroke="#000000" points="305.2331,-298.5413 315.5238,-301.0616 309.0509,-292.674 305.2331,-298.5413"/>
</g>
<!-- outputarea&#45;&gt;rendermime -->
<g id="edge14" class="edge">
<title>outputarea&#45;&gt;rendermime</title>
<path fill="none" stroke="#000000" d="M363.2214,-301.0454C386.7409,-285.4205 423.0546,-261.2961 449.4583,-243.7552"/>
<polygon fill="#000000" stroke="#000000" points="451.6071,-246.5296 457.9998,-238.0807 447.7336,-240.699 451.6071,-246.5296"/>
</g>
<!-- codeeditor -->
<g id="node13" class="node">
<title>codeeditor</title>
<g id="a_node13"><a xlink:href="https://github.com/jupyterlab/jupyterlab/tree/master/packages/codeeditor" xlink:title="codeeditor">
<ellipse fill="none" stroke="#000000" cx="1138.6078" cy="-221.7327" rx="48.1917" ry="18"/>
<text text-anchor="middle" x="1138.6078" y="-218.0327" font-family="Times,serif" font-size="14.00" fill="#000000">codeeditor</text>
</a>
</g>
</g>
<!-- codeeditor&#45;&gt;coreutils -->
<g id="edge11" class="edge">
<title>codeeditor&#45;&gt;coreutils</title>
<path fill="none" stroke="#000000" d="M1161.3712,-237.6336C1184.0988,-253.5095 1219.1652,-278.0044 1244.2516,-295.528"/>
<polygon fill="#000000" stroke="#000000" points="1242.4698,-298.5527 1252.6721,-301.41 1246.4784,-292.8141 1242.4698,-298.5527"/>
</g>
<!-- codeeditor&#45;&gt;observables -->
<g id="edge12" class="edge">
<title>codeeditor&#45;&gt;observables</title>
<path fill="none" stroke="#000000" d="M1186.9393,-221.7327C1195.0811,-221.7327 1203.6345,-221.7327 1212.0749,-221.7327"/>
<polygon fill="#000000" stroke="#000000" points="1212.279,-225.2328 1222.279,-221.7327 1212.2789,-218.2328 1212.279,-225.2328"/>
</g>
<!-- statusbar&#45;&gt;apputils -->
<g id="edge15" class="edge">
<title>statusbar&#45;&gt;apputils</title>
<path fill="none" stroke="#000000" d="M885.1749,-237.9148C900.6129,-251.5032 923.0429,-271.557 942.0012,-289.7327 959.3837,-306.3978 978.409,-325.8159 992.7621,-340.7179"/>
<polygon fill="#000000" stroke="#000000" points="990.3592,-343.2688 999.8085,-348.0605 995.4097,-338.4219 990.3592,-343.2688"/>
</g>
<!-- statusbar&#45;&gt;codeeditor -->
<g id="edge16" class="edge">
<title>statusbar&#45;&gt;codeeditor</title>
<path fill="none" stroke="#000000" d="M909.1078,-221.7327C955.0967,-221.7327 1028.7324,-221.7327 1080.1543,-221.7327"/>
<polygon fill="#000000" stroke="#000000" points="1080.4496,-225.2328 1090.4496,-221.7327 1080.4495,-218.2328 1080.4496,-225.2328"/>
</g>
<!-- completer -->
<g id="node15" class="node">
<title>completer</title>
<g id="a_node15"><a xlink:href="https://github.com/jupyterlab/jupyterlab/tree/master/packages/completer" xlink:title="completer">
<ellipse fill="none" stroke="#000000" cx="866.6078" cy="-126.7327" rx="46.2923" ry="18"/>
<text text-anchor="middle" x="866.6078" y="-123.0327" font-family="Times,serif" font-size="14.00" fill="#000000">completer</text>
</a>
</g>
</g>
<!-- completer&#45;&gt;apputils -->
<g id="edge17" class="edge">
<title>completer&#45;&gt;apputils</title>
<path fill="none" stroke="#000000" d="M888.7719,-142.5521C905.1919,-155.177 927.1962,-174.1155 942.0012,-194.7327 974.5268,-240.0277 996.7587,-301.9489 1007.7204,-337.1975"/>
<polygon fill="#000000" stroke="#000000" points="1004.3852,-338.2603 1010.6362,-346.8146 1011.0841,-336.2293 1004.3852,-338.2603"/>
</g>
<!-- completer&#45;&gt;codeeditor -->
<g id="edge18" class="edge">
<title>completer&#45;&gt;codeeditor</title>
<path fill="none" stroke="#000000" d="M901.0568,-138.7646C949.9079,-155.8265 1039.3725,-187.0733 1093.4741,-205.9691"/>
<polygon fill="#000000" stroke="#000000" points="1092.5519,-209.3543 1103.1467,-209.3474 1094.8601,-202.7458 1092.5519,-209.3543"/>
</g>
<!-- console -->
<g id="node16" class="node">
<title>console</title>
<g id="a_node16"><a xlink:href="https://github.com/jupyterlab/jupyterlab/tree/master/packages/console" xlink:title="console">
<ellipse fill="none" stroke="#000000" cx="50.6078" cy="-221.7327" rx="37.8943" ry="18"/>
<text text-anchor="middle" x="50.6078" y="-218.0327" font-family="Times,serif" font-size="14.00" fill="#000000">console</text>
</a>
</g>
</g>
<!-- console&#45;&gt;cells -->
<g id="edge19" class="edge">
<title>console&#45;&gt;cells</title>
<path fill="none" stroke="#000000" d="M88.5538,-221.7327C109.5059,-221.7327 135.4295,-221.7327 156.2822,-221.7327"/>
<polygon fill="#000000" stroke="#000000" points="156.3688,-225.2328 166.3688,-221.7327 156.3687,-218.2328 156.3688,-225.2328"/>
</g>
<!-- csvviewer -->
<g id="node17" class="node">
<title>csvviewer</title>
<g id="a_node17"><a xlink:href="https://github.com/jupyterlab/jupyterlab/tree/master/packages/csvviewer" xlink:title="csvviewer">
<ellipse fill="none" stroke="#000000" cx="193.6078" cy="-478.7327" rx="46.2923" ry="18"/>
<text text-anchor="middle" x="193.6078" y="-475.0327" font-family="Times,serif" font-size="14.00" fill="#000000">csvviewer</text>
</a>
</g>
</g>
<!-- csvviewer&#45;&gt;docregistry -->
<g id="edge20" class="edge">
<title>csvviewer&#45;&gt;docregistry</title>
<path fill="none" stroke="#000000" d="M239.8032,-478.7327C252.262,-478.7327 265.9305,-478.7327 279.0469,-478.7327"/>
<polygon fill="#000000" stroke="#000000" points="279.414,-482.2328 289.414,-478.7327 279.414,-475.2328 279.414,-482.2328"/>
</g>
<!-- docmanager -->
<g id="node18" class="node">
<title>docmanager</title>
<g id="a_node18"><a xlink:href="https://github.com/jupyterlab/jupyterlab/tree/master/packages/docmanager" xlink:title="docmanager">
<ellipse fill="none" stroke="#000000" cx="193.6078" cy="-668.7327" rx="53.8905" ry="18"/>
<text text-anchor="middle" x="193.6078" y="-665.0327" font-family="Times,serif" font-size="14.00" fill="#000000">docmanager</text>
</a>
</g>
</g>
<!-- docmanager&#45;&gt;docregistry -->
<g id="edge21" class="edge">
<title>docmanager&#45;&gt;docregistry</title>
<path fill="none" stroke="#000000" d="M208.5508,-651.3614C220.1268,-637.7623 236.447,-618.2769 250.1528,-600.7327 275.6089,-568.1477 303.5876,-529.4996 321.3582,-504.57"/>
<polygon fill="#000000" stroke="#000000" points="324.2557,-506.5349 327.1974,-496.3567 318.5505,-502.4789 324.2557,-506.5349"/>
</g>
<!-- extensionmanager -->
<g id="node19" class="node">
<title>extensionmanager</title>
<g id="a_node19"><a xlink:href="https://github.com/jupyterlab/jupyterlab/tree/master/packages/extensionmanager" xlink:title="extensionmanager">
<ellipse fill="none" stroke="#000000" cx="866.6078" cy="-506.7327" rx="75.2868" ry="18"/>
<text text-anchor="middle" x="866.6078" y="-503.0327" font-family="Times,serif" font-size="14.00" fill="#000000">extensionmanager</text>
</a>
</g>
</g>
<!-- extensionmanager&#45;&gt;apputils -->
<g id="edge22" class="edge">
<title>extensionmanager&#45;&gt;apputils</title>
<path fill="none" stroke="#000000" d="M886.7185,-489.1258C902.0629,-475.5646 923.6202,-456.237 942.0012,-438.7327 959.3215,-422.2385 978.3487,-403.081 992.7183,-388.3913"/>
<polygon fill="#000000" stroke="#000000" points="995.2992,-390.7578 999.7744,-381.1545 990.2873,-385.871 995.2992,-390.7578"/>
</g>
<!-- filebrowser -->
<g id="node20" class="node">
<title>filebrowser</title>
<g id="a_node20"><a xlink:href="https://github.com/jupyterlab/jupyterlab/tree/master/packages/filebrowser" xlink:title="filebrowser">
<ellipse fill="none" stroke="#000000" cx="50.6078" cy="-668.7327" rx="50.8918" ry="18"/>
<text text-anchor="middle" x="50.6078" y="-665.0327" font-family="Times,serif" font-size="14.00" fill="#000000">filebrowser</text>
</a>
</g>
</g>
<!-- filebrowser&#45;&gt;docmanager -->
<g id="edge23" class="edge">
<title>filebrowser&#45;&gt;docmanager</title>
<path fill="none" stroke="#000000" d="M101.4269,-668.7327C110.5059,-668.7327 120.0716,-668.7327 129.466,-668.7327"/>
<polygon fill="#000000" stroke="#000000" points="129.5616,-672.2328 139.5616,-668.7327 129.5616,-665.2328 129.5616,-672.2328"/>
</g>
<!-- fileeditor -->
<g id="node21" class="node">
<title>fileeditor</title>
<g id="a_node21"><a xlink:href="https://github.com/jupyterlab/jupyterlab/tree/master/packages/fileeditor" xlink:title="fileeditor">
<ellipse fill="none" stroke="#000000" cx="193.6078" cy="-316.7327" rx="42.7926" ry="18"/>
<text text-anchor="middle" x="193.6078" y="-313.0327" font-family="Times,serif" font-size="14.00" fill="#000000">fileeditor</text>
</a>
</g>
</g>
<!-- fileeditor&#45;&gt;docregistry -->
<g id="edge24" class="edge">
<title>fileeditor&#45;&gt;docregistry</title>
<path fill="none" stroke="#000000" d="M208.9565,-333.7634C234.848,-362.4924 287.3049,-420.698 317.276,-453.9536"/>
<polygon fill="#000000" stroke="#000000" points="314.7308,-456.3574 324.0255,-461.4427 319.9306,-451.6711 314.7308,-456.3574"/>
</g>
<!-- imageviewer -->
<g id="node22" class="node">
<title>imageviewer</title>
<g id="a_node22"><a xlink:href="https://github.com/jupyterlab/jupyterlab/tree/master/packages/imageviewer" xlink:title="imageviewer">
<ellipse fill="none" stroke="#000000" cx="193.6078" cy="-763.7327" rx="56.59" ry="18"/>
<text text-anchor="middle" x="193.6078" y="-760.0327" font-family="Times,serif" font-size="14.00" fill="#000000">imageviewer</text>
</a>
</g>
</g>
<!-- imageviewer&#45;&gt;docregistry -->
<g id="edge25" class="edge">
<title>imageviewer&#45;&gt;docregistry</title>
<path fill="none" stroke="#000000" d="M210.5657,-746.3979C222.7327,-733.2863 238.8996,-714.4066 250.1528,-695.7327 288.5279,-632.0525 317.642,-548.9154 331.2028,-506.4035"/>
<polygon fill="#000000" stroke="#000000" points="334.5773,-507.3394 334.2364,-496.7501 327.8993,-505.2408 334.5773,-507.3394"/>
</g>
<!-- inspector -->
<g id="node23" class="node">
<title>inspector</title>
<g id="a_node23"><a xlink:href="https://github.com/jupyterlab/jupyterlab/tree/master/packages/inspector" xlink:title="inspector">
<ellipse fill="none" stroke="#000000" cx="339.6078" cy="-126.7327" rx="42.7926" ry="18"/>
<text text-anchor="middle" x="339.6078" y="-123.0327" font-family="Times,serif" font-size="14.00" fill="#000000">inspector</text>
</a>
</g>
</g>
<!-- inspector&#45;&gt;rendermime -->
<g id="edge26" class="edge">
<title>inspector&#45;&gt;rendermime</title>
<path fill="none" stroke="#000000" d="M362.5833,-141.9961C386.1328,-157.6409 422.9797,-182.1196 449.6377,-199.8295"/>
<polygon fill="#000000" stroke="#000000" points="447.9874,-202.9351 458.2536,-205.5534 451.8609,-197.1045 447.9874,-202.9351"/>
</g>
<!-- launcher -->
<g id="node24" class="node">
<title>launcher</title>
<g id="a_node24"><a xlink:href="https://github.com/jupyterlab/jupyterlab/tree/master/packages/launcher" xlink:title="launcher">
<ellipse fill="none" stroke="#000000" cx="866.6078" cy="-411.7327" rx="40.8928" ry="18"/>
<text text-anchor="middle" x="866.6078" y="-408.0327" font-family="Times,serif" font-size="14.00" fill="#000000">launcher</text>
</a>
</g>
</g>
<!-- launcher&#45;&gt;apputils -->
<g id="edge27" class="edge">
<title>launcher&#45;&gt;apputils</title>
<path fill="none" stroke="#000000" d="M900.0464,-401.185C921.8935,-394.2937 950.5917,-385.2412 973.9234,-377.8815"/>
<polygon fill="#000000" stroke="#000000" points="975.0746,-381.1885 983.5585,-374.8423 972.9688,-374.5127 975.0746,-381.1885"/>
</g>
<!-- mainmenu -->
<g id="node25" class="node">
<title>mainmenu</title>
<g id="a_node25"><a xlink:href="https://github.com/jupyterlab/jupyterlab/tree/master/packages/mainmenu" xlink:title="mainmenu">
<ellipse fill="none" stroke="#000000" cx="866.6078" cy="-316.7327" rx="48.9926" ry="18"/>
<text text-anchor="middle" x="866.6078" y="-313.0327" font-family="Times,serif" font-size="14.00" fill="#000000">mainmenu</text>
</a>
</g>
</g>
<!-- mainmenu&#45;&gt;apputils -->
<g id="edge28" class="edge">
<title>mainmenu&#45;&gt;apputils</title>
<path fill="none" stroke="#000000" d="M903.4393,-328.5979C924.8128,-335.4833 951.7996,-344.1771 973.9463,-351.3116"/>
<polygon fill="#000000" stroke="#000000" points="973.1521,-354.7328 983.7436,-354.4678 975.2985,-348.07 973.1521,-354.7328"/>
</g>
<!-- mathjax2 -->
<g id="node26" class="node">
<title>mathjax2</title>
<g id="a_node26"><a xlink:href="https://github.com/jupyterlab/jupyterlab/tree/master/packages/mathjax2" xlink:title="mathjax2">
<ellipse fill="none" stroke="#000000" cx="482.6078" cy="-316.7327" rx="44.393" ry="18"/>
<text text-anchor="middle" x="482.6078" y="-313.0327" font-family="Times,serif" font-size="14.00" fill="#000000">mathjax2</text>
</a>
</g>
</g>
<!-- mathjax2&#45;&gt;rendermime&#45;interfaces -->
<g id="edge29" class="edge">
<title>mathjax2&#45;&gt;rendermime&#45;interfaces</title>
<path fill="none" stroke="#000000" d="M526.8854,-316.7327C537.6783,-316.7327 549.67,-316.7327 561.9399,-316.7327"/>
<polygon fill="#000000" stroke="#000000" points="562.2918,-320.2328 572.2917,-316.7327 562.2917,-313.2328 562.2918,-320.2328"/>
</g>
<!-- notebook -->
<g id="node27" class="node">
<title>notebook</title>
<g id="a_node27"><a xlink:href="https://github.com/jupyterlab/jupyterlab/tree/master/packages/notebook" xlink:title="notebook">
<ellipse fill="none" stroke="#000000" cx="50.6078" cy="-357.7327" rx="43.5923" ry="18"/>
<text text-anchor="middle" x="50.6078" y="-354.0327" font-family="Times,serif" font-size="14.00" fill="#000000">notebook</text>
</a>
</g>
</g>
<!-- notebook&#45;&gt;docregistry -->
<g id="edge30" class="edge">
<title>notebook&#45;&gt;docregistry</title>
<path fill="none" stroke="#000000" d="M81.2623,-370.5673C133.1406,-392.288 238.335,-436.3313 297.2307,-460.99"/>
<polygon fill="#000000" stroke="#000000" points="296.0433,-464.2873 306.6192,-464.9209 298.7468,-457.8304 296.0433,-464.2873"/>
</g>
<!-- notebook&#45;&gt;cells -->
<g id="edge31" class="edge">
<title>notebook&#45;&gt;cells</title>
<path fill="none" stroke="#000000" d="M68.1425,-341.0565C93.7748,-316.6789 141.5292,-271.2621 170.1563,-244.0363"/>
<polygon fill="#000000" stroke="#000000" points="172.8549,-246.2999 177.6891,-236.8722 168.0309,-241.2276 172.8549,-246.2999"/>
</g>
<!-- running -->
<g id="node28" class="node">
<title>running</title>
<g id="a_node28"><a xlink:href="https://github.com/jupyterlab/jupyterlab/tree/master/packages/running" xlink:title="running">
<ellipse fill="none" stroke="#000000" cx="866.6078" cy="-696.7327" rx="38.1938" ry="18"/>
<text text-anchor="middle" x="866.6078" y="-693.0327" font-family="Times,serif" font-size="14.00" fill="#000000">running</text>
</a>
</g>
</g>
<!-- running&#45;&gt;apputils -->
<g id="edge32" class="edge">
<title>running&#45;&gt;apputils</title>
<path fill="none" stroke="#000000" d="M888.9012,-681.9766C905.8363,-669.6533 928.4533,-650.6128 942.0012,-628.7327 989.6077,-551.8475 1007.097,-443.6155 1012.9484,-392.9566"/>
<polygon fill="#000000" stroke="#000000" points="1016.4544,-393.09 1014.0557,-382.7703 1009.4954,-392.3334 1016.4544,-393.09"/>
</g>
<!-- settingeditor -->
<g id="node29" class="node">
<title>settingeditor</title>
<g id="a_node29"><a xlink:href="https://github.com/jupyterlab/jupyterlab/tree/master/packages/settingeditor" xlink:title="settingeditor">
<ellipse fill="none" stroke="#000000" cx="193.6078" cy="-126.7327" rx="54.6905" ry="18"/>
<text text-anchor="middle" x="193.6078" y="-123.0327" font-family="Times,serif" font-size="14.00" fill="#000000">settingeditor</text>
</a>
</g>
</g>
<!-- settingeditor&#45;&gt;inspector -->
<g id="edge33" class="edge">
<title>settingeditor&#45;&gt;inspector</title>
<path fill="none" stroke="#000000" d="M248.3882,-126.7327C260.7782,-126.7327 273.9163,-126.7327 286.2467,-126.7327"/>
<polygon fill="#000000" stroke="#000000" points="286.3803,-130.2328 296.3802,-126.7327 286.3802,-123.2328 286.3803,-130.2328"/>
</g>
<!-- terminal -->
<g id="node30" class="node">
<title>terminal</title>
<g id="a_node30"><a xlink:href="https://github.com/jupyterlab/jupyterlab/tree/master/packages/terminal" xlink:title="terminal">
<ellipse fill="none" stroke="#000000" cx="866.6078" cy="-601.7327" rx="40.0939" ry="18"/>
<text text-anchor="middle" x="866.6078" y="-598.0327" font-family="Times,serif" font-size="14.00" fill="#000000">terminal</text>
</a>
</g>
</g>
<!-- terminal&#45;&gt;apputils -->
<g id="edge34" class="edge">
<title>terminal&#45;&gt;apputils</title>
<path fill="none" stroke="#000000" d="M888.0785,-586.4268C904.5599,-573.8003 926.968,-554.6202 942.0012,-533.7327 974.3293,-488.8152 996.5691,-427.4656 1007.5984,-392.3801"/>
<polygon fill="#000000" stroke="#000000" points="1010.9509,-393.3856 1010.5358,-382.7989 1004.2583,-391.3337 1010.9509,-393.3856"/>
</g>
<!-- tooltip -->
<g id="node31" class="node">
<title>tooltip</title>
<g id="a_node31"><a xlink:href="https://github.com/jupyterlab/jupyterlab/tree/master/packages/tooltip" xlink:title="tooltip">
<ellipse fill="none" stroke="#000000" cx="339.6078" cy="-31.7327" rx="33.5952" ry="18"/>
<text text-anchor="middle" x="339.6078" y="-28.0327" font-family="Times,serif" font-size="14.00" fill="#000000">tooltip</text>
</a>
</g>
</g>
<!-- tooltip&#45;&gt;rendermime -->
<g id="edge35" class="edge">
<title>tooltip&#45;&gt;rendermime</title>
<path fill="none" stroke="#000000" d="M352.8933,-48.3885C363.764,-62.0872 379.4793,-82.0521 392.9031,-99.7327 417.7894,-132.5108 445.783,-170.8207 463.7781,-195.6404"/>
<polygon fill="#000000" stroke="#000000" points="461.005,-197.7786 469.7046,-203.8257 466.6749,-193.6733 461.005,-197.7786"/>
</g>
</g>
</svg>
