<?xml version="1.0" encoding="UTF-8" standalone="no"?>
<!DOCTYPE svg PUBLIC "-//W3C//DTD SVG 1.1//EN"
 "http://www.w3.org/Graphics/SVG/1.1/DTD/svg11.dtd">
<!-- Generated by graphviz version 2.40.1 (20161225.0304)
 -->
<!-- Title: G Pages: 1 -->
<svg width="1148pt" height="691pt"
 viewBox="0.00 0.00 1147.82 691.40" xmlns="http://www.w3.org/2000/svg" xmlns:xlink="http://www.w3.org/1999/xlink">
<g id="graph0" class="graph" transform="scale(1 1) rotate(0) translate(4 687.4)">
<title>G</title>
<polygon fill="#ffffff" stroke="transparent" points="-4,4 -4,-687.4 1143.8212,-687.4 1143.8212,4 -4,4"/>
<!-- application -->
<g id="node1" class="node">
<title>application</title>
<g id="a_node1"><a xlink:href="https://github.com/jupyterlab/jupyterlab/tree/master/packages/application" xlink:title="application">
<ellipse fill="none" stroke="#000000" cx="193.8212" cy="-522.173" rx="50.0912" ry="18"/>
<text text-anchor="middle" x="193.8212" y="-518.473" font-family="Times,serif" font-size="14.00" fill="#000000">application</text>
</a>
</g>
</g>
<!-- docregistry -->
<g id="node2" class="node">
<title>docregistry</title>
<g id="a_node2"><a xlink:href="https://github.com/jupyterlab/jupyterlab/tree/master/packages/docregistry" xlink:title="docregistry">
<ellipse fill="none" stroke="#000000" cx="339.8212" cy="-452.173" rx="50.0912" ry="18"/>
<text text-anchor="middle" x="339.8212" y="-448.473" font-family="Times,serif" font-size="14.00" fill="#000000">docregistry</text>
</a>
</g>
</g>
<!-- application&#45;&gt;docregistry -->
<g id="edge1" class="edge">
<title>application&#45;&gt;docregistry</title>
<path fill="none" stroke="#000000" d="M224.0725,-507.6689C246.1933,-497.0631 276.4002,-482.5803 300.4088,-471.0694"/>
<polygon fill="#000000" stroke="#000000" points="302.1047,-474.1378 309.6087,-466.6584 299.0783,-467.8258 302.1047,-474.1378"/>
</g>
<!-- rendermime -->
<g id="node6" class="node">
<title>rendermime</title>
<g id="a_node6"><a xlink:href="https://github.com/jupyterlab/jupyterlab/tree/master/packages/rendermime" xlink:title="rendermime">
<ellipse fill="none" stroke="#000000" cx="482.8212" cy="-265.173" rx="53.8905" ry="18"/>
<text text-anchor="middle" x="482.8212" y="-261.473" font-family="Times,serif" font-size="14.00" fill="#000000">rendermime</text>
</a>
</g>
</g>
<!-- docregistry&#45;&gt;rendermime -->
<g id="edge3" class="edge">
<title>docregistry&#45;&gt;rendermime</title>
<path fill="none" stroke="#000000" d="M353.2743,-434.5805C378.6126,-401.4458 433.5144,-329.6512 463.0559,-291.0199"/>
<polygon fill="#000000" stroke="#000000" points="466.0054,-292.9247 469.2997,-282.855 460.4449,-288.6725 466.0054,-292.9247"/>
</g>
<!-- apputils -->
<g id="node3" class="node">
<title>apputils</title>
<g id="a_node3"><a xlink:href="https://github.com/jupyterlab/jupyterlab/tree/master/packages/apputils" xlink:title="apputils">
<ellipse fill="none" stroke="#000000" cx="828.8212" cy="-265.173" rx="38.1938" ry="18"/>
<text text-anchor="middle" x="828.8212" y="-261.473" font-family="Times,serif" font-size="14.00" fill="#000000">apputils</text>
</a>
</g>
</g>
<!-- services -->
<g id="node4" class="node">
<title>services</title>
<g id="a_node4"><a xlink:href="https://github.com/jupyterlab/jupyterlab/tree/master/packages/services" xlink:title="services">
<ellipse fill="none" stroke="#000000" cx="951.8212" cy="-265.173" rx="38.9931" ry="18"/>
<text text-anchor="middle" x="951.8212" y="-261.473" font-family="Times,serif" font-size="14.00" fill="#000000">services</text>
</a>
</g>
</g>
<!-- apputils&#45;&gt;services -->
<g id="edge2" class="edge">
<title>apputils&#45;&gt;services</title>
<path fill="none" stroke="#000000" d="M867.4017,-265.173C878.5179,-265.173 890.7998,-265.173 902.4733,-265.173"/>
<polygon fill="#000000" stroke="#000000" points="902.5307,-268.6731 912.5307,-265.173 902.5307,-261.6731 902.5307,-268.6731"/>
</g>
<!-- coreutils -->
<g id="node5" class="node">
<title>coreutils</title>
<g id="a_node5"><a xlink:href="https://github.com/jupyterlab/jupyterlab/tree/master/packages/coreutils" xlink:title="coreutils">
<ellipse fill="none" stroke="#000000" cx="1087.8212" cy="-265.173" rx="40.8928" ry="18"/>
<text text-anchor="middle" x="1087.8212" y="-261.473" font-family="Times,serif" font-size="14.00" fill="#000000">coreutils</text>
</a>
</g>
</g>
<!-- services&#45;&gt;coreutils -->
<g id="edge6" class="edge">
<title>services&#45;&gt;coreutils</title>
<path fill="none" stroke="#000000" d="M991.1581,-265.173C1005.3083,-265.173 1021.4855,-265.173 1036.5052,-265.173"/>
<polygon fill="#000000" stroke="#000000" points="1036.6795,-268.6731 1046.6794,-265.173 1036.6794,-261.6731 1036.6795,-268.6731"/>
</g>
<!-- observables -->
<g id="node9" class="node">
<title>observables</title>
<g id="a_node9"><a xlink:href="https://github.com/jupyterlab/jupyterlab/tree/master/packages/observables" xlink:title="observables">
<ellipse fill="none" stroke="#000000" cx="1087.8212" cy="-196.173" rx="51.9908" ry="18"/>
<text text-anchor="middle" x="1087.8212" y="-192.473" font-family="Times,serif" font-size="14.00" fill="#000000">observables</text>
</a>
</g>
</g>
<!-- services&#45;&gt;observables -->
<g id="edge7" class="edge">
<title>services&#45;&gt;observables</title>
<path fill="none" stroke="#000000" d="M978.3662,-251.7053C998.6127,-241.4332 1026.7876,-227.1386 1049.4812,-215.6249"/>
<polygon fill="#000000" stroke="#000000" points="1051.1797,-218.6879 1058.514,-211.0421 1048.0125,-212.4454 1051.1797,-218.6879"/>
</g>
<!-- rendermime&#45;interfaces -->
<g id="node7" class="node">
<title>rendermime&#45;interfaces</title>
<g id="a_node7"><a xlink:href="https://github.com/jupyterlab/jupyterlab/tree/master/packages/rendermime-interfaces" xlink:title="rendermime&#45;interfaces">
<ellipse fill="none" stroke="#000000" cx="663.8212" cy="-92.173" rx="90.9839" ry="18"/>
<text text-anchor="middle" x="663.8212" y="-88.473" font-family="Times,serif" font-size="14.00" fill="#000000">rendermime&#45;interfaces</text>
</a>
</g>
</g>
<!-- rendermime&#45;&gt;rendermime&#45;interfaces -->
<g id="edge4" class="edge">
<title>rendermime&#45;&gt;rendermime&#45;interfaces</title>
<path fill="none" stroke="#000000" d="M491.1872,-247.2331C504.8197,-219.6807 534.227,-166.7279 572.8293,-134.173 583.2161,-125.4133 595.7334,-118.0896 608.1147,-112.1408"/>
<polygon fill="#000000" stroke="#000000" points="609.8682,-115.1882 617.5187,-107.8588 606.9674,-108.8175 609.8682,-115.1882"/>
</g>
<!-- codemirror -->
<g id="node8" class="node">
<title>codemirror</title>
<g id="a_node8"><a xlink:href="https://github.com/jupyterlab/jupyterlab/tree/master/packages/codemirror" xlink:title="codemirror">
<ellipse fill="none" stroke="#000000" cx="663.8212" cy="-438.173" rx="50.0912" ry="18"/>
<text text-anchor="middle" x="663.8212" y="-434.473" font-family="Times,serif" font-size="14.00" fill="#000000">codemirror</text>
</a>
</g>
</g>
<!-- rendermime&#45;&gt;codemirror -->
<g id="edge5" class="edge">
<title>rendermime&#45;&gt;codemirror</title>
<path fill="none" stroke="#000000" d="M491.1872,-283.1128C504.8197,-310.6653 534.227,-363.6181 572.8293,-396.173 585.5946,-406.9385 601.5778,-415.5353 616.5718,-422.0762"/>
<polygon fill="#000000" stroke="#000000" points="615.6601,-425.4869 626.2383,-426.0798 618.3387,-419.0196 615.6601,-425.4869"/>
</g>
<!-- codemirror&#45;&gt;apputils -->
<g id="edge13" class="edge">
<title>codemirror&#45;&gt;apputils</title>
<path fill="none" stroke="#000000" d="M702.379,-426.4987C719.896,-419.7544 739.9702,-409.8488 754.8131,-396.173 786.2607,-367.1983 807.7516,-321.7139 819.1606,-292.6817"/>
<polygon fill="#000000" stroke="#000000" points="822.5009,-293.7441 822.7755,-283.1528 815.956,-291.2612 822.5009,-293.7441"/>
</g>
<!-- codeeditor -->
<g id="node13" class="node">
<title>codeeditor</title>
<g id="a_node13"><a xlink:href="https://github.com/jupyterlab/jupyterlab/tree/master/packages/codeeditor" xlink:title="codeeditor">
<ellipse fill="none" stroke="#000000" cx="951.8212" cy="-196.173" rx="48.1917" ry="18"/>
<text text-anchor="middle" x="951.8212" y="-192.473" font-family="Times,serif" font-size="14.00" fill="#000000">codeeditor</text>
</a>
</g>
</g>
<!-- codemirror&#45;&gt;codeeditor -->
<g id="edge14" class="edge">
<title>codemirror&#45;&gt;codeeditor</title>
<path fill="none" stroke="#000000" d="M698.8842,-425.0363C716.3819,-417.7366 737.4599,-407.7825 754.8131,-396.173 811.3683,-358.3371 822.8371,-343.7949 867.1678,-292.173 886.0499,-270.1853 884.527,-259.885 903.7255,-238.173 909.5312,-231.6071 916.3383,-225.0909 922.9745,-219.2198"/>
<polygon fill="#000000" stroke="#000000" points="925.3083,-221.8292 930.616,-212.6597 920.7486,-216.5178 925.3083,-221.8292"/>
</g>
<!-- attachments -->
<g id="node10" class="node">
<title>attachments</title>
<g id="a_node10"><a xlink:href="https://github.com/jupyterlab/jupyterlab/tree/master/packages/attachments" xlink:title="attachments">
<ellipse fill="none" stroke="#000000" cx="339.8212" cy="-265.173" rx="53.0913" ry="18"/>
<text text-anchor="middle" x="339.8212" y="-261.473" font-family="Times,serif" font-size="14.00" fill="#000000">attachments</text>
</a>
</g>
</g>
<!-- attachments&#45;&gt;rendermime -->
<g id="edge8" class="edge">
<title>attachments&#45;&gt;rendermime</title>
<path fill="none" stroke="#000000" d="M393.476,-265.173C401.7021,-265.173 410.2648,-265.173 418.6896,-265.173"/>
<polygon fill="#000000" stroke="#000000" points="418.8658,-268.6731 428.8657,-265.173 418.8657,-261.6731 418.8658,-268.6731"/>
</g>
<!-- cells -->
<g id="node11" class="node">
<title>cells</title>
<g id="a_node11"><a xlink:href="https://github.com/jupyterlab/jupyterlab/tree/master/packages/cells" xlink:title="cells">
<ellipse fill="none" stroke="#000000" cx="193.8212" cy="-265.173" rx="27" ry="18"/>
<text text-anchor="middle" x="193.8212" y="-261.473" font-family="Times,serif" font-size="14.00" fill="#000000">cells</text>
</a>
</g>
</g>
<!-- cells&#45;&gt;attachments -->
<g id="edge9" class="edge">
<title>cells&#45;&gt;attachments</title>
<path fill="none" stroke="#000000" d="M220.9405,-265.173C236.5303,-265.173 256.8149,-265.173 276.2019,-265.173"/>
<polygon fill="#000000" stroke="#000000" points="276.2287,-268.6731 286.2286,-265.173 276.2286,-261.6731 276.2287,-268.6731"/>
</g>
<!-- outputarea -->
<g id="node12" class="node">
<title>outputarea</title>
<g id="a_node12"><a xlink:href="https://github.com/jupyterlab/jupyterlab/tree/master/packages/outputarea" xlink:title="outputarea">
<ellipse fill="none" stroke="#000000" cx="339.8212" cy="-334.173" rx="48.1917" ry="18"/>
<text text-anchor="middle" x="339.8212" y="-330.473" font-family="Times,serif" font-size="14.00" fill="#000000">outputarea</text>
</a>
</g>
</g>
<!-- cells&#45;&gt;outputarea -->
<g id="edge10" class="edge">
<title>cells&#45;&gt;outputarea</title>
<path fill="none" stroke="#000000" d="M215.9955,-275.6526C238.4019,-286.242 273.4908,-302.825 300.6035,-315.6386"/>
<polygon fill="#000000" stroke="#000000" points="299.2904,-318.8891 309.8271,-319.9977 302.2814,-312.5603 299.2904,-318.8891"/>
</g>
<!-- outputarea&#45;&gt;rendermime -->
<g id="edge15" class="edge">
<title>outputarea&#45;&gt;rendermime</title>
<path fill="none" stroke="#000000" d="M369.4509,-319.8761C390.5899,-309.6762 419.268,-295.8385 442.4912,-284.6329"/>
<polygon fill="#000000" stroke="#000000" points="444.2602,-287.6656 451.7455,-280.1675 441.2181,-281.3611 444.2602,-287.6656"/>
</g>
<!-- codeeditor&#45;&gt;coreutils -->
<g id="edge11" class="edge">
<title>codeeditor&#45;&gt;coreutils</title>
<path fill="none" stroke="#000000" d="M980.6633,-210.8061C1001.4038,-221.3289 1029.5169,-235.5921 1051.7439,-246.8691"/>
<polygon fill="#000000" stroke="#000000" points="1050.3692,-250.0963 1060.8707,-251.4996 1053.5364,-243.8537 1050.3692,-250.0963"/>
</g>
<!-- codeeditor&#45;&gt;observables -->
<g id="edge12" class="edge">
<title>codeeditor&#45;&gt;observables</title>
<path fill="none" stroke="#000000" d="M1000.1527,-196.173C1008.2945,-196.173 1016.8479,-196.173 1025.2883,-196.173"/>
<polygon fill="#000000" stroke="#000000" points="1025.4924,-199.6731 1035.4923,-196.173 1025.4923,-192.6731 1025.4924,-199.6731"/>
</g>
<!-- completer -->
<g id="node14" class="node">
<title>completer</title>
<g id="a_node14"><a xlink:href="https://github.com/jupyterlab/jupyterlab/tree/master/packages/completer" xlink:title="completer">
<ellipse fill="none" stroke="#000000" cx="663.8212" cy="-23.173" rx="46.2923" ry="18"/>
<text text-anchor="middle" x="663.8212" y="-19.473" font-family="Times,serif" font-size="14.00" fill="#000000">completer</text>
</a>
</g>
</g>
<!-- completer&#45;&gt;apputils -->
<g id="edge16" class="edge">
<title>completer&#45;&gt;apputils</title>
<path fill="none" stroke="#000000" d="M702.0292,-33.3245C720.1049,-39.8286 740.7549,-49.9727 754.8131,-65.173 778.7015,-91.0019 807.9106,-188.7119 821.3739,-237.3379"/>
<polygon fill="#000000" stroke="#000000" points="818.0579,-238.4807 824.0749,-247.2012 824.8094,-236.6318 818.0579,-238.4807"/>
</g>
<!-- completer&#45;&gt;codeeditor -->
<g id="edge17" class="edge">
<title>completer&#45;&gt;codeeditor</title>
<path fill="none" stroke="#000000" d="M695.5788,-36.3913C713.3347,-44.1365 735.6764,-54.478 754.8131,-65.173 816.2212,-99.492 883.6415,-146.525 921.5437,-173.8992"/>
<polygon fill="#000000" stroke="#000000" points="919.9226,-177.0473 930.072,-180.0872 924.0336,-171.3815 919.9226,-177.0473"/>
</g>
<!-- console -->
<g id="node15" class="node">
<title>console</title>
<g id="a_node15"><a xlink:href="https://github.com/jupyterlab/jupyterlab/tree/master/packages/console" xlink:title="console">
<ellipse fill="none" stroke="#000000" cx="50.8212" cy="-265.173" rx="37.8943" ry="18"/>
<text text-anchor="middle" x="50.8212" y="-261.473" font-family="Times,serif" font-size="14.00" fill="#000000">console</text>
</a>
</g>
</g>
<!-- console&#45;&gt;cells -->
<g id="edge18" class="edge">
<title>console&#45;&gt;cells</title>
<path fill="none" stroke="#000000" d="M88.7672,-265.173C109.7193,-265.173 135.6428,-265.173 156.4956,-265.173"/>
<polygon fill="#000000" stroke="#000000" points="156.5822,-268.6731 166.5822,-265.173 156.5821,-261.6731 156.5822,-268.6731"/>
</g>
<!-- csvviewer -->
<g id="node16" class="node">
<title>csvviewer</title>
<g id="a_node16"><a xlink:href="https://github.com/jupyterlab/jupyterlab/tree/master/packages/csvviewer" xlink:title="csvviewer">
<ellipse fill="none" stroke="#000000" cx="193.8212" cy="-452.173" rx="46.2923" ry="18"/>
<text text-anchor="middle" x="193.8212" y="-448.473" font-family="Times,serif" font-size="14.00" fill="#000000">csvviewer</text>
</a>
</g>
</g>
<!-- csvviewer&#45;&gt;docregistry -->
<g id="edge19" class="edge">
<title>csvviewer&#45;&gt;docregistry</title>
<path fill="none" stroke="#000000" d="M240.0165,-452.173C252.4754,-452.173 266.1439,-452.173 279.2603,-452.173"/>
<polygon fill="#000000" stroke="#000000" points="279.6274,-455.6731 289.6274,-452.173 279.6274,-448.6731 279.6274,-455.6731"/>
</g>
<!-- docmanager -->
<g id="node17" class="node">
<title>docmanager</title>
<g id="a_node17"><a xlink:href="https://github.com/jupyterlab/jupyterlab/tree/master/packages/docmanager" xlink:title="docmanager">
<ellipse fill="none" stroke="#000000" cx="193.8212" cy="-591.173" rx="53.8905" ry="18"/>
<text text-anchor="middle" x="193.8212" y="-587.473" font-family="Times,serif" font-size="14.00" fill="#000000">docmanager</text>
</a>
</g>
</g>
<!-- docmanager&#45;&gt;docregistry -->
<g id="edge20" class="edge">
<title>docmanager&#45;&gt;docregistry</title>
<path fill="none" stroke="#000000" d="M217.6999,-574.9484C228.0856,-567.5142 240.1818,-558.3304 250.3662,-549.173 275.519,-526.5566 301.4161,-497.76 318.8312,-477.4363"/>
<polygon fill="#000000" stroke="#000000" points="321.7173,-479.4448 325.5222,-469.5567 316.3815,-474.9138 321.7173,-479.4448"/>
</g>
<!-- filebrowser -->
<g id="node18" class="node">
<title>filebrowser</title>
<g id="a_node18"><a xlink:href="https://github.com/jupyterlab/jupyterlab/tree/master/packages/filebrowser" xlink:title="filebrowser">
<ellipse fill="none" stroke="#000000" cx="50.8212" cy="-591.173" rx="50.8918" ry="18"/>
<text text-anchor="middle" x="50.8212" y="-587.473" font-family="Times,serif" font-size="14.00" fill="#000000">filebrowser</text>
</a>
</g>
</g>
<!-- filebrowser&#45;&gt;docmanager -->
<g id="edge21" class="edge">
<title>filebrowser&#45;&gt;docmanager</title>
<path fill="none" stroke="#000000" d="M101.6403,-591.173C110.7192,-591.173 120.2849,-591.173 129.6794,-591.173"/>
<polygon fill="#000000" stroke="#000000" points="129.775,-594.6731 139.775,-591.173 129.7749,-587.6731 129.775,-594.6731"/>
</g>
<!-- fileeditor -->
<g id="node19" class="node">
<title>fileeditor</title>
<g id="a_node19"><a xlink:href="https://github.com/jupyterlab/jupyterlab/tree/master/packages/fileeditor" xlink:title="fileeditor">
<ellipse fill="none" stroke="#000000" cx="193.8212" cy="-334.173" rx="42.7926" ry="18"/>
<text text-anchor="middle" x="193.8212" y="-330.473" font-family="Times,serif" font-size="14.00" fill="#000000">fileeditor</text>
</a>
</g>
</g>
<!-- fileeditor&#45;&gt;docregistry -->
<g id="edge22" class="edge">
<title>fileeditor&#45;&gt;docregistry</title>
<path fill="none" stroke="#000000" d="M214.02,-350.1498C224.8279,-358.7232 238.3506,-369.4898 250.3662,-379.173 270.888,-395.7113 293.9273,-414.5182 311.4844,-428.9006"/>
<polygon fill="#000000" stroke="#000000" points="309.6754,-431.9434 319.6279,-435.5763 314.1132,-426.5299 309.6754,-431.9434"/>
</g>
<!-- imageviewer -->
<g id="node20" class="node">
<title>imageviewer</title>
<g id="a_node20"><a xlink:href="https://github.com/jupyterlab/jupyterlab/tree/master/packages/imageviewer" xlink:title="imageviewer">
<ellipse fill="none" stroke="#000000" cx="193.8212" cy="-660.173" rx="56.59" ry="18"/>
<text text-anchor="middle" x="193.8212" y="-656.473" font-family="Times,serif" font-size="14.00" fill="#000000">imageviewer</text>
</a>
</g>
</g>
<!-- imageviewer&#45;&gt;docregistry -->
<g id="edge23" class="edge">
<title>imageviewer&#45;&gt;docregistry</title>
<path fill="none" stroke="#000000" d="M220.2899,-644.1089C230.5238,-637.0303 241.8065,-628.0693 250.3662,-618.173 287.4016,-575.3545 315.2208,-514.637 329.3755,-479.7408"/>
<polygon fill="#000000" stroke="#000000" points="332.7249,-480.7894 333.1635,-470.2036 326.2193,-478.2054 332.7249,-480.7894"/>
</g>
<!-- inspector -->
<g id="node21" class="node">
<title>inspector</title>
<g id="a_node21"><a xlink:href="https://github.com/jupyterlab/jupyterlab/tree/master/packages/inspector" xlink:title="inspector">
<ellipse fill="none" stroke="#000000" cx="339.8212" cy="-196.173" rx="42.7926" ry="18"/>
<text text-anchor="middle" x="339.8212" y="-192.473" font-family="Times,serif" font-size="14.00" fill="#000000">inspector</text>
</a>
</g>
</g>
<!-- inspector&#45;&gt;rendermime -->
<g id="edge24" class="edge">
<title>inspector&#45;&gt;rendermime</title>
<path fill="none" stroke="#000000" d="M368.0734,-209.8052C389.415,-220.1028 418.9907,-234.3737 442.7705,-245.8478"/>
<polygon fill="#000000" stroke="#000000" points="441.3736,-249.0599 451.9011,-250.2535 444.4157,-242.7554 441.3736,-249.0599"/>
</g>
<!-- launcher -->
<g id="node22" class="node">
<title>launcher</title>
<g id="a_node22"><a xlink:href="https://github.com/jupyterlab/jupyterlab/tree/master/packages/launcher" xlink:title="launcher">
<ellipse fill="none" stroke="#000000" cx="663.8212" cy="-161.173" rx="40.8928" ry="18"/>
<text text-anchor="middle" x="663.8212" y="-157.473" font-family="Times,serif" font-size="14.00" fill="#000000">launcher</text>
</a>
</g>
</g>
<!-- launcher&#45;&gt;apputils -->
<g id="edge25" class="edge">
<title>launcher&#45;&gt;apputils</title>
<path fill="none" stroke="#000000" d="M694.3126,-173.3252C712.4693,-181.1054 735.6341,-192.0038 754.8131,-204.173 772.2071,-215.2095 790.0739,-229.8256 803.8941,-241.9837"/>
<polygon fill="#000000" stroke="#000000" points="801.7424,-244.7549 811.5294,-248.8126 806.4089,-239.5373 801.7424,-244.7549"/>
</g>
<!-- mainmenu -->
<g id="node23" class="node">
<title>mainmenu</title>
<g id="a_node23"><a xlink:href="https://github.com/jupyterlab/jupyterlab/tree/master/packages/mainmenu" xlink:title="mainmenu">
<ellipse fill="none" stroke="#000000" cx="663.8212" cy="-369.173" rx="48.9926" ry="18"/>
<text text-anchor="middle" x="663.8212" y="-365.473" font-family="Times,serif" font-size="14.00" fill="#000000">mainmenu</text>
</a>
</g>
</g>
<!-- mainmenu&#45;&gt;apputils -->
<g id="edge26" class="edge">
<title>mainmenu&#45;&gt;apputils</title>
<path fill="none" stroke="#000000" d="M697.7768,-356.0375C715.3784,-348.6074 736.8841,-338.5361 754.8131,-327.173 772.4471,-315.9969 790.4411,-301.0193 804.2705,-288.5849"/>
<polygon fill="#000000" stroke="#000000" points="806.883,-290.9386 811.8976,-281.6057 802.1573,-285.7744 806.883,-290.9386"/>
</g>
<!-- notebook -->
<g id="node24" class="node">
<title>notebook</title>
<g id="a_node24"><a xlink:href="https://github.com/jupyterlab/jupyterlab/tree/master/packages/notebook" xlink:title="notebook">
<ellipse fill="none" stroke="#000000" cx="50.8212" cy="-364.173" rx="43.5923" ry="18"/>
<text text-anchor="middle" x="50.8212" y="-360.473" font-family="Times,serif" font-size="14.00" fill="#000000">notebook</text>
</a>
</g>
</g>
<!-- notebook&#45;&gt;docregistry -->
<g id="edge27" class="edge">
<title>notebook&#45;&gt;docregistry</title>
<path fill="none" stroke="#000000" d="M85.9694,-374.8755C137.4462,-390.5501 233.5111,-419.8017 291.5665,-437.4795"/>
<polygon fill="#000000" stroke="#000000" points="290.6588,-440.8617 301.2446,-440.4265 292.6979,-434.1653 290.6588,-440.8617"/>
</g>
<!-- notebook&#45;&gt;cells -->
<g id="edge28" class="edge">
<title>notebook&#45;&gt;cells</title>
<path fill="none" stroke="#000000" d="M73.165,-348.7042C98.3987,-331.2348 139.4642,-302.8048 166.5624,-284.0445"/>
<polygon fill="#000000" stroke="#000000" points="168.6022,-286.8892 174.8319,-278.3194 164.6177,-281.1339 168.6022,-286.8892"/>
</g>
<!-- running -->
<g id="node25" class="node">
<title>running</title>
<g id="a_node25"><a xlink:href="https://github.com/jupyterlab/jupyterlab/tree/master/packages/running" xlink:title="running">
<ellipse fill="none" stroke="#000000" cx="663.8212" cy="-300.173" rx="38.1938" ry="18"/>
<text text-anchor="middle" x="663.8212" y="-296.473" font-family="Times,serif" font-size="14.00" fill="#000000">running</text>
</a>
</g>
</g>
<!-- running&#45;&gt;apputils -->
<g id="edge29" class="edge">
<title>running&#45;&gt;apputils</title>
<path fill="none" stroke="#000000" d="M698.8135,-292.7504C723.5587,-287.5014 756.9539,-280.4176 783.7015,-274.7438"/>
<polygon fill="#000000" stroke="#000000" points="784.5393,-278.1441 793.5954,-272.6451 783.0867,-271.2964 784.5393,-278.1441"/>
</g>
<!-- settingeditor -->
<g id="node26" class="node">
<title>settingeditor</title>
<g id="a_node26"><a xlink:href="https://github.com/jupyterlab/jupyterlab/tree/master/packages/settingeditor" xlink:title="settingeditor">
<ellipse fill="none" stroke="#000000" cx="193.8212" cy="-196.173" rx="54.6905" ry="18"/>
<text text-anchor="middle" x="193.8212" y="-192.473" font-family="Times,serif" font-size="14.00" fill="#000000">settingeditor</text>
</a>
</g>
</g>
<!-- settingeditor&#45;&gt;inspector -->
<g id="edge30" class="edge">
<title>settingeditor&#45;&gt;inspector</title>
<path fill="none" stroke="#000000" d="M248.6016,-196.173C260.9916,-196.173 274.1297,-196.173 286.4601,-196.173"/>
<polygon fill="#000000" stroke="#000000" points="286.5936,-199.6731 296.5936,-196.173 286.5936,-192.6731 286.5936,-199.6731"/>
</g>
<!-- terminal -->
<g id="node27" class="node">
<title>terminal</title>
<g id="a_node27"><a xlink:href="https://github.com/jupyterlab/jupyterlab/tree/master/packages/terminal" xlink:title="terminal">
<ellipse fill="none" stroke="#000000" cx="663.8212" cy="-231.173" rx="40.0939" ry="18"/>
<text text-anchor="middle" x="663.8212" y="-227.473" font-family="Times,serif" font-size="14.00" fill="#000000">terminal</text>
</a>
</g>
</g>
<!-- terminal&#45;&gt;apputils -->
<g id="edge31" class="edge">
<title>terminal&#45;&gt;apputils</title>
<path fill="none" stroke="#000000" d="M700.4401,-238.7187C724.9144,-243.7619 757.2875,-250.4327 783.4018,-255.8138"/>
<polygon fill="#000000" stroke="#000000" points="782.9366,-259.2914 793.4372,-257.8817 784.3494,-252.4355 782.9366,-259.2914"/>
</g>
<!-- tooltip -->
<g id="node28" class="node">
<title>tooltip</title>
<g id="a_node28"><a xlink:href="https://github.com/jupyterlab/jupyterlab/tree/master/packages/tooltip" xlink:title="tooltip">
<ellipse fill="none" stroke="#000000" cx="339.8212" cy="-127.173" rx="33.5952" ry="18"/>
<text text-anchor="middle" x="339.8212" y="-123.473" font-family="Times,serif" font-size="14.00" fill="#000000">tooltip</text>
</a>
</g>
</g>
<!-- tooltip&#45;&gt;rendermime -->
<g id="edge32" class="edge">
<title>tooltip&#45;&gt;rendermime</title>
<path fill="none" stroke="#000000" d="M359.8976,-141.8458C370.1421,-149.6157 382.6223,-159.5262 393.1165,-169.173 417.7651,-191.8313 443.6377,-220.0654 461.2281,-240.033"/>
<polygon fill="#000000" stroke="#000000" points="458.7847,-242.5558 468.0023,-247.7794 464.054,-237.9477 458.7847,-242.5558"/>
</g>
</g>
</svg>
