<svg xmlns="http://www.w3.org/2000/svg" viewBox="0 0 24 24"><defs><style>.cls-1{fill:#282828;}.cls-2{fill:#fff;}</style></defs><g id="Layer_2" data-name="Layer 2"><path class="cls-1" d="M14.81,23.67a12.14,12.14,0,0,1-2.57.33h-.66A12,12,0,0,1,.41,8.87,16.81,16.81,0,0,1,14.81,23.67Z"/><path class="cls-2" d="M16.7,23a12.33,12.33,0,0,1-1.89.63A16.81,16.81,0,0,0,.41,8.87c.07-.25.15-.5.23-.75A16.8,16.8,0,0,1,16.7,23Z"/><circle class="cls-2" cx="19.39" cy="13.51" r="2.19"/><path class="cls-1" d="M24,12a12,12,0,0,1-1.78,6.3A11.74,11.74,0,0,1,21,19.91,12.08,12.08,0,0,1,16.7,23,16.8,16.8,0,0,0,.64,8.12,11.78,11.78,0,0,1,2.33,4.9,12,12,0,0,1,11,0c.35,0,.69,0,1,0A12,12,0,0,1,23.27,7.88c.05.13.1.26.14.39.12.36.21.72.3,1.09a11.66,11.66,0,0,1,.27,2C24,11.56,24,11.78,24,12Z"/><path class="cls-2" d="M23.27,7.88A6,6,0,0,1,19.4,9.29,6,6,0,0,1,14.25.21a12,12,0,0,1,9,7.67Z"/></g></svg>
