<svg xmlns="http://www.w3.org/2000/svg" viewBox="0 0 24 24"><defs><style>.cls-1{fill:#282828;}.cls-2{fill:#fff;}</style></defs><g id="Layer_2" data-name="Layer 2"><path class="cls-1" d="M24,12a12.05,12.05,0,0,1-.14,1.81A11.91,11.91,0,0,1,21,19.91,12,12,0,0,1,12.24,24h-.66A13.16,13.16,0,0,1,10,23.84,12,12,0,0,1,0,12.3V12A11.87,11.87,0,0,1,2.33,4.9,12.06,12.06,0,0,1,5.77,1.74h0A12.16,12.16,0,0,1,11,0c.35,0,.69,0,1,0A12,12,0,0,1,23.71,9.36a11.66,11.66,0,0,1,.27,2C24,11.56,24,11.78,24,12Z"/><path class="cls-2" d="M8.21,6.61A6.09,6.09,0,0,1,0,12.3V12A11.87,11.87,0,0,1,2.33,4.9,12.06,12.06,0,0,1,5.77,1.74h0A6.08,6.08,0,0,1,8.21,6.61Z"/><path class="cls-2" d="M23.86,13.81A11.91,11.91,0,0,1,21,19.91,12,12,0,0,1,12.24,24h-.66A13.16,13.16,0,0,1,10,23.84a8.83,8.83,0,0,1,13.82-10Z"/><circle class="cls-2" cx="18.26" cy="7.36" r="1.21"/></g></svg>
