<svg xmlns="http://www.w3.org/2000/svg" viewBox="0 0 24 24"><defs><style>.cls-1{fill:#282828;}.cls-2{fill:#fff;}</style></defs><g id="Layer_2" data-name="Layer 2"><path class="cls-1" d="M24,12a11.89,11.89,0,0,0-1.63-6h0l-.15-.26a.71.71,0,0,0-.1-.14A11.18,11.18,0,0,0,21,4.09a13.13,13.13,0,0,0-2-1.84A12,12,0,0,0,12.24,0h-.66A11.69,11.69,0,0,0,9.27.32,12,12,0,0,0,2.33,19.1a12.06,12.06,0,0,0,2.08,2.2A12,12,0,0,0,11,24c.35,0,.69,0,1,0a12,12,0,0,0,9.83-5.12c.12-.17.24-.34.35-.52a2.39,2.39,0,0,1,.13-.21h0a3.62,3.62,0,0,0,.24-.43c.08-.14.16-.29.23-.44l.11-.21,0-.07.18-.41.18-.47,0-.09a12.85,12.85,0,0,0,.4-1.38,11.66,11.66,0,0,0,.27-2C24,12.44,24,12.22,24,12Z"/><circle class="cls-2" cx="20.96" cy="10.22" r="1.41"/><path class="cls-2" d="M11.33,4.5A5.27,5.27,0,0,0,9.27.32a12,12,0,0,0-8,6.36A5.28,5.28,0,0,0,11.33,4.5Z"/><path class="cls-2" d="M17.32,9.15a12.46,12.46,0,0,1,2-6.64L19,2.26A12.57,12.57,0,0,0,17,1.1,16.86,16.86,0,0,0,14.17,8c-.48,2.43-.58,5.09.65,7.24a7.49,7.49,0,0,0,5.61,3.56,8.32,8.32,0,0,0,1.41.06A12.09,12.09,0,0,0,23.31,16a5.8,5.8,0,0,1-4.17-1.61A7.32,7.32,0,0,1,17.32,9.15Z"/></g></svg>
