<svg xmlns="http://www.w3.org/2000/svg" viewBox="0 0 24 24"><defs><style>.cls-1{fill:#282828;}.cls-2{fill:#fff;}</style></defs><g id="Layer_2" data-name="Layer 2"><path class="cls-1" d="M24,12a12,12,0,0,1-1.78,6.3A11.74,11.74,0,0,1,21,19.91a11.61,11.61,0,0,1-1.28,1.25,12,12,0,0,1-5.83,2.69,15.2,15.2,0,0,1-1.68.15h-.89A12,12,0,0,1,0,12,11.87,11.87,0,0,1,2.33,4.9a11.7,11.7,0,0,1,1.81-2l.41-.34A12,12,0,0,1,10.17.14L11,0l.75,0H12A12,12,0,0,1,23.71,9.36a11.66,11.66,0,0,1,.27,2C24,11.56,24,11.78,24,12Z"/><path class="cls-2" d="M19.75,21.16a12,12,0,0,1-5.83,2.69,13.09,13.09,0,0,1-4.66-3.1,19.44,19.44,0,0,1-4.85-11,40.31,40.31,0,0,1-.27-6.86l.41-.34q.27,1.29.6,2.58c1.06,4.22,2.61,8.46,5.57,11.65A13.14,13.14,0,0,0,19.75,21.16Z"/></g></svg>
