<svg xmlns="http://www.w3.org/2000/svg" viewBox="0 0 24 24"><defs><style>.cls-1{fill:#282828;}.cls-2{fill:#fff;}</style></defs><g id="Layer_2" data-name="Layer 2"><path class="cls-1" d="M14.81.33A12.14,12.14,0,0,0,12.24,0h-.66A12,12,0,0,0,.41,15.13,16.81,16.81,0,0,0,14.81.33Z"/><path class="cls-2" d="M16.7,1A12.33,12.33,0,0,0,14.81.33,16.81,16.81,0,0,1,.41,15.13c.07.25.15.5.23.75A16.8,16.8,0,0,0,16.7,1Z"/><circle class="cls-2" cx="19.39" cy="10.49" r="2.19"/><path class="cls-1" d="M24,12a12,12,0,0,0-1.78-6.3A11.74,11.74,0,0,0,21,4.09,12.08,12.08,0,0,0,16.7,1,16.8,16.8,0,0,1,.64,15.88,11.78,11.78,0,0,0,2.33,19.1,12,12,0,0,0,11,24c.35,0,.69,0,1,0a12,12,0,0,0,11.27-7.88c.05-.13.1-.26.14-.39.12-.36.21-.72.3-1.09a11.66,11.66,0,0,0,.27-2C24,12.44,24,12.22,24,12Z"/><path class="cls-2" d="M23.27,16.12a6,6,0,0,0-9,7.67,12,12,0,0,0,9-7.67Z"/></g></svg>
