<svg xmlns="http://www.w3.org/2000/svg" viewBox="0 0 24 24"><defs><style>.cls-1{fill:#282828;}.cls-2{fill:#fff;}</style></defs><g id="Layer_2" data-name="Layer 2"><path class="cls-1" d="M24,12a11.92,11.92,0,0,1-1,4.86,11.67,11.67,0,0,1-.65,1.27l-.11.17a.67.67,0,0,1-.09.14A11.18,11.18,0,0,1,21,19.91a13.13,13.13,0,0,1-2,1.84A12,12,0,0,1,12.24,24h-.66A11.94,11.94,0,0,1,3.63,20.6a12.9,12.9,0,0,1-1-1.17,12,12,0,0,1-2.31-10A11.67,11.67,0,0,1,.73,7.87a12,12,0,0,1,1.6-3l.18-.24A11.94,11.94,0,0,1,11,.05c.31,0,.61,0,.92,0H12a12,12,0,0,1,5.69,1.43,12.69,12.69,0,0,1,1.11.68,12.07,12.07,0,0,1,4.91,7.25,12.76,12.76,0,0,1,.27,2C24,11.56,24,11.78,24,12Z"/><path class="cls-2" d="M18.05,6.63a13.61,13.61,0,0,1,.75-4.52,12.69,12.69,0,0,0-1.11-.68,15.51,15.51,0,0,0-.88,5.2,13.92,13.92,0,0,0,5.51,11.5A11.67,11.67,0,0,0,23,16.86,12.37,12.37,0,0,1,18.05,6.63Z"/><path class="cls-2" d="M.73,7.87A11.67,11.67,0,0,0,.27,9.46a13.13,13.13,0,0,1,2.47,7.82,15.22,15.22,0,0,1-.16,2.15,12.9,12.9,0,0,0,1,1.17A15.71,15.71,0,0,0,4,17.28,14.67,14.67,0,0,0,.73,7.87Z"/><path class="cls-2" d="M13.36,3.74a5.46,5.46,0,0,1-10.85.92A11.94,11.94,0,0,1,11,.05c.31,0,.61,0,.92,0A5.48,5.48,0,0,1,13.36,3.74Z"/><circle class="cls-2" cx="7.89" cy="13.34" r="2.19"/></g></svg>
