<svg xmlns="http://www.w3.org/2000/svg" viewBox="0 0 24 24"><defs><style>.cls-1{fill:#282828;}.cls-2{fill:#fff;}</style></defs><g id="Layer_2" data-name="Layer 2"><path class="cls-1" d="M24,12a12,12,0,0,0-1.78-6.3A11.74,11.74,0,0,0,21,4.09a12,12,0,0,0-6-3.7A11.67,11.67,0,0,0,12.24,0h-.66A12,12,0,0,0,0,12a12.49,12.49,0,0,0,.14,1.85,11.54,11.54,0,0,0,.32,1.44A11.68,11.68,0,0,0,2.33,19.1,12,12,0,0,0,11,24c.35,0,.69,0,1,0a12,12,0,0,0,11.71-9.36A12.7,12.7,0,0,0,24,12.76v-.1C24,12.44,24,12.22,24,12Z"/><path class="cls-2" d="M24,12a12,12,0,0,0-1.78-6.3A11.74,11.74,0,0,0,21,4.09a12,12,0,0,0-6-3.7A21.75,21.75,0,0,1,9.22,9,21.7,21.7,0,0,1,.14,13.85a11.54,11.54,0,0,0,.32,1.44c1.14-.33,2.27-.78,3.4-1.1a58.13,58.13,0,0,1,9.1-2,30,30,0,0,1,11,.54v-.1C24,12.44,24,12.22,24,12Z"/><circle class="cls-1" cx="17.61" cy="7.49" r="2.62"/></g></svg>
