<svg xmlns="http://www.w3.org/2000/svg" viewBox="0 0 24 24"><defs><style>.cls-1{fill:#282828;}.cls-2{fill:#fff;}</style></defs><g id="Layer_2" data-name="Layer 2"><path class="cls-1" d="M24,12a12.05,12.05,0,0,0-.14-1.81A11.91,11.91,0,0,0,21,4.09,12,12,0,0,0,12.24,0h-.66A13.16,13.16,0,0,0,10,.16,12,12,0,0,0,0,11.7V12a11.87,11.87,0,0,0,2.33,7.1,12.06,12.06,0,0,0,3.44,3.16h0A12.16,12.16,0,0,0,11,24c.35,0,.69,0,1,0a12,12,0,0,0,11.71-9.36,11.66,11.66,0,0,0,.27-2C24,12.44,24,12.22,24,12Z"/><path class="cls-2" d="M8.21,17.39A6.09,6.09,0,0,0,0,11.7V12a11.87,11.87,0,0,0,2.33,7.1,12.06,12.06,0,0,0,3.44,3.16h0A6.08,6.08,0,0,0,8.21,17.39Z"/><path class="cls-2" d="M23.86,10.19A11.91,11.91,0,0,0,21,4.09,12,12,0,0,0,12.24,0h-.66A13.16,13.16,0,0,0,10,.16a8.83,8.83,0,0,0,8.22,12A8.78,8.78,0,0,0,23.86,10.19Z"/><circle class="cls-2" cx="11.53" cy="19.25" r="1.21"/></g></svg>
