<svg xmlns="http://www.w3.org/2000/svg" viewBox="0 0 24 24"><defs><style>.cls-1{fill:#282828;}.cls-2{fill:#fff;}</style></defs><g id="Layer_2" data-name="Layer 2"><path class="cls-1" d="M24,12a12,12,0,0,0-1.78-6.3A11.74,11.74,0,0,0,21,4.09,12,12,0,0,0,12.24,0h-.66A12,12,0,0,0,0,12a11.87,11.87,0,0,0,2.33,7.1A12,12,0,0,0,11,24c.35,0,.69,0,1,0a12,12,0,0,0,11.71-9.36,11.66,11.66,0,0,0,.27-2C24,12.44,24,12.22,24,12Z"/><path class="cls-2" d="M24,12a12,12,0,0,0-1.78-6.3A11.74,11.74,0,0,0,21,4.09a5.47,5.47,0,0,0,1.81,10.62,4.94,4.94,0,0,0,.87-.07,11.66,11.66,0,0,0,.27-2C24,12.44,24,12.22,24,12Z"/><path class="cls-1" d="M24,12a12,12,0,0,0-1.78-6.3,3.6,3.6,0,1,0,1.76,7C24,12.44,24,12.22,24,12Z"/><path class="cls-2" d="M12.24,0h-.66A21.81,21.81,0,0,1,8.93,11.85a21.63,21.63,0,0,1-6.6,7.25A12,12,0,0,0,11,24a11.67,11.67,0,0,0,.68-2A45.15,45.15,0,0,0,12.24,0Z"/><circle class="cls-1" cx="8.35" cy="18.9" r="2.86"/></g></svg>
