<svg xmlns="http://www.w3.org/2000/svg" viewBox="0 0 24 24"><defs><style>.cls-1{fill:#282828;}.cls-2{fill:#fff;}</style></defs><g id="Layer_2" data-name="Layer 2"><path class="cls-1" d="M24,12a12,12,0,0,1-1.78,6.3A11.74,11.74,0,0,1,21,19.91,12,12,0,0,1,12.24,24h-.66A12,12,0,0,1,0,12v-.33A12,12,0,0,1,11,0c.35,0,.69,0,1,0A12,12,0,0,1,23.71,9.36a11.66,11.66,0,0,1,.27,2c0,.17,0,.34,0,.51Z"/><path class="cls-2" d="M24,11.85a5.74,5.74,0,1,1-5.09-9.66,12,12,0,0,1,4.8,7.17,11.66,11.66,0,0,1,.27,2C24,11.51,24,11.68,24,11.85Z"/><path class="cls-2" d="M6.32,15.41a4.27,4.27,0,0,1-3.59,4.21A12,12,0,0,1,0,12v-.33a4.2,4.2,0,0,1,2.05-.53A4.27,4.27,0,0,1,6.32,15.41Z"/><circle class="cls-2" cx="13.57" cy="17.66" r="2.33"/></g></svg>
