<svg xmlns="http://www.w3.org/2000/svg" viewBox="0 0 24 24"><defs><style>.cls-1{fill:#282828;}.cls-2{fill:#fff;}</style></defs><g id="Layer_2" data-name="Layer 2"><path class="cls-1" d="M24,12a12,12,0,0,1-1.78,6.3A11.74,11.74,0,0,1,21,19.91,12,12,0,0,1,12.24,24h-.66A12,12,0,0,1,0,12,11.87,11.87,0,0,1,2.33,4.9,12,12,0,0,1,11,0c.35,0,.69,0,1,0A12,12,0,0,1,23.71,9.36a11.66,11.66,0,0,1,.27,2C24,11.56,24,11.78,24,12Z"/><path class="cls-2" d="M24,12a12,12,0,0,1-1.78,6.3A11.74,11.74,0,0,1,21,19.91,5.47,5.47,0,0,1,22.84,9.29a4.94,4.94,0,0,1,.87.07,11.66,11.66,0,0,1,.27,2C24,11.56,24,11.78,24,12Z"/><path class="cls-1" d="M24,12a12,12,0,0,1-1.78,6.3,3.6,3.6,0,1,1,1.76-7C24,11.56,24,11.78,24,12Z"/><path class="cls-2" d="M12.24,24h-.66A21.81,21.81,0,0,0,8.93,12.15,21.63,21.63,0,0,0,2.33,4.9,12,12,0,0,1,11,0a11.67,11.67,0,0,1,.68,2A45.15,45.15,0,0,1,12.24,24Z"/><circle class="cls-1" cx="8.35" cy="5.1" r="2.86"/></g></svg>
