<svg xmlns="http://www.w3.org/2000/svg" viewBox="0 0 24 24"><defs><style>.cls-1{fill:#282828;}.cls-2{fill:#fff;}</style></defs><g id="Layer_2" data-name="Layer 2"><path class="cls-1" d="M24,12a12,12,0,0,0-1.78-6.3A11.74,11.74,0,0,0,21,4.09,12,12,0,0,0,12.24,0h-.66A12,12,0,0,0,0,12v.33A12,12,0,0,0,11,24c.35,0,.69,0,1,0a12,12,0,0,0,11.71-9.36,11.66,11.66,0,0,0,.27-2c0-.17,0-.34,0-.51Z"/><path class="cls-2" d="M24,12.15a5.74,5.74,0,1,0-5.09,9.66,12,12,0,0,0,4.8-7.17,11.66,11.66,0,0,0,.27-2C24,12.49,24,12.32,24,12.15Z"/><path class="cls-2" d="M6.32,8.59A4.27,4.27,0,0,0,2.73,4.38,12,12,0,0,0,0,12v.33a4.2,4.2,0,0,0,2.05.53A4.27,4.27,0,0,0,6.32,8.59Z"/><circle class="cls-2" cx="13.57" cy="6.34" r="2.33"/></g></svg>
