<svg xmlns="http://www.w3.org/2000/svg" viewBox="0 0 24 24"><defs><style>.cls-1{fill:#282828;}.cls-2{fill:#fff;}</style></defs><g id="Layer_2" data-name="Layer 2"><path class="cls-1" d="M24,12a11.89,11.89,0,0,1-1.63,6h0l-.15.26a.71.71,0,0,1-.1.14A11.18,11.18,0,0,1,21,19.91a13.13,13.13,0,0,1-2,1.84A12,12,0,0,1,12.24,24h-.66A12,12,0,0,1,4.41,2.7,12,12,0,0,1,11,0c.35,0,.69,0,1,0A12,12,0,0,1,23.71,9.36a11.66,11.66,0,0,1,.27,2C24,11.56,24,11.78,24,12Z"/><path class="cls-2" d="M22.37,18l-.15.26a.71.71,0,0,1-.1.14A11.18,11.18,0,0,1,21,19.91a13.13,13.13,0,0,1-2,1.84A12,12,0,0,1,12.24,24h-.66A12,12,0,0,1,3.8,20.76a17.18,17.18,0,0,0,2.29-6.58A22.89,22.89,0,0,0,4.41,2.7,12.33,12.33,0,0,1,7.26,1,7.86,7.86,0,0,1,8,2.47C9.27,6,10,9.77,11.51,13.21a9,9,0,0,0,2.88,3.85A9.08,9.08,0,0,0,20,18.24C20.8,18.2,21.58,18.11,22.37,18Z"/><circle class="cls-2" cx="17.32" cy="12.95" r="2.94"/></g></svg>
