<svg xmlns="http://www.w3.org/2000/svg" viewBox="0 0 24 24"><defs><style>.cls-1{fill:#282828;}.cls-2{fill:#fff;}</style></defs><g id="Layer_2" data-name="Layer 2"><path class="cls-1" d="M24,12a12,12,0,0,0-1.78-6.3A11.74,11.74,0,0,0,21,4.09,12,12,0,0,0,12.24,0h-.89A12,12,0,0,0,0,12,12,12,0,0,0,10.17,23.86L11,24l.75,0H12a12,12,0,0,0,11.71-9.36,11.66,11.66,0,0,0,.27-2C24,12.44,24,12.22,24,12Z"/><path class="cls-2" d="M11.92.68A7.3,7.3,0,0,0,11.35,0,11.9,11.9,0,0,0,3.77,3.27,11.82,11.82,0,0,1,5.67,4a11.84,11.84,0,0,1,5.68,6.09,15.3,15.3,0,0,1,.29,9.76,26,26,0,0,1-1.47,4L11,24l.75,0a13.83,13.83,0,0,0,.82-1.23A20.54,20.54,0,0,0,15,14.58C15.58,9.74,14.93,4.51,11.92.68Z"/></g></svg>
