<svg xmlns="http://www.w3.org/2000/svg" viewBox="0 0 24 24"><defs><style>.cls-1{fill:#282828;}.cls-2{fill:#fff;}</style></defs><g id="Layer_2" data-name="Layer 2"><path class="cls-1" d="M24,12a11.89,11.89,0,0,0-1.63-6h0l-.15-.26a.71.71,0,0,0-.1-.14A11.18,11.18,0,0,0,21,4.09a13.13,13.13,0,0,0-2-1.84A12,12,0,0,0,12.24,0h-.66A12,12,0,0,0,4.41,21.3,12,12,0,0,0,11,24c.35,0,.69,0,1,0a12,12,0,0,0,11.71-9.36,11.66,11.66,0,0,0,.27-2C24,12.44,24,12.22,24,12Z"/><path class="cls-2" d="M22.37,6l-.15-.26a.71.71,0,0,0-.1-.14A11.18,11.18,0,0,0,21,4.09a13.13,13.13,0,0,0-2-1.84A12,12,0,0,0,12.24,0h-.66A12,12,0,0,0,3.8,3.24,17.18,17.18,0,0,1,6.09,9.82,22.89,22.89,0,0,1,4.41,21.3,12.33,12.33,0,0,0,7.26,23a7.86,7.86,0,0,0,.7-1.5c1.31-3.54,2-7.3,3.55-10.74a9,9,0,0,1,2.88-3.85A9.08,9.08,0,0,1,20,5.76C20.8,5.8,21.58,5.89,22.37,6Z"/><circle class="cls-2" cx="17.32" cy="11.05" r="2.94"/></g></svg>
