<svg xmlns="http://www.w3.org/2000/svg" viewBox="0 0 24 24"><defs><style>.cls-1{fill:#282828;}.cls-2{fill:#fff;}</style></defs><g id="Layer_2" data-name="Layer 2"><path class="cls-1" d="M24,12a12,12,0,0,0-1.78-6.3A11.74,11.74,0,0,0,21,4.09,12,12,0,0,0,12.24,0h-.66a12.08,12.08,0,0,0-1.21.1,12.31,12.31,0,0,0-2.1.48A12,12,0,0,0,0,12a11.87,11.87,0,0,0,2.33,7.1v0a12,12,0,0,0,4.71,3.81,11.61,11.61,0,0,0,2,.71A13,13,0,0,0,11,24c.35,0,.69,0,1,0a12,12,0,0,0,11.71-9.36,11.66,11.66,0,0,0,.27-2v-.05C24,12.41,24,12.2,24,12Z"/><path class="cls-2" d="M8,12.61A6.57,6.57,0,0,0,1.58,6,12,12,0,0,0,0,12a11.87,11.87,0,0,0,2.33,7.1v0A6.58,6.58,0,0,0,8,12.61Z"/><path class="cls-2" d="M24,12.61a4.19,4.19,0,0,0-2.89,7.22,12,12,0,0,0,2.62-5.19,11.66,11.66,0,0,0,.27-2Z"/><path class="cls-2" d="M15.49,11.37A14.9,14.9,0,0,0,10.37.11a12.31,12.31,0,0,0-2.1.48A13.26,13.26,0,0,1,7.05,22.93a11.61,11.61,0,0,0,2,.71A14.9,14.9,0,0,0,15.49,11.37Z"/></g></svg>
