<svg xmlns="http://www.w3.org/2000/svg" viewBox="0 0 24 24"><defs><style>.cls-1{fill:#282828;}.cls-2{fill:#fff;}</style></defs><g id="Layer_2" data-name="Layer 2"><path class="cls-1" d="M24,12a11.92,11.92,0,0,0-1-4.86,11.67,11.67,0,0,0-.65-1.27l-.11-.17a.67.67,0,0,0-.09-.14A11.18,11.18,0,0,0,21,4.09a13.13,13.13,0,0,0-2-1.84A12,12,0,0,0,12.24,0h-.66A11.94,11.94,0,0,0,3.63,3.4a12.9,12.9,0,0,0-1,1.17,12,12,0,0,0-2.31,10,11.67,11.67,0,0,0,.46,1.59,12,12,0,0,0,1.6,3l.18.24A11.94,11.94,0,0,0,11,24c.31,0,.61.05.92.05H12a12,12,0,0,0,5.69-1.43,12.69,12.69,0,0,0,1.11-.68,12.07,12.07,0,0,0,4.91-7.25,12.76,12.76,0,0,0,.27-2C24,12.44,24,12.22,24,12Z"/><path class="cls-2" d="M23,7.14a11.67,11.67,0,0,0-.65-1.27,13.92,13.92,0,0,0-5.51,11.5,15.51,15.51,0,0,0,.88,5.2,12.69,12.69,0,0,0,1.11-.68,13.61,13.61,0,0,1-.75-4.52A12.37,12.37,0,0,1,23,7.14Z"/><path class="cls-2" d="M4,6.72A15.71,15.71,0,0,0,3.63,3.4a12.9,12.9,0,0,0-1,1.17,15.22,15.22,0,0,1,.16,2.15A13.13,13.13,0,0,1,.27,14.54a11.67,11.67,0,0,0,.46,1.59A14.67,14.67,0,0,0,4,6.72Z"/><path class="cls-2" d="M13.36,20.26a5.46,5.46,0,0,0-10.85-.92A11.94,11.94,0,0,0,11,24c.31,0,.61.05.92.05A5.48,5.48,0,0,0,13.36,20.26Z"/><circle class="cls-2" cx="7.89" cy="10.66" r="2.19"/></g></svg>
