<svg xmlns="http://www.w3.org/2000/svg" viewBox="0 0 24 24"><defs><style>.cls-1{fill:#282828;}.cls-2{fill:#fff;}</style></defs><g id="Layer_2" data-name="Layer 2"><path class="cls-1" d="M24,12a12,12,0,0,1-1.78,6.3A11.74,11.74,0,0,1,21,19.91,12,12,0,0,1,12.24,24h-.66a12.08,12.08,0,0,1-1.21-.1,12.31,12.31,0,0,1-2.1-.48A12,12,0,0,1,0,12,11.87,11.87,0,0,1,2.33,4.9v0A12,12,0,0,1,7.05,1.07a11.61,11.61,0,0,1,2-.71A13,13,0,0,1,11,0c.35,0,.69,0,1,0A12,12,0,0,1,23.71,9.36a11.66,11.66,0,0,1,.27,2v.05C24,11.59,24,11.8,24,12Z"/><path class="cls-2" d="M8,11.39A6.57,6.57,0,0,1,1.58,18,12,12,0,0,1,0,12,11.87,11.87,0,0,1,2.33,4.9v0A6.58,6.58,0,0,1,8,11.39Z"/><path class="cls-2" d="M24,11.39a4.19,4.19,0,0,1-2.89-7.22,12,12,0,0,1,2.62,5.19,11.66,11.66,0,0,1,.27,2Z"/><path class="cls-2" d="M9.08.36a11.61,11.61,0,0,0-2,.71A13.26,13.26,0,0,1,8.27,23.41a12.31,12.31,0,0,0,2.1.48A14.95,14.95,0,0,0,9.08.36Z"/></g></svg>
