<svg xmlns="http://www.w3.org/2000/svg" viewBox="0 0 24 24"><defs><style>.cls-1{fill:#282828;}.cls-2{fill:#fff;}</style></defs><g id="Layer_2" data-name="Layer 2"><path class="cls-1" d="M24,12a12,12,0,0,1-1.78,6.3A11.74,11.74,0,0,1,21,19.91,12,12,0,0,1,12.24,24h-.89A12,12,0,0,1,0,12,12,12,0,0,1,10.17.14L11,0l.75,0H12A12,12,0,0,1,23.71,9.36a11.66,11.66,0,0,1,.27,2C24,11.56,24,11.78,24,12Z"/><path class="cls-2" d="M11.92,23.32a7.3,7.3,0,0,1-.57.66,11.9,11.9,0,0,1-7.58-3.25A11.82,11.82,0,0,0,5.67,20a11.84,11.84,0,0,0,5.68-6.09,15.3,15.3,0,0,0,.29-9.76,26,26,0,0,0-1.47-4L11,0l.75,0a13.83,13.83,0,0,1,.82,1.23A20.54,20.54,0,0,1,15,9.42C15.58,14.26,14.93,19.49,11.92,23.32Z"/></g></svg>
