<svg xmlns="http://www.w3.org/2000/svg" viewBox="0 0 24 24"><defs><style>.cls-1{fill:#282828;}.cls-2{fill:#fff;}</style></defs><g id="Layer_2" data-name="Layer 2"><path class="cls-1" d="M24,12a12,12,0,0,0-1.78-6.3.71.71,0,0,0-.1-.14A11.18,11.18,0,0,0,21,4.09a13.13,13.13,0,0,0-2-1.84A12,12,0,0,0,12.24,0h-.78A11.94,11.94,0,0,0,8.84.42Q8.41.54,8,.69A12.14,12.14,0,0,0,5.35,2,12,12,0,0,0,.92,16.62,12.2,12.2,0,0,0,5,21.78,12,12,0,0,0,11,24c.35,0,.69,0,1,0a11.85,11.85,0,0,0,6.22-1.74,11.71,11.71,0,0,0,2.31-1.83,11.74,11.74,0,0,0,3.18-5.79,9.88,9.88,0,0,0,.19-1.11,8,8,0,0,0,.08-.87C24,12.44,24,12.22,24,12Z"/><path class="cls-2" d="M8,1.35c0-.22,0-.44,0-.66A12.14,12.14,0,0,0,5.35,2,23.43,23.43,0,0,0,18.22,22.26a11.71,11.71,0,0,0,2.31-1.83A20.78,20.78,0,0,1,8,1.35Z"/><path class="cls-2" d="M23.9,13.53A20.83,20.83,0,0,1,11.46,0,11.94,11.94,0,0,0,8.84.42a23.45,23.45,0,0,0,14.44,15.7,12,12,0,0,0,.43-1.48A9.88,9.88,0,0,0,23.9,13.53Z"/><path class="cls-2" d="M6,19.44a3.32,3.32,0,0,0-3.33-3.32,3.28,3.28,0,0,0-1.75.5A12.2,12.2,0,0,0,5,21.78,3.36,3.36,0,0,0,6,19.44Z"/></g></svg>
