<svg xmlns="http://www.w3.org/2000/svg" viewBox="0 0 24 24"><defs><style>.cls-1{fill:#282828;}.cls-2{fill:#fff;}</style></defs><g id="Layer_2" data-name="Layer 2"><path class="cls-1" d="M24,12a12,12,0,0,0-1.78-6.3A11.74,11.74,0,0,0,21,4.09a11.61,11.61,0,0,0-1.28-1.25A12,12,0,0,0,13.92.15,15.2,15.2,0,0,0,12.24,0h-.89A12,12,0,0,0,0,12a11.87,11.87,0,0,0,2.33,7.1,11.7,11.7,0,0,0,1.81,2l.41.34a12,12,0,0,0,5.62,2.45L11,24l.75,0H12a12,12,0,0,0,11.71-9.36,11.66,11.66,0,0,0,.27-2C24,12.44,24,12.22,24,12Z"/><path class="cls-2" d="M19.75,2.84A12,12,0,0,0,13.92.15a13.09,13.09,0,0,0-4.66,3.1,19.44,19.44,0,0,0-4.85,11,40.31,40.31,0,0,0-.27,6.86l.41.34q.27-1.29.6-2.58c1.06-4.22,2.61-8.46,5.57-11.65A13.14,13.14,0,0,1,19.75,2.84Z"/><circle class="cls-2" cx="15.4" cy="13.02" r="3.15"/></g></svg>
