<svg xmlns="http://www.w3.org/2000/svg" viewBox="0 0 24 24"><defs><style>.cls-1{fill:#282828;}.cls-2{fill:#fff;}</style></defs><g id="Layer_2" data-name="Layer 2"><path class="cls-1" d="M24,12a12,12,0,0,1-1.78,6.3A11.74,11.74,0,0,1,21,19.91a12,12,0,0,1-6,3.7,11.67,11.67,0,0,1-2.79.39h-.66A12,12,0,0,1,0,12a12.49,12.49,0,0,1,.14-1.85A11.54,11.54,0,0,1,.46,8.71,11.68,11.68,0,0,1,2.33,4.9,12,12,0,0,1,11,0c.35,0,.69,0,1,0A12,12,0,0,1,23.71,9.36,12.7,12.7,0,0,1,24,11.24v.1C24,11.56,24,11.78,24,12Z"/><path class="cls-2" d="M24,12a12,12,0,0,1-1.78,6.3A11.74,11.74,0,0,1,21,19.91a12,12,0,0,1-6,3.7A21.75,21.75,0,0,0,9.22,15,21.7,21.7,0,0,0,.14,10.15,11.54,11.54,0,0,1,.46,8.71c1.14.33,2.27.78,3.4,1.1a58.13,58.13,0,0,0,9.1,2,30,30,0,0,0,11-.54v.1C24,11.56,24,11.78,24,12Z"/><circle class="cls-1" cx="17.61" cy="16.51" r="2.62"/></g></svg>
