<svg xmlns="http://www.w3.org/2000/svg" viewBox="0 0 24 24"><defs><style>.cls-1{fill:#282828;}.cls-2{fill:#fff;}</style></defs><g id="Layer_2" data-name="Layer 2"><path class="cls-1" d="M24,12a12,12,0,0,1-1.78,6.3.71.71,0,0,1-.1.14A11.18,11.18,0,0,1,21,19.91a13.13,13.13,0,0,1-2,1.84A12,12,0,0,1,12.24,24h-.78a11.94,11.94,0,0,1-2.62-.41q-.43-.12-.84-.27A12.14,12.14,0,0,1,5.35,22,12,12,0,0,1,.92,7.38,12.2,12.2,0,0,1,5,2.22,12,12,0,0,1,11,0c.35,0,.69,0,1,0a11.85,11.85,0,0,1,6.22,1.74,11.71,11.71,0,0,1,2.31,1.83,11.74,11.74,0,0,1,3.18,5.79,9.88,9.88,0,0,1,.19,1.11,8,8,0,0,1,.08.87C24,11.56,24,11.78,24,12Z"/><path class="cls-2" d="M20.53,3.57a11.71,11.71,0,0,0-2.31-1.83A23.43,23.43,0,0,0,5.35,22,12.14,12.14,0,0,0,8,23.31c0-.22,0-.44,0-.66A20.78,20.78,0,0,1,20.53,3.57Z"/><path class="cls-2" d="M23.71,9.36a12,12,0,0,0-.43-1.48A23.45,23.45,0,0,0,8.84,23.58a11.94,11.94,0,0,0,2.62.41A20.83,20.83,0,0,1,23.9,10.47,9.88,9.88,0,0,0,23.71,9.36Z"/><path class="cls-2" d="M6,4.56A3.32,3.32,0,0,1,2.67,7.88a3.28,3.28,0,0,1-1.75-.5A12.2,12.2,0,0,1,5,2.22,3.36,3.36,0,0,1,6,4.56Z"/></g></svg>
