<?xml version="1.0" encoding="utf-8"?>
<!-- Generator: Adobe Illustrator 19.2.1, SVG Export Plug-In . SVG Version: 6.00 Build 0)  -->
<svg version="1.1" id="Layer_1" xmlns="http://www.w3.org/2000/svg" xmlns:xlink="http://www.w3.org/1999/xlink" x="0px" y="0px"
	 viewBox="0 0 1862 393" style="enable-background:new 0 0 1862 393;" xml:space="preserve">
<style type="text/css">
	.st0{fill:#FFFFFF;}
	.st1{fill:#F37726;}
</style>
<title>fulllogo-greytext-orangebody-greymoons (1)</title>
<desc>Created with Sketch.</desc>
<g id="Page-1">
	<g id="fulllogo-greytext-orangebody-greymoons-_x28_1_x29_" transform="translate(0.000000, -1.000000)">
		<g id="logo.svg" transform="translate(0.000000, 36.742268)">
			<g id="Canvas">
				<g id="logo">
					<g id="Group" transform="translate(0.720186, 1.080655)">
						<g id="g">
							<g id="path" transform="translate(0.000000, 58.955731)">
								<g id="path0-fill">
									<g id="path0_fill-link" transform="translate(0.087623, 0.140485)">
										<path id="path0_fill" class="st0" d="M53.3,170.1c0,48.8-3.7,64.8-13.6,76.5c-10.8,10-25,15.6-39.7,15.5l3.7,29
											c22.8,0.3,44.9-7.9,61.9-23.1c17.8-18.5,24-44.1,24-83.4V0H53.3v170.3L53.3,170.1L53.3,170.1z"/>
									</g>
								</g>
							</g>
							<g id="path_1_" transform="translate(155.079956, 56.914494)">
								<g id="path1-fill">
									<g id="path1_fill-link" transform="translate(1.562803, 1.802292)">
										<path id="path1_fill" class="st0" d="M168.2,148.2c0,21,0,39.6,1.7,55.5H138l-2.1-33.4h-0.8c-6.7,11.7-16.4,21.3-28,28
											c-11.6,6.6-24.8,10-38.2,9.8c-31.4,0-69-17.7-69-89.1V0h36.4v112.9c0,38.7,11.6,64.8,44.6,64.8
											c10.4-0.2,20.4-3.5,28.9-9.4c8.5-5.9,15.1-14.3,19-24c2.2-6.1,3.3-12.5,3.3-18.9V0.2h36.4v148H168.2L168.2,148.2z"/>
									</g>
								</g>
							</g>
							<g id="path_2_" transform="translate(390.100509, 53.552456)">
								<g id="path2-fill">
									<g id="path2_fill-link" transform="translate(1.706840, 0.231740)">
										<path id="path2_fill" class="st0" d="M1.7,71.5c0-26-0.8-47.1-1.7-66.8h32.7l1.7,34.9h0.8c7.1-12.5,17.5-22.8,30.1-29.8
											c12.5-7,26.7-10.4,41-9.8c48.3,0,84.7,41.7,84.7,103.5c0,73.2-43.8,109.3-91,109.3c-12.1,0.5-24.2-2.2-35-7.8
											c-10.8-5.6-19.9-13.9-26.6-24.2h-0.8v110.6h-36V71.2L1.7,71.5L1.7,71.5z M37.6,125.7c0.1,5.1,0.6,10.1,1.7,15.1
											c3,12.3,9.9,23.3,19.8,31.2c9.9,7.9,22.1,12.1,34.7,12.1c38.5,0,60.7-32,60.7-78.6c0-40.8-21.1-75.7-59.5-75.7
											c-12.9,0.4-25.3,5.1-35.3,13.4c-10,8.3-16.9,19.7-19.6,32.4c-1.5,4.9-2.3,10-2.5,15.1V125.7L37.6,125.7L37.6,125.7z"/>
									</g>
								</g>
							</g>
							<g id="path_3_" transform="translate(606.876361, 56.914494)">
								<g id="path3-fill">
									<g id="path3_fill-link" transform="translate(0.751394, 1.992007)">
										<path id="path3_fill" class="st0" d="M39.5,0l43.8,120.2c4.5,13.4,9.5,29.5,12.8,41.7h0.8c3.7-12.2,7.9-27.8,12.8-42.5
											L149.4,0.1h38.5l-54.5,145.1c-26.1,69.8-43.8,105.6-68.6,127.4c-12.5,11.8-27.9,20-44.6,23.9l-9.1-31.1
											c11.7-3.9,22.5-10.1,31.8-18.1c13.2-11.2,23.7-25.3,30.6-41.2c1.5-2.8,2.5-5.7,2.9-8.8c-0.3-3.3-1.2-6.6-2.5-9.7L0,0.1
											h39.7L39.5,0L39.5,0z"/>
									</g>
								</g>
							</g>
							<g id="path_4_" transform="translate(822.932028, 0.000000)">
								<g id="path4-fill">
									<g id="path4_fill-link" transform="translate(1.464377, 0.379430)">
										<path id="path4_fill" class="st0" d="M66.6,0v58.4h52v28.2h-52v109.6c0,25,7,39.6,27.3,39.6c7.1,0.1,14.2-0.7,21.1-2.5
											l1.7,27.8c-10.4,3.7-21.3,5.4-32.3,5c-7.3,0.4-14.6-0.7-21.3-3.4c-6.8-2.7-12.9-6.8-17.9-12.1c-10.3-10.9-14.1-29-14.1-53
											v-111H0V58.4h31V9.6L66.6,0L66.6,0z"/>
									</g>
								</g>
							</g>
							<g id="path_5_" transform="translate(974.651118, 53.552456)">
								<g id="path5-fill">
									<g id="path5_fill-link" transform="translate(0.990255, 0.611170)">
										<path id="path5_fill" class="st0" d="M34.4,113.1c0.8,50.1,32.3,70.7,68.6,70.7c19,0.6,37.9-3,55.3-10.5l6.2,26.5
											c-20.9,8.9-43.5,13.2-66.2,12.6C36.8,212.4,0,171.1,0,109.7C0,48.3,35.6,0,93.8,0c65.3,0,82.7,58.4,82.7,95.9
											c-0.1,5.8-0.5,11.5-1.2,17.3H34.7H34.4L34.4,113.1z M141,86.7c0.4-23.5-9.5-60.2-50.4-60.2c-36.8,0-52.9,34.5-55.7,60.2
											H141L141,86.7L141,86.7z"/>
									</g>
								</g>
							</g>
							<g id="path_6_" transform="translate(1202.229753, 53.552456)">
								<g id="path6-fill">
									<g id="path6_fill-link" transform="translate(1.179904, 0.706028)">
										<path id="path6_fill" class="st0" d="M1.7,68.1C1.7,44.1,1.2,23.5,0,4.6h31.8l1.2,40h1.7C43.8,17.2,65.8,0,90.1,0
											c3.5-0.1,7,0.4,10.3,1.3v34.9c-4.1-0.9-8.2-1.3-12.4-1.3c-25.6,0-43.8,19.8-48.7,47.5c-1,5.7-1.6,11.5-1.7,17.3v108.5h-36
											V68.1L1.7,68.1z"/>
									</g>
								</g>
							</g>
						</g>
					</g>
				</g>
			</g>
		</g>
		<path id="jupyterlab" class="st1" d="M1353.4,300.1h37V1.5h-37V300.1z M1606,300.1c-2.5-13.9-3.4-31.1-3.4-48.8v-76.1
			c0-40.8-15.1-83.3-77.3-83.3c-25.6,0-50,7.1-66.8,18.1l8.4,24.4c14.3-9.3,34-15.1,53-15.1c41.6,0,46.2,30.3,46.2,47.1v4.2
			c-78.6-0.4-122.3,26.5-122.3,75.7c0,29.4,21,58.4,62.2,58.4c29,0,50.9-14.3,62.2-30.3h1.3l2.9,25.7H1606z M1566.9,231.5
			c0,3.8-0.8,8-2.1,11.8c-5.9,17.2-22.7,34.1-49.2,34.1c-18.9,0-34.9-11.4-34.9-35.3c0-39.5,45.8-46.7,86.2-45.8V231.5z
			 M1699.7,300.1l1.7-33.6h1.3c15.1,26.9,38.7,38.3,68.1,38.3c45.4,0,91.2-36.2,91.2-108.9c0.4-61.8-35.3-103.9-85.8-103.9
			c-32.8,0-56.3,14.7-69.4,37.4h-0.8V1.5h-36.6v246c0,18.1-0.8,38.7-1.7,52.6H1699.7z M1706,181.9c0-5.9,1.3-10.9,2.1-15.1
			c7.6-28.2,31.1-45.4,56.3-45.4c39.5,0,60.5,34.9,60.5,75.7c0,46.7-23.1,78.2-61.8,78.2c-26.9,0-48.3-17.7-55.5-43.3
			c-0.8-4.2-1.7-8.8-1.7-13.5V181.9z"/>
	</g>
</g>
</svg>
