<svg width="16" height="16" viewBox="0 0 16 16" fill="none" xmlns="http://www.w3.org/2000/svg">
<path d="M14.9991 5.50088C15.0304 6.61916 14.634 7.70725 13.8907 8.54339C13.1475 9.37953 12.1134 9.90077 10.9991 10.0009C10.9909 9.65848 10.9232 9.32011 10.7991 9.00088C11.6689 8.91143 12.4755 8.50545 13.0655 7.86014C13.6555 7.21482 13.9878 6.37518 13.9991 5.50088C13.9959 4.59898 13.6452 3.73302 13.0201 3.0829C12.395 2.43279 11.5434 2.0485 10.6423 2.00989C9.74125 1.97127 8.85994 2.28129 8.18148 2.87553C7.50302 3.46978 7.07959 4.30257 6.99915 5.20088C6.67717 5.08646 6.34037 5.0191 5.99915 5.00088C6.14761 3.90647 6.68305 2.9014 7.50851 2.16766C8.33397 1.43392 9.39488 1.02001 10.4991 1.00088C11.0908 0.998366 11.6771 1.11305 12.2242 1.3383C12.7713 1.56356 13.2684 1.89493 13.6867 2.31329C14.1051 2.73166 14.4365 3.22873 14.6617 3.77583C14.887 4.32293 15.0017 4.90923 14.9991 5.50088ZM5.49915 6.00088C4.60913 6.00088 3.7391 6.2648 2.99908 6.75927C2.25906 7.25373 1.68228 7.95654 1.34169 8.7788C1.0011 9.60107 0.91198 10.5059 1.08561 11.3788C1.25925 12.2517 1.68783 13.0535 2.31717 13.6829C2.9465 14.3122 3.74833 14.7408 4.62124 14.9144C5.49416 15.088 6.39896 14.9989 7.22122 14.6583C8.04349 14.3177 8.74629 13.741 9.24076 13.0009C9.73523 12.2609 9.99915 11.3909 9.99915 10.5009C9.99915 9.90993 9.88275 9.32477 9.65661 8.7788C9.43046 8.23284 9.09899 7.73676 8.68113 7.3189C8.26326 6.90104 7.76719 6.56957 7.22122 6.34342C6.67526 6.11728 6.0901 6.00088 5.49915 6.00088Z" fill="#616161"/>
</svg>
