<?xml version="1.0" encoding="UTF-8" standalone="no"?>
<svg width="2340px" height="475px" viewBox="0 0 2340 475" version="1.1" xmlns="http://www.w3.org/2000/svg" xmlns:xlink="http://www.w3.org/1999/xlink">
    <!-- Generator: Sketch 39.1 (31720) - http://www.bohemiancoding.com/sketch -->
    <title>fulllogo-greytext-orangebody-greymoons (1)</title>
    <desc>Created with Sketch.</desc>
    <defs></defs>
    <g id="Page-1" stroke="none" stroke-width="1" fill="none" fill-rule="evenodd">
        <g id="fulllogo-greytext-orangebody-greymoons-(1)" transform="translate(-1.000000, 0.000000)">
            <g id="logo.svg">
                <g id="Canvas">
                    <g id="logo">
                        <g id="Group" transform="translate(480.136401, 64.271493)" fill="#4E4E4E">
                            <g id="g">
                                <g id="path" transform="translate(0.000000, 58.875566)">
                                    <g id="path0-fill">
                                        <g id="path0_fill-link" transform="translate(0.087603, 0.140294)">
                                            <path d="M53.3355435,169.825478 C53.3355435,218.573715 49.6145164,234.489998 39.6915562,246.239175 C28.8596226,256.241558 14.6917527,261.773703 0,261.738653 L3.72108399,290.736944 C26.4929546,291.05239 48.5678886,282.825219 65.6565516,267.655396 C83.4350028,249.155866 89.6368411,223.573485 89.6368411,184.32557 L89.6368411,0 L53.2528751,0 L53.2528751,170.075561 L53.3355435,169.825478 L53.3355435,169.825478 Z" id="path0_fill"></path>
                                        </g>
                                    </g>
                                </g>
                                <g id="path" transform="translate(155.045296, 56.837104)">
                                    <g id="path1-fill">
                                        <g id="path1_fill-link" transform="translate(1.562453, 1.799842)">
                                            <path d="M168.193269,147.993399 C168.193269,168.992814 168.193269,187.491397 169.846638,203.407681 L138.010762,203.407681 L135.944052,170.075561 L135.116419,170.075561 C128.414778,181.725273 118.752432,191.363898 107.124815,197.998683 C95.4971981,204.634415 82.3249517,208.025695 68.9641417,207.823924 C37.5416084,207.823924 0,190.158005 0,118.828386 L0,0 L36.383966,0 L36.383966,112.744921 C36.383966,151.410256 47.9606739,177.408495 80.9542865,177.408495 C91.3042404,177.21809 101.368363,173.953746 109.884538,168.023742 C118.40166,162.094684 124.992382,153.76426 128.831913,144.077322 C131.038932,138.019434 132.159506,131.613893 132.139598,125.160987 L132.139598,0.166659651 L168.524133,0.166659651 L168.524133,147.993399 L168.193269,147.993399 L168.193269,147.993399 Z" id="path1_fill"></path>
                                        </g>
                                    </g>
                                </g>
                                <g id="path" transform="translate(390.013322, 53.479638)">
                                    <g id="path2-fill">
                                        <g id="path2_fill-link" transform="translate(1.706458, 0.231425)">
                                            <path d="M1.65381405,71.390434 C1.65381405,45.3915322 0.826907974,24.3924958 0,4.72664936 L32.6628441,4.72664936 L34.3166866,39.558435 L35.1435605,39.558435 C42.2892598,27.0784279 52.6826336,16.8028478 65.2013064,9.84162876 C77.7198844,2.88047602 91.8878492,-0.501787321 106.174887,0.0601848095 C154.466708,0.0601848095 190.850295,41.7250654 190.850295,103.388587 C190.850295,176.468788 147.107133,212.550876 99.8903801,212.550876 C87.7699757,213.063357 75.7256035,210.390119 64.9396495,204.795453 C54.1536954,199.19984 44.9970298,190.874152 38.368577,180.635895 L37.5416084,180.635895 L37.5416084,291.047653 L1.57112667,291.047653 L1.57112667,71.0570844 L1.65381405,71.390434 L1.65381405,71.390434 Z M37.6243716,125.555057 C37.7192696,130.622085 38.2728258,135.671115 39.2781193,140.63773 C42.2418581,152.955278 49.223927,163.913472 59.1049842,171.755098 C68.9861361,179.597671 81.1938543,183.868979 93.7713999,183.885083 C132.223025,183.885083 154.466708,151.970102 154.466708,105.389253 C154.466708,64.640649 133.380572,29.8088823 95.0118055,29.8088823 C82.1080419,30.1727345 69.6953591,34.8727841 59.7468021,43.1619074 C49.7981502,51.4511254 42.8846241,62.8535957 40.1050879,75.5568779 C38.6476778,80.4583203 37.8140729,85.5263902 37.6243716,90.6395508 L37.6243716,125.471696 L37.6243716,125.555057 L37.6243716,125.555057 Z" id="path2_fill"></path>
                                        </g>
                                    </g>
                                </g>
                                <g id="path" transform="translate(606.740726, 56.837104)">
                                    <g id="path3-fill">
                                        <g id="path3_fill-link" transform="translate(0.751226, 1.989299)">
                                            <path d="M39.4435509,0 L83.1869976,120.077855 C87.7349933,133.494254 92.696426,149.493898 96.0043954,161.743242 L96.8310796,161.743242 C100.552107,149.57726 104.686476,133.99442 109.648477,119.328553 L149.339749,0.0833297308 L187.790995,0.0833297308 L133.297145,144.993347 C107.249956,214.657638 89.5541727,250.405335 64.7469145,272.238361 C52.2117459,283.987538 36.8473643,292.23176 20.176594,296.15352 L11.0806025,265.07215 C22.7444345,261.156073 33.5525725,255.016719 42.9165728,246.989425 C56.1480712,235.847458 66.6231654,221.753751 73.5121375,205.824205 C74.9829149,203.073289 75.9626116,200.083657 76.4062908,196.991719 C76.0796936,193.65917 75.2428654,190.398615 73.9255744,187.324675 L0,0.0833297308 L39.6915562,0.0833297308 L39.4435509,0 L39.4435509,0 Z" id="path3_fill"></path>
                                        </g>
                                    </g>
                                </g>
                                <g id="path" transform="translate(822.748104, 0.000000)">
                                    <g id="path4-fill">
                                        <g id="path4_fill-link" transform="translate(1.464050, 0.378914)">
                                            <path d="M66.5660938,0 L66.5660938,58.3307832 L118.578943,58.3307832 L118.578943,86.4962206 L66.5660938,86.4962206 L66.5660938,195.991386 C66.5660938,220.990239 73.5948059,235.489384 93.8540683,235.489384 C100.961657,235.601164 108.051991,234.759975 114.940394,232.989499 L116.593763,260.73832 C106.245989,264.410945 95.3094877,266.106585 84.3446399,265.738091 C77.0731367,266.187104 69.7919636,265.033311 63.0083179,262.356283 C56.224767,259.679256 50.1019946,255.544356 45.0665206,250.238613 C34.7301235,239.323047 31.0090964,221.240322 31.0090964,197.325163 L31.0090964,86.4962206 L0,86.4962206 L0,58.3307832 L31.0090964,58.3307832 L31.0090964,9.5829252 L66.5660938,0 L66.5660938,0 Z" id="path4_fill"></path>
                                        </g>
                                    </g>
                                </g>
                                <g id="path" transform="translate(974.433286, 53.479638)">
                                    <g id="path5-fill">
                                        <g id="path5_fill-link" transform="translate(0.990034, 0.610339)">
                                            <path d="M34.399355,112.995005 C35.2263237,162.992711 66.6487622,183.575321 102.949681,183.575321 C121.928341,184.175899 140.808406,180.59232 158.270214,173.075613 L164.472242,199.491604 C143.550116,208.345878 121.004957,212.634237 98.3194905,212.074392 C36.797403,212.074392 0,170.909172 0,109.578148 C0,48.2478809 35.5570922,0 93.7713999,0 C159.01442,0 176.462008,58.3307832 176.462008,95.745891 C176.400386,101.515804 175.987044,107.276245 175.221981,112.995005 L34.6474551,112.995005 L34.399355,112.995005 L34.399355,112.995005 Z M140.987584,86.5795817 C141.400926,63.0805652 131.478819,26.4988788 90.6291466,26.4988788 C53.8317436,26.4988788 37.7897085,60.9140295 34.8955552,86.5795817 L141.070063,86.5795817 L140.987584,86.5795817 L140.987584,86.5795817 Z" id="path5_fill"></path>
                                        </g>
                                    </g>
                                </g>
                                <g id="path" transform="translate(1201.961058, 53.479638)">
                                    <g id="path6-fill">
                                        <g id="path6_fill-link" transform="translate(1.179640, 0.705068)">
                                            <path d="M1.65381405,68.0012375 C1.65381405,44.085605 1.24035817,23.5031845 0,4.58733214 L31.8359703,4.58733214 L33.076281,44.502221 L34.7301235,44.502221 C43.826115,17.1701102 65.73922,0.00419486247 90.050278,0.00419486247 C93.5357191,-0.0471615344 97.0121538,0.373241684 100.386201,1.25413912 L100.386201,36.0859721 C96.313454,35.1910719 92.151497,34.7717088 87.9829986,34.8360295 C62.3488666,34.8360295 44.239552,54.5851233 39.2781193,82.2505837 C38.2546235,87.94443 37.7014466,93.7138698 37.6242768,99.4999817 L37.6242768,207.82866 L1.65381405,207.82866 L1.65381405,68.0012375 L1.65381405,68.0012375 Z" id="path6_fill"></path>
                                        </g>
                                    </g>
                                </g>
                            </g>
                        </g>
                        <g id="g">
                            <g id="path" transform="translate(293.890039, 0.000000)" fill="#767677">
                                <g id="path7-fill">
                                    <g id="path7_fill-link" transform="translate(0.804027, 0.898122)">
                                        <path d="M55.8725729,26.9407873 C56.112994,32.507508 54.7095268,38.0208966 51.8398328,42.7836564 C48.9701388,47.5463216 44.7630555,51.3442716 39.750903,53.6969488 C34.7387506,56.0497207 29.1466868,56.8514081 23.682323,56.0007461 C18.2179591,55.1499894 13.1267408,52.6851536 9.05274227,48.9178956 C4.97878167,45.1507324 2.10516279,40.2504267 0.795434247,34.8370715 C-0.514291452,29.4237162 -0.201267275,23.7405742 1.69490178,18.50654 C3.59108031,13.2724111 6.98518793,8.72276194 11.4478702,5.43303983 C15.9104483,2.14331772 21.2411396,0.261373949 26.7654191,0.0253142041 C34.1660443,-0.290925454 41.3885342,2.3662139 46.8462618,7.41298877 C52.3039894,12.4597352 55.5505263,19.4833804 55.8725729,26.9407873 L55.8725729,26.9407873 Z" id="path7_fill"></path>
                                    </g>
                                </g>
                            </g>
                            <g id="path" transform="translate(13.560463, 290.300905)" fill="#F37726">
                                <g id="path8-fill">
                                    <g id="path8_fill-link" transform="translate(0.895231, 1.129548)">
                                        <path d="M173.154323,67.5803588 C98.7328326,67.5803588 33.737818,40.331609 0,0 C12.5651264,36.1900787 35.9831379,67.5490983 67.0126171,89.7365987 C98.042665,111.923625 135.148653,123.842366 173.196036,123.842366 C211.24342,123.842366 248.349407,111.923625 279.379455,89.7365987 C310.408555,67.5490983 333.826851,36.1900787 346.392072,0 C312.571017,40.331609 247.576761,67.5803588 173.154323,67.5803588 L173.154323,67.5803588 Z" id="path8_fill"></path>
                                    </g>
                                </g>
                            </g>
                            <g id="path" transform="translate(13.560463, 39.929864)" fill="#F37726">
                                <g id="path9-fill">
                                    <g id="path9_fill-link" transform="translate(0.800427, 0.470045)">
                                        <path d="M173.236802,56.2621968 C247.65924,56.2621968 312.654444,83.5110412 346.392072,123.842366 C333.826851,87.6525715 310.408555,56.2935519 279.379455,34.1060516 C248.349407,11.9185513 211.24342,0 173.196036,0 C135.148653,0 98.042665,11.9185513 67.0126171,34.1060516 C35.9831379,56.2935519 12.5651264,87.6525715 0,123.842366 C33.8205813,83.5944023 98.8153114,56.2621968 173.236802,56.2621968 L173.236802,56.2621968 Z" id="path9_fill"></path>
                                    </g>
                                </g>
                            </g>
                            <g id="path" transform="translate(13.560463, 401.936652)" fill="#989798">
                                <g id="path10-fill">
                                    <g id="path10_fill-link" transform="translate(1.464050, 1.557624)">
                                        <path d="M70.4188026,33.9448237 C70.7239742,40.9634482 68.9556094,47.9154786 65.3377283,53.9206975 C61.7198471,59.9259165 56.4150371,64.7143478 50.095074,67.679729 C43.7751109,70.6450154 36.7240253,71.6539687 29.8347687,70.5787055 C22.9454174,69.5034422 16.5276174,66.3923686 11.3938324,61.6393657 C6.26012328,56.8863629 2.64131302,50.7051384 0.995595168,43.8784338 C-0.650119843,37.0516345 -0.248726724,29.8862755 2.14895241,23.2895718 C4.54664007,16.6927733 8.83278928,10.9613197 14.4646989,6.82076509 C20.0966749,2.68020101 26.8211634,0.31676739 33.7868313,0.0296826092 C43.103904,-0.354315876 52.191932,3.00010865 59.0587202,9.35761345 C65.9255083,15.7150804 70.0106747,24.5569445 70.4188026,33.9448237 L70.4188026,33.9448237 L70.4188026,33.9448237 Z" id="path10_fill"></path>
                                    </g>
                                </g>
                            </g>
                            <g id="path" transform="translate(0.000000, 45.325792)" fill="#6F7070">
                                <g id="path11-fill">
                                    <g id="path11_fill-link" transform="translate(1.372847, 0.568371)">
                                        <path d="M21.5649874,41.6453987 C17.4782094,41.8233936 13.4308696,40.7754121 9.93528458,38.6343584 C6.43968061,36.49321 3.65303422,33.3552334 1.92802294,29.617436 C0.203007863,25.8796386 -0.38281358,21.7101634 0.244702327,17.6366481 C0.872219182,13.5632276 2.68486563,9.76897199 5.45320552,6.73408851 C8.2215454,3.69924292 11.8211106,1.56025429 15.7963052,0.587877535 C19.7714998,-0.384500167 23.9436007,-0.146558262 27.7845539,1.27158811 C31.6255071,2.68973069 34.9626759,5.22432451 37.3735222,8.55455253 C39.7843686,11.8848279 41.1606272,15.8609623 41.3280497,19.9797577 C41.5521646,25.4921043 39.597227,30.8690838 35.8922216,34.930758 C32.1872163,38.9925269 27.0346603,41.407346 21.5649874,41.6453987 L21.5649874,41.6453987 L21.5649874,41.6453987 Z" id="path11_fill"></path>
                                    </g>
                                </g>
                            </g>
                        </g>
                    </g>
                </g>
            </g>
            <path d="M1832.47628,326.153846 L1869.45866,326.153846 L1869.45866,28.0084615 L1832.47628,28.0084615 L1832.47628,326.153846 Z M2085.04506,326.153846 C2082.52354,312.296385 2081.68303,295.079538 2081.68303,277.442769 L2081.68303,201.436692 C2081.68303,160.704154 2066.55387,118.291923 2004.35623,118.291923 C1978.72071,118.291923 1954.34596,125.430615 1937.53578,136.348615 L1945.94087,160.704154 C1960.22952,151.465846 1979.98147,145.586923 1998.89292,145.586923 C2040.4981,145.586923 2045.1209,175.821385 2045.1209,192.618308 L2045.1209,196.817538 C1966.53333,196.397615 1922.82688,223.272692 1922.82688,272.403692 C1922.82688,301.798308 1943.8396,330.773 1985.02453,330.773 C2014.02208,330.773 2035.8753,316.495615 2047.22217,300.538538 L2048.48293,300.538538 L2051.42471,326.153846 L2085.04506,326.153846 Z M2045.96141,257.706385 C2045.96141,261.485692 2045.1209,265.684923 2043.86014,269.464231 C2037.97657,286.681077 2021.1664,303.478 1994.69038,303.478 C1975.77893,303.478 1959.80926,292.140077 1959.80926,268.204462 C1959.80926,228.731692 2005.61699,221.593 2045.96141,222.432846 L2045.96141,257.706385 Z M2178.7577,326.153846 L2180.43872,292.56 L2181.69948,292.56 C2196.82864,319.435077 2220.36289,330.773 2249.78069,330.773 C2295.16816,330.773 2340.97589,294.659615 2340.97589,222.012923 C2341.39614,160.284231 2305.67452,118.291923 2255.244,118.291923 C2222.46416,118.291923 2198.92991,132.989231 2185.90203,155.665077 L2185.06152,155.665077 L2185.06152,28.0084615 L2148.49939,28.0084615 L2148.49939,273.663462 C2148.49939,291.720154 2147.65888,312.296385 2146.81837,326.153846 L2178.7577,326.153846 Z M2185.06152,208.155462 C2185.06152,202.276538 2186.32228,197.237462 2187.16279,193.038231 C2194.72737,164.903385 2218.26161,147.686538 2243.47687,147.686538 C2282.98078,147.686538 2303.9935,182.540154 2303.9935,223.272692 C2303.9935,269.884154 2280.87951,301.378385 2242.21611,301.378385 C2215.31983,301.378385 2193.88686,283.741615 2186.74254,258.126308 C2185.90203,253.927077 2185.06152,249.307923 2185.06152,244.688769 L2185.06152,208.155462 Z" id="jupyterlab" fill="#F37726"></path>
        </g>
    </g>
</svg>
