<svg xmlns="http://www.w3.org/2000/svg" width="16" version="1.1" viewBox="0 0 16 16">
  <path fill="#333" d="M8 .29c-1.4 0-2.7.73-3.6 1.8-1.2 1.5-1.4 3.4-1.5 5.2-.18 2.2-.44 4-2.3 5.3l.28 1.3h5c.026.66.32 1.1.71 1.5.84.61 2 .61 2.8 0 .52-.4.6-1 .71-1.5h5l.28-1.3c-1.9-.97-2.2-3.3-2.3-5.3-.13-1.8-.26-3.7-1.5-5.2-.85-1-2.2-1.8-3.6-1.8zm0 1.4c.88 0 1.9.55 2.5 1.3.88 1.1 1.1 2.7 1.2 4.4.13 1.7.23 3.6 1.3 5.2H3c1.1-1.6 1.2-3.4 1.3-5.2.13-1.7.3-3.3 1.2-4.4.59-.72 1.6-1.3 2.5-1.3m-.74 12h1.5c-.001.28.015.79-.74.79-.73.002-.72-.53-.74-.79z" class="jp-icon2 jp-icon-selectable"/>
</svg>
