<svg xmlns="http://www.w3.org/2000/svg" width="16" viewBox="0 0 16 16" version="1.1">
   <path class="jp-icon2 jp-icon-selectable" fill="#333333"
      d="m8 0.29c-1.4 0-2.7 0.73-3.6 1.8-1.2 1.5-1.4 3.4-1.5 5.2-0.18 2.2-0.44 4-2.3 5.3l0.28 1.3h5c0.026 0.66 0.32 1.1 0.71 1.5 0.84 0.61 2 0.61 2.8 0 0.52-0.4 0.6-1 0.71-1.5h5l0.28-1.3c-1.9-0.97-2.2-3.3-2.3-5.3-0.13-1.8-0.26-3.7-1.5-5.2-0.85-1-2.2-1.8-3.6-1.8zm0 1.4c0.88 0 1.9 0.55 2.5 1.3 0.88 1.1 1.1 2.7 1.2 4.4 0.13 1.7 0.23 3.6 1.3 5.2h-10c1.1-1.6 1.2-3.4 1.3-5.2 0.13-1.7 0.3-3.3 1.2-4.4 0.59-0.72 1.6-1.3 2.5-1.3zm-0.74 12h1.5c-0.0015 0.28 0.015 0.79-0.74 0.79-0.73 0.0016-0.72-0.53-0.74-0.79z" />
</svg>
