<svg xmlns="http://www.w3.org/2000/svg" width="16" height="16" viewBox="0 0 16 16" version="1.1">
   <path class="jp-icon2 jp-icon-selectable" stroke="#000000"
      style="fill:none;stroke-width:1.005;stroke-linecap:butt;stroke-linejoin:miter;stroke-miterlimit:4;stroke-dasharray:none;stroke-opacity:1"
      d="m 6.3717744,13.528378 c 0,0 0.078631,1.293712 0.5427417,1.628226 0.5870605,0.42313 1.5839081,0.42313 2.1709683,0 0.4641119,-0.334511 0.5427422,-1.628226 0.5427422,-1.628226 m -9.22661483,0 H 15.598388 c 0,0 -1.249188,-0.554618 -1.628225,-1.085484 C 11.904763,9.550169 13.497608,4.8895924 11.256452,2.1307954 10.491236,1.1888357 9.2136088,0.50256933 8.0000005,0.50256933 6.7863923,0.50256933 5.5087648,1.1888356 4.7435483,2.1307954 2.5023936,4.8895924 4.095237,9.550169 2.0298378,12.442894 1.6508005,12.97376 0.40161177,13.528378 0.40161177,13.528378 Z" />
</svg>
