<svg xmlns="http://www.w3.org/2000/svg" width="16" viewBox="0 0 16 16" version="1.1">
   <path class="jp-icon2 jp-icon-selectable" stroke="#000000"
      style="fill:none;stroke-width:1;stroke-linecap:butt;stroke-linejoin:miter;stroke-miterlimit:4;stroke-dasharray:none;stroke-opacity:1"
      d="m 6.4730368,13.184615 c 0,0 0.073741,1.213254 0.5089876,1.526964 0.5505502,0.396815 1.4854021,0.396815 2.035952,0 0.4352479,-0.313707 0.5089881,-1.526964 0.5089881,-1.526964 m -8.65279535,0 H 15.125831 c 0,0 -1.171498,-0.520125 -1.526962,-1.017976 C 11.661919,9.4538174 13.155703,5.0830903 11.053928,2.4958678 10.336302,1.6124902 9.1381325,0.96890399 8.0000006,0.96890399 c -1.1381317,0 -2.3363013,0.64358611 -3.0539277,1.52696381 -2.1017733,2.5872225 -0.6079916,6.9579496 -2.54494,9.6707712 -0.3554643,0.497851 -1.52696375,1.017976 -1.52696375,1.017976 z" />
</svg>
