<svg viewBox="0 0 24 24" fill="none" xmlns="http://www.w3.org/2000/svg">
    <rect class="jp-icon2 jp-icon-selectable" width="20" height="20" transform="translate(2 2)" fill="#333333"/>
    <path class="jp-icon-accent2 jp-icon-selectable-inverse" d="M5.05664 8.76172C5.05664 8.59766 5.03125 8.45312 4.98047 8.32812C4.93359 8.19922 4.85547 8.08203 4.74609 7.97656C4.64062 7.87109 4.5 7.77539 4.32422 7.68945C4.15234 7.59961 3.94336 7.51172 3.69727 7.42578C3.30273 7.28516 2.94336 7.13672 2.61914 6.98047C2.29492 6.82422 2.01758 6.64258 1.78711 6.43555C1.56055 6.22852 1.38477 5.98828 1.25977 5.71484C1.13477 5.4375 1.07227 5.10938 1.07227 4.73047C1.07227 4.39844 1.12891 4.0957 1.24219 3.82227C1.35547 3.54492 1.51562 3.30469 1.72266 3.10156C1.92969 2.89844 2.17969 2.73437 2.47266 2.60938C2.76562 2.48438 3.0918 2.4043 3.45117 2.36914V1.10938H4.38867V2.38086C4.74023 2.42773 5.05664 2.52344 5.33789 2.66797C5.61914 2.8125 5.85742 3.00195 6.05273 3.23633C6.25195 3.4668 6.4043 3.74023 6.50977 4.05664C6.61914 4.36914 6.67383 4.7207 6.67383 5.11133H5.04492C5.04492 4.63867 4.9375 4.28125 4.72266 4.03906C4.50781 3.79297 4.2168 3.66992 3.84961 3.66992C3.65039 3.66992 3.47656 3.69727 3.32812 3.75195C3.18359 3.80273 3.06445 3.87695 2.9707 3.97461C2.87695 4.06836 2.80664 4.17969 2.75977 4.30859C2.7168 4.4375 2.69531 4.57812 2.69531 4.73047C2.69531 4.88281 2.7168 5.01953 2.75977 5.14062C2.80664 5.25781 2.88281 5.36719 2.98828 5.46875C3.09766 5.57031 3.24023 5.66797 3.41602 5.76172C3.5918 5.85156 3.81055 5.94336 4.07227 6.03711C4.4668 6.18555 4.82422 6.33984 5.14453 6.5C5.46484 6.65625 5.73828 6.83984 5.96484 7.05078C6.19531 7.25781 6.37109 7.5 6.49219 7.77734C6.61719 8.05078 6.67969 8.375 6.67969 8.75C6.67969 9.09375 6.62305 9.4043 6.50977 9.68164C6.39648 9.95508 6.23438 10.1914 6.02344 10.3906C5.8125 10.5898 5.55859 10.75 5.26172 10.8711C4.96484 10.9883 4.63281 11.0645 4.26562 11.0996V12.248H3.33398V11.0996C3.00195 11.0684 2.67969 10.9961 2.36719 10.8828C2.05469 10.7656 1.77734 10.5977 1.53516 10.3789C1.29688 10.1602 1.10547 9.88477 0.960938 9.55273C0.816406 9.2168 0.744141 8.81445 0.744141 8.3457H2.37891C2.37891 8.62695 2.41992 8.86328 2.50195 9.05469C2.58398 9.24219 2.68945 9.39258 2.81836 9.50586C2.95117 9.61523 3.10156 9.69336 3.26953 9.74023C3.4375 9.78711 3.60938 9.81055 3.78516 9.81055C4.20312 9.81055 4.51953 9.71289 4.73438 9.51758C4.94922 9.32227 5.05664 9.07031 5.05664 8.76172ZM13.418 12.2715H8.07422V11H13.418V12.2715Z" transform="translate(3.95264 6)" fill="white"/>
</svg>
