<svg fill="none" xmlns="http://www.w3.org/2000/svg" width="16" viewBox="0 0 24 25">
    <path class="jp-icon2" stroke="#333333" stroke-width="2" transform="translate(2 3)" d="M1.86094 11.4409C0.826448 8.77027 0.863779 6.05764 1.24907 4.19932C2.48206 3.93347 4.08068 3.40347 5.60102 2.8449C7.23549 2.2444 8.85666 1.5815 9.9876 1.09539C11.0597 1.58341 12.6094 2.2444 14.218 2.84339C15.7503 3.41394 17.3995 3.95258 18.7539 4.21385C19.1364 6.07177 19.1709 8.77722 18.139 11.4409C17.0303 14.3032 14.6668 17.1844 9.99999 18.9354C5.3332 17.1844 2.96968 14.3032 1.86094 11.4409Z"/>
    <path class="jp-icon2" fill="#333333" stroke="#333333" transform="translate(8 9.86719)" d="M2.86015 4.86535L0.726549 2.99959L0 3.63045L2.86015 6.13157L8 0.630872L7.27857 0L2.86015 4.86535Z"/>
</svg>
