<?xml version="1.0" encoding="utf-8"?>
<!-- Generator: Adobe Illustrator 21.0.0, SVG Export Plug-In . SVG Version: 6.00 Build 0)  -->
<svg version="1.1" id="Layer_1" xmlns="http://www.w3.org/2000/svg" xmlns:xlink="http://www.w3.org/1999/xlink" x="0px" y="0px"
	 viewBox="0 0 22 22" style="enable-background:new 0 0 22 22;" xml:space="preserve">
<style type="text/css">
	.st0{fill:#FFFFFF;}
</style>
<g>
	<path class="st0" d="M11,0C5.5,0,1,4.5,1,10s4.5,10,10,10s10-4.5,10-10S16.5,0,11,0z M8.4,6.3H6.2v7.3h2.2v1.7H4.5V4.6h3.9V6.3z
		 M18.6,6.8c0.7,0,1.3,0.6,1.3,1.3s-0.6,1.3-1.3,1.3s-1.3-0.6-1.3-1.3C17.3,7.4,17.9,6.8,18.6,6.8z M15.8,15.4H12v-1.7h2.2V6.3H12
		V4.6h3.9L15.8,15.4L15.8,15.4z M18.6,13.2c-0.7,0-1.3-0.6-1.3-1.3s0.6-1.3,1.3-1.3s1.3,0.6,1.3,1.3C19.9,12.6,19.3,13.2,18.6,13.2z
		"/>
	<circle class="st0" cx="18.6" cy="8.1" r="1.3"/>
</g>
</svg>
