<?xml version="1.0" encoding="utf-8"?>
<!-- Generator: Adobe Illustrator 19.2.1, SVG Export Plug-In . SVG Version: 6.00 Build 0)  -->
<svg version="1.1" id="Layer_1" xmlns="http://www.w3.org/2000/svg" xmlns:xlink="http://www.w3.org/1999/xlink" x="0px" y="0px"
	 viewBox="0 0 18 18" style="enable-background:new 0 0 18 18;" xml:space="preserve">
<style type="text/css">
	.st0{fill:none;}
	.st1{fill:#424242;}
</style>
<path class="st0" d="M0,0h18v18H0V0z"/>
<circle class="st0" cx="4.5" cy="13.5" r="1.5"/>
<circle class="st0" cx="9" cy="9" r="0.4"/>
<circle class="st0" cx="4.5" cy="4.5" r="1.5"/>
<path class="st1" d="M7.2,5.7c0.2-0.4,0.3-0.8,0.3-1.2c0-1.7-1.3-3-3-3s-3,1.3-3,3s1.3,3,3,3c0.4,0,0.9-0.1,1.2-0.3L7.5,9l-1.8,1.8
	c-0.4-0.2-0.8-0.3-1.2-0.3c-1.7,0-3,1.3-3,3s1.3,3,3,3s3-1.3,3-3c0-0.4-0.1-0.9-0.3-1.2L9,10.5l5.2,5.2h2.2V15L7.2,5.7z M4.5,6
	C3.7,6,3,5.3,3,4.5S3.7,3,4.5,3S6,3.7,6,4.5S5.3,6,4.5,6z M4.5,15C3.7,15,3,14.3,3,13.5S3.7,12,4.5,12S6,12.7,6,13.5S5.3,15,4.5,15z
	 M9,9.4C8.8,9.4,8.6,9.2,8.6,9S8.8,8.6,9,8.6S9.4,8.8,9.4,9S9.2,9.4,9,9.4z M14.2,2.2L9.8,6.8l1.5,1.5L16.5,3V2.2H14.2z"/>
</svg>
