<?xml version="1.0" encoding="utf-8"?>
<!-- Generator: Adobe Illustrator 21.0.0, SVG Export Plug-In . SVG Version: 6.00 Build 0)  -->
<svg version="1.1" id="Layer_1" xmlns="http://www.w3.org/2000/svg" xmlns:xlink="http://www.w3.org/1999/xlink" x="0px" y="0px"
	 viewBox="0 0 22 22" style="enable-background:new 0 0 22 22;" xml:space="preserve">
<style type="text/css">
	.st0{fill:#616161;}
</style>
<path d="Mnan,nancnan,nan,nan,nan,nan,nancnan,nan,nan,nan,nan,nancnan,nan,nan,nan,nan,nancnan,nan,nan,nan,nan,nanz"/>
<g>
	<path class="st0" d="M9.3,8C9.2,6.9,10,6,11,6c1,0,1.7,0.8,1.7,1.8c0,1-0.7,1.8-1.7,1.8C10.1,9.7,9.3,8.9,9.3,8z"/>
	<path class="st0" d="M12.6,11.1H9.4V16h0.7c1.4,0,2.5-1.1,2.5-2.5V11.1z"/>
</g>
<g>
	<path class="st0" d="M20.2,11.8c-1.6,0-1.7,0.5-1.7,1c0,0.4,0.1,0.9,0.1,1.3c0.1,0.5,0.1,0.9,0.1,1.3c0,1.7-1.4,2.3-3.5,2.3h-0.8
		v-1.9h0.4c1.1,0,1.4,0,1.4-0.8c0-0.3,0-0.6-0.1-1c0-0.4-0.1-0.8-0.1-1.2c0-1.3,0-1.8,1.3-2v0c-1.3-0.2-1.3-0.7-1.3-2
		c0-0.4,0.1-0.8,0.1-1.2c0.1-0.4,0.1-0.7,0.1-1c0-0.8-0.4-0.7-1.4-0.8h-0.4V4.1h0.8c2.2,0,3.5,0.7,3.5,2.3c0,0.4-0.1,0.9-0.1,1.3
		c-0.1,0.5-0.1,0.9-0.1,1.3c0,0.5,0.2,1,1.7,1V11.8z"/>
	<g>
		<path class="st0" d="M1.8,10.1c1.6,0,1.7-0.5,1.7-1c0-0.4-0.1-0.9-0.1-1.3C3.3,7.3,3.3,6.9,3.3,6.5c0-1.6,1.4-2.3,3.5-2.3h0.8v1.9
			H7.2c-1,0-1.4,0-1.4,0.8c0,0.3,0,0.6,0.1,1C5.9,8.1,6,8.5,6,8.9c0,1.3,0,1.8-1.3,2v0C6,11.2,6,11.7,6,13c0,0.4-0.1,0.8-0.1,1.2
			c-0.1,0.3-0.1,0.7-0.1,1c0,0.8,0.3,0.8,1.4,0.8h0.4v1.9H6.8c-2.1,0-3.5-0.6-3.5-2.3c0-0.4,0.1-0.9,0.1-1.3
			c0.1-0.5,0.1-0.9,0.1-1.3c0-0.5-0.2-1-1.7-1V10.1z"/>
	</g>
</g>
</svg>
