<?xml version="1.0" encoding="utf-8"?>
<!-- Generator: Adobe Illustrator 21.0.0, SVG Export Plug-In . SVG Version: 6.00 Build 0)  -->
<svg version="1.1" id="Layer_1" xmlns="http://www.w3.org/2000/svg" xmlns:xlink="http://www.w3.org/1999/xlink" x="0px" y="0px"
	 viewBox="0 0 22 22" style="enable-background:new 0 0 22 22;" xml:space="preserve">
<style type="text/css">
	.st0{fill:#0D47A1;}
</style>
<polygon class="st0" points="6.1,14.1 16,14.1 11,19.1 "/>
<g>
	<path class="st0" d="M13.9,8.4c0-1.1-0.1-2.4-0.1-3.7h0c-0.3,1.2-0.7,2.4-1,3.5l-1.1,3.5h-1.6l-1-3.5C8.8,7.2,8.5,5.9,8.3,4.7h0
		C8.2,6,8.2,7.3,8.1,8.5l-0.2,3.4H6.1l0.6-9h2.7l0.9,3c0.3,1,0.6,2.2,0.8,3.2h0c0.3-1,0.6-2.2,0.9-3.2l1-3h2.7l0.5,9h-2L13.9,8.4z"
		/>
</g>
</svg>
