<?xml version="1.0" encoding="utf-8"?>
<!-- Generator: Adobe Illustrator 21.0.0, SVG Export Plug-In . SVG Version: 6.00 Build 0)  -->
<svg version="1.1" id="Layer_1" xmlns="http://www.w3.org/2000/svg" xmlns:xlink="http://www.w3.org/1999/xlink" x="0px" y="0px"
	 viewBox="0 0 10 10" style="enable-background:new 0 0 10 10;" xml:space="preserve">
<style type="text/css">
	.st0{fill:#FFFFFF;}
	.st1{stroke:#000000;stroke-width:0.25;stroke-miterlimit:10;}
</style>
<g>
	<g>
		<path d="M7.6,8H2.4C2,8,1.7,7.7,1.7,7.3V1.3C1.7,1,2,0.7,2.4,0.7h5.1C8,0.7,8.3,1,8.3,1.3v5.9C8.3,7.7,8,8,7.6,8z"/>
		<path d="M7.6,8.2H2.4c-0.5,0-0.9-0.4-0.9-0.9V1.3c0-0.5,0.4-0.9,0.9-0.9h5.1c0.5,0,0.9,0.4,0.9,0.9v5.9C8.5,7.8,8.1,8.2,7.6,8.2z
			 M2.4,0.9c-0.3,0-0.5,0.2-0.5,0.5v5.9c0,0.3,0.2,0.5,0.5,0.5h5.1c0.3,0,0.5-0.2,0.5-0.5V1.3c0-0.3-0.2-0.5-0.5-0.5H2.4z"/>
	</g>
	<g>
		<polygon class="st0" points="2.8,0.6 5,0.6 5,2.9 3.9,2.4 2.8,2.9 		"/>
		<rect x="6.1" y="0.6" class="st0" width="1.1" height="7.4"/>
	</g>
	<path class="st1" d="M7.6,8.1H2.4C2,8.1,1.6,7.7,1.6,7.3V1.3c0-0.4,0.4-0.8,0.8-0.8h5.1c0.5,0,0.8,0.4,0.8,0.8v5.9
		C8.4,7.7,8,8.1,7.6,8.1z M2.4,0.8C2.1,0.8,1.8,1,1.8,1.3v5.9c0,0.3,0.3,0.6,0.6,0.6h5.1c0.3,0,0.6-0.3,0.6-0.6V1.3
		c0-0.3-0.3-0.6-0.6-0.6H2.4z"/>
</g>
</svg>
