<?xml version="1.0" encoding="utf-8"?>
<!-- Generator: Adobe Illustrator 21.0.0, SVG Export Plug-In . SVG Version: 6.00 Build 0)  -->
<svg version="1.1" id="Layer_1" xmlns="http://www.w3.org/2000/svg" xmlns:xlink="http://www.w3.org/1999/xlink" x="0px" y="0px"
	 viewBox="0 0 10 10" style="enable-background:new 0 0 10 10;" xml:space="preserve">
<style type="text/css">
	.st0{fill:#FFFFFF;}
</style>
<g>
	<path d="M7.6,8H2.4C2,8,1.7,7.7,1.7,7.3v-6C1.7,1,2,0.7,2.4,0.7h5.1C8,0.7,8.3,1,8.3,1.3v5.9C8.3,7.7,8,8,7.6,8z"/>
</g>
<g>
	<rect x="6.3" y="0.6" class="st0" width="0.8" height="7.4"/>
</g>
<path d="M1.7,2.4H1.1C1,2.4,0.9,2.3,0.9,2.2V1.7c0-0.1,0.1-0.2,0.2-0.2h0.6"/>
<path class="st0" d="M1.7,1.4h0.6c0.1,0,0.2,0.1,0.2,0.2v0.5c0,0.1-0.1,0.2-0.2,0.2H1.7"/>
<path d="M1.7,7.3H1.1C1,7.3,0.9,7.2,0.9,7V6.5c0-0.1,0.1-0.2,0.2-0.2h0.6"/>
<path class="st0" d="M1.7,6.3h0.6c0.1,0,0.2,0.1,0.2,0.2V7c0,0.1-0.1,0.2-0.2,0.2H1.7"/>
<path d="M1.7,5.6H1.1C1,5.6,0.9,5.5,0.9,5.4V4.9c0-0.1,0.1-0.2,0.2-0.2h0.6"/>
<path class="st0" d="M1.7,4.7h0.6c0.1,0,0.2,0.1,0.2,0.2v0.5c0,0.1-0.1,0.2-0.2,0.2H1.7"/>
<path class="st0" d="M1.7,3.1h0.6c0.1,0,0.2,0.1,0.2,0.2v0.5C2.5,3.9,2.4,4,2.3,4H1.7"/>
<path d="M1.7,4H1.1C1,4,0.9,3.9,0.9,3.8V3.3c0-0.1,0.1-0.2,0.2-0.2h0.6"/>
</svg>
