<?xml version="1.0" encoding="utf-8"?>
<!-- Generator: Adobe Illustrator 21.0.0, SVG Export Plug-In . SVG Version: 6.00 Build 0)  -->
<svg version="1.1" id="Layer_1" xmlns="http://www.w3.org/2000/svg" xmlns:xlink="http://www.w3.org/1999/xlink" x="0px" y="0px"
	 viewBox="0 0 24 24" style="enable-background:new 0 0 24 24;" xml:space="preserve">
<g>
	<path d="M18.5,21.6h-13c-1,0-1.9-0.8-1.9-1.9V4.2c0-1,0.8-1.9,1.9-1.9h13.1c1,0,1.9,0.8,1.9,1.9v15.6
		C20.4,20.8,19.6,21.6,18.5,21.6z M5.5,3.7C5.2,3.7,5,3.9,5,4.2v15.6c0,0.3,0.2,0.5,0.5,0.5h13.1c0.3,0,0.5-0.2,0.5-0.5V4.2
		c0-0.3-0.2-0.5-0.5-0.5C18.6,3.7,5.5,3.7,5.5,3.7z"/>
	<path d="M6.9,9.4c-0.1,0-0.2,0-0.3-0.1C6.4,9.2,6.3,8.9,6.3,8.7V3.1c0-0.4,0.3-0.7,0.7-0.7h4.4c0.4,0,0.7,0.3,0.7,0.7v5.6
		c0,0.2-0.1,0.5-0.3,0.6s-0.5,0.1-0.7,0l-1.9-1l-1.9,1C7.1,9.3,7,9.4,6.9,9.4z M7.6,3.7v3.9l1.2-0.7c0.2-0.1,0.4-0.1,0.6,0l1.2,0.7
		V3.7H7.6z"/>
	<rect x="15.8" y="3.3" width="1.3" height="17.3"/>
</g>
</svg>
