<?xml version="1.0" encoding="utf-8"?>
<!-- Generator: Adobe Illustrator 21.0.0, SVG Export Plug-In . SVG Version: 6.00 Build 0)  -->
<svg version="1.1" id="Layer_1" xmlns="http://www.w3.org/2000/svg" xmlns:xlink="http://www.w3.org/1999/xlink" x="0px" y="0px"
	 viewBox="0 0 22 22" style="enable-background:new 0 0 22 22;" xml:space="preserve">
<style type="text/css">
	.st0{fill:#FFFFFF;}
</style>
<g id="vJz2Qp.tif_1_">
	<g>
		<g>
			<path class="st0" d="M7.9,7c0.8,0,1.7,0,2.5,0c0.2,0,0.2-0.2,0.2-0.4c0-0.2,0-0.6-0.1-0.6c-1,0-2,0-3,0C7.2,6.1,7.2,6,7.2,5.9
				c0-0.5-0.1-1,0-1.4C7.4,3.6,8.1,3,8.9,3c1.2,0,2.3,0,3.5,0c1,0,1.7,0.8,1.7,1.7c0,1.1,0,2.7,0,3.8c0,1-0.8,1.7-1.7,1.7
				c-1.1,0-2.3,0-3.4,0c-1.3,0-2.3,1-2.3,2.3c0,0.4,0,0.8,0,1.3c0,0.1,0,0.2-0.2,0.2c-0.5,0-1,0-1.5,0c-0.8-0.1-1.4-0.8-1.4-1.6
				c0-1.2,0-2.5,0-3.7c0-1,0.7-1.6,1.7-1.6C6.2,7,7.1,7,7.9,7z"/>
		</g>
	</g>
</g>
<g id="vJz2Qp.tif_2_">
	<g>
		<g>
			<path class="st0" d="M14.2,15.1c-0.8,0-1.7,0-2.5,0c-0.2,0-0.2,0.2-0.2,0.4c0,0.2,0,0.6,0.1,0.6c1,0,2,0,3,0
				c0.2,0,0.2,0.1,0.2,0.2c0,0.5,0.1,1,0,1.4c-0.2,0.8-0.9,1.4-1.7,1.4c-1.2,0-2.3,0-3.5,0c-1,0-1.7-0.8-1.7-1.7c0-1.1,0-2.7,0-3.8
				c0-1,0.8-1.7,1.7-1.7c1.1,0,2.3,0,3.4,0c1.3,0,2.3-1,2.3-2.3c0-0.4,0-0.8,0-1.3c0-0.1,0-0.2,0.2-0.2c0.5,0,1,0,1.5,0
				c0.8,0.1,1.4,0.8,1.4,1.6c0,1.2,0,2.5,0,3.7c0,1-0.7,1.6-1.7,1.6C15.9,15.1,15,15.1,14.2,15.1z"/>
		</g>
	</g>
</g>
</svg>
