<?xml version="1.0" encoding="utf-8"?>
<!-- Generator: Adobe Illustrator 21.0.0, SVG Export Plug-In . SVG Version: 6.00 Build 0)  -->
<svg version="1.1" id="Layer_1" xmlns="http://www.w3.org/2000/svg" xmlns:xlink="http://www.w3.org/1999/xlink" x="0px" y="0px"
	 viewBox="0 0 22 22" style="enable-background:new 0 0 22 22;" xml:space="preserve">
<style type="text/css">
	.st0{fill:#616161;}
	.st1{fill:none;stroke:#616161;stroke-width:2;stroke-miterlimit:10;}
</style>
<g>
	<path class="st0" d="M9.5,6.5c0.8-0.1,2-0.2,3.4-0.2c1.7,0,2.8,0.3,3.6,0.9c0.7,0.5,1,1.3,1,2.4c0,1.4-1,2.4-2,2.8v0
		c0.8,0.3,1.2,1.1,1.5,2.1c0.4,1.3,0.7,2.7,0.9,3.2h-2.6c-0.2-0.3-0.5-1.2-0.8-2.6c-0.3-1.4-0.8-1.8-1.8-1.8H12v4.4H9.5V6.5z
		 M12,11.3h1c1.3,0,2-0.6,2-1.6c0-1-0.7-1.6-1.9-1.6c-0.6,0-1,0-1.2,0.1V11.3z"/>
</g>
<ellipse transform="matrix(0.2465 -0.9691 0.9691 0.2465 -0.4418 16.7214)" class="st1" cx="10.5" cy="8.6" rx="3.7" ry="6.4"/>
</svg>
