<?xml version="1.0" encoding="utf-8"?>
<!-- Generator: Adobe Illustrator 19.2.1, SVG Export Plug-In . SVG Version: 6.00 Build 0)  -->
<svg version="1.1" id="Layer_1" xmlns="http://www.w3.org/2000/svg" xmlns:xlink="http://www.w3.org/1999/xlink" x="0px" y="0px"
	 viewBox="0 0 18 18" style="enable-background:new 0 0 18 18;" xml:space="preserve">
<style type="text/css">
	.st0{fill:none;}
	.st1{fill:#616161;}
</style>
<path class="st0" d="M0,0h18v18H0V0z"/>
<path class="st1" d="M12.8,2.2h-9C3,2.2,2.3,2.9,2.3,3.7v10.5c0,0.8,0.7,1.5,1.5,1.5h10.5c0.8,0,1.5-0.7,1.5-1.5v-9L12.8,2.2z
	 M9,14.2c-1.2,0-2.2-1-2.2-2.2s1-2.2,2.2-2.2s2.2,1,2.2,2.2S10.2,14.2,9,14.2z M11.2,6.8H3.8v-3h7.5v3H11.2z"/>
</svg>
