<?xml version="1.0" encoding="utf-8"?>
<!-- Generator: Adobe Illustrator 21.0.0, SVG Export Plug-In . SVG Version: 6.00 Build 0)  -->
<svg version="1.1" id="Layer_1" xmlns="http://www.w3.org/2000/svg" xmlns:xlink="http://www.w3.org/1999/xlink" x="0px" y="0px"
	 viewBox="0 0 18 18" style="enable-background:new 0 0 18 18;" xml:space="preserve">
<style type="text/css">
	.st0{fill:#D81B60;}
</style>
<g>
	<path class="st0" d="M6.1,14.8v-4.8L2.4,3.2h3L6.7,6C7,6.8,7.3,7.4,7.6,8.2h0C7.9,7.5,8.1,6.8,8.5,6l1.2-2.8h3L8.8,10v4.9H6.1z"/>
</g>
<path class="st0" d="M12.4,9.5c-0.1-0.9,0.6-1.7,1.5-1.7s1.5,0.7,1.5,1.5c0,0.8-0.6,1.5-1.5,1.5C13.1,10.9,12.4,10.3,12.4,9.5z"/>
<path class="st0" d="M12.4,13.5c-0.1-0.9,0.6-1.7,1.5-1.7s1.5,0.7,1.5,1.5c0,0.8-0.6,1.5-1.5,1.5C13.1,14.9,12.4,14.2,12.4,13.5z"/>
</svg>
