<svg xmlns="http://www.w3.org/2000/svg" width="16" viewBox="0 0 24 24">
  <path fill="#616161" d="M14.9 17.45c1.35 0 2.45-1.1 2.45-2.45s-1.1-2.45-2.45-2.45c-1.36 0-2.45 1.1-2.45 2.45s1.09 2.45 2.45 2.45m5.2-1.77 1.48 1.16c.13.11.17.29.08.45l-1.4 2.42a.35.35 0 0 1-.43.15l-1.74-.7c-.36.28-.76.51-1.18.69l-.27 1.85c-.02.17-.17.3-.34.3h-2.8c-.18 0-.32-.13-.35-.3l-.26-1.85c-.43-.18-.82-.41-1.18-.69l-1.75.7c-.15.06-.34 0-.42-.15l-1.4-2.42a.35.35 0 0 1 .08-.45l1.48-1.16-.05-.68.05-.69-1.48-1.15a.35.35 0 0 1-.08-.45l1.4-2.42c.08-.16.27-.22.42-.16l1.75.71c.36-.28.75-.52 1.18-.69l.26-1.86c.03-.16.17-.29.35-.29h2.8c.17 0 .32.13.34.29l.27 1.86c.42.17.82.41 1.18.69l1.74-.71c.17-.06.34 0 .43.16l1.4 2.42c.09.15.05.34-.08.45l-1.48 1.15.05.69zM7.33 7.445A1.566 1.566 0 0 0 7.904 5.3a1.575 1.575 0 1 0-.574 2.145m2.327-2.65 1.21.157c.096.025.173.12.171.236v1.8a.214.214 0 0 1-.183.223l-1.195.17-.42.75.43 1.126c.037.106 0 .22-.096.275l-1.559.9a.23.23 0 0 1-.294-.05l-.734-.95-.878-.001-.762.96c-.058.08-.173.1-.275.043l-1.56-.901a.23.23 0 0 1-.101-.276l.452-1.116-.246-.366-.194-.396-1.192-.166a.23.23 0 0 1-.189-.226V5.186c.002-.117.077-.206.175-.217l1.204-.175.446-.766-.456-1.11a.23.23 0 0 1 .104-.28l1.56-.9a.225.225 0 0 1 .285.054l.76.936.86.01.745-.949a.214.214 0 0 1 .284-.048l1.56.9a.24.24 0 0 1 .118.267l-.47 1.126.246.366z" class="jp-icon3"/>
</svg>
