<svg width="16" viewBox="0 0 24 24" xmlns="http://www.w3.org/2000/svg">
  <g class="jp-icon3" fill="#616161">
    <path d="M14.9 17.45C16.25 17.45 17.35 16.35 17.35 15C17.35 13.65 16.25 12.55 14.9 12.55C13.54 12.55 12.45 13.65 12.45 15C12.45 16.35 13.54 17.45 14.9 17.45ZM20.1 15.68L21.58 16.84C21.71 16.95 21.75 17.13 21.66 17.29L20.26 19.71C20.17 19.86 20 19.92 19.83 19.86L18.09 19.16C17.73 19.44 17.33 19.67 16.91 19.85L16.64 21.7C16.62 21.87 16.47 22 16.3 22H13.5C13.32 22 13.18 21.87 13.15 21.7L12.89 19.85C12.46 19.67 12.07 19.44 11.71 19.16L9.96002 19.86C9.81002 19.92 9.62002 19.86 9.54002 19.71L8.14002 17.29C8.05002 17.13 8.09002 16.95 8.22002 16.84L9.70002 15.68L9.65001 15L9.70002 14.31L8.22002 13.16C8.09002 13.05 8.05002 12.86 8.14002 12.71L9.54002 10.29C9.62002 10.13 9.81002 10.07 9.96002 10.13L11.71 10.84C12.07 10.56 12.46 10.32 12.89 10.15L13.15 8.28998C13.18 8.12998 13.32 7.99998 13.5 7.99998H16.3C16.47 7.99998 16.62 8.12998 16.64 8.28998L16.91 10.15C17.33 10.32 17.73 10.56 18.09 10.84L19.83 10.13C20 10.07 20.17 10.13 20.26 10.29L21.66 12.71C21.75 12.86 21.71 13.05 21.58 13.16L20.1 14.31L20.15 15L20.1 15.68Z"/>
    <path d="M7.32966 7.44454C8.0831 7.00954 8.33932 6.05332 7.90432 5.29988C7.46932 4.54643 6.5081 4.28156 5.75466 4.71656C5.39176 4.92608 5.12695 5.27118 5.01849 5.67594C4.91004 6.08071 4.96682 6.51198 5.17634 6.87488C5.61134 7.62832 6.57622 7.87954 7.32966 7.44454ZM9.65718 4.79593L10.8672 4.95179C10.9628 4.97741 11.0402 5.07133 11.0382 5.18793L11.0388 6.98893C11.0455 7.10054 10.9616 7.19518 10.855 7.21054L9.66001 7.38083L9.23915 8.13188L9.66961 9.25745C9.70729 9.36271 9.66934 9.47699 9.57408 9.53199L8.01523 10.432C7.91131 10.492 7.79337 10.4677 7.72105 10.3824L6.98748 9.43188L6.10931 9.43083L5.34704 10.3905C5.28909 10.4702 5.17383 10.4905 5.07187 10.4339L3.51245 9.53293C3.41049 9.47633 3.37647 9.35741 3.41075 9.25679L3.86347 8.14093L3.61749 7.77488L3.42347 7.37883L2.23075 7.21297C2.12647 7.19235 2.04049 7.10342 2.04245 6.98682L2.04187 5.18582C2.04383 5.06922 2.11909 4.97958 2.21704 4.96922L3.42065 4.79393L3.86749 4.02788L3.41105 2.91731C3.37337 2.81204 3.41131 2.69776 3.51523 2.63776L5.07408 1.73776C5.16934 1.68276 5.28729 1.70704 5.35961 1.79231L6.11915 2.72788L6.98001 2.73893L7.72496 1.78922C7.79156 1.70458 7.91548 1.67922 8.00879 1.74082L9.56821 2.64182C9.67017 2.69842 9.71285 2.81234 9.68723 2.90797L9.21718 4.03383L9.46316 4.39988L9.65718 4.79593Z"/>
  </g>
</svg>
