<svg xmlns="http://www.w3.org/2000/svg" width="16" viewBox="0 0 24 24">
  <g fill="#616161" class="jp-icon3">
    <path d="M18 13v7H4V6h5.02c.05-.71.22-1.38.48-2H4c-1.1 0-2 .9-2 2v14c0 1.1.9 2 2 2h14c1.1 0 2-.9 2-2v-5zm1.3-4.11c.44-.7.7-1.51.7-2.39C20 4.01 17.99 2 15.5 2S11 4.01 11 6.5s2.01 4.5 4.49 4.5c.88 0 1.7-.26 2.39-.7L21 13.42 22.42 12zM15.5 9a2.5 2.5 0 0 1 0-5 2.5 2.5 0 0 1 0 5"/>
    <path fill-rule="evenodd" d="M4 6h5.019a6.5 6.5 0 0 0 3.015 6H9v2h7v-1.019c.57-.043 1.12-.16 1.64-.341L18 13v7H4zm4 2H6v2h2zm-2 4h2v2H6zm2 4H6v2h2zm1 0h7v2H9z" clip-rule="evenodd"/>
  </g>
</svg>
