<svg xmlns="http://www.w3.org/2000/svg" width="16" viewBox="0 0 24 24">
  <path fill="#616161" d="M18 2c-1.645 0-3 1.355-3 3 0 .191.022.377.057.559L7.922 9.72A2.97 2.97 0 0 0 6 9c-1.645 0-3 1.355-3 3s1.355 3 3 3c.732 0 1.399-.278 1.922-.72l7.135 4.16A3 3 0 0 0 15 19c0 1.645 1.355 3 3 3s3-1.355 3-3-1.355-3-3-3a2.97 2.97 0 0 0-1.922.723l-7.135-4.164C8.978 12.377 9 12.19 9 12s-.022-.377-.057-.559l7.135-4.162C16.601 7.722 17.268 8 18 8c1.645 0 3-1.355 3-3s-1.355-3-3-3m0 2c.564 0 1 .436 1 1s-.436 1-1 1-1-.436-1-1 .436-1 1-1M6 11c.564 0 1 .436 1 1s-.436 1-1 1-1-.436-1-1 .436-1 1-1m12 7c.564 0 1 .436 1 1s-.436 1-1 1-1-.436-1-1 .436-1 1-1" class="jp-icon3"/>
</svg>
