<svg width="24" height="24" version="1.1" viewBox="0 0 36 24" xmlns="http://www.w3.org/2000/svg">
 <g class="jp-icon3" transform="matrix(1.7327 0 0 1.7327 -3.6282 .099577)" fill="#616161">
  <path transform="matrix(1.5,0,0,1.5,0,-6)" d="m12.186 7.5098c-1.0535 0-1.9757 0.5665-2.4785 1.4102 0.75061 0.31277 1.3974 0.82648 1.873 1.4727h3.4863c0-1.592-1.2889-2.8828-2.8809-2.8828z"/>
  <path d="m20.465 2.3895a2.1885 2.1885 0 0 1-2.1884 2.1885 2.1885 2.1885 0 0 1-2.1885-2.1885 2.1885 2.1885 0 0 1 2.1885-2.1885 2.1885 2.1885 0 0 1 2.1884 2.1885z"/>
  <path transform="matrix(1.5,0,0,1.5,0,-6)" d="m3.5898 8.4219c-1.1126 0-2.0137 0.90111-2.0137 2.0137h2.8145c0.26797-0.37309 0.5907-0.70435 0.95898-0.97852-0.34433-0.61688-1.0031-1.0352-1.7598-1.0352z"/>
  <path d="m6.9154 4.623a1.5294 1.5294 0 0 1-1.5294 1.5294 1.5294 1.5294 0 0 1-1.5294-1.5294 1.5294 1.5294 0 0 1 1.5294-1.5294 1.5294 1.5294 0 0 1 1.5294 1.5294z"/>
  <path d="m6.135 13.535c0-3.2392 2.6259-5.865 5.865-5.865 3.2392 0 5.865 2.6259 5.865 5.865z"/>
  <circle cx="12" cy="3.7685" r="2.9685"/>
 </g>
</svg>
