<svg xmlns="http://www.w3.org/2000/svg" width="24" height="24" version="1.1" viewBox="0 0 36 24">
  <g fill="#616161" class="jp-icon3" transform="translate(-3.628 .1)scale(1.7327)">
    <path d="M18.279 5.265c-1.58 0-2.964.85-3.718 2.115a6.7 6.7 0 0 1 2.81 2.21h5.23a4.32 4.32 0 0 0-4.322-4.325m2.186-2.875a2.19 2.19 0 0 1-2.188 2.188 2.19 2.19 0 0 1-2.189-2.189A2.19 2.19 0 0 1 18.277.201a2.19 2.19 0 0 1 2.188 2.188M5.385 6.633a3.02 3.02 0 0 0-3.02 3.02h4.22a6.7 6.7 0 0 1 1.44-1.467 3.02 3.02 0 0 0-2.64-1.553m1.53-2.01a1.53 1.53 0 0 1-1.529 1.53 1.53 1.53 0 0 1-1.53-1.53 1.53 1.53 0 0 1 1.53-1.53 1.53 1.53 0 0 1 1.53 1.53m-.781 8.912a5.865 5.865 0 0 1 11.73 0z"/>
    <circle cx="12" cy="3.768" r="2.969"/>
  </g>
</svg>
