<?xml version="1.0" encoding="UTF-8" standalone="no"?>
<svg width="28px" height="17px" viewBox="0 0 28 17" version="1.1" xmlns="http://www.w3.org/2000/svg" xmlns:xlink="http://www.w3.org/1999/xlink">
    <!-- Generator: Sketch 3.8.3 (29802) - http://www.bohemiancoding.com/sketch -->
    <title>Next Arrow</title>
    <desc>Created with Sketch.</desc>
    <defs></defs>
    <g id="Page-1" stroke="none" stroke-width="1" fill="none" fill-rule="evenodd">
        <g id="Artboard-1" transform="translate(-854.000000, -899.000000)" fill="#F27624">
            <g id="Window---(Full)-1/1-100-x-100" transform="translate(344.000000, 7.000000)">
                <g id="About" transform="translate(148.000000, 179.000000)">
                    <path d="M389.715437,715.036803 L388.320346,713.641712 C388.152935,713.474301 387.901819,713.362694 387.678604,713.362694 C387.45539,713.362694 387.204274,713.474301 387.036863,713.641712 L376.071448,724.607127 L365.106033,713.641712 C364.938622,713.474301 364.687506,713.362694 364.464291,713.362694 C364.213175,713.362694 363.98996,713.474301 363.822549,713.641712 L362.427458,715.036803 C362.260047,715.204214 362.14844,715.45533 362.14844,715.678545 C362.14844,715.901759 362.260047,716.152876 362.427458,716.320287 L375.429706,729.322534 C375.597117,729.489945 375.848233,729.601552 376.071448,729.601552 C376.294662,729.601552 376.545779,729.489945 376.71319,729.322534 L389.715437,716.320287 C389.882848,716.152876 389.994455,715.901759 389.994455,715.678545 C389.994455,715.45533 389.882848,715.204214 389.715437,715.036803 Z" id="Next-Arrow"></path>
                </g>
            </g>
        </g>
    </g>
</svg>