<svg xmlns="http://www.w3.org/2000/svg" width="16" viewBox="0 0 50.978 50.978">
  <g fill="#616161" class="jp-icon3">
    <path d="M43.52 7.458C38.711 2.648 32.307 0 25.489 0 18.67 0 12.266 2.648 7.458 7.458c-9.943 9.941-9.943 26.119 0 36.062 4.809 4.809 11.212 7.456 18.031 7.458h.002c6.816 0 13.221-2.648 18.029-7.458 4.809-4.809 7.457-11.212 7.457-18.03 0-6.82-2.649-13.224-7.457-18.032m-1.414 34.647c-4.432 4.431-10.332 6.872-16.615 6.872h-.002c-6.285-.001-12.187-2.441-16.617-6.872-9.162-9.163-9.162-24.071 0-33.233C13.303 4.44 19.204 2 25.489 2c6.284 0 12.186 2.44 16.617 6.872 4.431 4.431 6.871 10.332 6.871 16.617 0 6.283-2.441 12.186-6.871 16.616"/>
    <path d="M23.578 32.218q-.034-2.602.496-3.972t2.272-3.253q.702-.805 1.367-1.575.939-1.13 1.436-2.175.496-1.061.495-2.5 0-1.643-.779-2.979-.848-1.319-2.806-1.369-2.703.085-3.55 1.832a5.3 5.3 0 0 0-.607 1.814 11.3 11.3 0 0 0-.207 2.174h-2.937q-.136-3.312 1.493-5.719 1.593-2.459 5.378-2.527 3.24.034 5.141 1.758 1.918 1.74 1.95 4.811 0 1.712-.41 2.911a7.6 7.6 0 0 1-1.268 2.243 22 22 0 0 1-1.73 2.002 34 34 0 0 0-1.987 2.346 5.2 5.2 0 0 0-.565 1.199q-.24 1.438-.171 2.979zm0 6.002v-3.484h3.076v3.484z"/>
  </g>
</svg>
