<svg width="16" height="16" viewBox="0 0 16 16" xmlns="http://www.w3.org/2000/svg">
  <path class="jp-icon3" fill="currentColor"
    d="m7.2 10.9h1v1.1h-1zm0.699-7.2c-0.843 0-1.45 0.413-1.75 0.881-0.3 0.467-0.354 0.937-0.354 1.22v0.5h1v-0.5c0-0.117 0.0458-0.447 0.195-0.68 0.15-0.233 0.347-0.422 0.904-0.422 0.629 0 0.909 0.128 1.06 0.289 0.148 0.161 0.244 0.467 0.244 1.01 0 0.322-0.374 0.816-0.879 1.4s-1.12 1.27-1.12 2.2l-1.95e-4 0.5h1l1.95e-4 -0.5c1.8e-4 -0.462 0.382-0.977 0.877-1.55 0.495-0.57 1.12-1.17 1.12-2.05 0-0.656-0.105-1.25-0.508-1.69-0.402-0.439-1.02-0.613-1.79-0.613zm0.101-3.7c-4.41 0-8 3.59-8 8 0 4.41 3.59 8 8 8 4.41 0 8-3.59 8-8 0-4.41-3.59-8-8-8zm0 1c3.87 0 7 3.13 7 7 0 3.87-3.13 7-7 7-3.87 0-7-3.13-7-7 0-3.87 3.13-7 7-7z" />
</svg>
