<svg width="60px" height="40px" viewBox="46 0 60 40" version="1.1" xmlns="http://www.w3.org/2000/svg" xmlns:xlink="http://www.w3.org/1999/xlink">
    <!-- Generator: Sketch 3.8.3 (29802) - http://www.bohemiancoding.com/sketch -->
    <desc>Created with Sketch.</desc>
    <defs>
        <path d="M26.5289554,5.07649773 L26.1765108,2.21233459 C26.0250867,0.981777589 24.9327712,0 23.7343595,0 L1.91480017,0 C0.723912657,0 -0.133232326,0.990495932 0.0171189024,2.21233459 L0.562623602,6.64541262 C0.714047651,7.87596962 0.957159893,9.85163645 1.1080262,11.077661 L3.83161494,33.2110751 C3.84997934,33.3603145 3.88234435,33.5060978 3.92719655,33.6470571 C3.92338948,33.3034317 3.94945265,32.9530836 4.00756932,32.598867 L7.6390209,10.4654533 C8.13655752,7.43300652 10.8320035,5.07649773 13.9116024,5.07649773 L26.5289554,5.07649773 Z M13.9116024,8.85774773 C12.7063609,8.85774773 11.5715367,9.85163696 11.3703816,11.0776614 L7.73893004,33.2110751 C7.53766252,34.4377849 8.34938142,35.4309888 9.55170381,35.4309888 L48.7966957,35.4309888 C50.0019372,35.4309888 51.1367614,34.4370996 51.3379165,33.2110751 L54.969368,11.0776614 C55.1706356,9.85095166 54.3589167,8.85774773 53.1565943,8.85774773 L13.9116024,8.85774773 Z" id="path-1"></path>
        <linearGradient x1="50%" y1="0%" x2="50%" y2="100%" id="linearGradient-3">
            <stop stop-color="#FAAE4A" offset="0%"></stop>
            <stop stop-color="#F27624" offset="100%"></stop>
        </linearGradient>
    </defs>
    <g id="File-Browser-icon" stroke="none" stroke-width="1" fill="none" fill-rule="evenodd" transform="translate(47.000000, 0.000000)">
        <mask id="mask-2" fill="white">
            <use xlink:href="#path-1"></use>
        </mask>
        <use id="Mask" fill="#F27624" xlink:href="#path-1"></use>
        <rect id="Mask" fill="url(#linearGradient-3)" mask="url(#mask-2)" x="0" y="0" width="55" height="35.4309888"></rect>
    </g>
</svg>