
<svg width="234px" height="51px" viewBox="233 -1 234 51" version="1.1" xmlns="http://www.w3.org/2000/svg" xmlns:xlink="http://www.w3.org/1999/xlink">
    <!-- Generator: Sketch 3.8.3 (29802) - http://www.bohemiancoding.com/sketch -->
    <desc>Created with Sketch.</desc>
    <defs></defs>
    <g id="Jupyter-Lab-logo" stroke="none" stroke-width="1" fill="none" fill-rule="evenodd" transform="translate(233.000000, 0.000000)">
        <g id="nav_logo">
            <g id="Imported-Layers-Copy">
                <g id="Page-1">
                    <g id="Home---Desktop-Copy-2">
                        <g id="Imported-Layers-Copy" transform="translate(0.000000, 0.729217)">
                            <g id="Group" transform="translate(46.389702, 1.774096)">
                                <path d="M5.27205345,27.3696035 C5.27205345,32.1377193 4.90623205,33.6996324 3.93093706,34.8505888 C3.07758255,35.7960668 1.65524877,36.2479805 0.0292995787,36.371545 L0.39512099,39.2077478 C2.30521664,39.2077478 4.90623205,38.5501246 6.49145816,36.9472546 C8.23889025,35.1384437 8.84859261,32.6310524 8.84859261,28.7672265 L8.84859261,10.7216926 L5.27205345,10.7216926 L5.27205345,27.3696035" id="Fill-1" fill="#313940"></path>
                                <path d="M31.9735847,25.1910241 C31.9735847,27.2460388 32.014079,29.05485 32.1360195,30.616763 L28.9660249,30.616763 L28.762867,27.3696035 L28.6816496,27.3696035 C27.7466201,28.972705 25.6740897,31.0689079 22.1789967,31.0689079 C19.0902194,31.0689079 15.3917399,29.3424734 15.3917399,22.3548213 L15.3917399,10.7216926 L18.9682789,10.7216926 L18.9682789,21.7379235 C18.9682789,25.5196043 20.1062375,28.0684151 23.3576783,28.0684151 C25.7553071,28.0684151 27.4215218,26.3829372 28.0719473,24.7796045 C28.275105,24.245546 28.3970455,23.5876914 28.3970455,22.9300681 L28.3970455,10.7216926 L31.9735847,10.7216926 L31.9735847,25.1910241" id="Fill-2" fill="#313940"></path>
                                <path d="M38.7205761,17.2164743 C38.7205761,14.6681263 38.6393587,12.6126487 38.5579126,10.7216926 L41.7686302,10.7216926 L41.9312939,14.133605 L42.0125113,14.133605 C43.4755681,11.7083589 45.7922082,10.2695477 49.002926,10.2695477 C53.7579181,10.2695477 57.3342284,14.3390833 57.3342284,20.3817202 C57.3342284,27.5338937 53.0262752,31.0689079 48.3932237,31.0689079 C45.7922082,31.0689079 43.5162912,29.9179516 42.3376096,27.9448504 L42.2563922,27.9448504 L42.2563922,38.7556029 L38.7205761,38.7556029 L38.7205761,17.2164743 L38.7205761,17.2164743 L38.7205761,17.2164743 Z M42.2563922,22.5191114 C42.2563922,23.0536328 42.3376096,23.5467345 42.4190557,23.9988794 C43.0692524,26.5062706 45.223229,28.2327052 47.7835213,28.2327052 C51.5632183,28.2327052 53.7579181,25.1086476 53.7579181,20.5460102 C53.7579181,16.5588511 51.6851588,13.1469387 47.9054617,13.1469387 C45.4671099,13.1469387 43.1911929,14.9145615 42.5002731,17.627431 C42.3783327,18.0795759 42.2563922,18.6138659 42.2563922,19.107199 L42.2563922,22.5191114 L42.2563922,22.5191114 L42.2563922,22.5191114 Z" id="Fill-3" fill="#313940"></path>
                                <path d="M63.6749041,10.7216926 L67.9826285,22.4779231 C68.429896,23.7934011 68.9174291,25.3553141 69.2427563,26.5474589 L69.3239736,26.5474589 C69.6895662,25.3553141 70.0961107,23.8343579 70.5836438,22.3955467 L74.4852814,10.7216926 L78.2649783,10.7216926 L72.9002839,24.9031692 C70.3399916,31.7265313 68.5923308,35.2205887 66.153979,37.3582113 C64.406318,38.919893 62.6586572,39.5367909 61.7645796,39.7010809 L60.870502,36.6593999 C61.7645796,36.371545 62.9432613,35.7960668 64.0000024,34.891777 C64.9752974,34.1105891 66.194702,32.7131976 67.0073335,30.8634297 C67.1697683,30.4936612 67.2917086,30.2058063 67.2917086,30.0003281 C67.2917086,29.7946183 67.2104913,29.5069949 67.0478278,29.05485 L59.7732666,10.7216926 L63.6749041,10.7216926" id="Fill-4" fill="#313940"></path>
                                <path d="M87.670638,5.00809881 L87.670638,10.7216926 L92.7914515,10.7216926 L92.7914515,13.4759817 L87.670638,13.4759817 L87.670638,24.2043578 C87.670638,26.6705607 88.3615578,28.0684151 90.3530995,28.0684151 C91.2876716,28.0684151 91.9785913,27.9448504 92.4256301,27.8217485 L92.5882936,30.5343865 C91.8973739,30.8222414 90.7999096,31.0277197 89.4182989,31.0277197 C87.7518554,31.0277197 86.4107391,30.4936612 85.5571557,29.5069949 C84.5411376,28.4381836 84.1755451,26.6705607 84.1755451,24.3274597 L84.1755451,13.4759817 L81.1274908,13.4759817 L81.1274908,10.7216926 L84.1755451,10.7216926 L84.1755451,5.95357687 L87.670638,5.00809881" id="Fill-5" fill="#313940"></path>
                                <path d="M99.3755505,21.3269668 C99.4567679,26.2184158 102.545545,28.2327052 106.122084,28.2327052 C108.682377,28.2327052 110.226651,27.7805602 111.567767,27.2048508 L112.17747,29.7946183 C110.917571,30.3700965 108.763823,31.0277197 105.634322,31.0277197 C99.5787083,31.0277197 95.9616748,26.9996038 95.9616748,20.9981551 C95.9616748,14.9967066 99.4567679,10.2695477 105.187284,10.2695477 C111.608719,10.2695477 113.315428,15.9831415 113.315428,19.6417204 C113.315428,20.3817202 113.234211,20.9569669 113.193488,21.3269668 L99.3755505,21.3269668 L99.3755505,21.3269668 L99.3755505,21.3269668 Z M109.860829,18.7374306 C109.901553,16.4352864 108.926258,12.8590839 104.90268,12.8590839 C101.285646,12.8590839 99.7006488,16.229808 99.4162736,18.7374306 L109.860829,18.7374306 L109.860829,18.7374306 L109.860829,18.7374306 Z" id="Fill-6" fill="#313940"></path>
                                <path d="M118.55864,16.9286195 C118.55864,14.5857499 118.517917,12.5714605 118.395976,10.7216926 L121.525476,10.7216926 L121.647417,14.6269381 L121.809852,14.6269381 C122.704158,11.9550255 124.858135,10.2695477 127.255763,10.2695477 C127.662308,10.2695477 127.946912,10.3107359 128.27201,10.3931124 L128.27201,13.8045619 C127.906189,13.7226483 127.540367,13.68146 127.052606,13.68146 C124.532808,13.68146 122.744881,15.613373 122.257119,18.3262425 C122.175673,18.8193442 122.094456,19.3950538 122.094456,20.0114888 L122.094456,30.616763 L118.55864,30.616763 L118.55864,16.9286195" id="Fill-7" fill="#313940"></path>
                                <path d="M134.540595,30.673157 L138.31292,30.673157 L138.31292,0.237358499 L134.540595,0.237358499 L134.540595,30.673157 Z M159.575111,30.673157 C159.317907,29.2585354 159.232173,27.5009752 159.232173,25.7005477 L159.232173,17.9415624 C159.232173,13.7834322 157.688949,9.4538327 151.344585,9.4538327 C148.729679,9.4538327 146.243374,10.1825772 144.528681,11.2971275 L145.386028,13.7834322 C146.843517,12.8403511 148.858281,12.2402086 150.78731,12.2402086 C155.031175,12.2402086 155.502716,15.3266558 155.502716,17.0413487 L155.502716,17.4700219 C147.486527,17.4271546 143.028325,20.1706632 143.028325,25.1861398 C143.028325,28.1868524 145.171691,31.1446976 149.372689,31.1446976 C152.330534,31.1446976 154.559635,29.6872086 155.717052,28.0582504 L155.845654,28.0582504 L156.145726,30.673157 L159.575111,30.673157 Z M155.58845,23.6857836 C155.58845,24.0715895 155.502716,24.5002627 155.374114,24.8860686 C154.773971,26.6436288 153.059278,28.3583216 150.358637,28.3583216 C148.429608,28.3583216 146.800649,27.200904 146.800649,24.7574666 C146.800649,20.7279384 151.473187,19.9991939 155.58845,20.0849285 L155.58845,23.6857836 Z M168.40578,30.673157 L168.577249,27.2437713 L168.705851,27.2437713 C170.249074,29.9872799 172.649644,31.1446976 175.650357,31.1446976 C180.280028,31.1446976 184.952566,27.4581079 184.952566,20.0420612 C184.995433,13.7405649 181.351711,9.4538327 176.207632,9.4538327 C172.863981,9.4538327 170.463411,10.954189 169.134524,13.2690243 L169.048789,13.2690243 L169.048789,0.237358499 L165.319332,0.237358499 L165.319332,25.3147418 C165.319332,27.1580366 165.233598,29.2585354 165.147863,30.673157 L168.40578,30.673157 Z M169.048789,18.6274396 C169.048789,18.0272971 169.177391,17.5128892 169.263126,17.084216 C170.034738,14.2121054 172.435308,12.4545452 175.007347,12.4545452 C179.036875,12.4545452 181.180241,16.0125329 181.180241,20.1706632 C181.180241,24.9289359 178.822539,28.143985 174.878745,28.143985 C172.135237,28.143985 169.949003,26.3435575 169.220259,23.7286509 C169.134524,23.2999777 169.048789,22.8284371 169.048789,22.3568966 L169.048789,18.6274396 Z" id="lab" fill="#F27624"></path>
                            </g>
                            <g id="Group">
                                <path d="M34.0799763,3.22785446 C34.1588023,5.08837143 32.7314891,6.66086653 30.8912778,6.74058264 C29.052005,6.82029874 27.4965996,5.37686783 27.4177735,3.51635084 C27.3389476,1.65583387 28.7662609,0.0828642814 30.6060029,0.00314817534 C32.4457448,-0.0765679307 34.0011503,1.36733749 34.0799763,3.22785446" id="Fill-8" fill="#767474"></path>
                                <path d="M18.1611911,36.143323 C10.821449,36.143323 4.42990315,33.4727455 1.10243631,29.5277294 C3.62049194,36.6003843 10.3071672,41.6571153 18.1611911,41.6571153 C26.015215,41.6571153 32.7018903,36.6003843 35.219946,29.5277294 C31.8924791,33.4727455 25.5009333,36.143323 18.1611911,36.143323" id="Fill-9" fill="#E46E2E"></path>
                                <path d="M18.1611911,10.4655077 C25.5009333,10.4655077 31.8924791,13.1357434 35.219946,17.0811013 C32.7018903,10.0084465 26.015215,4.95137355 18.1611911,4.95137355 C10.3071672,4.95137355 3.62049194,10.0084465 1.10243631,17.0811013 C4.42990315,13.1357434 10.821449,10.4655077 18.1611911,10.4655077" id="Fill-10" fill="#E46E2E"></path>
                                <path d="M9.51449564,43.9510295 C9.60805352,46.1612328 7.91196951,48.0295314 5.72632767,48.1246089 C3.54068584,48.2192182 1.69314921,46.5040743 1.59959133,44.293871 C1.50557029,42.0836678 3.2016543,40.2149008 5.38729614,40.1202916 C7.57293798,40.0256824 9.42093776,41.7408263 9.51449564,43.9510295" id="Fill-11" fill="#767474"></path>
                                <path d="M2.52595497,8.93172334 C1.18951475,8.98954068 0.0594673938,7.94083749 0.00229099533,6.58894578 C-0.0553502519,5.23752413 0.981727351,4.09480899 2.31863241,4.03699165 C3.65507262,3.9791743 4.78511998,5.02787751 4.84229637,6.37929914 C4.89993763,7.73119085 3.86239517,8.87390599 2.52595497,8.93172334 L2.52595497,8.93172334 Z" id="Fill-12" fill="#767474"></path>
                            </g>
                        </g>
                    </g>
                </g>
            </g>
        </g>
    </g>
</svg>