<?xml version="1.0" encoding="utf-8"?>
<!-- Generator: Adobe Illustrator 19.1.0, SVG Export Plug-In . SVG Version: 6.00 Build 0)  -->
<svg version="1.1" id="Layer_1" xmlns="http://www.w3.org/2000/svg" xmlns:xlink="http://www.w3.org/1999/xlink" x="0px" y="0px"
	 viewBox="-497 504 28 34" style="enable-background:new -497 504 28 34;" xml:space="preserve">
<style type="text/css">
	.st0{fill:#F27624;}
	.st1{fill:#BC561E;}
</style>
<title>Next Arrow</title>
<desc>Created with Sketch.</desc>
<g id="Page-1">
	<g id="Artboard-1" transform="translate(-854.000000, -899.000000)">
		<g id="Window---_x28_Full_x29_-1_x2F_1-100-x-100" transform="translate(344.000000, 7.000000)">
			<g id="About" transform="translate(148.000000, 179.000000)">
				<path id="Next-Arrow" class="st0" d="M-107.3,1219l-1.4-1.4c-0.2-0.2-0.4-0.3-0.6-0.3c-0.2,0-0.5,0.1-0.6,0.3l-11,11l-11-11
					c-0.2-0.2-0.4-0.3-0.6-0.3c-0.3,0-0.5,0.1-0.6,0.3l-1.4,1.4c-0.2,0.2-0.3,0.4-0.3,0.6c0,0.2,0.1,0.5,0.3,0.6l13,13
					c0.2,0.2,0.4,0.3,0.6,0.3s0.5-0.1,0.6-0.3l13-13c0.2-0.2,0.3-0.4,0.3-0.6C-107,1219.5-107.1,1219.2-107.3,1219z"/>
			</g>
		</g>
	</g>
</g>
<g id="Page-1_1_">
	<g id="Artboard-1_1_" transform="translate(-854.000000, -899.000000)">
		<g id="Window---_x28_Full_x29_-1_x2F_1-100-x-100_1_" transform="translate(344.000000, 7.000000)">
			<g id="About_1_" transform="translate(148.000000, 179.000000)">
				<path id="Next-Arrow_1_" class="st1" d="M-107.3,1236.4l-1.4-1.4c-0.2-0.2-0.4-0.3-0.6-0.3c-0.2,0-0.5,0.1-0.6,0.3l-11,11
					l-11-11c-0.2-0.2-0.4-0.3-0.6-0.3c-0.3,0-0.5,0.1-0.6,0.3l-1.4,1.4c-0.2,0.2-0.3,0.4-0.3,0.6c0,0.2,0.1,0.5,0.3,0.6l13,13
					c0.2,0.2,0.4,0.3,0.6,0.3s0.5-0.1,0.6-0.3l13-13c0.2-0.2,0.3-0.4,0.3-0.6C-107,1236.9-107.1,1236.6-107.3,1236.4z"/>
			</g>
		</g>
	</g>
</g>
</svg>
