<svg width="31px" height="40px" viewBox="77 0 31 40" version="1.1" xmlns="http://www.w3.org/2000/svg" xmlns:xlink="http://www.w3.org/1999/xlink">
    <!-- Generator: Sketch 3.8.3 (29802) - http://www.bohemiancoding.com/sketch -->
    <desc>Created with Sketch.</desc>
    <defs>
        <path d="M0,20 L0,34 L1,34 L2.08535285,34 C2.29127106,33.4174038 2.84689059,33 3.5,33 C4.32842712,33 5,33.6715729 5,34.5 C5,35.3284271 4.32842712,36 3.5,36 C2.84689059,36 2.29127106,35.5825962 2.08535285,35 L1,35 L5.55111512e-17,35 L0,36.9934988 C0,38.6576906 1.34315432,40 3.00001915,40 L26.9999809,40 C28.6526814,40 30,38.6539436 30,36.9934988 L30,3.0065012 C30,1.34230941 28.6568457,0 26.9999809,0 L3.00001915,0 C1.34731857,0 0,1.34605644 0,3.0065012 L0,5 L1,5 L2.08535285,5 C2.29127106,4.41740381 2.84689059,4 3.5,4 C4.32842712,4 5,4.67157288 5,5.5 C5,6.32842712 4.32842712,7 3.5,7 C2.84689059,7 2.29127106,6.58259619 2.08535285,6 L1,6 L5.55111512e-17,6 L0,19 L1,19 L2.08535285,19 C2.29127106,18.4174038 2.84689059,18 3.5,18 C4.32842712,18 5,18.6715729 5,19.5 C5,20.3284271 4.32842712,21 3.5,21 C2.84689059,21 2.29127106,20.5825962 2.08535285,20 L1,20 L5.55111512e-17,20 Z M24.4538243,4.95962728 C24.476608,5.51275099 24.064061,5.98024704 23.5321709,6.00394629 C23.0005521,6.02764555 22.5509816,5.59851973 22.5281979,5.04539602 C22.5054143,4.4922723 22.9179614,4.0246352 23.4497158,4.00093594 C23.9814702,3.97723668 24.4310407,4.40650357 24.4538243,4.95962728 Z M19.8526986,14.7452548 C17.7312379,14.7452548 15.8838415,13.9513036 14.9220788,12.7784672 C15.6498913,14.8811372 17.5825912,16.3844816 19.8526986,16.3844816 C22.1228059,16.3844816 24.0555058,14.8811372 24.7833183,12.7784672 C23.8215556,13.9513036 21.9741593,14.7452548 19.8526986,14.7452548 Z M19.8526986,7.11135054 C21.9741593,7.11135054 23.8215556,7.90520016 24.7833183,9.07813812 C24.0555058,6.9754682 22.1228059,5.47202211 19.8526986,5.47202211 C17.5825912,5.47202211 15.6498913,6.9754682 14.9220788,9.07813812 C15.8838415,7.90520016 17.7312379,7.11135054 19.8526986,7.11135054 Z M17.3534794,17.0664525 C17.3805211,17.7235364 16.8902892,18.2789736 16.2585568,18.3072397 C15.6268243,18.3353666 15.092817,17.8254617 15.0657753,17.1683778 C15.0385996,16.5112938 15.5288315,15.9557174 16.160564,15.9275905 C16.7922964,15.8994636 17.3264376,16.4093685 17.3534794,17.0664525 Z M15.3335291,6.65536302 C14.9472477,6.67255187 14.6206217,6.36077691 14.6040956,5.95886531 C14.5874351,5.55709345 14.8871894,5.21736914 15.2736051,5.20018029 C15.6598864,5.18299144 15.9865125,5.49476641 16.0030386,5.89653826 C16.0196991,6.29844986 15.7198104,6.63817417 15.3335291,6.65536302 Z" id="path-1"></path>
        <linearGradient x1="50%" y1="0%" x2="50%" y2="100%" id="linearGradient-3">
            <stop stop-color="#FAAE4A" offset="0%"></stop>
            <stop stop-color="#F27624" offset="100%"></stop>
        </linearGradient>
    </defs>
    <g id="Notebook-icon" stroke="none" stroke-width="1" fill="none" fill-rule="evenodd" transform="translate(78.000000, 0.000000)">
        <mask id="mask-2" fill="white">
            <use xlink:href="#path-1"></use>
        </mask>
        <use id="Mask" fill-opacity="0.8" fill="#F27624" xlink:href="#path-1"></use>
        <rect id="Mask" fill="url(#linearGradient-3)" mask="url(#mask-2)" x="-5" y="0" width="40" height="40"></rect>
    </g>
</svg>