<?xml version="1.0" encoding="utf-8"?>
<!DOCTYPE svg PUBLIC "-//W3C//DTD SVG 1.1//EN" "http://www.w3.org/Graphics/SVG/1.1/DTD/svg11.dtd">
<svg version="1.1" id="Layer_1" xmlns="http://www.w3.org/2000/svg" xmlns:xlink="http://www.w3.org/1999/xlink" x="0px" y="0px"
	 width="24px" height="24px" viewBox="0 0 24 24" enable-background="new 0 0 24 24" xml:space="preserve">
  <g
     id="g4"
     style="fill:#00af8b">
    <path
       d="m 12.001,2.085 c -5.478,0 -9.916,4.438 -9.916,9.916 0,5.476 4.438,9.914 9.916,9.914 5.476,0 9.914,-4.438 9.914,-9.914 0,-5.478 -4.438,-9.916 -9.914,-9.916 z m 0.001,18 c -4.465,0 -8.084,-3.619 -8.084,-8.083 0,-4.465 3.619,-8.084 8.084,-8.084 4.464,0 8.083,3.619 8.083,8.084 0,4.464 -3.619,8.083 -8.083,8.083 z"
       id="path6" />
    <g
       id="g9"
       transform="matrix(0.33275,0,0,0.33275,-4.6427888,-6.8567577)"
       style="fill:#000000">
      <path
         d="m 46.135,69.28 -0.157,-0.168 -4.395,-4.713 -6.496,-6.966 4.811,-4.484 6.496,6.965 17.548,-16.363 4.552,4.882 -22.359,20.847 z"
         id="path12" />
    </g>
  </g>
</svg>
