<?xml version="1.0" encoding="UTF-8" standalone="no"?>
<!-- Generator: Adobe Illustrator 21.1.0, SVG Export Plug-In . SVG Version: 6.00 Build 0)  -->

<svg
   xmlns="http://www.w3.org/2000/svg"
   version="1.1"
   id="Layer_3"
   x="0px"
   y="0px"
   viewBox="0 0 111.2 111.2"
   xml:space="preserve"
   width="111.2"
   height="111.2"
   >
   <style
     type="text/css"
     id="style2">
	.st0{fill:#53245E;}
	.st1{fill:#C6AAC8;}
	.st2{fill:#8E548D;}
  </style>
  <path
     class="st0"
     d="m 69.2,5.6000031 h -7.4 c -0.8,0 -1.6,-0.5 -2,-1.1 -1.7,-2.7 -4.7,-4.5000000482422 -8.2,-4.5000000482422 -3.5,0 -6.4,1.9000000482422 -8.2,4.5000000482422 -0.5,0.6 -1.1,1.1 -2,1.1 h -7.3 c -4.1,0 -7.7,3.1 -7.8,7.0999999 -0.3,4.4 3.3,8.2 7.7,8.2 h 35.4 c 4.4,0 7.8,-3.8 7.7,-8.2 C 76.9,8.7000031 73.3,5.6000031 69.2,5.6000031 Z"
     id="path4"
     style="fill:#53245e" /><path
     class="st1"
     d="M 90.4,14.400003 H 83 c -0.6,0 -1.1,0.5 -1.3,1.1 -0.5,2.4 -1.4,4.5 -3.1,6.4 -2.4,2.5 -5.6,3.9 -8.9,3.9 H 34.1 c -3.4,0 -6.6,-1.4 -8.9,-3.9 -1.7,-1.7 -2.7,-4.1 -3.1,-6.4 -0.2,-0.6 -0.6,-1.1 -1.3,-1.1 h -7.5 c -0.6,0 -1.3,0.5 -1.3,1.1 V 108.9 c 0,0.6 0.6,1.3 1.3,1.3 h 58 c 1.1,0 1.6,-1.3 0.9,-2 -2.8,-3.4 -4.5,-8 -4.5,-12.899997 0,-11.3 9.2,-20.5 20.5,-20.5 0.6,0 1.3,0 1.9,0.2 0.8,0 1.4,-0.5 1.4,-1.3 v -58.2 c 0.1,-0.7 -0.5,-1.1 -1.1,-1.1 z m -40.3,78.5 H 26.4 c -1.3,0 -2.4,-1.1 -2.4,-2.4 0,-1.3 1.1,-2.4 2.4,-2.4 h 23.7 c 1.3,0 2.4,1.1 2.4,2.4 0,1.3 -1,2.4 -2.4,2.4 z m 27.1,-20.4 H 26.4 c -1.3,0 -2.4,-1.1 -2.4,-2.4 0,-1.3 1.1,-2.4 2.4,-2.4 h 50.8 c 1.3,0 2.4,1.1 2.4,2.4 0,1.3 -1.1,2.4 -2.4,2.4 z m 0,-14.499999 H 26.4 c -1.3,0 -2.4,-1.1 -2.4,-2.4 0,-1.3 1.1,-2.4 2.4,-2.4 h 50.8 c 1.3,0 2.4,1.1 2.4,2.4 0,1.4 -1.1,2.4 -2.4,2.4 z m 0,-14.5 H 26.4 c -1.3,0 -2.4,-1.1 -2.4,-2.400001 0,-1.3 1.1,-2.4 2.4,-2.4 h 50.8 c 1.3,0 2.4,1.1 2.4,2.4 0,1.300001 -1.1,2.400001 -2.4,2.400001 z"
     id="path6"
     style="fill:#c6aac8" /><path
     class="st2"
     d="m 88.4,79.600003 c -8.8,0 -15.8,7.1 -15.8,15.8 C 72.6,104.1 79.7,111.2 88.4,111.2 c 8.7,0 15.8,-7.1 15.8,-15.799997 0,-8.7 -7.2,-15.8 -15.8,-15.8 z m 9.7,12.1 L 86.3,103.6 c -0.5,0.5 -1.1,0.6 -1.7,0.6 0,0 0,0 -0.2,0 -0.6,0 -1.3,-0.3 -1.7,-0.8 l -5.5,-6.599997 c -0.8,-0.9 -0.8,-2.5 0.3,-3.3 0.9,-0.8 2.5,-0.8 3.3,0.3 l 3,3.6 c 0.5,0.5 1.3,0.6 1.7,0 l 8.9,-9.1 c 0.9,-0.9 2.4,-0.9 3.3,0 1.2,1 1.2,2.4 0.4,3.4 z"
     id="path8"
     style="fill:#8e548d" />
  </svg>
  