<?xml version="1.0" encoding="utf-8"?>
<!-- Generator: Adobe Illustrator 22.0.1, SVG Export Plug-In . SVG Version: 6.00 Build 0)  -->
<svg version="1.1" id="Layer_1" xmlns="http://www.w3.org/2000/svg" xmlns:xlink="http://www.w3.org/1999/xlink" x="0px" y="0px"
	 viewBox="0 0 24 24" style="enable-background:new 0 0 24 24;" xml:space="preserve">
<style type="text/css">
	.st0{fill:none;stroke:#616161;stroke-width:0.9346;}
	.st1{fill:#616161;}
</style>
<path class="st0" d="M3.8,6.7h16.4c0.5,0,0.9,0.4,0.9,0.9V17c0,0.5-0.4,0.9-0.9,0.9H3.8c-0.5,0-0.9-0.4-0.9-0.9V7.7
	C2.9,7.1,3.3,6.7,3.8,6.7z"/>
<path class="st1" d="M5.2,15.5V9.1H7l1.8,2.4l1.8-2.4h1.8v6.4h-1.8v-3.7l-1.8,2.4L7,11.8v3.7H5.2z M16.7,15.5l-2.8-3.1h1.8V9.1h1.8
	v3.3h1.8L16.7,15.5z"/>
</svg>
