<?xml version="1.0" encoding="utf-8"?>
<!-- Generator: Adobe Illustrator 19.1.0, SVG Export Plug-In . SVG Version: 6.00 Build 0)  -->
<!DOCTYPE svg PUBLIC "-//W3C//DTD SVG 1.1//EN" "http://www.w3.org/Graphics/SVG/1.1/DTD/svg11.dtd">
<svg version="1.1" id="Layer_1" xmlns="http://www.w3.org/2000/svg" xmlns:xlink="http://www.w3.org/1999/xlink" x="0px" y="0px"
	 viewBox="28 0 200 70" xml:space="preserve">
<path id="D_Glow_1_" display="none" fill="none" stroke="#683E98" stroke-miterlimit="10" d="M114.9,47.5V36.8l-7.8,3.1v10.2
	c-1.6-0.7-3.3-1-5-1c-7.1,0-12.8,5.7-12.8,12.8c0,0.2,0,0.5,0,0.7c3.2-0.8,5.8-2.9,7.4-5.7c0.5,0.1,1.1,0.2,1.6,0.2
	c1-0.8,2.3-1.3,3.7-1.3c1,0,1.9,0.2,2.7,0.6C109.2,55.1,112.9,51.8,114.9,47.5z"/>
<path id="Fill-1" fill="#323A41" d="M76.9,50.3c0,4.5-0.3,6-1.3,7.1c-0.8,0.9-2.2,1.3-3.7,1.4l0.3,2.7c1.8,0,4.3-0.6,5.8-2.1
	c1.7-1.7,2.2-4.1,2.2-7.8V34.5h-3.4V50.3"/>
<path id="Fill-2" fill="#323A41" d="M102.2,48.2c0,1.9,0,3.7,0.2,5.1h-3l-0.2-3.1h-0.1c-0.9,1.5-2.9,3.5-6.2,3.5
	c-2.9,0-6.4-1.6-6.4-8.3v-11h3.4V45c0,3.6,1.1,6,4.2,6c2.3,0,3.9-1.6,4.5-3.1c0.2-0.5,0.3-1.1,0.3-1.8V34.5h3.4V48.2"/>
<path id="Fill-3" fill="#323A41" d="M108.6,40.7c0-2.4-0.1-4.4-0.2-6.2h3l0.2,3.2h0.1c1.4-2.3,3.6-3.7,6.6-3.7
	c4.5,0,7.9,3.9,7.9,9.6c0,6.8-4.1,10.1-8.5,10.1c-2.5,0-4.6-1.1-5.7-3H112v10.2h-3.4V40.7L108.6,40.7z M112,45.7
	c0,0.5,0.1,1,0.2,1.4c0.6,2.4,2.7,4,5.1,4c3.6,0,5.7-3,5.7-7.3c0-3.8-2-7-5.6-7c-2.3,0-4.5,1.7-5.1,4.2c-0.1,0.4-0.2,0.9-0.2,1.4
	V45.7L112,45.7z"/>
<path id="Fill-4" fill="#323A41" d="M132.3,34.5l4.1,11.1c0.4,1.2,0.9,2.7,1.2,3.9h0.1c0.3-1.1,0.7-2.6,1.2-3.9l3.7-11.1h3.6
	L141.1,48c-2.4,6.5-4.1,9.8-6.4,11.8c-1.7,1.5-3.3,2.1-4.2,2.2l-0.8-2.9c0.8-0.3,2-0.8,3-1.7c0.9-0.7,2.1-2.1,2.9-3.8
	c0.2-0.4,0.3-0.6,0.3-0.8c0-0.2-0.1-0.5-0.2-0.9l-6.9-17.4H132.3"/>
<path id="Fill-5" fill="#323A41" d="M155.1,29.1v5.4h4.9v2.6h-4.9v10.2c0,2.3,0.7,3.7,2.5,3.7c0.9,0,1.5-0.1,2-0.2l0.2,2.6
	c-0.7,0.3-1.7,0.5-3,0.5c-1.6,0-2.9-0.5-3.7-1.4c-1-1-1.3-2.7-1.3-4.9V37.1h-2.9v-2.6h2.9V30L155.1,29.1"/>
<path id="Fill-6" fill="#323A41" d="M166.2,44.6c0.1,4.6,3,6.5,6.4,6.5c2.4,0,3.9-0.4,5.2-1l0.6,2.5c-1.2,0.5-3.2,1.2-6.2,1.2
	c-5.7,0-9.2-3.8-9.2-9.5s3.3-10.2,8.8-10.2c6.1,0,7.7,5.4,7.7,8.9c0,0.7-0.1,1.2-0.1,1.6H166.2L166.2,44.6z M176.2,42.1
	c0-2.2-0.9-5.6-4.7-5.6c-3.4,0-4.9,3.2-5.2,5.6H176.2L176.2,42.1z"/>
<path id="Fill-7" fill="#323A41" d="M184.4,40.4c0-2.2,0-4.1-0.2-5.9h3l0.1,3.7h0.2c0.8-2.5,2.9-4.1,5.2-4.1c0.4,0,0.7,0,1,0.1v3.2
	c-0.3-0.1-0.7-0.1-1.2-0.1c-2.4,0-4.1,1.8-4.6,4.4c-0.1,0.5-0.2,1-0.2,1.6v10h-3.4V40.4"/>
<path id="Fill-8" fill="#777575" d="M60.2,25.8c0.1,1.8-1.3,3.3-3,3.3c-1.7,0.1-3.2-1.3-3.3-3.1c-0.1-1.8,1.3-3.3,3-3.3
	S60.1,24,60.2,25.8"/>
<path id="Fill-9" fill="#E36F2C" d="M45.1,56.9c-7,0-13-2.5-16.2-6.3c2.4,6.7,8.7,11.5,16.2,11.5s13.8-4.8,16.2-11.5
	C58.1,54.4,52.1,56.9,45.1,56.9"/>
<path id="Fill-10" fill="#E36F2C" d="M45.1,32.6c7,0,13,2.5,16.2,6.3c-2.4-6.7-8.7-11.5-16.2-11.5s-13.8,4.8-16.2,11.5
	C32.1,35.1,38.1,32.6,45.1,32.6"/>
<path id="Fill-11" fill="#777575" d="M36.9,64.3c0.1,2.1-1.5,3.9-3.6,4c-2.1,0.1-3.8-1.5-3.9-3.6c-0.1-2.1,1.5-3.9,3.6-4
	C35,60.6,36.8,62.2,36.9,64.3"/>
<path id="Fill-12" fill="#777575" d="M30.3,31.2c-1.3,0.1-2.3-0.9-2.4-2.2c-0.1-1.3,0.9-2.4,2.2-2.4c1.3-0.1,2.3,0.9,2.4,2.2
	C32.5,30,31.5,31.1,30.3,31.2z"/>
</svg>
