<svg width="406" height="85" viewBox="0 0 406 85" fill="none" xmlns="http://www.w3.org/2000/svg">
<path d="M94.1599 51.9293C94.1599 60.5061 93.5057 63.3065 91.7612 65.3736C89.8569 67.1335 87.3662 68.1068 84.7833 68.1006L85.4375 73.2026C89.4409 73.2581 93.3217 71.8106 96.3259 69.1416C99.4514 65.8868 100.542 61.3858 100.542 54.4805V22.05H94.1453V51.9733L94.1599 51.9293Z" fill="#FFFFFF"/>
<path d="M141.869 48.0214C141.869 51.7161 141.869 54.9707 142.16 57.7711H136.563L136.199 51.9066H136.054C134.876 53.9562 133.177 55.6521 131.133 56.8194C129.089 57.9869 126.773 58.5836 124.424 58.5481C118.9 58.5481 112.3 55.4399 112.3 42.8901V21.9832H118.696V41.8197C118.696 48.6226 120.732 53.1967 126.532 53.1967C128.352 53.1632 130.121 52.5889 131.618 51.5456C133.115 50.5024 134.274 49.0367 134.949 47.3324C135.337 46.2666 135.534 45.1396 135.531 44.0042V22.0126H141.927V48.0214H141.869Z" fill="#FFFFFF"/>
<path d="M153.924 33.6771C153.924 29.1028 153.779 25.4082 153.633 21.9481H159.376L159.666 28.0765H159.812C161.068 25.8807 162.895 24.0728 165.096 22.8481C167.297 21.6233 169.788 21.0282 172.299 21.1271C180.789 21.1271 187.185 28.4577 187.185 39.3069C187.185 52.1647 179.495 58.513 171.194 58.513C169.064 58.6032 166.946 58.1329 165.05 57.1485C163.154 56.164 161.544 54.6992 160.379 52.8979H160.233V72.3239H153.91V33.6184L153.924 33.6771ZM160.248 43.2069C160.265 44.0984 160.362 44.9867 160.539 45.8605C161.06 48.0277 162.287 49.9557 164.024 51.3354C165.761 52.7152 167.908 53.4667 170.119 53.4695C176.879 53.4695 180.789 47.8544 180.789 39.6589C180.789 32.4895 177.082 26.3611 170.337 26.3611C168.068 26.4252 165.886 27.2521 164.137 28.7105C162.388 30.1689 161.173 32.1751 160.684 34.4101C160.428 35.2725 160.281 36.1642 160.248 37.0638V43.1922V43.2069Z" fill="#FFFFFF"/>
<path d="M198.501 22.0166L206.191 43.1433C206.991 45.5038 207.863 48.3188 208.444 50.4739H208.59C209.244 48.3334 209.971 45.5918 210.843 43.0114L217.821 22.0313H224.581L215.001 47.5269C210.421 59.7838 207.31 66.0733 202.949 69.9146C200.746 71.9818 198.044 73.4323 195.114 74.1223L193.515 68.6538C195.565 67.9648 197.465 66.8846 199.111 65.4723C201.438 63.5119 203.279 61.0323 204.49 58.2296C204.749 57.7456 204.921 57.2196 204.999 56.6756C204.942 56.0893 204.794 55.5156 204.563 54.9748L191.567 22.0313H198.544L198.501 22.0166Z" fill="#FFFFFF"/>
<path d="M241.369 11.7334V21.9962H250.513V26.9517H241.369V46.2164C241.369 50.6147 242.605 53.1657 246.167 53.1657C247.416 53.1854 248.663 53.0374 249.874 52.7259L250.164 57.6081C248.345 58.2542 246.422 58.5526 244.495 58.4877C243.216 58.5667 241.936 58.3637 240.744 57.8927C239.551 57.4217 238.475 56.6942 237.59 55.7607C235.772 53.8402 235.118 50.6587 235.118 46.4511V26.9517H229.667V21.9962H235.118V13.4194L241.369 11.7334Z" fill="#FFFFFF"/>
<path d="M262.298 41.0638C262.443 49.8604 267.967 53.4818 274.349 53.4818C277.685 53.5874 281.005 52.9569 284.074 51.6344L285.165 56.2821C281.487 57.8399 277.523 58.5944 273.535 58.4959C262.719 58.4959 256.25 51.2533 256.25 40.4626C256.25 29.6721 262.501 21.1833 272.735 21.1833C284.205 21.1833 287.273 31.4461 287.273 38.0289C287.262 39.0441 287.189 40.0576 287.055 41.0638H262.341H262.298ZM281.036 36.4162C281.109 32.2818 279.364 25.8455 272.183 25.8455C265.714 25.8455 262.894 31.9006 262.385 36.4162H281.051H281.036Z" fill="#FFFFFF"/>
<path d="M296.574 33.1642C296.574 28.9564 296.501 25.3351 296.283 22.0071H301.88L302.098 29.0297H302.389C303.988 24.2209 307.84 21.2007 312.114 21.2007C312.727 21.1917 313.338 21.2656 313.932 21.4206V27.549C313.216 27.3915 312.484 27.3177 311.751 27.3291C307.244 27.3291 304.061 30.8037 303.189 35.6712C303.009 36.673 302.911 37.6881 302.898 38.7061V57.7656H296.574V33.1642Z" fill="#FFFFFF"/>
<path d="M61.9893 5.25676C62.0316 6.23618 61.7848 7.20621 61.2803 8.04418C60.7758 8.88213 60.0362 9.55034 59.1551 9.96428C58.2739 10.3782 57.2908 10.5193 56.3302 10.3696C55.3695 10.2199 54.4745 9.78626 53.7582 9.12344C53.042 8.46064 52.5368 7.59848 52.3066 6.64605C52.0763 5.69361 52.1314 4.69371 52.4647 3.77283C52.7981 2.85193 53.3948 2.05146 54.1793 1.47266C54.9638 0.89386 55.901 0.562748 56.8722 0.521216C58.1732 0.465576 59.443 0.933077 60.4024 1.82101C61.3619 2.70895 61.9327 3.9447 61.9893 5.25676Z" fill="#FFFFFF"/>
<path d="M33.341 63.5235C20.2575 63.5235 8.83118 58.7293 2.89998 51.6333C5.10896 58.0006 9.22591 63.518 14.681 67.4217C20.1361 71.3253 26.6595 73.4223 33.3483 73.4223C40.0371 73.4223 46.5605 71.3253 52.0156 67.4217C57.4706 63.518 61.5876 58.0006 63.7966 51.6333C57.8508 58.7293 46.4246 63.5235 33.341 63.5235Z" fill="#F37726"/>
<path d="M33.3388 17.3655C46.4225 17.3655 57.8488 22.1597 63.78 29.2556C61.571 22.8883 57.454 17.371 51.999 13.4673C46.5438 9.5636 40.0205 7.46663 33.3316 7.46663C26.6428 7.46663 20.1195 9.5636 14.6643 13.4673C9.20923 17.371 5.09228 22.8883 2.8833 29.2556C8.82905 22.1743 20.2553 17.3655 33.3388 17.3655Z" fill="#F37726"/>
<path d="M15.3799 77.3224C15.4335 78.5573 15.1227 79.7804 14.4866 80.837C13.8506 81.8935 12.918 82.736 11.8069 83.2578C10.6959 83.7795 9.45626 83.957 8.24511 83.7678C7.03394 83.5786 5.90568 83.0313 5.00314 82.195C4.10062 81.3588 3.46443 80.2712 3.1751 79.0701C2.88578 77.869 2.95635 76.6083 3.37787 75.4477C3.79939 74.287 4.5529 73.2786 5.54301 72.5502C6.53313 71.8217 7.71531 71.4058 8.93989 71.3553C10.5779 71.2878 12.1756 71.8779 13.3828 72.9965C14.59 74.115 15.3081 75.6707 15.3799 77.3224Z" fill="#989798"/>
<path d="M4.39116 15.7606C3.67269 15.7919 2.96116 15.6075 2.34663 15.2308C1.73209 14.8541 1.24219 14.302 0.938927 13.6444C0.635665 12.9867 0.532676 12.2531 0.642995 11.5364C0.753314 10.8198 1.07198 10.1522 1.55866 9.61823C2.04535 9.08428 2.67816 8.70794 3.37701 8.53686C4.07586 8.36578 4.80933 8.40764 5.48458 8.65715C6.15983 8.90666 6.74651 9.3526 7.17034 9.93853C7.59418 10.5245 7.83613 11.224 7.86556 11.9487C7.90496 12.9185 7.56128 13.8646 6.90993 14.5792C6.25858 15.2938 5.35274 15.7187 4.39116 15.7606Z" fill="#FFFFFF"/>
<path d="M331.354 11.5V58H325.723V11.5H331.354ZM359.659 52.3994V35.5371C359.659 34.2454 359.397 33.1253 358.872 32.1768C358.368 31.208 357.601 30.4613 356.571 29.9365C355.542 29.4118 354.271 29.1494 352.757 29.1494C351.344 29.1494 350.103 29.3916 349.033 29.876C347.984 30.3604 347.156 30.9961 346.551 31.7832C345.965 32.5703 345.673 33.418 345.673 34.3262H340.072C340.072 33.1556 340.375 31.9951 340.98 30.8447C341.586 29.6943 342.454 28.6549 343.584 27.7266C344.734 26.778 346.107 26.0312 347.701 25.4863C349.316 24.9212 351.112 24.6387 353.09 24.6387C355.471 24.6387 357.57 25.0423 359.387 25.8496C361.223 26.6569 362.656 27.8779 363.686 29.5127C364.735 31.1273 365.26 33.1556 365.26 35.5977V50.8555C365.26 51.9453 365.351 53.1058 365.532 54.3369C365.734 55.568 366.027 56.6276 366.41 57.5156V58H360.567C360.285 57.3542 360.063 56.4964 359.901 55.4268C359.74 54.3369 359.659 53.3278 359.659 52.3994ZM360.628 38.1406L360.688 42.0762H355.027C353.433 42.0762 352.01 42.2074 350.759 42.4697C349.507 42.7119 348.458 43.0853 347.61 43.5898C346.763 44.0944 346.117 44.7301 345.673 45.4971C345.229 46.2438 345.007 47.1217 345.007 48.1309C345.007 49.1602 345.239 50.0986 345.703 50.9463C346.167 51.7939 346.864 52.4701 347.792 52.9746C348.741 53.459 349.901 53.7012 351.273 53.7012C352.989 53.7012 354.503 53.3379 355.814 52.6113C357.126 51.8848 358.166 50.9967 358.933 49.9473C359.72 48.8978 360.144 47.8786 360.204 46.8896L362.596 49.584C362.454 50.4316 362.071 51.3701 361.445 52.3994C360.82 53.4287 359.982 54.4176 358.933 55.3662C357.903 56.2946 356.672 57.0716 355.239 57.6973C353.826 58.3027 352.232 58.6055 350.456 58.6055C348.236 58.6055 346.288 58.1715 344.613 57.3037C342.958 56.4359 341.667 55.2754 340.738 53.8223C339.83 52.349 339.376 50.7041 339.376 48.8877C339.376 47.1318 339.719 45.5879 340.405 44.2559C341.091 42.9036 342.08 41.7835 343.372 40.8955C344.664 39.9873 346.218 39.3011 348.034 38.8369C349.851 38.3727 351.879 38.1406 354.119 38.1406H360.628ZM374.039 11.5H379.67V51.6426L379.186 58H374.039V11.5ZM401.8 41.3496V41.9854C401.8 44.3669 401.517 46.5768 400.952 48.6152C400.387 50.6335 399.56 52.3893 398.47 53.8828C397.38 55.3763 396.048 56.5368 394.474 57.3643C392.899 58.1917 391.093 58.6055 389.055 58.6055C386.976 58.6055 385.149 58.2523 383.575 57.5459C382.021 56.8193 380.709 55.7799 379.64 54.4277C378.57 53.0755 377.712 51.4408 377.066 49.5234C376.441 47.6061 376.007 45.4466 375.765 43.0449V40.2598C376.007 37.8379 376.441 35.6683 377.066 33.751C377.712 31.8337 378.57 30.1989 379.64 28.8467C380.709 27.4743 382.021 26.4349 383.575 25.7285C385.129 25.002 386.936 24.6387 388.994 24.6387C391.053 24.6387 392.879 25.0423 394.474 25.8496C396.068 26.6367 397.4 27.7669 398.47 29.2402C399.56 30.7135 400.387 32.4795 400.952 34.5381C401.517 36.5765 401.8 38.847 401.8 41.3496ZM396.169 41.9854V41.3496C396.169 39.7148 396.018 38.181 395.715 36.748C395.412 35.2949 394.928 34.0234 394.262 32.9336C393.596 31.8236 392.718 30.9557 391.628 30.3301C390.538 29.6842 389.196 29.3613 387.602 29.3613C386.189 29.3613 384.958 29.6035 383.908 30.0879C382.879 30.5723 382.001 31.2282 381.274 32.0557C380.548 32.863 379.952 33.7913 379.488 34.8408C379.044 35.8701 378.711 36.9398 378.489 38.0498V45.3457C378.812 46.7585 379.337 48.1208 380.063 49.4326C380.81 50.7243 381.799 51.7839 383.03 52.6113C384.282 53.4388 385.826 53.8525 387.662 53.8525C389.176 53.8525 390.467 53.5498 391.537 52.9443C392.627 52.3187 393.505 51.4609 394.171 50.3711C394.857 49.2812 395.362 48.0199 395.685 46.5869C396.007 45.154 396.169 43.6201 396.169 41.9854Z" fill="#F37726"/>
</svg>
