<?xml version="1.0" encoding="utf-8"?>
<svg version="1.1" id="Layer_1" xmlns="http://www.w3.org/2000/svg" xmlns:xlink="http://www.w3.org/1999/xlink" x="0px" y="0px"
	 viewBox="0 0 22 22" style="enable-background:new 0 0 22 22;" xml:space="preserve">
	<path class="jp-icon3 jp-icon-selectable" fill="#616161" d="M19.3,8.2l-5.5-5.5c-0.3-0.3-0.7-0.5-1.2-0.5H3.9C3.1,2.3,2.3,3.1,2.3,4v14.1c0,0.9,0.7,1.6,1.6,1.6h14.2
	c0.9,0,1.6-0.7,1.6-1.6V9.4C19.8,8.9,19.6,8.5,19.3,8.2z M13.5,4.9l3.4,3.6h-3.4V4.9z M17.4,17.6l-12.7,0c-0.1,0-0.2,0-0.2-0.2V4.7
	c0-0.2,0.1-0.3,0.2-0.3h7.2v4.4c0,0,0,0.8,0.3,1.1c0.3,0.3,1.1,0.3,1.1,0.3h4.3l0,7.2C17.6,17.4,17.5,17.6,17.4,17.6z"/>
</svg>
