<svg xmlns="http://www.w3.org/2000/svg" width="16" viewBox="0 0 22 22">
  <g class="jp-icon-warn1 jp-icon-selectable" fill="#F9A825">
    <path d="M20.2 11.8c-1.6 0-1.7.5-1.7 1 0 .4.1.9.1 1.3.1.5.1.9.1 1.3 0 1.7-1.4 2.3-3.5 2.3h-.9v-1.9h.5c1.1 0 1.4 0 1.4-.8 0-.3 0-.6-.1-1 0-.4-.1-.8-.1-1.2 0-1.3 0-1.8 1.3-2-1.3-.2-1.3-.7-1.3-2 0-.4.1-.8.1-1.2.1-.4.1-.7.1-1 0-.8-.4-.7-1.4-.8h-.5V4.1h.9c2.2 0 3.5.7 3.5 2.3 0 .4-.1.9-.1 1.3-.1.5-.1.9-.1 1.3 0 .5.2 1 1.7 1v1.8zM1.8 10.1c1.6 0 1.7-.5 1.7-1 0-.4-.1-.9-.1-1.3-.1-.5-.1-.9-.1-1.3 0-1.6 1.4-2.3 3.5-2.3h.9v1.9h-.5c-1 0-1.4 0-1.4.8 0 .3 0 .6.1 1 0 .2.1.6.1 1 0 1.3 0 1.8-1.3 2C6 11.2 6 11.7 6 13c0 .4-.1.8-.1 1.2-.1.3-.1.7-.1 1 0 .8.3.8 1.4.8h.5v1.9h-.9c-2.1 0-3.5-.6-3.5-2.3 0-.4.1-.9.1-1.3.1-.5.1-.9.1-1.3 0-.5-.2-1-1.7-1v-1.9z"/>
    <circle cx="11" cy="13.8" r="2.1"/>
    <circle cx="11" cy="8.2" r="2.1"/>
  </g>
</svg>
