<?xml version="1.0" encoding="utf-8"?>
<svg version="1.1" id="Layer_1" xmlns="http://www.w3.org/2000/svg" xmlns:xlink="http://www.w3.org/1999/xlink" x="0px" y="0px"
	 viewBox="0 0 22 22" style="enable-background:new 0 0 22 22;" xml:space="preserve">
	<g class="jp-icon-warn1 jp-icon-selectable" fill="#F9A825">
		<path d="M20.2,11.8c-1.6,0-1.7,0.5-1.7,1c0,0.4,0.1,0.9,0.1,1.3c0.1,0.5,0.1,0.9,0.1,1.3c0,1.7-1.4,2.3-3.5,2.3h-0.9
			v-1.9h0.5c1.1,0,1.4,0,1.4-0.8c0-0.3,0-0.6-0.1-1c0-0.4-0.1-0.8-0.1-1.2c0-1.3,0-1.8,1.3-2l0,0c-1.3-0.2-1.3-0.7-1.3-2
			c0-0.4,0.1-0.8,0.1-1.2c0.1-0.4,0.1-0.7,0.1-1c0-0.8-0.4-0.7-1.4-0.8h-0.5V4.1h0.9c2.2,0,3.5,0.7,3.5,2.3c0,0.4-0.1,0.9-0.1,1.3
			c-0.1,0.5-0.1,0.9-0.1,1.3c0,0.5,0.2,1,1.7,1C20.2,10,20.2,11.8,20.2,11.8z"/>
		<path d="M1.8,10.1c1.6,0,1.7-0.5,1.7-1c0-0.4-0.1-0.9-0.1-1.3C3.3,7.3,3.3,6.9,3.3,6.5c0-1.6,1.4-2.3,3.5-2.3h0.9
			v1.9H7.2c-1,0-1.4,0-1.4,0.8c0,0.3,0,0.6,0.1,1c0,0.2,0.1,0.6,0.1,1c0,1.3,0,1.8-1.3,2l0,0C6,11.2,6,11.7,6,13
			c0,0.4-0.1,0.8-0.1,1.2c-0.1,0.3-0.1,0.7-0.1,1C5.8,16,6.1,16,7.2,16h0.5v1.9H6.8c-2.1,0-3.5-0.6-3.5-2.3c0-0.4,0.1-0.9,0.1-1.3
			c0.1-0.5,0.1-0.9,0.1-1.3c0-0.5-0.2-1-1.7-1V10.1z"/>
		<circle cx="11" cy="13.8" r="2.1"/>
		<circle cx="11" cy="8.2" r="2.1"/>
	</g>
</svg>
