<svg xmlns="http://www.w3.org/2000/svg" width="16" viewBox="0 0 325 300">
  <path fill="#cb3c33" d="M150.898 225c0 41.422-33.578 75-75 75s-75-33.578-75-75 33.579-75 75-75 75 33.578 75 75" class="jp-brand0 jp-icon-selectable"/>
  <path fill="#389826" d="M237.5 75c0 41.422-33.578 75-75 75s-75-33.578-75-75 33.578-75 75-75 75 33.578 75 75" class="jp-brand0 jp-icon-selectable"/>
  <path fill="#9558b2" d="M324.102 225c0 41.422-33.579 75-75 75s-75-33.578-75-75 33.578-75 75-75 75 33.578 75 75" class="jp-brand0 jp-icon-selectable"/>
</svg>
