<svg xmlns="http://www.w3.org/2000/svg" width="16" viewBox="0 0 325 300">
  <g class="jp-brand0 jp-icon-selectable" fill="#cb3c33">
    <path d="M 150.898438 225 C 150.898438 266.421875 117.320312 300 75.898438 300 C 34.476562 300 0.898438 266.421875 0.898438 225 C 0.898438 183.578125 34.476562 150 75.898438 150 C 117.320312 150 150.898438 183.578125 150.898438 225"/>
  </g>
  <g class="jp-brand0 jp-icon-selectable" fill="#389826">
    <path d="M 237.5 75 C 237.5 116.421875 203.921875 150 162.5 150 C 121.078125 150 87.5 116.421875 87.5 75 C 87.5 33.578125 121.078125 0 162.5 0 C 203.921875 0 237.5 33.578125 237.5 75"/>
  </g>
  <g class="jp-brand0 jp-icon-selectable" fill="#9558b2">
    <path d="M 324.101562 225 C 324.101562 266.421875 290.523438 300 249.101562 300 C 207.679688 300 174.101562 266.421875 174.101562 225 C 174.101562 183.578125 207.679688 150 249.101562 150 C 290.523438 150 324.101562 183.578125 324.101562 225"/>
  </g>
</svg>
