<?xml version="1.0" encoding="utf-8"?>
<svg version="1.1" id="Layer_1" xmlns="http://www.w3.org/2000/svg" xmlns:xlink="http://www.w3.org/1999/xlink" x="0px" y="0px"
	 viewBox="0 0 22 22" style="enable-background:new 0 0 22 22;" xml:space="preserve">
	<g class="jp-icon-contrast0 jp-icon-selectable" fill="#7B1FA2">
		<polygon points="5,14.9 17,14.9 10.9,20.9 "/>
		<path d="M14.4,8.1c0-1.3-0.1-2.9-0.1-4.5l0,0C13.9,5,13.4,6.5,13,7.9l-1.3,4.3h-2L8.5,7.9C8.1,6.6,7.8,5,7.5,3.6l0,0
			C7.4,5.2,7.4,6.8,7.3,8.2L7,12.4H4.8l0.7-11h3.3L10,5c0.4,1.2,0.7,2.7,1,3.9l0,0c0.3-1.2,0.7-2.6,1-3.9l1.2-3.7h3.3l0.6,11h-2.4
			L14.4,8.1z"/>
	</g>
</svg>
