<svg xmlns="http://www.w3.org/2000/svg" width="16" viewBox="0 0 22 22">
  <path fill="#FF2A2A" d="m17.933 13.667 3.987 3.987-1.117 1.117-2.51-2.51-1.066 1.067 2.36 2.36-1.117 1.117-2.36-2.36-2.43 2.429-1.477-1.478zm-6.163-3.93-3.496 3.496.53.53q.905.906 1.83.932.929.031 1.784-.825.852-.852.822-1.773t-.94-1.83zm-.36-2.594 1.557 1.558q1.305 1.305 1.754 2.13.456.825.468 1.727.015.79-.296 1.493-.31.702-.951 1.343-.649.648-1.355.963-.702.31-1.493.295-.905-.015-1.738-.472-.829-.46-2.118-1.75L5.68 12.874zm-5.76-5.76L8.1 3.835Q9.195 4.93 9.291 6q.103 1.07-.795 1.968-.901.902-1.976.802-1.067-.1-2.16-1.193l-.975-.975L1.397 8.59-.08 7.113Zm.406 2.548-1.6 1.6.817.818q.43.43.871.457.445.023.829-.361t.357-.825-.457-.871z" class="jp-icon-selectable"/>
</svg>
