<svg
   xmlns="http://www.w3.org/2000/svg" viewBox="0 0 22 22" width="16">
    <path transform="rotate(45)" class="jp-icon-selectable" fill="#FF2A2A"
       d="m 22.344369,-3.0163642 h 5.638604 v 1.5792433 h -3.549227 v 1.50869299 h 3.337576 V 1.6508154 h -3.337576 v 3.4352613 h -2.089377 z m -7.136444,1.5792433 v 4.9439543 h 0.74892 q 1.280761,0 1.953703,-0.6349535 0.678369,-0.6349535 0.678369,-1.8451641 0,-1.20478355 -0.672942,-1.83431011 -0.672942,-0.62952659 -1.95913,-0.62952659 z m -2.089377,-1.5792433 h 2.203343 q 1.845164,0 2.746039,0.2659207 0.906301,0.2604937 1.552108,0.8900203 0.56983,0.5481223 0.846605,1.26448006 0.276774,0.71635781 0.276774,1.62265894 0,0.9171551 -0.276774,1.6389399 -0.276775,0.7163578 -0.846605,1.26448 -0.651234,0.6295266 -1.562962,0.8954473 -0.911728,0.2604937 -2.735185,0.2604937 h -2.203343 z m -8.1458565,0 h 3.467823 q 1.5466816,0 2.3715785,0.689223 0.830324,0.6837961 0.830324,1.95370314 0,1.27533397 -0.830324,1.96455706 Q 9.9871961,2.274915 8.4405145,2.274915 H 7.0620684 V 5.0860767 H 4.9726915 Z m 2.0893769,1.5141199 v 2.26303943 h 1.155941 q 0.6078188,0 0.9388629,-0.29305547 0.3310441,-0.29848241 0.3310441,-0.84117772 0,-0.54269531 -0.3310441,-0.83575074 -0.3310441,-0.2930555 -0.9388629,-0.2930555 z"
/>
</svg>
