<svg xmlns="http://www.w3.org/2000/svg" width="16" viewBox="0 0 22 22">
  <g class="jp-icon-brand0 jp-icon-selectable" fill="#0D47A1">
    <path d="M11.1 6.9V5.8H6.9c0-.5 0-1.3.2-1.6.4-.7.8-1.1 1.7-1.4 1.7-.3 2.5-.3 3.9-.1 1 .1 1.9.9 1.9 1.9v4.2c0 .5-.9 1.6-2 1.6H8.8c-1.5 0-2.4 1.4-2.4 2.8v2.2H4.7C3.5 15.1 3 14 3 13.1V9c-.1-1 .6-2 1.8-2 1.5-.1 6.3-.1 6.3-.1z"/>
    <path d="M10.9 15.1v1.1h4.2c0 .5 0 1.3-.2 1.6-.4.7-.8 1.1-1.7 1.4-1.7.3-2.5.3-3.9.1-1-.1-1.9-.9-1.9-1.9v-4.2c0-.5.9-1.6 2-1.6h3.8c1.5 0 2.4-1.4 2.4-2.8V6.6h1.7C18.5 6.9 19 8 19 8.9V13c0 1-.7 2.1-1.9 2.1h-6.2z"/>
  </g>
</svg>
