<?xml version="1.0" encoding="utf-8"?>
<svg version="1.1" id="Layer_1" xmlns="http://www.w3.org/2000/svg" xmlns:xlink="http://www.w3.org/1999/xlink" x="0px" y="0px"
	 viewBox="0 0 22 22" style="enable-background:new 0 0 22 22;" xml:space="preserve">
<g class="jp-icon-contrast3 jp-icon-selectable" fill="#2196F3">
	<path d="M4.4,2.5c1.2-0.1,2.9-0.3,4.9-0.3c2.5,0,4.1,0.4,5.2,1.3C15.5,4.2,16,5.4,16,7c0,2-1.4,3.5-2.9,4.1l0,0
		c1.2,0.4,1.7,1.6,2.2,3c0.6,1.9,1,3.9,1.3,4.6h-3.8C12.5,18.3,12,17,11.6,15s-1.2-2.6-2.6-2.6H8.1v6.4H4.4V2.5z M8.1,9.4h1.4
		c1.9,0,2.9-0.9,2.9-2.3s-1-2.3-2.8-2.3C8.9,4.8,8.3,4.8,8,5v4.5h0.1V9.4z"/>
</g>
</svg>
