<?xml version="1.0" encoding="utf-8"?>
<!-- Generator: Adobe Illustrator 19.2.1, SVG Export Plug-In . SVG Version: 6.00 Build 0)  -->
<svg version="1.1" id="Layer_1" xmlns="http://www.w3.org/2000/svg" xmlns:xlink="http://www.w3.org/1999/xlink" x="0px" y="0px"
	 viewBox="0 0 24 24" style="enable-background:new 0 0 24 24;" xml:space="preserve">
<style type="text/css">
	.st0{fill:#FFFFFF;}
</style>
<g>
	<path d="M14,2H6C4.9,2,4,2.9,4,4v16c0,1.1,0.9,2,2,2h12c1.1,0,2-0.9,2-2V8L14,2z M13,9V3.5L18.5,9H13z"/>
	<g>
		<path class="st0" d="M5.5,16.2c0-0.7,0-1.4,0-1.9H7l0.1,0.8h0C7.4,14.8,8,14.2,9,14.2c1.2,0,2.1,0.8,2.1,2.5v3.5H9.2v-3.2
			c0-0.8-0.3-1.3-0.9-1.3c-0.5,0-0.8,0.3-0.9,0.7c0,0.1-0.1,0.3-0.1,0.5v3.4H5.5V16.2z"/>
		<path class="st0" d="M12.5,20.2c0-0.4,0-1.1,0-1.8v-6.8h1.8V15h0c0.3-0.5,1-0.8,1.8-0.8c1.4,0,2.4,1.2,2.4,3
			c0,2.1-1.3,3.2-2.7,3.2c-0.7,0-1.3-0.3-1.8-0.9h0L14,20.2H12.5z M14.3,17.7c0,0.1,0,0.2,0,0.3c0.1,0.5,0.5,0.9,1.1,0.9
			c0.8,0,1.3-0.6,1.3-1.7c0-0.9-0.4-1.6-1.3-1.6c-0.5,0-0.9,0.4-1.1,0.9c0,0.1,0,0.2,0,0.3V17.7z"/>
	</g>
</g>
</svg>
