<?xml version="1.0" encoding="UTF-8"?>
<svg width="12px" height="12px" viewBox="0 0 12 12" version="1.1" xmlns="http://www.w3.org/2000/svg" xmlns:xlink="http://www.w3.org/1999/xlink">
    <!-- Generator: Sketch 42 (36781) - http://www.bohemiancoding.com/sketch -->
    <title>geojson</title>
    <desc>Created with Sketch.</desc>
    <defs></defs>
    <g id="Page-1" stroke="none" stroke-width="1" fill="none" fill-rule="evenodd">
        <g id="geojson" transform="translate(-6.000000, -6.000000)">
            <path d="M17.6666667,6 L17.56,6.02 L14,7.4 L10,6 L6.24,7.26666667 C6.1,7.31333333 6,7.43333333 6,7.58666667 L6,17.6666667 C6,17.8533333 6.14666667,18 6.33333333,18 L6.44,17.98 L10,16.6 L14,18 L17.76,16.7333333 C17.9,16.6866667 18,16.5666667 18,16.4133333 L18,6.33333333 C18,6.14666667 17.8533333,6 17.6666667,6 Z M14,16.6666667 L10,15.26 L10,7.33333333 L14,8.74 L14,16.6666667 Z" id="Shape" fill="#1BB233" fill-rule="nonzero"></path>
            <polygon id="Shape" points="0 0 24 0 24 24 0 24"></polygon>
        </g>
    </g>
</svg>