<?xml version="1.0" encoding="UTF-8" standalone="no"?>
<!DOCTYPE svg PUBLIC "-//W3C//DTD SVG 1.1//EN"
 "http://www.w3.org/Graphics/SVG/1.1/DTD/svg11.dtd">
<!-- Generated by graphviz version 2.38.0 (20140413.2041)
 -->
<!-- Title: Dependencies Pages: 1 -->
<svg  
 viewBox="0.00 0.00 1006.53 629.80" xmlns="http://www.w3.org/2000/svg" xmlns:xlink="http://www.w3.org/1999/xlink">
<g id="graph0" class="graph" transform="scale(1 1) rotate(0) translate(4 625.8)">
<title>Dependencies</title>
<polygon fill="white" stroke="none" points="-4,4 -4,-625.8 1002.53,-625.8 1002.53,4 -4,4"/>
<text text-anchor="middle" x="499.265" y="-7.8" font-family="Times,serif" font-size="14.00">Simplified JupyterLab dependency graph</text>
<!-- application -->
<g id="node1" class="node"><title>application</title>
<g id="a_node1"><a xlink:href="https://github.com/jupyterlab/jupyterlab/tree/master/packages/application" xlink:title="application" target="_blank">
<ellipse fill="none" stroke="black" cx="193.531" cy="-497.888" rx="50.0912" ry="18"/>
<text text-anchor="middle" x="193.531" y="-494.188" font-family="Times,serif" font-size="14.00">application</text>
</a>
</g>
</g>
<!-- docregistry -->
<g id="node2" class="node"><title>docregistry</title>
<g id="a_node2"><a xlink:href="https://github.com/jupyterlab/jupyterlab/tree/master/packages/docregistry" xlink:title="docregistry" target="_blank">
<ellipse fill="none" stroke="black" cx="336.531" cy="-437.888" rx="50.0912" ry="18"/>
<text text-anchor="middle" x="336.531" y="-434.188" font-family="Times,serif" font-size="14.00">docregistry</text>
</a>
</g>
</g>
<!-- application&#45;&gt;docregistry -->
<g id="edge1" class="edge"><title>application&#45;&gt;docregistry</title>
<path fill="none" stroke="black" d="M226.526,-484.273C246.485,-475.78 272.384,-464.759 293.929,-455.591"/>
<polygon fill="black" stroke="black" points="295.343,-458.793 303.174,-451.657 292.602,-452.352 295.343,-458.793"/>
</g>
<!-- rendermime -->
<g id="node6" class="node"><title>rendermime</title>
<g id="a_node6"><a xlink:href="https://github.com/jupyterlab/jupyterlab/tree/master/packages/rendermime" xlink:title="rendermime" target="_blank">
<ellipse fill="none" stroke="black" cx="476.531" cy="-285.888" rx="53.8905" ry="18"/>
<text text-anchor="middle" x="476.531" y="-282.188" font-family="Times,serif" font-size="14.00">rendermime</text>
</a>
</g>
</g>
<!-- docregistry&#45;&gt;rendermime -->
<g id="edge3" class="edge"><title>docregistry&#45;&gt;rendermime</title>
<path fill="none" stroke="black" d="M353.093,-420.747C377.422,-393.949 424.592,-341.995 452.75,-310.98"/>
<polygon fill="black" stroke="black" points="455.683,-312.956 459.814,-303.2 450.5,-308.251 455.683,-312.956"/>
</g>
<!-- apputils -->
<g id="node3" class="node"><title>apputils</title>
<g id="a_node3"><a xlink:href="https://github.com/jupyterlab/jupyterlab/tree/master/packages/apputils" xlink:title="apputils" target="_blank">
<ellipse fill="none" stroke="black" cx="657.531" cy="-164.888" rx="38.1938" ry="18"/>
<text text-anchor="middle" x="657.531" y="-161.188" font-family="Times,serif" font-size="14.00">apputils</text>
</a>
</g>
</g>
<!-- services -->
<g id="node4" class="node"><title>services</title>
<g id="a_node4"><a xlink:href="https://github.com/jupyterlab/jupyterlab/tree/master/packages/services" xlink:title="services" target="_blank">
<ellipse fill="none" stroke="black" cx="832.531" cy="-164.888" rx="38.9931" ry="18"/>
<text text-anchor="middle" x="832.531" y="-161.188" font-family="Times,serif" font-size="14.00">services</text>
</a>
</g>
</g>
<!-- apputils&#45;&gt;services -->
<g id="edge2" class="edge"><title>apputils&#45;&gt;services</title>
<path fill="none" stroke="black" d="M696.069,-164.888C721.623,-164.888 755.679,-164.888 783.25,-164.888"/>
<polygon fill="black" stroke="black" points="783.468,-168.388 793.468,-164.888 783.468,-161.388 783.468,-168.388"/>
</g>
<!-- coreutils -->
<g id="node5" class="node"><title>coreutils</title>
<g id="a_node5"><a xlink:href="https://github.com/jupyterlab/jupyterlab/tree/master/packages/coreutils" xlink:title="coreutils" target="_blank">
<ellipse fill="none" stroke="black" cx="957.531" cy="-194.888" rx="40.8928" ry="18"/>
<text text-anchor="middle" x="957.531" y="-191.188" font-family="Times,serif" font-size="14.00">coreutils</text>
</a>
</g>
</g>
<!-- services&#45;&gt;coreutils -->
<g id="edge7" class="edge"><title>services&#45;&gt;coreutils</title>
<path fill="none" stroke="black" d="M867.466,-173.165C881.101,-176.491 897.016,-180.372 911.589,-183.927"/>
<polygon fill="black" stroke="black" points="910.875,-187.355 921.42,-186.325 912.534,-180.555 910.875,-187.355"/>
</g>
<!-- rendermime&#45;&gt;apputils -->
<g id="edge4" class="edge"><title>rendermime&#45;&gt;apputils</title>
<path fill="none" stroke="black" d="M502.689,-269.973C511.517,-264.325 521.474,-257.882 530.476,-251.888 563.737,-229.739 601.387,-203.614 626.811,-185.813"/>
<polygon fill="black" stroke="black" points="629.088,-188.491 635.267,-179.884 625.069,-182.759 629.088,-188.491"/>
</g>
<!-- rendermime&#45;interfaces -->
<g id="node7" class="node"><title>rendermime&#45;interfaces</title>
<g id="a_node7"><a xlink:href="https://github.com/jupyterlab/jupyterlab/tree/master/packages/rendermime-interfaces" xlink:title="rendermime&#45;interfaces" target="_blank">
<ellipse fill="none" stroke="black" cx="657.531" cy="-276.888" rx="90.9839" ry="18"/>
<text text-anchor="middle" x="657.531" y="-273.188" font-family="Times,serif" font-size="14.00">rendermime&#45;interfaces</text>
</a>
</g>
</g>
<!-- rendermime&#45;&gt;rendermime&#45;interfaces -->
<g id="edge5" class="edge"><title>rendermime&#45;&gt;rendermime&#45;interfaces</title>
<path fill="none" stroke="black" d="M530.268,-283.237C539.376,-282.779 549.099,-282.29 558.954,-281.794"/>
<polygon fill="black" stroke="black" points="559.439,-285.274 569.251,-281.277 559.088,-278.283 559.439,-285.274"/>
</g>
<!-- codemirror -->
<g id="node8" class="node"><title>codemirror</title>
<g id="a_node8"><a xlink:href="https://github.com/jupyterlab/jupyterlab/tree/master/packages/codemirror" xlink:title="codemirror" target="_blank">
<ellipse fill="none" stroke="black" cx="657.531" cy="-337.888" rx="50.0912" ry="18"/>
<text text-anchor="middle" x="657.531" y="-334.188" font-family="Times,serif" font-size="14.00">codemirror</text>
</a>
</g>
</g>
<!-- rendermime&#45;&gt;codemirror -->
<g id="edge6" class="edge"><title>rendermime&#45;&gt;codemirror</title>
<path fill="none" stroke="black" d="M517.702,-297.558C544.533,-305.353 579.967,-315.646 608.32,-323.883"/>
<polygon fill="black" stroke="black" points="607.449,-327.274 618.028,-326.703 609.402,-320.552 607.449,-327.274"/>
</g>
<!-- codeeditor -->
<g id="node11" class="node"><title>codeeditor</title>
<g id="a_node11"><a xlink:href="https://github.com/jupyterlab/jupyterlab/tree/master/packages/codeeditor" xlink:title="codeeditor" target="_blank">
<ellipse fill="none" stroke="black" cx="832.531" cy="-224.888" rx="48.1917" ry="18"/>
<text text-anchor="middle" x="832.531" y="-221.188" font-family="Times,serif" font-size="14.00">codeeditor</text>
</a>
</g>
</g>
<!-- codemirror&#45;&gt;codeeditor -->
<g id="edge10" class="edge"><title>codemirror&#45;&gt;codeeditor</title>
<path fill="none" stroke="black" d="M697.776,-326.863C714.163,-321.314 732.966,-313.662 748.522,-303.888 772.188,-289.02 794.877,-266.68 810.535,-249.546"/>
<polygon fill="black" stroke="black" points="813.151,-251.871 817.213,-242.085 807.935,-247.202 813.151,-251.871"/>
</g>
<!-- cells -->
<g id="node9" class="node"><title>cells</title>
<g id="a_node9"><a xlink:href="https://github.com/jupyterlab/jupyterlab/tree/master/packages/cells" xlink:title="cells" target="_blank">
<ellipse fill="none" stroke="black" cx="193.531" cy="-255.888" rx="27" ry="18"/>
<text text-anchor="middle" x="193.531" y="-252.188" font-family="Times,serif" font-size="14.00">cells</text>
</a>
</g>
</g>
<!-- outputarea -->
<g id="node10" class="node"><title>outputarea</title>
<g id="a_node10"><a xlink:href="https://github.com/jupyterlab/jupyterlab/tree/master/packages/outputarea" xlink:title="outputarea" target="_blank">
<ellipse fill="none" stroke="black" cx="336.531" cy="-315.888" rx="48.1917" ry="18"/>
<text text-anchor="middle" x="336.531" y="-312.188" font-family="Times,serif" font-size="14.00">outputarea</text>
</a>
</g>
</g>
<!-- cells&#45;&gt;outputarea -->
<g id="edge8" class="edge"><title>cells&#45;&gt;outputarea</title>
<path fill="none" stroke="black" d="M216.872,-265.395C237.736,-274.273 269.378,-287.738 294.741,-298.531"/>
<polygon fill="black" stroke="black" points="293.546,-301.826 304.118,-302.521 296.287,-295.385 293.546,-301.826"/>
</g>
<!-- outputarea&#45;&gt;rendermime -->
<g id="edge11" class="edge"><title>outputarea&#45;&gt;rendermime</title>
<path fill="none" stroke="black" d="M378.561,-306.968C391.732,-304.105 406.538,-300.887 420.541,-297.842"/>
<polygon fill="black" stroke="black" points="421.532,-301.209 430.561,-295.664 420.045,-294.369 421.532,-301.209"/>
</g>
<!-- codeeditor&#45;&gt;coreutils -->
<g id="edge9" class="edge"><title>codeeditor&#45;&gt;coreutils</title>
<path fill="none" stroke="black" d="M873.126,-215.231C885.317,-212.257 898.829,-208.962 911.365,-205.904"/>
<polygon fill="black" stroke="black" points="912.279,-209.284 921.165,-203.514 910.621,-202.483 912.279,-209.284"/>
</g>
<!-- completer -->
<g id="node12" class="node"><title>completer</title>
<g id="a_node12"><a xlink:href="https://github.com/jupyterlab/jupyterlab/tree/master/packages/completer" xlink:title="completer" target="_blank">
<ellipse fill="none" stroke="black" cx="476.531" cy="-224.888" rx="46.2923" ry="18"/>
<text text-anchor="middle" x="476.531" y="-221.188" font-family="Times,serif" font-size="14.00">completer</text>
</a>
</g>
</g>
<!-- completer&#45;&gt;apputils -->
<g id="edge12" class="edge"><title>completer&#45;&gt;apputils</title>
<path fill="none" stroke="black" d="M512.044,-213.32C541.745,-203.364 584.638,-188.986 615.972,-178.483"/>
<polygon fill="black" stroke="black" points="617.339,-181.716 625.708,-175.22 615.115,-175.079 617.339,-181.716"/>
</g>
<!-- completer&#45;&gt;codeeditor -->
<g id="edge13" class="edge"><title>completer&#45;&gt;codeeditor</title>
<path fill="none" stroke="black" d="M522.724,-224.888C586.727,-224.888 703.775,-224.888 773.932,-224.888"/>
<polygon fill="black" stroke="black" points="774.353,-228.388 784.353,-224.888 774.353,-221.388 774.353,-228.388"/>
</g>
<!-- console -->
<g id="node13" class="node"><title>console</title>
<g id="a_node13"><a xlink:href="https://github.com/jupyterlab/jupyterlab/tree/master/packages/console" xlink:title="console" target="_blank">
<ellipse fill="none" stroke="black" cx="50.5306" cy="-255.888" rx="37.8943" ry="18"/>
<text text-anchor="middle" x="50.5306" y="-252.188" font-family="Times,serif" font-size="14.00">console</text>
</a>
</g>
</g>
<!-- console&#45;&gt;cells -->
<g id="edge14" class="edge"><title>console&#45;&gt;cells</title>
<path fill="none" stroke="black" d="M88.5767,-255.888C109.517,-255.888 135.583,-255.888 156.375,-255.888"/>
<polygon fill="black" stroke="black" points="156.412,-259.388 166.412,-255.888 156.412,-252.388 156.412,-259.388"/>
</g>
<!-- csvviewer -->
<g id="node14" class="node"><title>csvviewer</title>
<g id="a_node14"><a xlink:href="https://github.com/jupyterlab/jupyterlab/tree/master/packages/csvviewer" xlink:title="csvviewer" target="_blank">
<ellipse fill="none" stroke="black" cx="193.531" cy="-437.888" rx="46.2923" ry="18"/>
<text text-anchor="middle" x="193.531" y="-434.188" font-family="Times,serif" font-size="14.00">csvviewer</text>
</a>
</g>
</g>
<!-- csvviewer&#45;&gt;docregistry -->
<g id="edge15" class="edge"><title>csvviewer&#45;&gt;docregistry</title>
<path fill="none" stroke="black" d="M239.92,-437.888C251.493,-437.888 264.104,-437.888 276.258,-437.888"/>
<polygon fill="black" stroke="black" points="276.327,-441.388 286.327,-437.888 276.327,-434.388 276.327,-441.388"/>
</g>
<!-- docmanager -->
<g id="node15" class="node"><title>docmanager</title>
<g id="a_node15"><a xlink:href="https://github.com/jupyterlab/jupyterlab/tree/master/packages/docmanager" xlink:title="docmanager" target="_blank">
<ellipse fill="none" stroke="black" cx="193.531" cy="-601.888" rx="53.8905" ry="18"/>
<text text-anchor="middle" x="193.531" y="-598.188" font-family="Times,serif" font-size="14.00">docmanager</text>
</a>
</g>
</g>
<!-- docmanager&#45;&gt;docregistry -->
<g id="edge16" class="edge"><title>docmanager&#45;&gt;docregistry</title>
<path fill="none" stroke="black" d="M221.518,-586.346C231.139,-580.08 241.666,-572.332 250.076,-563.888 280.108,-533.734 306.168,-491.666 321.371,-464.6"/>
<polygon fill="black" stroke="black" points="324.517,-466.143 326.285,-455.697 318.389,-462.761 324.517,-466.143"/>
</g>
<!-- filebrowser -->
<g id="node16" class="node"><title>filebrowser</title>
<g id="a_node16"><a xlink:href="https://github.com/jupyterlab/jupyterlab/tree/master/packages/filebrowser" xlink:title="filebrowser" target="_blank">
<ellipse fill="none" stroke="black" cx="50.5306" cy="-601.888" rx="50.8918" ry="18"/>
<text text-anchor="middle" x="50.5306" y="-598.188" font-family="Times,serif" font-size="14.00">filebrowser</text>
</a>
</g>
</g>
<!-- filebrowser&#45;&gt;docmanager -->
<g id="edge17" class="edge"><title>filebrowser&#45;&gt;docmanager</title>
<path fill="none" stroke="black" d="M101.242,-601.888C110.325,-601.888 119.914,-601.888 129.328,-601.888"/>
<polygon fill="black" stroke="black" points="129.441,-605.388 139.441,-601.888 129.441,-598.388 129.441,-605.388"/>
</g>
<!-- fileeditor -->
<g id="node17" class="node"><title>fileeditor</title>
<g id="a_node17"><a xlink:href="https://github.com/jupyterlab/jupyterlab/tree/master/packages/fileeditor" xlink:title="fileeditor" target="_blank">
<ellipse fill="none" stroke="black" cx="193.531" cy="-376.888" rx="42.7926" ry="18"/>
<text text-anchor="middle" x="193.531" y="-373.188" font-family="Times,serif" font-size="14.00">fileeditor</text>
</a>
</g>
</g>
<!-- fileeditor&#45;&gt;docregistry -->
<g id="edge18" class="edge"><title>fileeditor&#45;&gt;docregistry</title>
<path fill="none" stroke="black" d="M224.089,-389.676C244.439,-398.48 271.753,-410.297 294.247,-420.028"/>
<polygon fill="black" stroke="black" points="292.99,-423.297 303.558,-424.056 295.769,-416.873 292.99,-423.297"/>
</g>
<!-- imageviewer -->
<g id="node18" class="node"><title>imageviewer</title>
<g id="a_node18"><a xlink:href="https://github.com/jupyterlab/jupyterlab/tree/master/packages/imageviewer" xlink:title="imageviewer" target="_blank">
<ellipse fill="none" stroke="black" cx="193.531" cy="-315.888" rx="56.59" ry="18"/>
<text text-anchor="middle" x="193.531" y="-312.188" font-family="Times,serif" font-size="14.00">imageviewer</text>
</a>
</g>
</g>
<!-- imageviewer&#45;&gt;docregistry -->
<g id="edge19" class="edge"><title>imageviewer&#45;&gt;docregistry</title>
<path fill="none" stroke="black" d="M222.853,-331.356C231.876,-336.767 241.688,-343.179 250.076,-349.888 273.833,-368.892 297.687,-394.09 314.131,-412.651"/>
<polygon fill="black" stroke="black" points="311.703,-415.191 320.921,-420.414 316.972,-410.582 311.703,-415.191"/>
</g>
<!-- inspector -->
<g id="node19" class="node"><title>inspector</title>
<g id="a_node19"><a xlink:href="https://github.com/jupyterlab/jupyterlab/tree/master/packages/inspector" xlink:title="inspector" target="_blank">
<ellipse fill="none" stroke="black" cx="336.531" cy="-255.888" rx="42.7926" ry="18"/>
<text text-anchor="middle" x="336.531" y="-252.188" font-family="Times,serif" font-size="14.00">inspector</text>
</a>
</g>
</g>
<!-- inspector&#45;&gt;rendermime -->
<g id="edge20" class="edge"><title>inspector&#45;&gt;rendermime</title>
<path fill="none" stroke="black" d="M374.875,-264.007C389.019,-267.081 405.428,-270.649 420.841,-273.999"/>
<polygon fill="black" stroke="black" points="420.276,-277.458 430.791,-276.162 421.763,-270.618 420.276,-277.458"/>
</g>
<!-- launcher -->
<g id="node20" class="node"><title>launcher</title>
<g id="a_node20"><a xlink:href="https://github.com/jupyterlab/jupyterlab/tree/master/packages/launcher" xlink:title="launcher" target="_blank">
<ellipse fill="none" stroke="black" cx="476.531" cy="-164.888" rx="40.8928" ry="18"/>
<text text-anchor="middle" x="476.531" y="-161.188" font-family="Times,serif" font-size="14.00">launcher</text>
</a>
</g>
</g>
<!-- launcher&#45;&gt;apputils -->
<g id="edge21" class="edge"><title>launcher&#45;&gt;apputils</title>
<path fill="none" stroke="black" d="M517.702,-164.888C544.692,-164.888 580.385,-164.888 608.821,-164.888"/>
<polygon fill="black" stroke="black" points="608.94,-168.388 618.94,-164.888 608.94,-161.388 608.94,-168.388"/>
</g>
<!-- notebook -->
<g id="node21" class="node"><title>notebook</title>
<g id="a_node21"><a xlink:href="https://github.com/jupyterlab/jupyterlab/tree/master/packages/notebook" xlink:title="notebook" target="_blank">
<ellipse fill="none" stroke="black" cx="50.5306" cy="-428.888" rx="43.5923" ry="18"/>
<text text-anchor="middle" x="50.5306" y="-425.188" font-family="Times,serif" font-size="14.00">notebook</text>
</a>
</g>
</g>
<!-- notebook&#45;&gt;docregistry -->
<g id="edge22" class="edge"><title>notebook&#45;&gt;docregistry</title>
<path fill="none" stroke="black" d="M60.8532,-446.444C74.2006,-469.466 101.155,-508.813 136.986,-524.888 182.844,-545.462 203.726,-544.331 250.076,-524.888 279.288,-512.635 303.545,-484.985 318.66,-464.122"/>
<polygon fill="black" stroke="black" points="321.712,-465.864 324.565,-455.661 315.972,-461.858 321.712,-465.864"/>
</g>
<!-- notebook&#45;&gt;cells -->
<g id="edge23" class="edge"><title>notebook&#45;&gt;cells</title>
<path fill="none" stroke="black" d="M58.957,-411.1C71.5728,-382.539 99.5133,-325.915 136.986,-288.888 144.21,-281.75 153.273,-275.532 161.97,-270.478"/>
<polygon fill="black" stroke="black" points="163.715,-273.512 170.808,-265.642 160.355,-267.372 163.715,-273.512"/>
</g>
<!-- running -->
<g id="node22" class="node"><title>running</title>
<g id="a_node22"><a xlink:href="https://github.com/jupyterlab/jupyterlab/tree/master/packages/running" xlink:title="running" target="_blank">
<ellipse fill="none" stroke="black" cx="476.531" cy="-103.888" rx="38.1938" ry="18"/>
<text text-anchor="middle" x="476.531" y="-100.188" font-family="Times,serif" font-size="14.00">running</text>
</a>
</g>
</g>
<!-- running&#45;&gt;apputils -->
<g id="edge24" class="edge"><title>running&#45;&gt;apputils</title>
<path fill="none" stroke="black" d="M508.302,-114.374C538.105,-124.531 583.464,-139.988 616.155,-151.129"/>
<polygon fill="black" stroke="black" points="615.267,-154.524 625.862,-154.437 617.525,-147.898 615.267,-154.524"/>
</g>
<!-- terminal -->
<g id="node23" class="node"><title>terminal</title>
<g id="a_node23"><a xlink:href="https://github.com/jupyterlab/jupyterlab/tree/master/packages/terminal" xlink:title="terminal" target="_blank">
<ellipse fill="none" stroke="black" cx="476.531" cy="-42.8882" rx="40.0939" ry="18"/>
<text text-anchor="middle" x="476.531" y="-39.1882" font-family="Times,serif" font-size="14.00">terminal</text>
</a>
</g>
</g>
<!-- terminal&#45;&gt;apputils -->
<g id="edge25" class="edge"><title>terminal&#45;&gt;apputils</title>
<path fill="none" stroke="black" d="M500.59,-57.4237C509.921,-63.3767 520.764,-70.3836 530.476,-76.8882 563.999,-99.3417 601.888,-125.964 627.296,-144.002"/>
<polygon fill="black" stroke="black" points="625.557,-147.06 635.735,-150.003 629.614,-141.355 625.557,-147.06"/>
</g>
<!-- tooltip -->
<g id="node24" class="node"><title>tooltip</title>
<g id="a_node24"><a xlink:href="https://github.com/jupyterlab/jupyterlab/tree/master/packages/tooltip" xlink:title="tooltip" target="_blank">
<ellipse fill="none" stroke="black" cx="336.531" cy="-194.888" rx="33.5952" ry="18"/>
<text text-anchor="middle" x="336.531" y="-191.188" font-family="Times,serif" font-size="14.00">tooltip</text>
</a>
</g>
</g>
<!-- tooltip&#45;&gt;rendermime -->
<g id="edge26" class="edge"><title>tooltip&#45;&gt;rendermime</title>
<path fill="none" stroke="black" d="M358.08,-208.823C375.26,-220.434 400.44,-237.359 422.585,-251.888 428.865,-256.008 435.59,-260.367 442.069,-264.54"/>
<polygon fill="black" stroke="black" points="440.38,-267.615 450.685,-270.075 444.163,-261.725 440.38,-267.615"/>
</g>
</g>
</svg>
