<?xml version="1.0" encoding="UTF-8" standalone="no"?>
<!DOCTYPE svg PUBLIC "-//W3C//DTD SVG 1.1//EN"
 "http://www.w3.org/Graphics/SVG/1.1/DTD/svg11.dtd">
<!-- Generated by graphviz version 2.38.0 (20140413.2041)
 -->
<!-- Title: G Pages: 1 -->
<svg width="1121pt" height="675pt"
 viewBox="0.00 0.00 1120.52 675.20" xmlns="http://www.w3.org/2000/svg" xmlns:xlink="http://www.w3.org/1999/xlink">
<g id="graph0" class="graph" transform="scale(1 1) rotate(0) translate(4 671.2)">
<title>G</title>
<polygon fill="white" stroke="none" points="-4,4 -4,-671.2 1116.52,-671.2 1116.52,4 -4,4"/>
<!-- application -->
<g id="node1" class="node"><title>application</title>
<g id="a_node1"><a xlink:href="https://github.com/jupyterlab/jupyterlab/tree/master/packages/application" xlink:title="application">
<ellipse fill="none" stroke="black" cx="193.524" cy="-536.393" rx="50.0912" ry="18"/>
<text text-anchor="middle" x="193.524" y="-532.693" font-family="Times,serif" font-size="14.00">application</text>
</a>
</g>
</g>
<!-- docregistry -->
<g id="node2" class="node"><title>docregistry</title>
<g id="a_node2"><a xlink:href="https://github.com/jupyterlab/jupyterlab/tree/master/packages/docregistry" xlink:title="docregistry">
<ellipse fill="none" stroke="black" cx="336.524" cy="-479.393" rx="50.0912" ry="18"/>
<text text-anchor="middle" x="336.524" y="-475.693" font-family="Times,serif" font-size="14.00">docregistry</text>
</a>
</g>
</g>
<!-- application&#45;&gt;docregistry -->
<g id="edge1" class="edge"><title>application&#45;&gt;docregistry</title>
<path fill="none" stroke="black" d="M227.582,-523.029C247.205,-515.096 272.28,-504.959 293.322,-496.453"/>
<polygon fill="black" stroke="black" points="294.713,-499.666 302.673,-492.673 292.09,-493.176 294.713,-499.666"/>
</g>
<!-- rendermime -->
<g id="node6" class="node"><title>rendermime</title>
<g id="a_node6"><a xlink:href="https://github.com/jupyterlab/jupyterlab/tree/master/packages/rendermime" xlink:title="rendermime">
<ellipse fill="none" stroke="black" cx="476.524" cy="-299.393" rx="53.8905" ry="18"/>
<text text-anchor="middle" x="476.524" y="-295.693" font-family="Times,serif" font-size="14.00">rendermime</text>
</a>
</g>
</g>
<!-- docregistry&#45;&gt;rendermime -->
<g id="edge3" class="edge"><title>docregistry&#45;&gt;rendermime</title>
<path fill="none" stroke="black" d="M350.756,-462.133C375.113,-430.363 427.163,-362.472 455.736,-325.203"/>
<polygon fill="black" stroke="black" points="458.822,-326.93 462.129,-316.864 453.267,-322.67 458.822,-326.93"/>
</g>
<!-- apputils -->
<g id="node3" class="node"><title>apputils</title>
<g id="a_node3"><a xlink:href="https://github.com/jupyterlab/jupyterlab/tree/master/packages/apputils" xlink:title="apputils">
<ellipse fill="none" stroke="black" cx="832.524" cy="-187.393" rx="38.1938" ry="18"/>
<text text-anchor="middle" x="832.524" y="-183.693" font-family="Times,serif" font-size="14.00">apputils</text>
</a>
</g>
</g>
<!-- services -->
<g id="node4" class="node"><title>services</title>
<g id="a_node4"><a xlink:href="https://github.com/jupyterlab/jupyterlab/tree/master/packages/services" xlink:title="services">
<ellipse fill="none" stroke="black" cx="955.524" cy="-219.393" rx="38.9931" ry="18"/>
<text text-anchor="middle" x="955.524" y="-215.693" font-family="Times,serif" font-size="14.00">services</text>
</a>
</g>
</g>
<!-- apputils&#45;&gt;services -->
<g id="edge2" class="edge"><title>apputils&#45;&gt;services</title>
<path fill="none" stroke="black" d="M866.268,-196.052C880.143,-199.722 896.506,-204.049 911.348,-207.974"/>
<polygon fill="black" stroke="black" points="910.77,-211.442 921.332,-210.615 912.56,-204.674 910.77,-211.442"/>
</g>
<!-- coreutils -->
<g id="node5" class="node"><title>coreutils</title>
<g id="a_node5"><a xlink:href="https://github.com/jupyterlab/jupyterlab/tree/master/packages/coreutils" xlink:title="coreutils">
<ellipse fill="none" stroke="black" cx="1071.52" cy="-250.393" rx="40.8928" ry="18"/>
<text text-anchor="middle" x="1071.52" y="-246.693" font-family="Times,serif" font-size="14.00">coreutils</text>
</a>
</g>
</g>
<!-- services&#45;&gt;coreutils -->
<g id="edge6" class="edge"><title>services&#45;&gt;coreutils</title>
<path fill="none" stroke="black" d="M989.497,-228.359C1000.9,-231.46 1013.88,-234.989 1026.05,-238.299"/>
<polygon fill="black" stroke="black" points="1025.47,-241.768 1036.04,-241.015 1027.31,-235.013 1025.47,-241.768"/>
</g>
<!-- rendermime&#45;interfaces -->
<g id="node7" class="node"><title>rendermime&#45;interfaces</title>
<g id="a_node7"><a xlink:href="https://github.com/jupyterlab/jupyterlab/tree/master/packages/rendermime-interfaces" xlink:title="rendermime&#45;interfaces">
<ellipse fill="none" stroke="black" cx="657.524" cy="-243.393" rx="90.9839" ry="18"/>
<text text-anchor="middle" x="657.524" y="-239.693" font-family="Times,serif" font-size="14.00">rendermime&#45;interfaces</text>
</a>
</g>
</g>
<!-- rendermime&#45;&gt;rendermime&#45;interfaces -->
<g id="edge4" class="edge"><title>rendermime&#45;&gt;rendermime&#45;interfaces</title>
<path fill="none" stroke="black" d="M516.364,-287.241C540.357,-279.735 571.593,-269.963 598.486,-261.55"/>
<polygon fill="black" stroke="black" points="599.677,-264.844 608.176,-258.518 597.587,-258.164 599.677,-264.844"/>
</g>
<!-- codemirror -->
<g id="node8" class="node"><title>codemirror</title>
<g id="a_node8"><a xlink:href="https://github.com/jupyterlab/jupyterlab/tree/master/packages/codemirror" xlink:title="codemirror">
<ellipse fill="none" stroke="black" cx="657.524" cy="-356.393" rx="50.0912" ry="18"/>
<text text-anchor="middle" x="657.524" y="-352.693" font-family="Times,serif" font-size="14.00">codemirror</text>
</a>
</g>
</g>
<!-- rendermime&#45;&gt;codemirror -->
<g id="edge5" class="edge"><title>rendermime&#45;&gt;codemirror</title>
<path fill="none" stroke="black" d="M516.364,-311.761C543.893,-320.527 580.957,-332.329 610.056,-341.596"/>
<polygon fill="black" stroke="black" points="609.004,-344.934 619.594,-344.633 611.128,-338.264 609.004,-344.934"/>
</g>
<!-- codemirror&#45;&gt;apputils -->
<g id="edge9" class="edge"><title>codemirror&#45;&gt;apputils</title>
<path fill="none" stroke="black" d="M702.827,-348.311C718.477,-343.818 735.423,-336.917 748.516,-326.393 758.462,-318.397 796.071,-251.792 817.089,-213.758"/>
<polygon fill="black" stroke="black" points="820.288,-215.204 822.048,-204.757 814.157,-211.826 820.288,-215.204"/>
</g>
<!-- codeeditor -->
<g id="node11" class="node"><title>codeeditor</title>
<g id="a_node11"><a xlink:href="https://github.com/jupyterlab/jupyterlab/tree/master/packages/codeeditor" xlink:title="codeeditor">
<ellipse fill="none" stroke="black" cx="832.524" cy="-299.393" rx="48.1917" ry="18"/>
<text text-anchor="middle" x="832.524" y="-295.693" font-family="Times,serif" font-size="14.00">codeeditor</text>
</a>
</g>
</g>
<!-- codemirror&#45;&gt;codeeditor -->
<g id="edge10" class="edge"><title>codemirror&#45;&gt;codeeditor</title>
<path fill="none" stroke="black" d="M695.212,-344.304C721.741,-335.564 757.751,-323.699 786.098,-314.359"/>
<polygon fill="black" stroke="black" points="787.374,-317.624 795.776,-311.171 785.183,-310.976 787.374,-317.624"/>
</g>
<!-- cells -->
<g id="node9" class="node"><title>cells</title>
<g id="a_node9"><a xlink:href="https://github.com/jupyterlab/jupyterlab/tree/master/packages/cells" xlink:title="cells">
<ellipse fill="none" stroke="black" cx="193.524" cy="-327.393" rx="27" ry="18"/>
<text text-anchor="middle" x="193.524" y="-323.693" font-family="Times,serif" font-size="14.00">cells</text>
</a>
</g>
</g>
<!-- outputarea -->
<g id="node10" class="node"><title>outputarea</title>
<g id="a_node10"><a xlink:href="https://github.com/jupyterlab/jupyterlab/tree/master/packages/outputarea" xlink:title="outputarea">
<ellipse fill="none" stroke="black" cx="336.524" cy="-327.393" rx="48.1917" ry="18"/>
<text text-anchor="middle" x="336.524" y="-323.693" font-family="Times,serif" font-size="14.00">outputarea</text>
</a>
</g>
</g>
<!-- cells&#45;&gt;outputarea -->
<g id="edge7" class="edge"><title>cells&#45;&gt;outputarea</title>
<path fill="none" stroke="black" d="M220.714,-327.393C236.855,-327.393 258.207,-327.393 278.116,-327.393"/>
<polygon fill="black" stroke="black" points="278.36,-330.893 288.36,-327.393 278.36,-323.893 278.36,-330.893"/>
</g>
<!-- outputarea&#45;&gt;rendermime -->
<g id="edge11" class="edge"><title>outputarea&#45;&gt;rendermime</title>
<path fill="none" stroke="black" d="M379.303,-318.916C392.072,-316.325 406.323,-313.433 419.862,-310.686"/>
<polygon fill="black" stroke="black" points="420.936,-314.04 430.04,-308.621 419.544,-307.18 420.936,-314.04"/>
</g>
<!-- codeeditor&#45;&gt;coreutils -->
<g id="edge8" class="edge"><title>codeeditor&#45;&gt;coreutils</title>
<path fill="none" stroke="black" d="M875.077,-290.801C916.741,-282.187 980.763,-268.951 1024.08,-259.995"/>
<polygon fill="black" stroke="black" points="1024.99,-263.381 1034.08,-257.928 1023.57,-256.526 1024.99,-263.381"/>
</g>
<!-- completer -->
<g id="node12" class="node"><title>completer</title>
<g id="a_node12"><a xlink:href="https://github.com/jupyterlab/jupyterlab/tree/master/packages/completer" xlink:title="completer">
<ellipse fill="none" stroke="black" cx="657.524" cy="-299.393" rx="46.2923" ry="18"/>
<text text-anchor="middle" x="657.524" y="-295.693" font-family="Times,serif" font-size="14.00">completer</text>
</a>
</g>
</g>
<!-- completer&#45;&gt;apputils -->
<g id="edge12" class="edge"><title>completer&#45;&gt;apputils</title>
<path fill="none" stroke="black" d="M698.363,-290.917C714.668,-286.365 733.249,-279.722 748.516,-270.393 773.548,-255.095 796.675,-230.757 812.125,-212.383"/>
<polygon fill="black" stroke="black" points="815.026,-214.365 818.662,-204.414 809.614,-209.925 815.026,-214.365"/>
</g>
<!-- completer&#45;&gt;codeeditor -->
<g id="edge13" class="edge"><title>completer&#45;&gt;codeeditor</title>
<path fill="none" stroke="black" d="M703.977,-299.393C725.421,-299.393 751.245,-299.393 774.032,-299.393"/>
<polygon fill="black" stroke="black" points="774.261,-302.893 784.261,-299.393 774.261,-295.893 774.261,-302.893"/>
</g>
<!-- console -->
<g id="node13" class="node"><title>console</title>
<g id="a_node13"><a xlink:href="https://github.com/jupyterlab/jupyterlab/tree/master/packages/console" xlink:title="console">
<ellipse fill="none" stroke="black" cx="50.5236" cy="-327.393" rx="37.8943" ry="18"/>
<text text-anchor="middle" x="50.5236" y="-323.693" font-family="Times,serif" font-size="14.00">console</text>
</a>
</g>
</g>
<!-- console&#45;&gt;cells -->
<g id="edge14" class="edge"><title>console&#45;&gt;cells</title>
<path fill="none" stroke="black" d="M88.5697,-327.393C109.51,-327.393 135.576,-327.393 156.368,-327.393"/>
<polygon fill="black" stroke="black" points="156.405,-330.893 166.405,-327.393 156.405,-323.893 156.405,-330.893"/>
</g>
<!-- csvviewer -->
<g id="node14" class="node"><title>csvviewer</title>
<g id="a_node14"><a xlink:href="https://github.com/jupyterlab/jupyterlab/tree/master/packages/csvviewer" xlink:title="csvviewer">
<ellipse fill="none" stroke="black" cx="193.524" cy="-479.393" rx="46.2923" ry="18"/>
<text text-anchor="middle" x="193.524" y="-475.693" font-family="Times,serif" font-size="14.00">csvviewer</text>
</a>
</g>
</g>
<!-- csvviewer&#45;&gt;docregistry -->
<g id="edge15" class="edge"><title>csvviewer&#45;&gt;docregistry</title>
<path fill="none" stroke="black" d="M239.913,-479.393C251.486,-479.393 264.097,-479.393 276.251,-479.393"/>
<polygon fill="black" stroke="black" points="276.32,-482.893 286.32,-479.393 276.32,-475.893 276.32,-482.893"/>
</g>
<!-- docmanager -->
<g id="node15" class="node"><title>docmanager</title>
<g id="a_node15"><a xlink:href="https://github.com/jupyterlab/jupyterlab/tree/master/packages/docmanager" xlink:title="docmanager">
<ellipse fill="none" stroke="black" cx="193.524" cy="-592.393" rx="53.8905" ry="18"/>
<text text-anchor="middle" x="193.524" y="-588.693" font-family="Times,serif" font-size="14.00">docmanager</text>
</a>
</g>
</g>
<!-- docmanager&#45;&gt;docregistry -->
<g id="edge16" class="edge"><title>docmanager&#45;&gt;docregistry</title>
<path fill="none" stroke="black" d="M226.046,-577.991C234.159,-573.739 242.68,-568.769 250.069,-563.393 273.847,-546.092 297.42,-522.287 313.764,-504.435"/>
<polygon fill="black" stroke="black" points="316.644,-506.468 320.74,-496.697 311.445,-501.781 316.644,-506.468"/>
</g>
<!-- filebrowser -->
<g id="node16" class="node"><title>filebrowser</title>
<g id="a_node16"><a xlink:href="https://github.com/jupyterlab/jupyterlab/tree/master/packages/filebrowser" xlink:title="filebrowser">
<ellipse fill="none" stroke="black" cx="50.5236" cy="-592.393" rx="50.8918" ry="18"/>
<text text-anchor="middle" x="50.5236" y="-588.693" font-family="Times,serif" font-size="14.00">filebrowser</text>
</a>
</g>
</g>
<!-- filebrowser&#45;&gt;docmanager -->
<g id="edge17" class="edge"><title>filebrowser&#45;&gt;docmanager</title>
<path fill="none" stroke="black" d="M101.235,-592.393C110.318,-592.393 119.907,-592.393 129.321,-592.393"/>
<polygon fill="black" stroke="black" points="129.434,-595.893 139.434,-592.393 129.434,-588.893 129.434,-595.893"/>
</g>
<!-- fileeditor -->
<g id="node17" class="node"><title>fileeditor</title>
<g id="a_node17"><a xlink:href="https://github.com/jupyterlab/jupyterlab/tree/master/packages/fileeditor" xlink:title="fileeditor">
<ellipse fill="none" stroke="black" cx="193.524" cy="-384.393" rx="42.7926" ry="18"/>
<text text-anchor="middle" x="193.524" y="-380.693" font-family="Times,serif" font-size="14.00">fileeditor</text>
</a>
</g>
</g>
<!-- fileeditor&#45;&gt;docregistry -->
<g id="edge18" class="edge"><title>fileeditor&#45;&gt;docregistry</title>
<path fill="none" stroke="black" d="M219.092,-398.92C228.833,-404.812 240.074,-411.778 250.069,-418.393 268.666,-430.7 289.005,-445.176 305.174,-456.936"/>
<polygon fill="black" stroke="black" points="303.551,-460.085 313.69,-463.16 307.681,-454.434 303.551,-460.085"/>
</g>
<!-- imageviewer -->
<g id="node18" class="node"><title>imageviewer</title>
<g id="a_node18"><a xlink:href="https://github.com/jupyterlab/jupyterlab/tree/master/packages/imageviewer" xlink:title="imageviewer">
<ellipse fill="none" stroke="black" cx="193.524" cy="-648.393" rx="56.59" ry="18"/>
<text text-anchor="middle" x="193.524" y="-644.693" font-family="Times,serif" font-size="14.00">imageviewer</text>
</a>
</g>
</g>
<!-- imageviewer&#45;&gt;docregistry -->
<g id="edge19" class="edge"><title>imageviewer&#45;&gt;docregistry</title>
<path fill="none" stroke="black" d="M228.753,-634.235C236.294,-630.145 243.872,-625.189 250.069,-619.393 284.786,-586.922 310.563,-537.269 324.297,-506.649"/>
<polygon fill="black" stroke="black" points="327.531,-507.986 328.329,-497.422 321.117,-505.184 327.531,-507.986"/>
</g>
<!-- inspector -->
<g id="node19" class="node"><title>inspector</title>
<g id="a_node19"><a xlink:href="https://github.com/jupyterlab/jupyterlab/tree/master/packages/inspector" xlink:title="inspector">
<ellipse fill="none" stroke="black" cx="336.524" cy="-271.393" rx="42.7926" ry="18"/>
<text text-anchor="middle" x="336.524" y="-267.693" font-family="Times,serif" font-size="14.00">inspector</text>
</a>
</g>
</g>
<!-- inspector&#45;&gt;rendermime -->
<g id="edge20" class="edge"><title>inspector&#45;&gt;rendermime</title>
<path fill="none" stroke="black" d="M375.598,-279.118C389.275,-281.893 404.997,-285.083 419.86,-288.098"/>
<polygon fill="black" stroke="black" points="419.48,-291.593 429.977,-290.151 420.872,-284.732 419.48,-291.593"/>
</g>
<!-- launcher -->
<g id="node20" class="node"><title>launcher</title>
<g id="a_node20"><a xlink:href="https://github.com/jupyterlab/jupyterlab/tree/master/packages/launcher" xlink:title="launcher">
<ellipse fill="none" stroke="black" cx="657.524" cy="-18.3925" rx="40.8928" ry="18"/>
<text text-anchor="middle" x="657.524" y="-14.6925" font-family="Times,serif" font-size="14.00">launcher</text>
</a>
</g>
</g>
<!-- launcher&#45;&gt;apputils -->
<g id="edge21" class="edge"><title>launcher&#45;&gt;apputils</title>
<path fill="none" stroke="black" d="M696.023,-24.6437C713.41,-29.016 733.498,-36.3198 748.516,-48.3925 785.283,-77.9495 809.519,-128.496 821.852,-159.806"/>
<polygon fill="black" stroke="black" points="818.614,-161.14 825.438,-169.245 825.158,-158.654 818.614,-161.14"/>
</g>
<!-- mainmenu -->
<g id="node21" class="node"><title>mainmenu</title>
<g id="a_node21"><a xlink:href="https://github.com/jupyterlab/jupyterlab/tree/master/packages/mainmenu" xlink:title="mainmenu">
<ellipse fill="none" stroke="black" cx="657.524" cy="-187.393" rx="48.9926" ry="18"/>
<text text-anchor="middle" x="657.524" y="-183.693" font-family="Times,serif" font-size="14.00">mainmenu</text>
</a>
</g>
</g>
<!-- mainmenu&#45;&gt;apputils -->
<g id="edge22" class="edge"><title>mainmenu&#45;&gt;apputils</title>
<path fill="none" stroke="black" d="M706.714,-187.393C730.751,-187.393 759.734,-187.393 783.718,-187.393"/>
<polygon fill="black" stroke="black" points="784.005,-190.893 794.005,-187.393 784.005,-183.893 784.005,-190.893"/>
</g>
<!-- notebook -->
<g id="node22" class="node"><title>notebook</title>
<g id="a_node22"><a xlink:href="https://github.com/jupyterlab/jupyterlab/tree/master/packages/notebook" xlink:title="notebook">
<ellipse fill="none" stroke="black" cx="50.5236" cy="-408.393" rx="43.5923" ry="18"/>
<text text-anchor="middle" x="50.5236" y="-404.693" font-family="Times,serif" font-size="14.00">notebook</text>
</a>
</g>
</g>
<!-- notebook&#45;&gt;docregistry -->
<g id="edge23" class="edge"><title>notebook&#45;&gt;docregistry</title>
<path fill="none" stroke="black" d="M90.2005,-415.914C130.392,-423.975 194.996,-437.621 250.069,-452.393 263.122,-455.894 277.155,-460.127 290,-464.193"/>
<polygon fill="black" stroke="black" points="288.964,-467.537 299.555,-467.255 291.1,-460.87 288.964,-467.537"/>
</g>
<!-- notebook&#45;&gt;cells -->
<g id="edge24" class="edge"><title>notebook&#45;&gt;cells</title>
<path fill="none" stroke="black" d="M75.6722,-393.605C92.6988,-383.271 116.098,-369.255 136.979,-357.393 145.287,-352.672 154.379,-347.688 162.757,-343.166"/>
<polygon fill="black" stroke="black" points="164.676,-346.108 171.833,-338.296 161.366,-339.94 164.676,-346.108"/>
</g>
<!-- running -->
<g id="node23" class="node"><title>running</title>
<g id="a_node23"><a xlink:href="https://github.com/jupyterlab/jupyterlab/tree/master/packages/running" xlink:title="running">
<ellipse fill="none" stroke="black" cx="657.524" cy="-131.393" rx="38.1938" ry="18"/>
<text text-anchor="middle" x="657.524" y="-127.693" font-family="Times,serif" font-size="14.00">running</text>
</a>
</g>
</g>
<!-- running&#45;&gt;apputils -->
<g id="edge25" class="edge"><title>running&#45;&gt;apputils</title>
<path fill="none" stroke="black" d="M689.766,-141.437C707.081,-147.01 728.995,-154.072 748.516,-160.393 762.187,-164.819 777.12,-169.671 790.504,-174.026"/>
<polygon fill="black" stroke="black" points="789.798,-177.476 800.39,-177.243 791.965,-170.82 789.798,-177.476"/>
</g>
<!-- settingeditor -->
<g id="node24" class="node"><title>settingeditor</title>
<g id="a_node24"><a xlink:href="https://github.com/jupyterlab/jupyterlab/tree/master/packages/settingeditor" xlink:title="settingeditor">
<ellipse fill="none" stroke="black" cx="193.524" cy="-271.393" rx="54.6905" ry="18"/>
<text text-anchor="middle" x="193.524" y="-267.693" font-family="Times,serif" font-size="14.00">settingeditor</text>
</a>
</g>
</g>
<!-- settingeditor&#45;&gt;inspector -->
<g id="edge26" class="edge"><title>settingeditor&#45;&gt;inspector</title>
<path fill="none" stroke="black" d="M248.232,-271.393C259.672,-271.393 271.739,-271.393 283.129,-271.393"/>
<polygon fill="black" stroke="black" points="283.362,-274.893 293.362,-271.393 283.362,-267.893 283.362,-274.893"/>
</g>
<!-- terminal -->
<g id="node25" class="node"><title>terminal</title>
<g id="a_node25"><a xlink:href="https://github.com/jupyterlab/jupyterlab/tree/master/packages/terminal" xlink:title="terminal">
<ellipse fill="none" stroke="black" cx="657.524" cy="-75.3925" rx="40.0939" ry="18"/>
<text text-anchor="middle" x="657.524" y="-71.6925" font-family="Times,serif" font-size="14.00">terminal</text>
</a>
</g>
</g>
<!-- terminal&#45;&gt;apputils -->
<g id="edge27" class="edge"><title>terminal&#45;&gt;apputils</title>
<path fill="none" stroke="black" d="M694.374,-82.7833C711.577,-87.3418 731.988,-94.2924 748.516,-104.393 773.548,-119.69 796.675,-144.028 812.125,-162.402"/>
<polygon fill="black" stroke="black" points="809.614,-164.86 818.662,-170.371 815.026,-160.42 809.614,-164.86"/>
</g>
<!-- tooltip -->
<g id="node26" class="node"><title>tooltip</title>
<g id="a_node26"><a xlink:href="https://github.com/jupyterlab/jupyterlab/tree/master/packages/tooltip" xlink:title="tooltip">
<ellipse fill="none" stroke="black" cx="336.524" cy="-215.393" rx="33.5952" ry="18"/>
<text text-anchor="middle" x="336.524" y="-211.693" font-family="Times,serif" font-size="14.00">tooltip</text>
</a>
</g>
</g>
<!-- tooltip&#45;&gt;rendermime -->
<g id="edge28" class="edge"><title>tooltip&#45;&gt;rendermime</title>
<path fill="none" stroke="black" d="M360.042,-228.582C368.395,-233.507 377.935,-239.171 386.569,-244.393 404.791,-255.412 424.987,-267.878 441.524,-278.153"/>
<polygon fill="black" stroke="black" points="439.959,-281.301 450.299,-283.612 443.657,-275.358 439.959,-281.301"/>
</g>
</g>
</svg>
