<svg xmlns="http://www.w3.org/2000/svg" width="152" height="165" version="1.1" viewBox="0 0 152 165">
  <path fill="#F37726" d="M76.021 140.163c-32.64 0-61.145-11.927-75.942-29.58 5.51 15.84 15.781 29.567 29.39 39.278a80.17 80.17 0 0 0 46.57 14.929 80.17 80.17 0 0 0 46.57-14.929c13.61-9.711 23.88-23.437 29.391-39.278-14.833 17.653-43.338 29.58-75.979 29.58m-.005-114.832c32.64 0 61.146 11.927 75.943 29.58a80.9 80.9 0 0 0-29.391-39.278A80.16 80.16 0 0 0 75.998.705a80.16 80.16 0 0 0-46.57 14.928A80.9 80.9 0 0 0 .038 54.912c14.832-17.617 43.338-29.58 75.978-29.58" class="jp-jupyter-icon-color"/>
</svg>
