<svg width="152" height="165" viewBox="0 0 152 165" version="1.1" xmlns="http://www.w3.org/2000/svg">
   <g class="jp-jupyter-icon-color" fill="#F37726">
    <path transform="translate(0.078947, 110.582927)" d="M75.9422842,29.5804561 C43.3023947,29.5804561 14.7967832,17.6534634 0,0 C5.51083211,15.8406829 15.7815389,29.5667732 29.3904947,39.2784171 C42.9997,48.9898537 59.2737,54.2067805 75.9605789,54.2067805 C92.6474579,54.2067805 108.921458,48.9898537 122.530663,39.2784171 C136.139453,29.5667732 146.410284,15.8406829 151.921158,0 C137.087868,17.6534634 108.582589,29.5804561 75.9422842,29.5804561 L75.9422842,29.5804561 Z" />
    <path transform="translate(0.037368, 0.704878)" d="M75.9784579,24.6264073 C108.618763,24.6264073 137.124458,36.5534415 151.921158,54.2067805 C146.410284,38.366222 136.139453,24.6401317 122.530663,14.9284878 C108.921458,5.2168439 92.6474579,0 75.9605789,0 C59.2737,0 42.9997,5.2168439 29.3904947,14.9284878 C15.7815389,24.6401317 5.51083211,38.366222 0,54.2067805 C14.8330816,36.5899293 43.3385684,24.6264073 75.9784579,24.6264073 L75.9784579,24.6264073 Z" />
  </g>
</svg>
