<svg xmlns="http://www.w3.org/2000/svg" width="200" viewBox="0 0 1860.8 475">
  <path fill="#4E4E4E" d="M53.324 293.087c0 48.7-3.7 64.7-13.6 76.4-10.8 10-25 15.5-39.7 15.5l3.7 29c22.8.3 44.8-7.9 61.9-23.1 17.8-18.5 24-44.1 24-83.3v-184.3h-36.4v170.1zm271.42-22.179c0 21 0 39.5 1.7 55.4h-31.8l-2.1-33.3h-.8c-6.7 11.6-16.4 21.3-28 27.9s-24.8 10-38.2 9.8c-31.4 0-69-17.7-69-89v-118.8h36.4v112.7c0 38.7 11.6 64.7 44.6 64.7 10.3-.2 20.4-3.5 28.9-9.4s15.1-14.3 18.9-23.9c2.2-6.1 3.3-12.5 3.3-18.9v-125h36.4v147.8zm68.512-81.525c0-26-.8-47-1.7-66.7h32.7l1.7 34.8h.8c7.1-12.5 17.5-22.8 30.1-29.7 12.5-7 26.7-10.3 41-9.8 48.3 0 84.7 41.7 84.7 103.3 0 73.1-43.7 109.2-91 109.2-12.1.5-24.2-2.2-35-7.8s-19.9-13.9-26.6-24.2h-.8v110.5h-36v-220zm36 54.2c.1 5.1.6 10.1 1.7 15.1 3 12.3 9.9 23.3 19.8 31.1s22.1 12.1 34.7 12.1c38.5 0 60.7-31.9 60.7-78.5 0-40.7-21.1-75.6-59.5-75.6-12.9.4-25.3 5.1-35.3 13.4-9.9 8.3-16.9 19.7-19.6 32.4-1.5 4.9-2.3 10-2.5 15.1zm217.572-120.485 43.7 120.1c4.5 13.4 9.5 29.4 12.8 41.7h.8c3.7-12.2 7.9-27.7 12.8-42.4l39.7-119.2h38.5l-54.4 144.8c-26 69.7-43.7 105.4-68.6 127.2-12.5 11.7-27.9 20-44.6 23.9l-9.1-31.1c11.7-3.9 22.5-10.1 31.8-18.1 13.2-11.1 23.7-25.2 30.6-41.2 1.5-2.8 2.5-5.7 2.9-8.8-.3-3.3-1.2-6.6-2.5-9.7l-73.8-187.1h39.7zM890.649 64.65v58.3h52v28.2h-52v109.5c0 25 7 39.5 27.3 39.5 7.1.1 14.2-.7 21.1-2.5l1.7 27.7c-10.3 3.7-21.3 5.4-32.2 5-7.3.4-14.6-.7-21.3-3.4-6.8-2.7-12.9-6.8-17.9-12.1-10.3-10.9-14.1-29-14.1-52.9v-110.8h-31v-28.2h31v-48.7zm119.111 166.711c.8 50 32.2 70.6 68.6 70.6 19 .6 37.9-3 55.3-10.5l6.2 26.4c-20.9 8.9-43.5 13.1-66.2 12.6-61.5 0-98.3-41.2-98.3-102.5 0-61.4 35.5-109.6 93.7-109.6 65.2 0 82.7 58.3 82.7 95.7-.1 5.8-.5 11.5-1.2 17.2h-140.8zm106.6-26.4c.4-23.5-9.5-60.1-50.4-60.1-36.8 0-52.8 34.4-55.7 60.1zm88.317-18.505c0-23.9-.4-44.5-1.7-63.4h31.8l1.2 39.9h1.7c9.1-27.3 31-44.5 55.3-44.5 3.5-.1 7 .4 10.3 1.2v34.8c-4.1-.9-8.2-1.3-12.4-1.2-25.6 0-43.7 19.7-48.7 47.4-1 5.7-1.6 11.5-1.7 17.2v108.3h-36v-139.7z" class="jp-icon2"/>
  <path fill="#F37726" d="M1352.3 326.2h37V28h-37zm252.5 0c-2.5-13.9-3.4-31.1-3.4-48.7v-76c0-40.7-15.1-83.1-77.3-83.1-25.6 0-50 7.1-66.8 18.1l8.4 24.4c14.3-9.2 34-15.1 53-15.1 41.6 0 46.2 30.2 46.2 47v4.2c-78.6-.4-122.3 26.5-122.3 75.6 0 29.4 21 58.4 62.2 58.4 29 0 50.9-14.3 62.2-30.2h1.3l2.9 25.6h33.6zm-39.1-68.5c0 3.8-.8 8-2.1 11.8-5.9 17.2-22.7 34-49.2 34-18.9 0-34.9-11.3-34.9-35.3 0-39.5 45.8-46.6 86.2-45.8zm132.8 68.5 1.7-33.6h1.3c15.1 26.9 38.7 38.2 68.1 38.2 45.4 0 91.2-36.1 91.2-108.8.4-61.7-35.3-103.7-85.7-103.7-32.8 0-56.3 14.7-69.3 37.4h-.8V28h-36.6v245.7c0 18.1-.8 38.6-1.7 52.5zm6.3-118c0-5.9 1.3-10.9 2.1-15.1 7.6-28.1 31.1-45.4 56.3-45.4 39.5 0 60.5 34.9 60.5 75.6 0 46.6-23.1 78.1-61.8 78.1-26.9 0-48.3-17.6-55.5-43.3-.8-4.2-1.7-8.8-1.7-13.4v-36.5z" class="jp-jupyter-icon-color"/>
</svg>
