<?xml version="1.0" encoding="utf-8"?>
<!-- Generator: Adobe Illustrator 19.2.1, SVG Export Plug-In . SVG Version: 6.00 Build 0)  -->
<svg version="1.1" id="Layer_1" xmlns="http://www.w3.org/2000/svg" xmlns:xlink="http://www.w3.org/1999/xlink" x="0px" y="0px"
	 viewBox="0 0 200 200" style="enable-background:new 0 0 200 200;" xml:space="preserve">
<style type="text/css">
	.st0{fill:#0288D1;}
	.st1{fill:none;stroke:#757575;stroke-width:6;stroke-miterlimit:10;}
	.st2{display:none;}
	.st3{display:inline;fill:none;stroke:#9E9E9E;stroke-width:0.25;stroke-miterlimit:10;}
	.st4{fill:#FFFFFF;}
</style>
<rect x="20" y="19.8" class="st0" width="160" height="159.9"/>
<g>
	<path class="st1" d="M169.7,30.3"/>
</g>
<g class="st2">
	<line class="st3" x1="100" y1="0" x2="100" y2="200"/>
	<path class="st3" d="M195.9,100"/>
	<path class="st3" d="M4,100"/>
	<line class="st3" x1="0" y1="200" x2="200" y2="0"/>
	<line class="st3" x1="100" y1="0" x2="200" y2="100"/>
	<line class="st3" x1="0" y1="100" x2="100" y2="199.9"/>
	<line class="st3" x1="200" y1="100" x2="100" y2="200"/>
	<line class="st3" x1="100" y1="0.1" x2="0" y2="100"/>
	<line class="st3" x1="130" y1="0" x2="130" y2="200"/>
	<line class="st3" x1="70" y1="0" x2="70" y2="200"/>
	<line class="st3" x1="30" y1="0" x2="30" y2="200"/>
	<line class="st3" x1="170" y1="0" x2="170" y2="200"/>
	<line class="st3" x1="200" y1="100" x2="0" y2="100"/>
	<line class="st3" x1="200" y1="130" x2="0" y2="130"/>
	<line class="st3" x1="200" y1="70" x2="0" y2="70"/>
	<line class="st3" x1="200" y1="30" x2="0" y2="30"/>
	<line class="st3" x1="200" y1="170" x2="0" y2="170"/>
	<line class="st3" x1="20" y1="0.1" x2="20" y2="200.1"/>
	<line class="st3" x1="180" y1="0" x2="180" y2="200"/>
	<line class="st3" x1="0" y1="180" x2="200" y2="180"/>
	<line class="st3" x1="0" y1="20" x2="200" y2="20"/>
	<line class="st3" x1="160" y1="0" x2="160" y2="200"/>
	<line class="st3" x1="100" y1="15" x2="185" y2="100"/>
	<line class="st3" x1="15" y1="100" x2="100" y2="185"/>
	<line class="st3" x1="185" y1="100" x2="100" y2="185"/>
	<line class="st3" x1="100" y1="15" x2="15" y2="100"/>
	<line class="st3" x1="0" y1="0" x2="200" y2="200"/>
	<line class="st3" x1="60" y1="0" x2="60" y2="200"/>
	<line class="st3" x1="140" y1="0" x2="140" y2="200"/>
	<line class="st3" x1="0" y1="140" x2="200" y2="140"/>
	<line class="st3" x1="0" y1="60" x2="200" y2="60"/>
	<line class="st3" x1="190" y1="200" x2="0" y2="10"/>
	<line class="st3" x1="10" y1="0" x2="200" y2="190"/>
	<path class="st3" d="M200,200"/>
	<path class="st3" d="M0,0"/>
	<line class="st3" x1="190" y1="200" x2="0" y2="10"/>
	<line class="st3" x1="10" y1="0" x2="200" y2="190"/>
	<line class="st3" x1="0" y1="190" x2="190" y2="0"/>
	<line class="st3" x1="200" y1="10" x2="10" y2="200"/>
	<line class="st3" x1="40" y1="0" x2="40" y2="200"/>
	<line class="st3" x1="200" y1="160" x2="0" y2="160"/>
	<line class="st3" x1="200" y1="40" x2="0" y2="40"/>
	
		<rect x="71.7" y="71.7" transform="matrix(0.7071 -0.7071 0.7071 0.7071 -41.4167 100.0406)" class="st3" width="56.7" height="56.7"/>
	<line class="st3" x1="0" y1="150" x2="200" y2="150"/>
	<line class="st3" x1="150" y1="200" x2="150" y2="0"/>
	<line class="st3" x1="50" y1="200" x2="50" y2="0"/>
	<line class="st3" x1="200" y1="50" x2="0" y2="50"/>
	<line class="st3" x1="110" y1="0" x2="110" y2="200"/>
	<line class="st3" x1="120" y1="0" x2="120" y2="200"/>
	<line class="st3" x1="80" y1="200" x2="80" y2="0"/>
	<line class="st3" x1="90" y1="200" x2="90" y2="0"/>
	<line class="st3" x1="0" y1="70" x2="200" y2="70"/>
	<line class="st3" x1="0" y1="130" x2="200" y2="130"/>
	<line class="st3" x1="0" y1="90" x2="200" y2="90"/>
	<line class="st3" x1="0" y1="80" x2="200" y2="80"/>
	<line class="st3" x1="200" y1="120" x2="0" y2="120"/>
	<line class="st3" x1="200" y1="110" x2="0" y2="110"/>
	<line class="st3" x1="10" y1="0.1" x2="10" y2="200.1"/>
	<line class="st3" x1="190" y1="0.1" x2="190" y2="200.1"/>
	<line class="st3" x1="0" y1="10" x2="200" y2="10"/>
	<line class="st3" x1="0" y1="190" x2="200" y2="190"/>
</g>
<g>
	<rect x="105" y="127.3" class="st4" width="40" height="12.8"/>
</g>
<polygon class="st4" points="51.1,77 74,99.9 50.7,123.2 61.2,133.7 84.5,110.4 95,99.9 84.5,89.4 61.6,66.5 "/>
</svg>
