<?xml version="1.0" encoding="utf-8"?>
<!-- Generator: Adobe Illustrator 19.2.1, SVG Export Plug-In . SVG Version: 6.00 Build 0)  -->
<svg version="1.1" id="Layer_1" xmlns="http://www.w3.org/2000/svg" xmlns:xlink="http://www.w3.org/1999/xlink" x="0px" y="0px"
	 viewBox="0 0 22 22" style="enable-background:new 0 0 22 22;" xml:space="preserve">
<style type="text/css">
	.st0{fill:#E0E0E0;}
	.st1{display:none;}
	.st2{display:inline;fill:none;stroke:#9E9E9E;stroke-width:2.000000e-02;stroke-miterlimit:10;}
</style>
<g>
	<g>
		<path class="st0" d="M9.3,3.7l1.5,1.5c0.5,0.5,1.1,0.7,1.8,0.7h5.8l-0.1,12.4H3.6V3.7H9.3 M9.5,2.2H3.3c-0.6,0-1.1,0.5-1.1,1.1
			v15.4c0,0.6,0.5,1.1,1.1,1.1h15.4c0.6,0,1.1-0.5,1.1-1.1l0.1-13.2c0-0.6-0.5-1.1-1.1-1.1h-6.2c-0.3,0-0.6-0.1-0.8-0.3l-1.6-1.6
			C10,2.3,9.7,2.2,9.5,2.2L9.5,2.2z"/>
	</g>
</g>
<g id="grid" class="st1">
	<line class="st2" x1="11" y1="0" x2="11" y2="22"/>
	<path class="st2" d="M21.5,11"/>
	<path class="st2" d="M0.4,11"/>
	<line class="st2" x1="0" y1="22" x2="22" y2="0"/>
	<line class="st2" x1="11" y1="0" x2="22" y2="11"/>
	<line class="st2" x1="0" y1="11" x2="11" y2="22"/>
	<line class="st2" x1="22" y1="11" x2="11" y2="22"/>
	<line class="st2" x1="11" y1="0" x2="0" y2="11"/>
	<line class="st2" x1="14.3" y1="0" x2="14.3" y2="22"/>
	<line class="st2" x1="7.7" y1="0" x2="7.7" y2="22"/>
	<line class="st2" x1="3.3" y1="0" x2="3.3" y2="22"/>
	<line class="st2" x1="18.7" y1="0" x2="18.7" y2="22"/>
	<line class="st2" x1="22" y1="11" x2="0" y2="11"/>
	<line class="st2" x1="22" y1="14.3" x2="0" y2="14.3"/>
	<line class="st2" x1="22" y1="7.7" x2="0" y2="7.7"/>
	<line class="st2" x1="22" y1="3.3" x2="0" y2="3.3"/>
	<line class="st2" x1="22" y1="18.7" x2="0" y2="18.7"/>
	<line class="st2" x1="2.2" y1="0" x2="2.2" y2="22"/>
	<line class="st2" x1="19.8" y1="0" x2="19.8" y2="22"/>
	<line class="st2" x1="0" y1="19.8" x2="22" y2="19.8"/>
	<line class="st2" x1="0" y1="2.2" x2="22" y2="2.2"/>
	<line class="st2" x1="17.6" y1="0" x2="17.6" y2="22"/>
	<line class="st2" x1="11" y1="1.6" x2="20.3" y2="11"/>
	<line class="st2" x1="1.6" y1="11" x2="11" y2="20.3"/>
	<line class="st2" x1="20.3" y1="11" x2="11" y2="20.3"/>
	<line class="st2" x1="11" y1="1.6" x2="1.6" y2="11"/>
	<line class="st2" x1="0" y1="0" x2="22" y2="22"/>
	<line class="st2" x1="6.6" y1="0" x2="6.6" y2="22"/>
	<line class="st2" x1="15.4" y1="0" x2="15.4" y2="22"/>
	<line class="st2" x1="0" y1="15.4" x2="22" y2="15.4"/>
	<line class="st2" x1="0" y1="6.6" x2="22" y2="6.6"/>
	<line class="st2" x1="20.9" y1="22" x2="0" y2="1.1"/>
	<line class="st2" x1="1.1" y1="0" x2="22" y2="20.9"/>
	<path class="st2" d="M22,22"/>
	<path class="st2" d="M0,0"/>
	<line class="st2" x1="20.9" y1="22" x2="0" y2="1.1"/>
	<line class="st2" x1="1.1" y1="0" x2="22" y2="20.9"/>
	<line class="st2" x1="0" y1="20.9" x2="20.9" y2="0"/>
	<line class="st2" x1="22" y1="1.1" x2="1.1" y2="22"/>
	<line class="st2" x1="4.4" y1="0" x2="4.4" y2="22"/>
	<line class="st2" x1="22" y1="17.6" x2="0" y2="17.6"/>
	<line class="st2" x1="22" y1="4.4" x2="0" y2="4.4"/>
	<rect x="7.9" y="7.9" transform="matrix(0.7071 -0.7071 0.7071 0.7071 -4.5558 11.0001)" class="st2" width="6.2" height="6.2"/>
	<line class="st2" x1="0" y1="16.5" x2="22" y2="16.5"/>
	<line class="st2" x1="16.5" y1="22" x2="16.5" y2="0"/>
	<line class="st2" x1="5.5" y1="22" x2="5.5" y2="0"/>
	<line class="st2" x1="22" y1="5.5" x2="0" y2="5.5"/>
	<line class="st2" x1="12.1" y1="0" x2="12.1" y2="22"/>
	<line class="st2" x1="13.2" y1="0" x2="13.2" y2="22"/>
	<line class="st2" x1="8.8" y1="22" x2="8.8" y2="0"/>
	<line class="st2" x1="9.9" y1="22" x2="9.9" y2="0"/>
	<line class="st2" x1="0" y1="7.7" x2="22" y2="7.7"/>
	<line class="st2" x1="0" y1="14.3" x2="22" y2="14.3"/>
	<line class="st2" x1="0" y1="9.9" x2="22" y2="9.9"/>
	<line class="st2" x1="0" y1="8.8" x2="22" y2="8.8"/>
	<line class="st2" x1="22" y1="13.2" x2="0" y2="13.2"/>
	<line class="st2" x1="22" y1="12.1" x2="0" y2="12.1"/>
	<line class="st2" x1="1.1" y1="0" x2="1.1" y2="22"/>
	<line class="st2" x1="20.9" y1="0" x2="20.9" y2="22"/>
	<line class="st2" x1="0" y1="1.1" x2="22" y2="1.1"/>
	<line class="st2" x1="0" y1="20.9" x2="22" y2="20.9"/>
</g>
<g>
	<path class="st0" d="M3.2,2.2h6.3c0.3,0,0.5,0.1,0.7,0.3l1.6,1.6c0.2,0.2,0.4,0.3,0.7,0.3h6.3c0.6,0,1,0.4,1,1v1.3c0,0.6-0.5,1-1,1
		H3.2c-0.6,0-1-0.5-1-1V3.2C2.2,2.7,2.7,2.2,3.2,2.2z"/>
</g>
</svg>
