<?xml version="1.0" encoding="UTF-8" standalone="no"?>
<!-- Generator: Adobe Illustrator 21.0.0, SVG Export Plug-In . SVG Version: 6.00 Build 0)  -->

<svg
   xmlns:dc="http://purl.org/dc/elements/1.1/"
   xmlns:cc="http://creativecommons.org/ns#"
   xmlns:rdf="http://www.w3.org/1999/02/22-rdf-syntax-ns#"
   xmlns:svg="http://www.w3.org/2000/svg"
   xmlns="http://www.w3.org/2000/svg"
   xmlns:sodipodi="http://sodipodi.sourceforge.net/DTD/sodipodi-0.dtd"
   xmlns:inkscape="http://www.inkscape.org/namespaces/inkscape"
   version="1.1"
   id="Layer_1"
   x="0px"
   y="0px"
   viewBox="0 0 22 22"
   style="enable-background:new 0 0 22 22;"
   xml:space="preserve"
   sodipodi:docname="launcher.svg"
   inkscape:version="0.92.4 (5da689c313, 2019-01-14)"><metadata
   id="metadata151"><rdf:RDF><cc:Work
       rdf:about=""><dc:format>image/svg+xml</dc:format><dc:type
         rdf:resource="http://purl.org/dc/dcmitype/StillImage" /></cc:Work></rdf:RDF></metadata><defs
   id="defs149" /><sodipodi:namedview
   pagecolor="#ffffff"
   bordercolor="#666666"
   borderopacity="1"
   objecttolerance="10"
   gridtolerance="10"
   guidetolerance="10"
   inkscape:pageopacity="0"
   inkscape:pageshadow="2"
   inkscape:window-width="640"
   inkscape:window-height="480"
   id="namedview147"
   showgrid="false"
   inkscape:zoom="10.727273"
   inkscape:cx="11"
   inkscape:cy="11"
   inkscape:window-x="0"
   inkscape:window-y="0"
   inkscape:window-maximized="0"
   inkscape:current-layer="Layer_1" />
<style
   type="text/css"
   id="style2">
	.st0{fill:#757575;}
	.st1{display:none;}
	.st2{display:inline;fill:none;stroke:#9E9E9E;stroke-width:2.000000e-02;stroke-miterlimit:10;}
	.st3{fill:#FFFFFF;}
</style>

<g
   class="st1"
   id="g128">
	<line
   class="st2"
   x1="11"
   y1="0"
   x2="11"
   y2="22"
   id="line6" />
	<path
   class="st2"
   d="M21.5,11"
   id="path8" />
	<path
   class="st2"
   d="M0.4,11"
   id="path10" />
	<line
   class="st2"
   x1="0"
   y1="22"
   x2="22"
   y2="0"
   id="line12" />
	<line
   class="st2"
   x1="11"
   y1="0"
   x2="22"
   y2="11"
   id="line14" />
	<line
   class="st2"
   x1="0"
   y1="11"
   x2="11"
   y2="22"
   id="line16" />
	<line
   class="st2"
   x1="22"
   y1="11"
   x2="11"
   y2="22"
   id="line18" />
	<line
   class="st2"
   x1="11"
   y1="0"
   x2="0"
   y2="11"
   id="line20" />
	<line
   class="st2"
   x1="14.3"
   y1="0"
   x2="14.3"
   y2="22"
   id="line22" />
	<line
   class="st2"
   x1="7.7"
   y1="0"
   x2="7.7"
   y2="22"
   id="line24" />
	<line
   class="st2"
   x1="3.3"
   y1="0"
   x2="3.3"
   y2="22"
   id="line26" />
	<line
   class="st2"
   x1="18.7"
   y1="0"
   x2="18.7"
   y2="22"
   id="line28" />
	<line
   class="st2"
   x1="22"
   y1="11"
   x2="0"
   y2="11"
   id="line30" />
	<line
   class="st2"
   x1="22"
   y1="14.3"
   x2="0"
   y2="14.3"
   id="line32" />
	<line
   class="st2"
   x1="22"
   y1="7.7"
   x2="0"
   y2="7.7"
   id="line34" />
	<line
   class="st2"
   x1="22"
   y1="3.3"
   x2="0"
   y2="3.3"
   id="line36" />
	<line
   class="st2"
   x1="22"
   y1="18.7"
   x2="0"
   y2="18.7"
   id="line38" />
	<line
   class="st2"
   x1="2.2"
   y1="0"
   x2="2.2"
   y2="22"
   id="line40" />
	<line
   class="st2"
   x1="19.8"
   y1="0"
   x2="19.8"
   y2="22"
   id="line42" />
	<line
   class="st2"
   x1="0"
   y1="19.8"
   x2="22"
   y2="19.8"
   id="line44" />
	<line
   class="st2"
   x1="0"
   y1="2.2"
   x2="22"
   y2="2.2"
   id="line46" />
	<line
   class="st2"
   x1="17.6"
   y1="0"
   x2="17.6"
   y2="22"
   id="line48" />
	<line
   class="st2"
   x1="11"
   y1="1.6"
   x2="20.3"
   y2="11"
   id="line50" />
	<line
   class="st2"
   x1="1.6"
   y1="11"
   x2="11"
   y2="20.3"
   id="line52" />
	<line
   class="st2"
   x1="20.3"
   y1="11"
   x2="11"
   y2="20.3"
   id="line54" />
	<line
   class="st2"
   x1="11"
   y1="1.6"
   x2="1.6"
   y2="11"
   id="line56" />
	<line
   class="st2"
   x1="0"
   y1="0"
   x2="22"
   y2="22"
   id="line58" />
	<line
   class="st2"
   x1="6.6"
   y1="0"
   x2="6.6"
   y2="22"
   id="line60" />
	<line
   class="st2"
   x1="15.4"
   y1="0"
   x2="15.4"
   y2="22"
   id="line62" />
	<line
   class="st2"
   x1="0"
   y1="15.4"
   x2="22"
   y2="15.4"
   id="line64" />
	<line
   class="st2"
   x1="0"
   y1="6.6"
   x2="22"
   y2="6.6"
   id="line66" />
	<line
   class="st2"
   x1="20.9"
   y1="22"
   x2="0"
   y2="1.1"
   id="line68" />
	<line
   class="st2"
   x1="1.1"
   y1="0"
   x2="22"
   y2="20.9"
   id="line70" />
	<path
   class="st2"
   d="M22,22"
   id="path72" />
	<path
   class="st2"
   d="M0,0"
   id="path74" />
	<line
   class="st2"
   x1="20.9"
   y1="22"
   x2="0"
   y2="1.1"
   id="line76" />
	<line
   class="st2"
   x1="1.1"
   y1="0"
   x2="22"
   y2="20.9"
   id="line78" />
	<line
   class="st2"
   x1="0"
   y1="20.9"
   x2="20.9"
   y2="0"
   id="line80" />
	<line
   class="st2"
   x1="22"
   y1="1.1"
   x2="1.1"
   y2="22"
   id="line82" />
	<line
   class="st2"
   x1="4.4"
   y1="0"
   x2="4.4"
   y2="22"
   id="line84" />
	<line
   class="st2"
   x1="22"
   y1="17.6"
   x2="0"
   y2="17.6"
   id="line86" />
	<line
   class="st2"
   x1="22"
   y1="4.4"
   x2="0"
   y2="4.4"
   id="line88" />
	<rect
   x="7.9"
   y="7.9"
   transform="matrix(0.7071 -0.7071 0.7071 0.7071 -4.5558 11.0001)"
   class="st2"
   width="6.2"
   height="6.2"
   id="rect90" />
	<line
   class="st2"
   x1="0"
   y1="16.5"
   x2="22"
   y2="16.5"
   id="line92" />
	<line
   class="st2"
   x1="16.5"
   y1="22"
   x2="16.5"
   y2="0"
   id="line94" />
	<line
   class="st2"
   x1="5.5"
   y1="22"
   x2="5.5"
   y2="0"
   id="line96" />
	<line
   class="st2"
   x1="22.1"
   y1="5.5"
   x2="0.1"
   y2="5.5"
   id="line98" />
	<line
   class="st2"
   x1="12.1"
   y1="0"
   x2="12.1"
   y2="22"
   id="line100" />
	<line
   class="st2"
   x1="13.2"
   y1="0"
   x2="13.2"
   y2="22"
   id="line102" />
	<line
   class="st2"
   x1="8.8"
   y1="22"
   x2="8.8"
   y2="0"
   id="line104" />
	<line
   class="st2"
   x1="9.9"
   y1="22"
   x2="9.9"
   y2="0"
   id="line106" />
	<line
   class="st2"
   x1="0"
   y1="7.7"
   x2="22"
   y2="7.7"
   id="line108" />
	<line
   class="st2"
   x1="0"
   y1="14.3"
   x2="22"
   y2="14.3"
   id="line110" />
	<line
   class="st2"
   x1="0"
   y1="9.9"
   x2="22"
   y2="9.9"
   id="line112" />
	<line
   class="st2"
   x1="0"
   y1="8.8"
   x2="22"
   y2="8.8"
   id="line114" />
	<line
   class="st2"
   x1="22"
   y1="13.2"
   x2="0"
   y2="13.2"
   id="line116" />
	<line
   class="st2"
   x1="22"
   y1="12.1"
   x2="0"
   y2="12.1"
   id="line118" />
	<line
   class="st2"
   x1="1.1"
   y1="0"
   x2="1.1"
   y2="22"
   id="line120" />
	<line
   class="st2"
   x1="20.9"
   y1="0"
   x2="20.9"
   y2="22"
   id="line122" />
	<line
   class="st2"
   x1="0"
   y1="1.1"
   x2="22"
   y2="1.1"
   id="line124" />
	<line
   class="st2"
   x1="0"
   y1="20.9"
   x2="22"
   y2="20.9"
   id="line126" />
</g>
<polygon
   class="st3"
   points="15.4,11.1 15.4,14.3 17.6,14.3 "
   id="polygon130" />
<polygon
   class="st3"
   points="6.6,11 6.6,14.3 4.4,14.3 "
   id="polygon132" />
<path
   class="st3"
   d="M11,3.3c4.3,5.6,3.2,11,3.2,11H7.8C7.8,14.3,6.7,8.9,11,3.3"
   id="path134" />

<path
   class="st3"
   d="M11,18.7c0,0-2.7-3.3,0-3.3S11,18.7,11,18.7z"
   id="path138" />
<line
   class="st0"
   x1="18.7"
   y1="14.3"
   x2="18.7"
   y2="17.6"
   id="line140" />
<polygon
   class="st3"
   points="17.6,16.5 17.6,14.3 15.4,14.3 "
   id="polygon142" />
<polygon
   class="st3"
   points="4.4,16.5 6.6,14.3 4.4,14.3 "
   id="polygon144" />
</svg>