<svg width="200" height="200" viewBox="0 0 200 200" fill="none" xmlns="http://www.w3.org/2000/svg">
<g clip-path="url(#clip0)">
<path d="M180 20H20V180H180V20Z" fill="#e0e0e0"/>
<path d="M150 127.2H110V140H150V127.2Z" fill="#424242"/>
<path d="M68.9 145.4V134.8C61.4 134.5 54.2 132.5 50 130L53.3 117C58 119.6 64.5 121.9 71.8 121.9C78.1 121.9 82.5 119.5 82.5 115C82.5 110.8 78.9 108.1 70.7 105.3C58.8 101.3 50.7 95.7 50.7 84.9C50.7 75.1 57.6 67.4 69.5 65.1V54.6H80.4V64.4C87.9 64.7 92.9 66.3 96.5 68.1L93.3 80.7C90.4 79.5 85.3 76.9 77.3 76.9C70.1 76.9 67.7 80 67.7 83.1C67.7 86.8 71.6 89.1 81.1 92.7C94.3 97.4 99.7 103.5 99.7 113.5C99.7 123.4 92.7 131.9 79.9 134.1V145.5L68.9 145.4Z" fill="#424242"/>
</g>
<defs>
<clipPath id="clip0">
<rect width="200" height="200" fill="#e0e0e0"/>
</clipPath>
</defs>
</svg>
