<?xml version="1.0" encoding="UTF-8" standalone="no"?>
<svg width="740px" height="153px" viewBox="0 0 740 153" version="1.1" xmlns="http://www.w3.org/2000/svg" xmlns:xlink="http://www.w3.org/1999/xlink">
    <!-- Generator: Sketch 3.7.1 (28215) - http://www.bohemiancoding.com/sketch -->
    <title>Group</title>
    <desc>Created with Sketch.</desc>
    <defs></defs>
    <g id="Page-1" stroke="none" stroke-width="1" fill="none" fill-rule="evenodd">
        <g id="Group">
            <path d="M21.612141,102.552661 C21.612141,121.752661 20.112141,128.052661 16.112141,132.652661 C12.612141,136.452661 6.812141,138.252661 0.212141,138.752661 L1.712141,150.152661 C9.512141,150.152661 20.012141,147.552661 26.512141,141.052661 C33.612141,133.752661 36.112141,123.652661 36.112141,108.152661 L36.112141,35.552661 L21.612141,35.552661 L21.612141,102.552661 L21.612141,102.552661 Z" id="Fill-1" fill="#404041"></path>
            <path d="M130.212141,93.752661 C130.212141,102.052661 130.412141,109.252661 130.912141,115.552661 L118.012141,115.552661 L117.212141,102.452661 L116.912141,102.452661 C113.112141,108.852661 104.712141,117.352661 90.512141,117.352661 C77.912141,117.352661 62.912141,110.452661 62.912141,82.352661 L62.912141,35.552661 L77.412141,35.552661 L77.412141,79.852661 C77.412141,95.052661 82.012141,105.352661 95.312141,105.352661 C105.112141,105.352661 111.812141,98.552661 114.512141,92.152661 C115.312141,90.052661 115.812141,87.352661 115.812141,84.752661 L115.812141,35.552661 L130.312141,35.552661 L130.312141,93.752661 L130.212141,93.752661 Z" id="Fill-3" fill="#404041"></path>
            <path d="M172.012141,83.052661 C172.012141,85.152661 172.312141,87.152661 172.712141,89.052661 C175.312141,99.152661 184.112141,106.052661 194.512141,106.052661 C209.912141,106.052661 218.812141,93.452661 218.812141,75.152661 C218.812141,59.152661 210.412141,45.352661 195.012141,45.352661 C185.112141,45.352661 175.812141,52.452661 173.012141,63.352661 C172.512141,65.152661 172.012141,67.352661 172.012141,69.352661 L172.012141,83.052661 L172.012141,83.052661 Z M157.612141,61.752661 C157.612141,51.552661 157.312141,43.252661 156.912141,35.652661 L170.012141,35.652661 L170.712141,49.352661 L171.012141,49.352661 C177.012141,39.552661 186.412141,33.852661 199.412141,33.852661 C218.712141,33.852661 233.312141,50.252661 233.312141,74.552661 C233.312141,103.352661 215.812141,117.552661 196.912141,117.552661 C186.312141,117.552661 177.112141,112.952661 172.312141,104.952661 L172.012141,104.952661 L172.012141,148.452661 L157.612141,148.452661 L157.612141,61.752661 L157.612141,61.752661 Z" id="Fill-5" fill="#404041"></path>
            <path d="M259.087324,35.620872 L276.687324,82.920872 C278.487324,88.220872 280.487324,94.520872 281.787324,99.320872 L282.087324,99.320872 C283.587324,94.520872 285.187324,88.420872 287.187324,82.620872 L303.087324,35.620872 L318.487324,35.620872 L296.687324,92.620872 C286.287324,120.020872 279.187324,134.120872 269.287324,142.720872 C262.187324,149.020872 255.087324,151.520872 251.387324,152.120872 L247.687324,139.920872 C251.287324,138.720872 256.087324,136.420872 260.387324,132.820872 C264.387324,129.720872 269.287324,124.020872 272.587324,116.620872 C273.287324,115.120872 273.787324,114.020872 273.787324,113.120872 C273.787324,112.320872 273.487324,111.120872 272.787324,109.320872 L243.287324,35.620872 L259.087324,35.620872 L259.087324,35.620872 Z" id="Fill-7" fill="#404041"></path>
            <path d="M356.712141,12.652661 L356.712141,35.652661 L377.512141,35.652661 L377.512141,46.652661 L356.712141,46.652661 L356.712141,89.752661 C356.712141,99.652661 359.512141,105.252661 367.612141,105.252661 C371.412141,105.252661 374.212141,104.752661 376.012141,104.252661 L376.712141,115.152661 C373.912141,116.352661 369.412141,117.152661 363.812141,117.152661 C357.012141,117.152661 351.612141,115.052661 348.112141,111.052661 C344.012141,106.752661 342.512141,99.652661 342.512141,90.252661 L342.512141,46.652661 L330.112141,46.652661 L330.112141,35.552661 L342.512141,35.552661 L342.512141,16.452661 L356.712141,12.652661 L356.712141,12.652661 Z" id="Fill-10" fill="#404041"></path>
            <path d="M447.012141,67.852661 C447.212141,58.552661 443.212141,44.252661 426.812141,44.252661 C412.112141,44.252661 405.612141,57.852661 404.512141,67.852661 L447.012141,67.852661 L447.012141,67.852661 Z M404.312141,78.252661 C404.612141,97.952661 417.212141,106.052661 431.712141,106.052661 C442.112141,106.052661 448.412141,104.252661 453.912141,101.952661 L456.412141,112.352661 C451.312141,114.652661 442.512141,117.352661 429.812141,117.352661 C405.212141,117.352661 390.512141,101.152661 390.512141,77.052661 C390.512141,52.952661 404.712141,33.952661 428.012141,33.952661 C454.112141,33.952661 461.112141,56.952661 461.112141,71.652661 C461.112141,74.652661 460.812141,76.952661 460.612141,78.452661 L404.312141,78.452661 L404.312141,78.252661 Z" id="Fill-12" fill="#404041"></path>
            <path d="M482.412141,60.552661 C482.412141,51.152661 482.212141,43.052661 481.712141,35.552661 L494.412141,35.552661 L494.912141,51.252661 L495.612141,51.252661 C499.212141,40.552661 508.012141,33.752661 517.812141,33.752661 C519.512141,33.752661 520.612141,33.952661 521.912141,34.252661 L521.912141,47.952661 C520.412141,47.652661 518.912141,47.452661 516.912141,47.452661 C506.712141,47.452661 499.412141,55.252661 497.412141,66.152661 C497.112141,68.152661 496.712141,70.452661 496.712141,72.952661 L496.712141,115.652661 L482.312141,115.652661 L482.312141,60.552661 L482.412141,60.552661 Z" id="Fill-14" fill="#404041"></path>
            <polygon id="Shape" fill="#F37A3C" points="548.6 2.5 562.9 2.5 562.9 117.8 548.6 117.8"></polygon>
            <path d="M630.4,116 L629.3,106.1 L628.8,106.1 C624.4,112.3 616,117.8 604.8,117.8 C588.9,117.8 580.8,106.6 580.8,95.2 C580.8,76.2 597.7,65.8 628,66 L628,64.4 C628,57.9 626.2,46.2 610.1,46.2 C602.8,46.2 595.2,48.5 589.6,52 L586.4,42.6 C592.9,38.4 602.3,35.6 612.2,35.6 C636.2,35.6 642.1,52 642.1,67.7 L642.1,97.1 C642.1,103.9 642.4,110.6 643.4,115.9 L630.4,115.9 L630.4,116 Z M628.3,75.9 C612.7,75.6 595,78.3 595,93.6 C595,102.9 601.2,107.2 608.5,107.2 C618.7,107.2 625.2,100.7 627.5,94.1 C628,92.6 628.3,91 628.3,89.6 L628.3,75.9 L628.3,75.9 Z" id="Shape" fill="#F37A3C"></path>
            <path d="M664.5,116 C664.8,110.6 665.1,102.7 665.1,95.7 L665.1,0.7 L679.2,0.7 L679.2,50.1 L679.5,50.1 C684.5,41.3 693.6,35.7 706.3,35.7 C725.8,35.7 739.6,51.9 739.4,75.8 C739.4,103.9 721.7,117.8 704.2,117.8 C692.8,117.8 683.7,113.4 677.9,103 L677.4,103 L676.8,116 L664.5,116 L664.5,116 Z M679.3,84.5 C679.3,86.3 679.6,88.1 679.9,89.7 C682.7,99.6 690.9,106.4 701.3,106.4 C716.2,106.4 725.2,94.2 725.2,76.2 C725.2,60.5 717.1,47 701.8,47 C692.1,47 683,53.7 680,64.5 C679.7,66.1 679.2,68.1 679.2,70.3 L679.2,84.5 L679.3,84.5 Z" id="Shape" fill="#F37A3C"></path>
        </g>
    </g>
</svg>