<svg xmlns="http://www.w3.org/2000/svg" xmlns:xlink="http://www.w3.org/1999/xlink" width="90" height="90" viewBox="0 0 19.932 19.932" style="zoom:1"><circle cy="10.154" fill="#F37726" r="5.809" cx="8.987"/><g transform="matrix(.3 0 0 .3 3 3)"><g style="mix-blend-mode:normal"><use xlink:href="#prefix__a" transform="translate(31.3 .31)" fill="#767677" style="mix-blend-mode:normal"/><use xlink:href="#prefix__b" transform="translate(1.8 42.81)" fill="#989798" style="mix-blend-mode:normal"/><use xlink:href="#prefix__c" transform="translate(.36 5.06)" fill="#6F7070" style="mix-blend-mode:normal"/></g><defs><path id="prefix__a" d="M5.894 2.844a2.993 2.993 0 01-.426 1.672A2.957 2.957 0 014.193 5.67a2.926 2.926 0 01-3.238-.505 2.997 2.997 0 01-.776-3.21C.379 1.4.737.92 1.208.574A2.932 2.932 0 014.94.783c.576.532.919 1.274.953 2.061z"/><path id="prefix__b" d="M7.428 3.583a3.772 3.772 0 01-.536 2.11 3.727 3.727 0 01-1.608 1.452 3.688 3.688 0 01-4.082-.638A3.754 3.754 0 01.105 4.632a3.778 3.778 0 01.122-2.173A3.744 3.744 0 011.526.72 3.696 3.696 0 016.23.988a3.76 3.76 0 011.198 2.595z"/><path id="prefix__c" d="M2.275 4.396a2.166 2.166 0 01-1.227-.318 2.193 2.193 0 01-.845-.951A2.216 2.216 0 01.575.71 2.163 2.163 0 012.931.134c.405.15.757.418 1.011.77a2.211 2.211 0 01-.156 2.783c-.39.43-.934.684-1.511.71z"/></defs></g><path d="M13.089 9.551v-.289h.227v-.326h-.34v-.374h-.34v-.806h.275v-.274h-.812l-.627-1.86v-.649h-.244l-1.179-3.639h-.038V1.17a.19.19 0 00.148-.188.188.188 0 00-.148-.188V0h-.084v.793c-.088.02-.152.096-.152.189s.063.17.151.188v.164h-.04L8.705 4.973h-.239v.648l-.634 1.86h-.808v.273h.275v.807h-.341v.373h-.341v.326h.229v.289h.112v2.072h-.342v.321h.229v.291h.112v7.699h6.021v-7.699h.111v-.291h.227v-.321h-.34v-2.07h.113M8.112 8.094c.162 0 .294.133.294.293 0 .021-.002.035-.004.055v.607h-.581v-.608a.296.296 0 01.291-.347M7.979 14v.483h-.462V14c-.004-.017-.004-.027-.004-.045a.234.234 0 01.468 0c.002.018 0 .029-.002.045m.597-3.537v.889h-.85v-.889a.433.433 0 11.85 0m.502-2.076c0-.16.132-.293.294-.293.165 0 .294.133.294.293 0 .021 0 .035-.003.055v.607h-.581v-.608c-.002-.019-.004-.035-.004-.054M10.234 14v.483h-.46V14a.168.168 0 01-.006-.045.233.233 0 01.468 0 .112.112 0 01-.002.045m.195-3.537v.889h-.85v-.889a.431.431 0 11.858-.076c-.001.025-.005.051-.008.076m.496-2.022v.607h-.58v-.607a.295.295 0 11.586-.055c0 .02-.004.036-.006.055m.971-.347c.164 0 .293.133.293.293l-.002.055v.607h-.578v-.608c-.006-.02-.006-.034-.006-.055 0-.159.131-.292.293-.292m-.471 2.293a.432.432 0 11.856.076v.889h-.85v-.889c-.002-.025-.006-.051-.006-.076M12.49 14v.483h-.459V14c-.006-.017-.006-.027-.006-.045a.234.234 0 01.468 0c.001.018-.001.029-.003.045" fill="#cabcac" stroke-width=".3" stroke="#404040"/></svg>
